<?xml version="1.0" encoding="UTF-8" standalone="no"?>
<!DOCTYPE svg PUBLIC "-//W3C//DTD SVG 1.1//EN"
 "http://www.w3.org/Graphics/SVG/1.1/DTD/svg11.dtd">
<!-- Generated by graphviz version 6.0.2 (20221011.1828)
 -->
<!-- Pages: 1 -->
<svg width="1796pt" height="908pt"
 viewBox="0.00 0.00 1795.99 908.00" xmlns="http://www.w3.org/2000/svg" xmlns:xlink="http://www.w3.org/1999/xlink">
<g id="graph0" class="graph" transform="scale(1 1) rotate(0) translate(4 904)">
<polygon fill="white" stroke="none" points="-4,4 -4,-904 1791.99,-904 1791.99,4 -4,4"/>
<!-- __to_main -->
<g id="node1" class="node">
<title>__to_main</title>
<ellipse fill="none" stroke="black" cx="885.79" cy="-882" rx="50.09" ry="18"/>
<text text-anchor="middle" x="885.79" y="-878.3" font-family="Times New Roman,serif" font-size="14.00">__to_main</text>
</g>
<!-- main -->
<g id="node2" class="node">
<title>main</title>
<ellipse fill="none" stroke="black" cx="885.79" cy="-774" rx="27.9" ry="18"/>
<text text-anchor="middle" x="885.79" y="-770.3" font-family="Times New Roman,serif" font-size="14.00">main</text>
</g>
<!-- __to_main&#45;&gt;main -->
<g id="edge1" class="edge">
<title>__to_main&#45;&gt;main</title>
<path fill="none" stroke="black" d="M885.79,-863.97C885.79,-847.38 885.79,-821.88 885.79,-802.43"/>
<polygon fill="black" stroke="black" points="889.29,-802.34 885.79,-792.34 882.29,-802.34 889.29,-802.34"/>
</g>
<!-- benchmark -->
<g id="node3" class="node">
<title>benchmark</title>
<ellipse fill="none" stroke="black" cx="689.79" cy="-666" rx="50.89" ry="18"/>
<text text-anchor="middle" x="689.79" y="-662.3" font-family="Times New Roman,serif" font-size="14.00">benchmark</text>
</g>
<!-- main&#45;&gt;benchmark -->
<g id="edge2" class="edge">
<title>main&#45;&gt;benchmark</title>
<path fill="none" stroke="black" d="M864.82,-761.66C831.56,-743.67 766.33,-708.39 725.58,-686.35"/>
<polygon fill="black" stroke="black" points="726.99,-683.14 716.53,-681.46 723.66,-689.29 726.99,-683.14"/>
</g>
<!-- puts -->
<g id="node4" class="node">
<title>puts</title>
<ellipse fill="none" stroke="black" cx="823.79" cy="-666" rx="27" ry="18"/>
<text text-anchor="middle" x="823.79" y="-662.3" font-family="Times New Roman,serif" font-size="14.00">puts</text>
</g>
<!-- main&#45;&gt;puts -->
<g id="edge3" class="edge">
<title>main&#45;&gt;puts</title>
<path fill="none" stroke="black" d="M876.38,-756.9C866.26,-739.6 850.05,-711.89 838.3,-691.8"/>
<polygon fill="black" stroke="black" points="841.17,-689.77 833.1,-682.9 835.12,-693.3 841.17,-689.77"/>
</g>
<!-- ck_uart_open -->
<g id="node5" class="node">
<title>ck_uart_open</title>
<ellipse fill="none" stroke="black" cx="947.79" cy="-666" rx="61.19" ry="18"/>
<text text-anchor="middle" x="947.79" y="-662.3" font-family="Times New Roman,serif" font-size="14.00">ck_uart_open</text>
</g>
<!-- main&#45;&gt;ck_uart_open -->
<g id="edge4" class="edge">
<title>main&#45;&gt;ck_uart_open</title>
<path fill="none" stroke="black" d="M895.21,-756.9C905.15,-739.9 920.98,-712.85 932.67,-692.85"/>
<polygon fill="black" stroke="black" points="935.85,-694.35 937.88,-683.95 929.81,-690.82 935.85,-694.35"/>
</g>
<!-- ck_uart_init -->
<g id="node6" class="node">
<title>ck_uart_init</title>
<ellipse fill="none" stroke="black" cx="1098.79" cy="-666" rx="53.89" ry="18"/>
<text text-anchor="middle" x="1098.79" y="-662.3" font-family="Times New Roman,serif" font-size="14.00">ck_uart_init</text>
</g>
<!-- main&#45;&gt;ck_uart_init -->
<g id="edge5" class="edge">
<title>main&#45;&gt;ck_uart_init</title>
<path fill="none" stroke="black" d="M907.39,-762.25C943.43,-744.32 1016.28,-708.06 1060.98,-685.82"/>
<polygon fill="black" stroke="black" points="1062.67,-688.88 1070.07,-681.3 1059.56,-682.62 1062.67,-688.88"/>
</g>
<!-- swi120 -->
<g id="node7" class="node">
<title>swi120</title>
<ellipse fill="none" stroke="black" cx="485.79" cy="-558" rx="36.29" ry="18"/>
<text text-anchor="middle" x="485.79" y="-554.3" font-family="Times New Roman,serif" font-size="14.00">swi120</text>
</g>
<!-- benchmark&#45;&gt;swi120 -->
<g id="edge6" class="edge">
<title>benchmark&#45;&gt;swi120</title>
<path fill="none" stroke="black" d="M662.28,-650.7C625.13,-631.4 558.99,-597.03 519.08,-576.29"/>
<polygon fill="black" stroke="black" points="520.5,-573.09 510.01,-571.58 517.27,-579.3 520.5,-573.09"/>
</g>
<!-- swi50 -->
<g id="node8" class="node">
<title>swi50</title>
<ellipse fill="none" stroke="black" cx="589.79" cy="-558" rx="31.7" ry="18"/>
<text text-anchor="middle" x="589.79" y="-554.3" font-family="Times New Roman,serif" font-size="14.00">swi50</text>
</g>
<!-- benchmark&#45;&gt;swi50 -->
<g id="edge7" class="edge">
<title>benchmark&#45;&gt;swi50</title>
<path fill="none" stroke="black" d="M674.17,-648.44C657.29,-630.55 630.29,-601.93 611.39,-581.89"/>
<polygon fill="black" stroke="black" points="613.74,-579.29 604.34,-574.41 608.65,-584.09 613.74,-579.29"/>
</g>
<!-- swi10 -->
<g id="node9" class="node">
<title>swi10</title>
<ellipse fill="none" stroke="black" cx="689.79" cy="-558" rx="31.7" ry="18"/>
<text text-anchor="middle" x="689.79" y="-554.3" font-family="Times New Roman,serif" font-size="14.00">swi10</text>
</g>
<!-- benchmark&#45;&gt;swi10 -->
<g id="edge8" class="edge">
<title>benchmark&#45;&gt;swi10</title>
<path fill="none" stroke="black" d="M689.79,-647.97C689.79,-631.38 689.79,-605.88 689.79,-586.43"/>
<polygon fill="black" stroke="black" points="693.29,-586.34 689.79,-576.34 686.29,-586.34 693.29,-586.34"/>
</g>
<!-- printf -->
<g id="node10" class="node">
<title>printf</title>
<ellipse fill="none" stroke="black" cx="787.79" cy="-558" rx="30.59" ry="18"/>
<text text-anchor="middle" x="787.79" y="-554.3" font-family="Times New Roman,serif" font-size="14.00">printf</text>
</g>
<!-- benchmark&#45;&gt;printf -->
<g id="edge9" class="edge">
<title>benchmark&#45;&gt;printf</title>
<path fill="none" stroke="black" d="M705.11,-648.44C721.74,-630.45 748.41,-601.6 766.95,-581.55"/>
<polygon fill="black" stroke="black" points="769.64,-583.79 773.86,-574.07 764.5,-579.04 769.64,-583.79"/>
</g>
<!-- fputc -->
<g id="node35" class="node">
<title>fputc</title>
<ellipse fill="none" stroke="black" cx="906.79" cy="-558" rx="29.8" ry="18"/>
<text text-anchor="middle" x="906.79" y="-554.3" font-family="Times New Roman,serif" font-size="14.00">fputc</text>
</g>
<!-- puts&#45;&gt;fputc -->
<g id="edge50" class="edge">
<title>puts&#45;&gt;fputc</title>
<path fill="none" stroke="black" d="M835.69,-649.81C849.48,-632.2 872.36,-602.97 888.44,-582.44"/>
<polygon fill="black" stroke="black" points="891.25,-584.54 894.65,-574.5 885.73,-580.22 891.25,-584.54"/>
</g>
<!-- ck_uart_set_parity -->
<g id="node37" class="node">
<title>ck_uart_set_parity</title>
<ellipse fill="none" stroke="black" cx="1076.79" cy="-558" rx="78.79" ry="18"/>
<text text-anchor="middle" x="1076.79" y="-554.3" font-family="Times New Roman,serif" font-size="14.00">ck_uart_set_parity</text>
</g>
<!-- ck_uart_init&#45;&gt;ck_uart_set_parity -->
<g id="edge52" class="edge">
<title>ck_uart_init&#45;&gt;ck_uart_set_parity</title>
<path fill="none" stroke="black" d="M1095.26,-647.97C1091.78,-631.2 1086.41,-605.34 1082.36,-585.81"/>
<polygon fill="black" stroke="black" points="1085.78,-585.07 1080.32,-575.99 1078.93,-586.49 1085.78,-585.07"/>
</g>
<!-- ck_uart_set_wordsize -->
<g id="node38" class="node">
<title>ck_uart_set_wordsize</title>
<ellipse fill="none" stroke="black" cx="1282.79" cy="-558" rx="90.98" ry="18"/>
<text text-anchor="middle" x="1282.79" y="-554.3" font-family="Times New Roman,serif" font-size="14.00">ck_uart_set_wordsize</text>
</g>
<!-- ck_uart_init&#45;&gt;ck_uart_set_wordsize -->
<g id="edge53" class="edge">
<title>ck_uart_init&#45;&gt;ck_uart_set_wordsize</title>
<path fill="none" stroke="black" d="M1124.77,-650.04C1156.36,-631.83 1209.92,-600.98 1245.82,-580.3"/>
<polygon fill="black" stroke="black" points="1247.62,-583.3 1254.54,-575.28 1244.13,-577.24 1247.62,-583.3"/>
</g>
<!-- _vsnprintf -->
<g id="node11" class="node">
<title>_vsnprintf</title>
<ellipse fill="none" stroke="black" cx="777.79" cy="-450" rx="48.19" ry="18"/>
<text text-anchor="middle" x="777.79" y="-446.3" font-family="Times New Roman,serif" font-size="14.00">_vsnprintf</text>
</g>
<!-- printf&#45;&gt;_vsnprintf -->
<g id="edge10" class="edge">
<title>printf&#45;&gt;_vsnprintf</title>
<path fill="none" stroke="black" d="M786.19,-539.97C784.62,-523.38 782.22,-497.88 780.38,-478.43"/>
<polygon fill="black" stroke="black" points="783.85,-477.97 779.43,-468.34 776.89,-478.63 783.85,-477.97"/>
</g>
<!-- _ntoa_long -->
<g id="node12" class="node">
<title>_ntoa_long</title>
<ellipse fill="none" stroke="black" cx="317.79" cy="-234" rx="51.99" ry="18"/>
<text text-anchor="middle" x="317.79" y="-230.3" font-family="Times New Roman,serif" font-size="14.00">_ntoa_long</text>
</g>
<!-- _vsnprintf&#45;&gt;_ntoa_long -->
<g id="edge11" class="edge">
<title>_vsnprintf&#45;&gt;_ntoa_long</title>
<path fill="none" stroke="black" d="M736.11,-440.93C678.05,-428.67 570.54,-402.2 486.79,-360 431.15,-331.96 374.55,-285.72 343.03,-258.03"/>
<polygon fill="black" stroke="black" points="345,-255.1 335.2,-251.07 340.35,-260.33 345,-255.1"/>
</g>
<!-- _ntoa_long_long -->
<g id="node13" class="node">
<title>_ntoa_long_long</title>
<ellipse fill="none" stroke="black" cx="576.79" cy="-342" rx="72.29" ry="18"/>
<text text-anchor="middle" x="576.79" y="-338.3" font-family="Times New Roman,serif" font-size="14.00">_ntoa_long_long</text>
</g>
<!-- _vsnprintf&#45;&gt;_ntoa_long_long -->
<g id="edge12" class="edge">
<title>_vsnprintf&#45;&gt;_ntoa_long_long</title>
<path fill="none" stroke="black" d="M751.1,-434.92C716.23,-416.53 654.93,-384.21 615.1,-363.2"/>
<polygon fill="black" stroke="black" points="616.69,-360.08 606.21,-358.51 613.42,-366.27 616.69,-360.08"/>
</g>
<!-- _etoa -->
<g id="node14" class="node">
<title>_etoa</title>
<ellipse fill="none" stroke="black" cx="1152.79" cy="-342" rx="30.59" ry="18"/>
<text text-anchor="middle" x="1152.79" y="-338.3" font-family="Times New Roman,serif" font-size="14.00">_etoa</text>
</g>
<!-- _vsnprintf&#45;&gt;_etoa -->
<g id="edge13" class="edge">
<title>_vsnprintf&#45;&gt;_etoa</title>
<path fill="none" stroke="black" d="M815.12,-438.45C886.99,-418.13 1043.79,-373.81 1115.57,-353.52"/>
<polygon fill="black" stroke="black" points="1116.86,-356.8 1125.53,-350.71 1114.95,-350.06 1116.86,-356.8"/>
</g>
<!-- _ftoa -->
<g id="node15" class="node">
<title>_ftoa</title>
<ellipse fill="none" stroke="black" cx="929.79" cy="-234" rx="29.8" ry="18"/>
<text text-anchor="middle" x="929.79" y="-230.3" font-family="Times New Roman,serif" font-size="14.00">_ftoa</text>
</g>
<!-- _vsnprintf&#45;&gt;_ftoa -->
<g id="edge14" class="edge">
<title>_vsnprintf&#45;&gt;_ftoa</title>
<path fill="none" stroke="black" d="M789.72,-432.21C816.5,-394.51 881.49,-303.01 912.62,-259.19"/>
<polygon fill="black" stroke="black" points="915.61,-261.02 918.54,-250.84 909.9,-256.97 915.61,-261.02"/>
</g>
<!-- _ntoa_format -->
<g id="node32" class="node">
<title>_ntoa_format</title>
<ellipse fill="none" stroke="black" cx="59.79" cy="-126" rx="59.59" ry="18"/>
<text text-anchor="middle" x="59.79" y="-122.3" font-family="Times New Roman,serif" font-size="14.00">_ntoa_format</text>
</g>
<!-- _ntoa_long&#45;&gt;_ntoa_format -->
<g id="edge44" class="edge">
<title>_ntoa_long&#45;&gt;_ntoa_format</title>
<path fill="none" stroke="black" d="M285.64,-219.79C239.57,-200.86 154.68,-165.98 103.12,-144.8"/>
<polygon fill="black" stroke="black" points="104.16,-141.45 93.58,-140.88 101.5,-147.92 104.16,-141.45"/>
</g>
<!-- _ntoa_long_long&#45;&gt;_ntoa_format -->
<g id="edge47" class="edge">
<title>_ntoa_long_long&#45;&gt;_ntoa_format</title>
<path fill="none" stroke="black" d="M556.82,-324.62C523.65,-298.19 454.29,-246.07 387.79,-216 339.27,-194.06 196.07,-158.8 115.85,-139.92"/>
<polygon fill="black" stroke="black" points="116.46,-136.47 105.92,-137.59 114.86,-143.28 116.46,-136.47"/>
</g>
<!-- __udivdi3 -->
<g id="node33" class="node">
<title>__udivdi3</title>
<ellipse fill="none" stroke="black" cx="526.79" cy="-234" rx="47.39" ry="18"/>
<text text-anchor="middle" x="526.79" y="-230.3" font-family="Times New Roman,serif" font-size="14.00">__udivdi3</text>
</g>
<!-- _ntoa_long_long&#45;&gt;__udivdi3 -->
<g id="edge48" class="edge">
<title>_ntoa_long_long&#45;&gt;__udivdi3</title>
<path fill="none" stroke="black" d="M568.76,-323.97C560.78,-307.05 548.43,-280.86 539.19,-261.28"/>
<polygon fill="black" stroke="black" points="542.24,-259.54 534.81,-251.99 535.91,-262.53 542.24,-259.54"/>
</g>
<!-- __umoddi3 -->
<g id="node34" class="node">
<title>__umoddi3</title>
<ellipse fill="none" stroke="black" cx="662.79" cy="-234" rx="52.79" ry="18"/>
<text text-anchor="middle" x="662.79" y="-230.3" font-family="Times New Roman,serif" font-size="14.00">__umoddi3</text>
</g>
<!-- _ntoa_long_long&#45;&gt;__umoddi3 -->
<g id="edge49" class="edge">
<title>_ntoa_long_long&#45;&gt;__umoddi3</title>
<path fill="none" stroke="black" d="M590.61,-323.97C604.74,-306.56 626.82,-279.34 642.84,-259.59"/>
<polygon fill="black" stroke="black" points="645.71,-261.61 649.3,-251.64 640.28,-257.2 645.71,-261.61"/>
</g>
<!-- _etoa&#45;&gt;_ntoa_long -->
<g id="edge28" class="edge">
<title>_etoa&#45;&gt;_ntoa_long</title>
<path fill="none" stroke="black" d="M1123.08,-337.23C1001.41,-321.78 539.98,-263.21 376.03,-242.39"/>
<polygon fill="black" stroke="black" points="376.03,-238.86 365.67,-241.08 375.15,-245.81 376.03,-238.86"/>
</g>
<!-- _etoa&#45;&gt;_ftoa -->
<g id="edge29" class="edge">
<title>_etoa&#45;&gt;_ftoa</title>
<path fill="none" stroke="black" d="M1129.77,-330.06C1089.77,-311.04 1007.38,-271.88 961.83,-250.23"/>
<polygon fill="black" stroke="black" points="963.23,-247.02 952.69,-245.89 960.22,-253.34 963.23,-247.02"/>
</g>
<!-- __eqdf2 -->
<g id="node19" class="node">
<title>__eqdf2</title>
<ellipse fill="none" stroke="black" cx="196.79" cy="-126" rx="41.69" ry="18"/>
<text text-anchor="middle" x="196.79" y="-122.3" font-family="Times New Roman,serif" font-size="14.00">__eqdf2</text>
</g>
<!-- _etoa&#45;&gt;__eqdf2 -->
<g id="edge33" class="edge">
<title>_etoa&#45;&gt;__eqdf2</title>
<path fill="none" stroke="black" d="M1123.48,-336.77C1061.04,-327.1 911.01,-300.42 793.79,-252 765.05,-240.13 763.06,-226.52 733.79,-216 532.04,-143.47 466.35,-189.31 256.79,-144 251.1,-142.77 245.15,-141.3 239.3,-139.76"/>
<polygon fill="black" stroke="black" points="240.19,-136.37 229.62,-137.11 238.34,-143.12 240.19,-136.37"/>
</g>
<!-- __gedf2 -->
<g id="node20" class="node">
<title>__gedf2</title>
<ellipse fill="none" stroke="black" cx="315.79" cy="-126" rx="40.89" ry="18"/>
<text text-anchor="middle" x="315.79" y="-122.3" font-family="Times New Roman,serif" font-size="14.00">__gedf2</text>
</g>
<!-- _etoa&#45;&gt;__gedf2 -->
<g id="edge34" class="edge">
<title>_etoa&#45;&gt;__gedf2</title>
<path fill="none" stroke="black" d="M1125.97,-333.09C1076.98,-318.44 969.98,-285.52 881.79,-252 844.21,-237.71 837.35,-227.43 798.79,-216 614.27,-161.31 559.14,-188.04 371.79,-144 367.1,-142.9 362.21,-141.62 357.38,-140.26"/>
<polygon fill="black" stroke="black" points="358.17,-136.85 347.59,-137.42 356.21,-143.57 358.17,-136.85"/>
</g>
<!-- __ledf2 -->
<g id="node21" class="node">
<title>__ledf2</title>
<ellipse fill="none" stroke="black" cx="1062.79" cy="-126" rx="38.19" ry="18"/>
<text text-anchor="middle" x="1062.79" y="-122.3" font-family="Times New Roman,serif" font-size="14.00">__ledf2</text>
</g>
<!-- _etoa&#45;&gt;__ledf2 -->
<g id="edge35" class="edge">
<title>_etoa&#45;&gt;__ledf2</title>
<path fill="none" stroke="black" d="M1145.73,-324.21C1130.09,-287.02 1092.44,-197.48 1073.73,-152.99"/>
<polygon fill="black" stroke="black" points="1076.93,-151.58 1069.82,-143.71 1070.47,-154.29 1076.93,-151.58"/>
</g>
<!-- __muldf3 -->
<g id="node22" class="node">
<title>__muldf3</title>
<ellipse fill="none" stroke="black" cx="1182.79" cy="-126" rx="46.29" ry="18"/>
<text text-anchor="middle" x="1182.79" y="-122.3" font-family="Times New Roman,serif" font-size="14.00">__muldf3</text>
</g>
<!-- _etoa&#45;&gt;__muldf3 -->
<g id="edge36" class="edge">
<title>_etoa&#45;&gt;__muldf3</title>
<path fill="none" stroke="black" d="M1155.2,-323.85C1160.39,-286.83 1172.68,-199.18 1178.96,-154.39"/>
<polygon fill="black" stroke="black" points="1182.46,-154.62 1180.38,-144.23 1175.52,-153.65 1182.46,-154.62"/>
</g>
<!-- __subdf3 -->
<g id="node23" class="node">
<title>__subdf3</title>
<ellipse fill="none" stroke="black" cx="1310.79" cy="-126" rx="46.29" ry="18"/>
<text text-anchor="middle" x="1310.79" y="-122.3" font-family="Times New Roman,serif" font-size="14.00">__subdf3</text>
</g>
<!-- _etoa&#45;&gt;__subdf3 -->
<g id="edge37" class="edge">
<title>_etoa&#45;&gt;__subdf3</title>
<path fill="none" stroke="black" d="M1164.41,-325.26C1191.61,-288.43 1259.57,-196.39 1292.43,-151.88"/>
<polygon fill="black" stroke="black" points="1295.39,-153.76 1298.51,-143.64 1289.75,-149.6 1295.39,-153.76"/>
</g>
<!-- __fixdfsi -->
<g id="node24" class="node">
<title>__fixdfsi</title>
<ellipse fill="none" stroke="black" cx="1436.79" cy="-126" rx="43.59" ry="18"/>
<text text-anchor="middle" x="1436.79" y="-122.3" font-family="Times New Roman,serif" font-size="14.00">__fixdfsi</text>
</g>
<!-- _etoa&#45;&gt;__fixdfsi -->
<g id="edge38" class="edge">
<title>_etoa&#45;&gt;__fixdfsi</title>
<path fill="none" stroke="black" d="M1170.99,-327.29C1219.18,-290.97 1350.39,-192.11 1408.47,-148.34"/>
<polygon fill="black" stroke="black" points="1410.62,-151.11 1416.5,-142.3 1406.4,-145.52 1410.62,-151.11"/>
</g>
<!-- __floatsidf -->
<g id="node26" class="node">
<title>__floatsidf</title>
<ellipse fill="none" stroke="black" cx="1566.79" cy="-126" rx="50.09" ry="18"/>
<text text-anchor="middle" x="1566.79" y="-122.3" font-family="Times New Roman,serif" font-size="14.00">__floatsidf</text>
</g>
<!-- _etoa&#45;&gt;__floatsidf -->
<g id="edge39" class="edge">
<title>_etoa&#45;&gt;__floatsidf</title>
<path fill="none" stroke="black" d="M1175.05,-329.49C1242.73,-294.51 1446.54,-189.16 1530.27,-145.88"/>
<polygon fill="black" stroke="black" points="1532.13,-148.86 1539.41,-141.16 1528.92,-142.64 1532.13,-148.86"/>
</g>
<!-- &lt;_ftoa&gt; * -->
<g id="node29" class="node">
<title>&lt;_ftoa&gt; *</title>
<ellipse fill="none" stroke="black" cx="1476.79" cy="-234" rx="47.39" ry="18"/>
<text text-anchor="middle" x="1476.79" y="-230.3" font-family="Times New Roman,serif" font-size="14.00">&lt;_ftoa&gt; *</text>
</g>
<!-- _etoa&#45;&gt;&lt;_ftoa&gt; * -->
<g id="edge30" class="edge">
<title>_etoa&#45;&gt;&lt;_ftoa&gt; *</title>
<path fill="none" stroke="black" d="M1178.76,-332.5C1234.01,-314.43 1363.74,-271.99 1432.39,-249.53"/>
<polygon fill="black" stroke="black" points="1433.65,-252.8 1442.06,-246.36 1431.47,-246.15 1433.65,-252.8"/>
</g>
<!-- __adddf3 -->
<g id="node30" class="node">
<title>__adddf3</title>
<ellipse fill="none" stroke="black" cx="1613.79" cy="-234" rx="46.29" ry="18"/>
<text text-anchor="middle" x="1613.79" y="-230.3" font-family="Times New Roman,serif" font-size="14.00">__adddf3</text>
</g>
<!-- _etoa&#45;&gt;__adddf3 -->
<g id="edge31" class="edge">
<title>_etoa&#45;&gt;__adddf3</title>
<path fill="none" stroke="black" d="M1181.12,-334.59C1245.32,-320.05 1406.83,-283.37 1541.79,-252 1549.45,-250.22 1557.55,-248.32 1565.46,-246.46"/>
<polygon fill="black" stroke="black" points="1566.39,-249.84 1575.32,-244.14 1564.78,-243.02 1566.39,-249.84"/>
</g>
<!-- __divdf3 -->
<g id="node31" class="node">
<title>__divdf3</title>
<ellipse fill="none" stroke="black" cx="1743.79" cy="-234" rx="44.39" ry="18"/>
<text text-anchor="middle" x="1743.79" y="-230.3" font-family="Times New Roman,serif" font-size="14.00">__divdf3</text>
</g>
<!-- _etoa&#45;&gt;__divdf3 -->
<g id="edge32" class="edge">
<title>_etoa&#45;&gt;__divdf3</title>
<path fill="none" stroke="black" d="M1182.27,-336.89C1262.34,-325.54 1490.41,-291.94 1677.79,-252 1684.48,-250.57 1691.51,-248.93 1698.39,-247.23"/>
<polygon fill="black" stroke="black" points="1699.46,-250.57 1708.3,-244.73 1697.75,-243.78 1699.46,-250.57"/>
</g>
<!-- &lt;_out_rev&gt; * -->
<g id="node16" class="node">
<title>&lt;_out_rev&gt; *</title>
<ellipse fill="none" stroke="black" cx="235.79" cy="-18" rx="61.19" ry="18"/>
<text text-anchor="middle" x="235.79" y="-14.3" font-family="Times New Roman,serif" font-size="14.00">&lt;_out_rev&gt; *</text>
</g>
<!-- _ftoa&#45;&gt;&lt;_out_rev&gt; * -->
<g id="edge15" class="edge">
<title>_ftoa&#45;&gt;&lt;_out_rev&gt; *</title>
<path fill="none" stroke="black" d="M904.15,-224.63C894.4,-221.64 883.15,-218.41 872.79,-216 686.64,-172.61 628.38,-209.44 448.79,-144 411.84,-130.53 318.44,-72.16 268.49,-40.17"/>
<polygon fill="black" stroke="black" points="270.29,-37.16 259.98,-34.7 266.51,-43.05 270.29,-37.16"/>
</g>
<!-- _out_rev -->
<g id="node17" class="node">
<title>_out_rev</title>
<ellipse fill="none" stroke="black" cx="510.79" cy="-126" rx="43.59" ry="18"/>
<text text-anchor="middle" x="510.79" y="-122.3" font-family="Times New Roman,serif" font-size="14.00">_out_rev</text>
</g>
<!-- _ftoa&#45;&gt;_out_rev -->
<g id="edge16" class="edge">
<title>_ftoa&#45;&gt;_out_rev</title>
<path fill="none" stroke="black" d="M903.77,-224.92C894.08,-221.99 882.97,-218.74 872.79,-216 740.38,-180.39 705.6,-178.13 572.79,-144 567.19,-142.56 561.3,-141 555.49,-139.44"/>
<polygon fill="black" stroke="black" points="556.39,-136.06 545.83,-136.82 554.56,-142.81 556.39,-136.06"/>
</g>
<!-- &lt;_etoa&gt; * -->
<g id="node18" class="node">
<title>&lt;_etoa&gt; *</title>
<ellipse fill="none" stroke="black" cx="638.79" cy="-126" rx="48.19" ry="18"/>
<text text-anchor="middle" x="638.79" y="-122.3" font-family="Times New Roman,serif" font-size="14.00">&lt;_etoa&gt; *</text>
</g>
<!-- _ftoa&#45;&gt;&lt;_etoa&gt; * -->
<g id="edge17" class="edge">
<title>_ftoa&#45;&gt;&lt;_etoa&gt; *</title>
<path fill="none" stroke="black" d="M904.73,-223.87C855,-205.76 743.35,-165.09 681.71,-142.63"/>
<polygon fill="black" stroke="black" points="682.86,-139.33 672.26,-139.19 680.46,-145.9 682.86,-139.33"/>
</g>
<!-- _ftoa&#45;&gt;__eqdf2 -->
<g id="edge18" class="edge">
<title>_ftoa&#45;&gt;__eqdf2</title>
<path fill="none" stroke="black" d="M900.79,-229.22C773.86,-212.68 272.92,-147.33 256.79,-144 251.09,-142.82 245.13,-141.39 239.28,-139.86"/>
<polygon fill="black" stroke="black" points="240.16,-136.47 229.59,-137.22 238.32,-143.22 240.16,-136.47"/>
</g>
<!-- _ftoa&#45;&gt;__gedf2 -->
<g id="edge19" class="edge">
<title>_ftoa&#45;&gt;__gedf2</title>
<path fill="none" stroke="black" d="M904.18,-224.51C894.43,-221.5 883.18,-218.3 872.79,-216 658.32,-168.49 599.28,-186.69 383.79,-144 375.99,-142.45 367.73,-140.59 359.77,-138.67"/>
<polygon fill="black" stroke="black" points="360.44,-135.23 349.89,-136.22 358.76,-142.02 360.44,-135.23"/>
</g>
<!-- _ftoa&#45;&gt;__ledf2 -->
<g id="edge20" class="edge">
<title>_ftoa&#45;&gt;__ledf2</title>
<path fill="none" stroke="black" d="M947.18,-219.14C969.8,-201.12 1009.55,-169.44 1036.03,-148.33"/>
<polygon fill="black" stroke="black" points="1038.48,-150.86 1044.12,-141.89 1034.12,-145.38 1038.48,-150.86"/>
</g>
<!-- _ftoa&#45;&gt;__muldf3 -->
<g id="edge21" class="edge">
<title>_ftoa&#45;&gt;__muldf3</title>
<path fill="none" stroke="black" d="M953.6,-223.03C997.02,-204.83 1089.53,-166.08 1142.79,-143.76"/>
<polygon fill="black" stroke="black" points="1144.38,-146.89 1152.25,-139.8 1141.68,-140.43 1144.38,-146.89"/>
</g>
<!-- _ftoa&#45;&gt;__subdf3 -->
<g id="edge22" class="edge">
<title>_ftoa&#45;&gt;__subdf3</title>
<path fill="none" stroke="black" d="M956.28,-225.63C1020.29,-207.82 1184.01,-162.27 1264.58,-139.86"/>
<polygon fill="black" stroke="black" points="1265.75,-143.16 1274.45,-137.11 1263.88,-136.42 1265.75,-143.16"/>
</g>
<!-- _ftoa&#45;&gt;__fixdfsi -->
<g id="edge23" class="edge">
<title>_ftoa&#45;&gt;__fixdfsi</title>
<path fill="none" stroke="black" d="M958.06,-228.06C1028.68,-215.56 1218.39,-181.03 1374.79,-144 1380.5,-142.65 1386.47,-141.14 1392.37,-139.59"/>
<polygon fill="black" stroke="black" points="1393.39,-142.93 1402.15,-136.96 1391.58,-136.17 1393.39,-142.93"/>
</g>
<!-- __fixunsdfsi -->
<g id="node25" class="node">
<title>__fixunsdfsi</title>
<ellipse fill="none" stroke="black" cx="778.79" cy="-126" rx="55.79" ry="18"/>
<text text-anchor="middle" x="778.79" y="-122.3" font-family="Times New Roman,serif" font-size="14.00">__fixunsdfsi</text>
</g>
<!-- _ftoa&#45;&gt;__fixunsdfsi -->
<g id="edge24" class="edge">
<title>_ftoa&#45;&gt;__fixunsdfsi</title>
<path fill="none" stroke="black" d="M910.98,-219.79C885.58,-201.96 840,-169.97 809.58,-148.61"/>
<polygon fill="black" stroke="black" points="811.24,-145.5 801.05,-142.62 807.22,-151.23 811.24,-145.5"/>
</g>
<!-- _ftoa&#45;&gt;__floatsidf -->
<g id="edge25" class="edge">
<title>_ftoa&#45;&gt;__floatsidf</title>
<path fill="none" stroke="black" d="M958.97,-229.38C1043.15,-218.73 1293.5,-185.63 1498.79,-144 1504.98,-142.75 1511.45,-141.3 1517.83,-139.8"/>
<polygon fill="black" stroke="black" points="1518.84,-143.16 1527.74,-137.4 1517.19,-136.35 1518.84,-143.16"/>
</g>
<!-- __floatunsidf -->
<g id="node27" class="node">
<title>__floatunsidf</title>
<ellipse fill="none" stroke="black" cx="929.79" cy="-126" rx="59.29" ry="18"/>
<text text-anchor="middle" x="929.79" y="-122.3" font-family="Times New Roman,serif" font-size="14.00">__floatunsidf</text>
</g>
<!-- _ftoa&#45;&gt;__floatunsidf -->
<g id="edge26" class="edge">
<title>_ftoa&#45;&gt;__floatunsidf</title>
<path fill="none" stroke="black" d="M929.79,-215.97C929.79,-199.38 929.79,-173.88 929.79,-154.43"/>
<polygon fill="black" stroke="black" points="933.29,-154.34 929.79,-144.34 926.29,-154.34 933.29,-154.34"/>
</g>
<!-- __clzsi2 -->
<g id="node28" class="node">
<title>__clzsi2</title>
<ellipse fill="none" stroke="black" cx="1438.79" cy="-18" rx="40.89" ry="18"/>
<text text-anchor="middle" x="1438.79" y="-14.3" font-family="Times New Roman,serif" font-size="14.00">__clzsi2</text>
</g>
<!-- __muldf3&#45;&gt;__clzsi2 -->
<g id="edge40" class="edge">
<title>__muldf3&#45;&gt;__clzsi2</title>
<path fill="none" stroke="black" d="M1213.17,-112.42C1259.95,-93.05 1349.57,-55.94 1400.66,-34.79"/>
<polygon fill="black" stroke="black" points="1402.13,-37.97 1410.03,-30.91 1399.46,-31.5 1402.13,-37.97"/>
</g>
<!-- __subdf3&#45;&gt;__clzsi2 -->
<g id="edge42" class="edge">
<title>__subdf3&#45;&gt;__clzsi2</title>
<path fill="none" stroke="black" d="M1329.68,-109.36C1351.55,-91.25 1387.71,-61.3 1412.37,-40.89"/>
<polygon fill="black" stroke="black" points="1414.78,-43.43 1420.25,-34.36 1410.31,-38.04 1414.78,-43.43"/>
</g>
<!-- __floatsidf&#45;&gt;__clzsi2 -->
<g id="edge27" class="edge">
<title>__floatsidf&#45;&gt;__clzsi2</title>
<path fill="none" stroke="black" d="M1547.63,-109.13C1525.7,-90.97 1489.66,-61.12 1465.1,-40.79"/>
<polygon fill="black" stroke="black" points="1467.19,-37.97 1457.26,-34.29 1462.73,-43.36 1467.19,-37.97"/>
</g>
<!-- __floatunsidf&#45;&gt;__clzsi2 -->
<g id="edge46" class="edge">
<title>__floatunsidf&#45;&gt;__clzsi2</title>
<path fill="none" stroke="black" d="M976.19,-114.65C986.27,-112.43 996.89,-110.11 1006.79,-108 1146.91,-78.1 1312.97,-44.37 1392.21,-28.37"/>
<polygon fill="black" stroke="black" points="1393.24,-31.74 1402.35,-26.33 1391.85,-24.87 1393.24,-31.74"/>
</g>
<!-- __adddf3&#45;&gt;__clzsi2 -->
<g id="edge41" class="edge">
<title>__adddf3&#45;&gt;__clzsi2</title>
<path fill="none" stroke="black" d="M1623.48,-216.14C1636.72,-190.64 1656.48,-141.67 1634.79,-108 1602.46,-57.8 1534.14,-35.6 1487.35,-25.99"/>
<polygon fill="black" stroke="black" points="1487.9,-22.54 1477.42,-24.08 1486.57,-29.41 1487.9,-22.54"/>
</g>
<!-- __divdf3&#45;&gt;__clzsi2 -->
<g id="edge43" class="edge">
<title>__divdf3&#45;&gt;__clzsi2</title>
<path fill="none" stroke="black" d="M1737.49,-216.03C1726.83,-189.48 1702.8,-138.05 1666.79,-108 1613.53,-63.55 1535.48,-39.6 1485.92,-28.08"/>
<polygon fill="black" stroke="black" points="1486.62,-24.65 1476.1,-25.87 1485.09,-31.48 1486.62,-24.65"/>
</g>
<!-- _ntoa_format&#45;&gt;&lt;_out_rev&gt; * -->
<g id="edge45" class="edge">
<title>_ntoa_format&#45;&gt;&lt;_out_rev&gt; *</title>
<path fill="none" stroke="black" d="M85.39,-109.59C116.02,-91.14 167.43,-60.17 201.49,-39.66"/>
<polygon fill="black" stroke="black" points="203.41,-42.59 210.17,-34.43 199.8,-36.59 203.41,-42.59"/>
</g>
<!-- &lt;ck_uart_putc&gt; * -->
<g id="node36" class="node">
<title>&lt;ck_uart_putc&gt; *</title>
<ellipse fill="none" stroke="black" cx="938.79" cy="-450" rx="76.89" ry="18"/>
<text text-anchor="middle" x="938.79" y="-446.3" font-family="Times New Roman,serif" font-size="14.00">&lt;ck_uart_putc&gt; *</text>
</g>
<!-- fputc&#45;&gt;&lt;ck_uart_putc&gt; * -->
<g id="edge51" class="edge">
<title>fputc&#45;&gt;&lt;ck_uart_putc&gt; *</title>
<path fill="none" stroke="black" d="M911.94,-539.97C917,-523.2 924.81,-497.34 930.7,-477.81"/>
<polygon fill="black" stroke="black" points="934.13,-478.57 933.67,-467.99 927.43,-476.55 934.13,-478.57"/>
</g>
</g>
</svg>
