<?xml version="1.0" encoding="UTF-8" standalone="no"?>
<!DOCTYPE svg PUBLIC "-//W3C//DTD SVG 1.1//EN"
 "http://www.w3.org/Graphics/SVG/1.1/DTD/svg11.dtd">
<!-- Generated by graphviz version 6.0.2 (20221011.1828)
 -->
<!-- Pages: 1 -->
<svg width="1344pt" height="620pt"
 viewBox="0.00 0.00 1344.34 620.00" xmlns="http://www.w3.org/2000/svg" xmlns:xlink="http://www.w3.org/1999/xlink">
<g id="graph0" class="graph" transform="scale(1 1) rotate(0) translate(4 616)">
<polygon fill="white" stroke="none" points="-4,4 -4,-616 1340.34,-616 1340.34,4 -4,4"/>
<!-- __to_main -->
<g id="node1" class="node">
<title>__to_main</title>
<ellipse fill="none" stroke="black" cx="1029.65" cy="-594" rx="50.09" ry="18"/>
<text text-anchor="middle" x="1029.65" y="-590.3" font-family="Times New Roman,serif" font-size="14.00">__to_main</text>
</g>
<!-- main -->
<g id="node2" class="node">
<title>main</title>
<ellipse fill="none" stroke="black" cx="1029.65" cy="-522" rx="27.9" ry="18"/>
<text text-anchor="middle" x="1029.65" y="-518.3" font-family="Times New Roman,serif" font-size="14.00">main</text>
</g>
<!-- __to_main&#45;&gt;main -->
<g id="edge1" class="edge">
<title>__to_main&#45;&gt;main</title>
<path fill="none" stroke="black" d="M1029.65,-575.7C1029.65,-567.98 1029.65,-558.71 1029.65,-550.11"/>
<polygon fill="black" stroke="black" points="1033.15,-550.1 1029.65,-540.1 1026.15,-550.1 1033.15,-550.1"/>
</g>
<!-- benchmark -->
<g id="node5" class="node">
<title>benchmark</title>
<ellipse fill="none" stroke="black" cx="721.65" cy="-450" rx="50.89" ry="18"/>
<text text-anchor="middle" x="721.65" y="-446.3" font-family="Times New Roman,serif" font-size="14.00">benchmark</text>
</g>
<!-- main&#45;&gt;benchmark -->
<g id="edge9" class="edge">
<title>main&#45;&gt;benchmark</title>
<path fill="none" stroke="black" d="M1003.65,-515.09C952.82,-503.54 839.42,-477.77 772.94,-462.66"/>
<polygon fill="black" stroke="black" points="773.62,-459.22 763.09,-460.42 772.07,-466.05 773.62,-459.22"/>
</g>
<!-- ck_uart_init -->
<g id="node10" class="node">
<title>ck_uart_init</title>
<ellipse fill="none" stroke="black" cx="963.65" cy="-450" rx="53.89" ry="18"/>
<text text-anchor="middle" x="963.65" y="-446.3" font-family="Times New Roman,serif" font-size="14.00">ck_uart_init</text>
</g>
<!-- main&#45;&gt;ck_uart_init -->
<g id="edge7" class="edge">
<title>main&#45;&gt;ck_uart_init</title>
<path fill="none" stroke="black" d="M1015.65,-506.15C1007.08,-497.07 995.93,-485.24 986.15,-474.87"/>
<polygon fill="black" stroke="black" points="988.41,-472.17 979,-467.29 983.32,-476.97 988.41,-472.17"/>
</g>
<!-- ck_uart_open -->
<g id="node11" class="node">
<title>ck_uart_open</title>
<ellipse fill="none" stroke="black" cx="1096.65" cy="-450" rx="61.19" ry="18"/>
<text text-anchor="middle" x="1096.65" y="-446.3" font-family="Times New Roman,serif" font-size="14.00">ck_uart_open</text>
</g>
<!-- main&#45;&gt;ck_uart_open -->
<g id="edge8" class="edge">
<title>main&#45;&gt;ck_uart_open</title>
<path fill="none" stroke="black" d="M1043.85,-506.15C1052.43,-497.2 1063.55,-485.58 1073.38,-475.31"/>
<polygon fill="black" stroke="black" points="1076.19,-477.43 1080.58,-467.79 1071.13,-472.59 1076.19,-477.43"/>
</g>
<!-- puts -->
<g id="node12" class="node">
<title>puts</title>
<ellipse fill="none" stroke="black" cx="1240.65" cy="-450" rx="27" ry="18"/>
<text text-anchor="middle" x="1240.65" y="-446.3" font-family="Times New Roman,serif" font-size="14.00">puts</text>
</g>
<!-- main&#45;&gt;puts -->
<g id="edge10" class="edge">
<title>main&#45;&gt;puts</title>
<path fill="none" stroke="black" d="M1053.85,-512.97C1091.63,-500.44 1164.7,-476.19 1207.4,-462.03"/>
<polygon fill="black" stroke="black" points="1208.66,-465.3 1217.05,-458.83 1206.45,-458.66 1208.66,-465.3"/>
</g>
<!-- fputc -->
<g id="node3" class="node">
<title>fputc</title>
<ellipse fill="none" stroke="black" cx="1259.65" cy="-378" rx="29.8" ry="18"/>
<text text-anchor="middle" x="1259.65" y="-374.3" font-family="Times New Roman,serif" font-size="14.00">fputc</text>
</g>
<!-- &lt;ck_uart_putc&gt; * -->
<g id="node4" class="node">
<title>&lt;ck_uart_putc&gt; *</title>
<ellipse fill="none" stroke="black" cx="1259.65" cy="-306" rx="76.89" ry="18"/>
<text text-anchor="middle" x="1259.65" y="-302.3" font-family="Times New Roman,serif" font-size="14.00">&lt;ck_uart_putc&gt; *</text>
</g>
<!-- fputc&#45;&gt;&lt;ck_uart_putc&gt; * -->
<g id="edge2" class="edge">
<title>fputc&#45;&gt;&lt;ck_uart_putc&gt; *</title>
<path fill="none" stroke="black" d="M1259.65,-359.7C1259.65,-351.98 1259.65,-342.71 1259.65,-334.11"/>
<polygon fill="black" stroke="black" points="1263.15,-334.1 1259.65,-324.1 1256.15,-334.1 1263.15,-334.1"/>
</g>
<!-- swi10 -->
<g id="node6" class="node">
<title>swi10</title>
<ellipse fill="none" stroke="black" cx="803.65" cy="-378" rx="31.7" ry="18"/>
<text text-anchor="middle" x="803.65" y="-374.3" font-family="Times New Roman,serif" font-size="14.00">swi10</text>
</g>
<!-- benchmark&#45;&gt;swi10 -->
<g id="edge3" class="edge">
<title>benchmark&#45;&gt;swi10</title>
<path fill="none" stroke="black" d="M740.25,-433.12C751.73,-423.32 766.57,-410.65 779.02,-400.02"/>
<polygon fill="black" stroke="black" points="781.45,-402.55 786.79,-393.39 776.91,-397.22 781.45,-402.55"/>
</g>
<!-- printf -->
<g id="node7" class="node">
<title>printf</title>
<ellipse fill="none" stroke="black" cx="550.65" cy="-378" rx="30.59" ry="18"/>
<text text-anchor="middle" x="550.65" y="-374.3" font-family="Times New Roman,serif" font-size="14.00">printf</text>
</g>
<!-- benchmark&#45;&gt;printf -->
<g id="edge4" class="edge">
<title>benchmark&#45;&gt;printf</title>
<path fill="none" stroke="black" d="M689.28,-436.09C662.73,-425.45 624.19,-409.91 590.65,-396 588.47,-395.1 586.23,-394.16 583.97,-393.22"/>
<polygon fill="black" stroke="black" points="585.3,-389.98 574.73,-389.32 582.58,-396.43 585.3,-389.98"/>
</g>
<!-- swi120 -->
<g id="node8" class="node">
<title>swi120</title>
<ellipse fill="none" stroke="black" cx="635.65" cy="-378" rx="36.29" ry="18"/>
<text text-anchor="middle" x="635.65" y="-374.3" font-family="Times New Roman,serif" font-size="14.00">swi120</text>
</g>
<!-- benchmark&#45;&gt;swi120 -->
<g id="edge5" class="edge">
<title>benchmark&#45;&gt;swi120</title>
<path fill="none" stroke="black" d="M702.13,-433.12C690.26,-423.45 674.94,-410.99 662.01,-400.46"/>
<polygon fill="black" stroke="black" points="663.87,-397.46 653.91,-393.86 659.45,-402.89 663.87,-397.46"/>
</g>
<!-- swi50 -->
<g id="node9" class="node">
<title>swi50</title>
<ellipse fill="none" stroke="black" cx="721.65" cy="-378" rx="31.7" ry="18"/>
<text text-anchor="middle" x="721.65" y="-374.3" font-family="Times New Roman,serif" font-size="14.00">swi50</text>
</g>
<!-- benchmark&#45;&gt;swi50 -->
<g id="edge6" class="edge">
<title>benchmark&#45;&gt;swi50</title>
<path fill="none" stroke="black" d="M721.65,-431.7C721.65,-423.98 721.65,-414.71 721.65,-406.11"/>
<polygon fill="black" stroke="black" points="725.15,-406.1 721.65,-396.1 718.15,-406.1 725.15,-406.1"/>
</g>
<!-- _vsnprintf -->
<g id="node33" class="node">
<title>_vsnprintf</title>
<ellipse fill="none" stroke="black" cx="550.65" cy="-306" rx="48.19" ry="18"/>
<text text-anchor="middle" x="550.65" y="-302.3" font-family="Times New Roman,serif" font-size="14.00">_vsnprintf</text>
</g>
<!-- printf&#45;&gt;_vsnprintf -->
<g id="edge44" class="edge">
<title>printf&#45;&gt;_vsnprintf</title>
<path fill="none" stroke="black" d="M550.65,-359.7C550.65,-351.98 550.65,-342.71 550.65,-334.11"/>
<polygon fill="black" stroke="black" points="554.15,-334.1 550.65,-324.1 547.15,-334.1 554.15,-334.1"/>
</g>
<!-- ck_uart_set_parity -->
<g id="node34" class="node">
<title>ck_uart_set_parity</title>
<ellipse fill="none" stroke="black" cx="1132.65" cy="-378" rx="78.79" ry="18"/>
<text text-anchor="middle" x="1132.65" y="-374.3" font-family="Times New Roman,serif" font-size="14.00">ck_uart_set_parity</text>
</g>
<!-- ck_uart_init&#45;&gt;ck_uart_set_parity -->
<g id="edge45" class="edge">
<title>ck_uart_init&#45;&gt;ck_uart_set_parity</title>
<path fill="none" stroke="black" d="M996.23,-435.5C1022,-424.83 1058.28,-409.8 1086.95,-397.93"/>
<polygon fill="black" stroke="black" points="1088.45,-401.09 1096.35,-394.03 1085.77,-394.63 1088.45,-401.09"/>
</g>
<!-- ck_uart_set_wordsize -->
<g id="node35" class="node">
<title>ck_uart_set_wordsize</title>
<ellipse fill="none" stroke="black" cx="944.65" cy="-378" rx="90.98" ry="18"/>
<text text-anchor="middle" x="944.65" y="-374.3" font-family="Times New Roman,serif" font-size="14.00">ck_uart_set_wordsize</text>
</g>
<!-- ck_uart_init&#45;&gt;ck_uart_set_wordsize -->
<g id="edge46" class="edge">
<title>ck_uart_init&#45;&gt;ck_uart_set_wordsize</title>
<path fill="none" stroke="black" d="M959.05,-432.05C956.93,-424.26 954.37,-414.82 952,-406.08"/>
<polygon fill="black" stroke="black" points="955.33,-405.01 949.33,-396.28 948.58,-406.84 955.33,-405.01"/>
</g>
<!-- puts&#45;&gt;fputc -->
<g id="edge43" class="edge">
<title>puts&#45;&gt;fputc</title>
<path fill="none" stroke="black" d="M1245.24,-432.05C1247.36,-424.26 1249.92,-414.82 1252.3,-406.08"/>
<polygon fill="black" stroke="black" points="1255.71,-406.84 1254.96,-396.28 1248.96,-405.01 1255.71,-406.84"/>
</g>
<!-- _ntoa_format -->
<g id="node13" class="node">
<title>_ntoa_format</title>
<ellipse fill="none" stroke="black" cx="150.65" cy="-90" rx="59.59" ry="18"/>
<text text-anchor="middle" x="150.65" y="-86.3" font-family="Times New Roman,serif" font-size="14.00">_ntoa_format</text>
</g>
<!-- _out_rev -->
<g id="node14" class="node">
<title>_out_rev</title>
<ellipse fill="none" stroke="black" cx="530.65" cy="-18" rx="43.59" ry="18"/>
<text text-anchor="middle" x="530.65" y="-14.3" font-family="Times New Roman,serif" font-size="14.00">_out_rev</text>
</g>
<!-- _ntoa_format&#45;&gt;_out_rev -->
<g id="edge11" class="edge">
<title>_ntoa_format&#45;&gt;_out_rev</title>
<path fill="none" stroke="black" d="M195.96,-78.18C205.42,-76.04 215.34,-73.87 224.65,-72 314.33,-53.94 419.56,-36.54 480.33,-26.86"/>
<polygon fill="black" stroke="black" points="481.09,-30.28 490.42,-25.25 479.99,-23.36 481.09,-30.28"/>
</g>
<!-- &lt;_out_rev&gt; * -->
<g id="node15" class="node">
<title>&lt;_out_rev&gt; *</title>
<ellipse fill="none" stroke="black" cx="150.65" cy="-18" rx="61.19" ry="18"/>
<text text-anchor="middle" x="150.65" y="-14.3" font-family="Times New Roman,serif" font-size="14.00">&lt;_out_rev&gt; *</text>
</g>
<!-- _ntoa_format&#45;&gt;&lt;_out_rev&gt; * -->
<g id="edge12" class="edge">
<title>_ntoa_format&#45;&gt;&lt;_out_rev&gt; *</title>
<path fill="none" stroke="black" d="M150.65,-71.7C150.65,-63.98 150.65,-54.71 150.65,-46.11"/>
<polygon fill="black" stroke="black" points="154.15,-46.1 150.65,-36.1 147.15,-46.1 154.15,-46.1"/>
</g>
<!-- _ntoa_long -->
<g id="node16" class="node">
<title>_ntoa_long</title>
<ellipse fill="none" stroke="black" cx="325.65" cy="-162" rx="51.99" ry="18"/>
<text text-anchor="middle" x="325.65" y="-158.3" font-family="Times New Roman,serif" font-size="14.00">_ntoa_long</text>
</g>
<!-- _ntoa_long&#45;&gt;_ntoa_format -->
<g id="edge13" class="edge">
<title>_ntoa_long&#45;&gt;_ntoa_format</title>
<path fill="none" stroke="black" d="M292.73,-147.83C265.03,-136.76 225.19,-120.82 194.74,-108.64"/>
<polygon fill="black" stroke="black" points="195.79,-105.29 185.21,-104.83 193.19,-111.79 195.79,-105.29"/>
</g>
<!-- _ntoa_long_long -->
<g id="node17" class="node">
<title>_ntoa_long_long</title>
<ellipse fill="none" stroke="black" cx="171.65" cy="-234" rx="72.29" ry="18"/>
<text text-anchor="middle" x="171.65" y="-230.3" font-family="Times New Roman,serif" font-size="14.00">_ntoa_long_long</text>
</g>
<!-- _ntoa_long_long&#45;&gt;_ntoa_format -->
<g id="edge16" class="edge">
<title>_ntoa_long_long&#45;&gt;_ntoa_format</title>
<path fill="none" stroke="black" d="M163.86,-215.73C159.68,-205.55 154.93,-192.3 152.65,-180 148.87,-159.61 148.5,-136.15 149,-118.44"/>
<polygon fill="black" stroke="black" points="152.51,-118.36 149.41,-108.23 145.52,-118.08 152.51,-118.36"/>
</g>
<!-- __udivdi3 -->
<g id="node18" class="node">
<title>__udivdi3</title>
<ellipse fill="none" stroke="black" cx="208.65" cy="-162" rx="47.39" ry="18"/>
<text text-anchor="middle" x="208.65" y="-158.3" font-family="Times New Roman,serif" font-size="14.00">__udivdi3</text>
</g>
<!-- _ntoa_long_long&#45;&gt;__udivdi3 -->
<g id="edge14" class="edge">
<title>_ntoa_long_long&#45;&gt;__udivdi3</title>
<path fill="none" stroke="black" d="M180.6,-216.05C184.92,-207.89 190.19,-197.91 195,-188.82"/>
<polygon fill="black" stroke="black" points="198.19,-190.27 199.77,-179.79 192,-186.99 198.19,-190.27"/>
</g>
<!-- __umoddi3 -->
<g id="node19" class="node">
<title>__umoddi3</title>
<ellipse fill="none" stroke="black" cx="52.65" cy="-162" rx="52.79" ry="18"/>
<text text-anchor="middle" x="52.65" y="-158.3" font-family="Times New Roman,serif" font-size="14.00">__umoddi3</text>
</g>
<!-- _ntoa_long_long&#45;&gt;__umoddi3 -->
<g id="edge15" class="edge">
<title>_ntoa_long_long&#45;&gt;__umoddi3</title>
<path fill="none" stroke="black" d="M144.64,-217.12C127.43,-206.99 105,-193.79 86.59,-182.97"/>
<polygon fill="black" stroke="black" points="88.31,-179.92 77.91,-177.86 84.76,-185.95 88.31,-179.92"/>
</g>
<!-- _etoa -->
<g id="node20" class="node">
<title>_etoa</title>
<ellipse fill="none" stroke="black" cx="625.65" cy="-234" rx="30.59" ry="18"/>
<text text-anchor="middle" x="625.65" y="-230.3" font-family="Times New Roman,serif" font-size="14.00">_etoa</text>
</g>
<!-- _etoa&#45;&gt;_ntoa_long -->
<g id="edge18" class="edge">
<title>_etoa&#45;&gt;_ntoa_long</title>
<path fill="none" stroke="black" d="M597.2,-227.21C552.3,-217.95 462.31,-198.92 386.65,-180 382.57,-178.98 378.34,-177.89 374.11,-176.76"/>
<polygon fill="black" stroke="black" points="374.85,-173.34 364.29,-174.1 373.03,-180.09 374.85,-173.34"/>
</g>
<!-- __gedf2 -->
<g id="node21" class="node">
<title>__gedf2</title>
<ellipse fill="none" stroke="black" cx="307.65" cy="-90" rx="40.89" ry="18"/>
<text text-anchor="middle" x="307.65" y="-86.3" font-family="Times New Roman,serif" font-size="14.00">__gedf2</text>
</g>
<!-- _etoa&#45;&gt;__gedf2 -->
<g id="edge17" class="edge">
<title>_etoa&#45;&gt;__gedf2</title>
<path fill="none" stroke="black" d="M601.24,-222.91C580.1,-213.53 549.27,-198.27 525.65,-180 508.47,-166.72 511.21,-155.25 492.65,-144 439.54,-111.82 417.07,-126 357.65,-108 354.53,-107.06 351.32,-106.05 348.09,-105.01"/>
<polygon fill="black" stroke="black" points="349.07,-101.65 338.48,-101.85 346.88,-108.3 349.07,-101.65"/>
</g>
<!-- __adddf3 -->
<g id="node22" class="node">
<title>__adddf3</title>
<ellipse fill="none" stroke="black" cx="1256.65" cy="-162" rx="46.29" ry="18"/>
<text text-anchor="middle" x="1256.65" y="-158.3" font-family="Times New Roman,serif" font-size="14.00">__adddf3</text>
</g>
<!-- _etoa&#45;&gt;__adddf3 -->
<g id="edge19" class="edge">
<title>_etoa&#45;&gt;__adddf3</title>
<path fill="none" stroke="black" d="M655.75,-230.21C734.4,-222.86 952.53,-201.96 1133.65,-180 1156.83,-177.19 1182.42,-173.71 1204.23,-170.64"/>
<polygon fill="black" stroke="black" points="1204.87,-174.08 1214.28,-169.21 1203.89,-167.15 1204.87,-174.08"/>
</g>
<!-- __floatsidf -->
<g id="node23" class="node">
<title>__floatsidf</title>
<ellipse fill="none" stroke="black" cx="1131.65" cy="-90" rx="50.09" ry="18"/>
<text text-anchor="middle" x="1131.65" y="-86.3" font-family="Times New Roman,serif" font-size="14.00">__floatsidf</text>
</g>
<!-- _etoa&#45;&gt;__floatsidf -->
<g id="edge20" class="edge">
<title>_etoa&#45;&gt;__floatsidf</title>
<path fill="none" stroke="black" d="M652.62,-225.54C722.22,-206.26 913.54,-153.17 1072.65,-108 1076.4,-106.93 1080.29,-105.82 1084.2,-104.71"/>
<polygon fill="black" stroke="black" points="1085.24,-108.05 1093.89,-101.93 1083.31,-101.32 1085.24,-108.05"/>
</g>
<!-- __divdf3 -->
<g id="node24" class="node">
<title>__divdf3</title>
<ellipse fill="none" stroke="black" cx="439.65" cy="-162" rx="44.39" ry="18"/>
<text text-anchor="middle" x="439.65" y="-158.3" font-family="Times New Roman,serif" font-size="14.00">__divdf3</text>
</g>
<!-- _etoa&#45;&gt;__divdf3 -->
<g id="edge21" class="edge">
<title>_etoa&#45;&gt;__divdf3</title>
<path fill="none" stroke="black" d="M600.56,-223.56C569.79,-211.98 517.22,-192.2 480.57,-178.4"/>
<polygon fill="black" stroke="black" points="481.75,-175.11 471.15,-174.86 479.28,-181.66 481.75,-175.11"/>
</g>
<!-- __muldf3 -->
<g id="node25" class="node">
<title>__muldf3</title>
<ellipse fill="none" stroke="black" cx="1245.65" cy="-90" rx="46.29" ry="18"/>
<text text-anchor="middle" x="1245.65" y="-86.3" font-family="Times New Roman,serif" font-size="14.00">__muldf3</text>
</g>
<!-- _etoa&#45;&gt;__muldf3 -->
<g id="edge22" class="edge">
<title>_etoa&#45;&gt;__muldf3</title>
<path fill="none" stroke="black" d="M654.57,-227.66C703.65,-218.51 806.34,-198.98 892.65,-180 1025.72,-150.73 1059.27,-144.14 1190.65,-108 1194.18,-107.03 1197.83,-105.99 1201.48,-104.91"/>
<polygon fill="black" stroke="black" points="1202.54,-108.25 1211.12,-102.03 1200.54,-101.54 1202.54,-108.25"/>
</g>
<!-- __subdf3 -->
<g id="node26" class="node">
<title>__subdf3</title>
<ellipse fill="none" stroke="black" cx="412.65" cy="-90" rx="46.29" ry="18"/>
<text text-anchor="middle" x="412.65" y="-86.3" font-family="Times New Roman,serif" font-size="14.00">__subdf3</text>
</g>
<!-- _etoa&#45;&gt;__subdf3 -->
<g id="edge23" class="edge">
<title>_etoa&#45;&gt;__subdf3</title>
<path fill="none" stroke="black" d="M608.6,-218.83C596.03,-208.29 578.59,-193.45 563.65,-180 546.35,-164.44 544.87,-157.11 525.65,-144 503.66,-129.01 476.76,-116.2 454.72,-106.93"/>
<polygon fill="black" stroke="black" points="455.87,-103.62 445.29,-103.06 453.2,-110.1 455.87,-103.62"/>
</g>
<!-- _ftoa -->
<g id="node27" class="node">
<title>_ftoa</title>
<ellipse fill="none" stroke="black" cx="721.65" cy="-162" rx="29.8" ry="18"/>
<text text-anchor="middle" x="721.65" y="-158.3" font-family="Times New Roman,serif" font-size="14.00">_ftoa</text>
</g>
<!-- _etoa&#45;&gt;_ftoa -->
<g id="edge24" class="edge">
<title>_etoa&#45;&gt;_ftoa</title>
<path fill="none" stroke="black" d="M640.37,-218.15C654.08,-207.15 674.6,-192.11 691.68,-180.52"/>
<polygon fill="black" stroke="black" points="693.86,-183.27 700.24,-174.81 689.98,-177.45 693.86,-183.27"/>
</g>
<!-- __fixdfsi -->
<g id="node28" class="node">
<title>__fixdfsi</title>
<ellipse fill="none" stroke="black" cx="520.65" cy="-90" rx="43.59" ry="18"/>
<text text-anchor="middle" x="520.65" y="-86.3" font-family="Times New Roman,serif" font-size="14.00">__fixdfsi</text>
</g>
<!-- _etoa&#45;&gt;__fixdfsi -->
<g id="edge25" class="edge">
<title>_etoa&#45;&gt;__fixdfsi</title>
<path fill="none" stroke="black" d="M615.01,-217C602.93,-198.99 582.44,-168.98 563.65,-144 556.45,-134.43 548.23,-124.16 540.92,-115.23"/>
<polygon fill="black" stroke="black" points="543.58,-112.95 534.52,-107.46 538.18,-117.4 543.58,-112.95"/>
</g>
<!-- __eqdf2 -->
<g id="node29" class="node">
<title>__eqdf2</title>
<ellipse fill="none" stroke="black" cx="623.65" cy="-90" rx="41.69" ry="18"/>
<text text-anchor="middle" x="623.65" y="-86.3" font-family="Times New Roman,serif" font-size="14.00">__eqdf2</text>
</g>
<!-- _etoa&#45;&gt;__eqdf2 -->
<g id="edge26" class="edge">
<title>_etoa&#45;&gt;__eqdf2</title>
<path fill="none" stroke="black" d="M625.4,-215.87C625.06,-191.67 624.44,-147.21 624.03,-118.39"/>
<polygon fill="black" stroke="black" points="627.53,-118.14 623.89,-108.19 620.53,-118.24 627.53,-118.14"/>
</g>
<!-- __ledf2 -->
<g id="node30" class="node">
<title>__ledf2</title>
<ellipse fill="none" stroke="black" cx="721.65" cy="-90" rx="38.19" ry="18"/>
<text text-anchor="middle" x="721.65" y="-86.3" font-family="Times New Roman,serif" font-size="14.00">__ledf2</text>
</g>
<!-- _etoa&#45;&gt;__ledf2 -->
<g id="edge27" class="edge">
<title>_etoa&#45;&gt;__ledf2</title>
<path fill="none" stroke="black" d="M635.63,-216.72C646.78,-198.71 665.5,-168.95 682.65,-144 689.12,-134.58 696.49,-124.43 703.06,-115.56"/>
<polygon fill="black" stroke="black" points="705.89,-117.62 709.07,-107.51 700.28,-113.43 705.89,-117.62"/>
</g>
<!-- __clzsi2 -->
<g id="node36" class="node">
<title>__clzsi2</title>
<ellipse fill="none" stroke="black" cx="1067.65" cy="-18" rx="40.89" ry="18"/>
<text text-anchor="middle" x="1067.65" y="-14.3" font-family="Times New Roman,serif" font-size="14.00">__clzsi2</text>
</g>
<!-- __adddf3&#45;&gt;__clzsi2 -->
<g id="edge47" class="edge">
<title>__adddf3&#45;&gt;__clzsi2</title>
<path fill="none" stroke="black" d="M1274.39,-145.37C1293.52,-126.63 1318.92,-94.9 1300.65,-72 1278.26,-43.95 1179.73,-29.61 1118.19,-23.26"/>
<polygon fill="black" stroke="black" points="1118.2,-19.74 1107.9,-22.23 1117.51,-26.71 1118.2,-19.74"/>
</g>
<!-- __floatsidf&#45;&gt;__clzsi2 -->
<g id="edge51" class="edge">
<title>__floatsidf&#45;&gt;__clzsi2</title>
<path fill="none" stroke="black" d="M1116.8,-72.76C1108.64,-63.84 1098.37,-52.61 1089.33,-42.72"/>
<polygon fill="black" stroke="black" points="1091.74,-40.17 1082.41,-35.15 1086.57,-44.89 1091.74,-40.17"/>
</g>
<!-- __divdf3&#45;&gt;__clzsi2 -->
<g id="edge48" class="edge">
<title>__divdf3&#45;&gt;__clzsi2</title>
<path fill="none" stroke="black" d="M406.34,-150.1C399.83,-148.03 393.03,-145.91 386.65,-144 329.63,-126.91 293.64,-155.41 257.65,-108 247.97,-95.26 246.71,-83.68 257.65,-72 283.67,-44.22 842.87,-25.58 1016.61,-20.44"/>
<polygon fill="black" stroke="black" points="1016.88,-23.93 1026.77,-20.14 1016.67,-16.93 1016.88,-23.93"/>
</g>
<!-- __muldf3&#45;&gt;__clzsi2 -->
<g id="edge49" class="edge">
<title>__muldf3&#45;&gt;__clzsi2</title>
<path fill="none" stroke="black" d="M1214.23,-76.65C1184.29,-64.87 1139.12,-47.11 1106.84,-34.41"/>
<polygon fill="black" stroke="black" points="1107.85,-31.05 1097.27,-30.65 1105.29,-37.57 1107.85,-31.05"/>
</g>
<!-- __subdf3&#45;&gt;__clzsi2 -->
<g id="edge50" class="edge">
<title>__subdf3&#45;&gt;__clzsi2</title>
<path fill="none" stroke="black" d="M446.1,-77.43C453.14,-75.34 460.58,-73.39 467.65,-72 668.29,-32.59 912.47,-22.46 1016.62,-19.88"/>
<polygon fill="black" stroke="black" points="1016.93,-23.37 1026.85,-19.64 1016.77,-16.37 1016.93,-23.37"/>
</g>
<!-- _ftoa&#45;&gt;_out_rev -->
<g id="edge29" class="edge">
<title>_ftoa&#45;&gt;_out_rev</title>
<path fill="none" stroke="black" d="M738.53,-147.07C758.79,-128.69 787.77,-95.86 768.65,-72 745.85,-43.57 646.07,-29.41 583.17,-23.18"/>
<polygon fill="black" stroke="black" points="583.31,-19.68 573.02,-22.21 582.64,-26.65 583.31,-19.68"/>
</g>
<!-- _ftoa&#45;&gt;_etoa -->
<g id="edge30" class="edge">
<title>_ftoa&#45;&gt;_etoa</title>
<path fill="none" stroke="black" d="M706.9,-177.86C693.21,-188.84 672.75,-203.84 655.7,-215.42"/>
<polygon fill="black" stroke="black" points="653.52,-212.66 647.15,-221.13 657.41,-218.49 653.52,-212.66"/>
</g>
<!-- _ftoa&#45;&gt;__gedf2 -->
<g id="edge28" class="edge">
<title>_ftoa&#45;&gt;__gedf2</title>
<path fill="none" stroke="black" d="M692.05,-158.54C629.58,-152.95 479.96,-137.44 357.65,-108 354.29,-107.19 350.84,-106.25 347.4,-105.24"/>
<polygon fill="black" stroke="black" points="348.38,-101.88 337.79,-102.24 346.29,-108.56 348.38,-101.88"/>
</g>
<!-- _ftoa&#45;&gt;__floatsidf -->
<g id="edge31" class="edge">
<title>_ftoa&#45;&gt;__floatsidf</title>
<path fill="none" stroke="black" d="M751,-157.88C811.58,-151.16 954.64,-133.79 1072.65,-108 1076.75,-107.1 1080.98,-106.08 1085.21,-104.99"/>
<polygon fill="black" stroke="black" points="1086.26,-108.33 1095.01,-102.36 1084.45,-101.57 1086.26,-108.33"/>
</g>
<!-- _ftoa&#45;&gt;__muldf3 -->
<g id="edge32" class="edge">
<title>_ftoa&#45;&gt;__muldf3</title>
<path fill="none" stroke="black" d="M751.31,-159.58C825.86,-155.59 1026.82,-142.26 1190.65,-108 1194.5,-107.19 1198.47,-106.23 1202.42,-105.19"/>
<polygon fill="black" stroke="black" points="1203.49,-108.52 1212.17,-102.44 1201.59,-101.78 1203.49,-108.52"/>
</g>
<!-- _ftoa&#45;&gt;__subdf3 -->
<g id="edge33" class="edge">
<title>_ftoa&#45;&gt;__subdf3</title>
<path fill="none" stroke="black" d="M693.25,-155.98C646.1,-147.44 548.77,-128.95 467.65,-108 464.05,-107.07 460.33,-106.05 456.61,-104.99"/>
<polygon fill="black" stroke="black" points="457.41,-101.58 446.83,-102.11 455.43,-108.29 457.41,-101.58"/>
</g>
<!-- _ftoa&#45;&gt;__fixdfsi -->
<g id="edge34" class="edge">
<title>_ftoa&#45;&gt;__fixdfsi</title>
<path fill="none" stroke="black" d="M696.19,-152.13C662.52,-140.41 602.74,-119.59 562.41,-105.55"/>
<polygon fill="black" stroke="black" points="563.45,-102.2 552.86,-102.22 561.15,-108.81 563.45,-102.2"/>
</g>
<!-- _ftoa&#45;&gt;__eqdf2 -->
<g id="edge37" class="edge">
<title>_ftoa&#45;&gt;__eqdf2</title>
<path fill="none" stroke="black" d="M702.75,-147.5C688.58,-137.38 668.92,-123.34 652.74,-111.79"/>
<polygon fill="black" stroke="black" points="654.35,-108.63 644.17,-105.66 650.28,-114.32 654.35,-108.63"/>
</g>
<!-- _ftoa&#45;&gt;__ledf2 -->
<g id="edge38" class="edge">
<title>_ftoa&#45;&gt;__ledf2</title>
<path fill="none" stroke="black" d="M721.65,-143.7C721.65,-135.98 721.65,-126.71 721.65,-118.11"/>
<polygon fill="black" stroke="black" points="725.15,-118.1 721.65,-108.1 718.15,-118.1 725.15,-118.1"/>
</g>
<!-- __fixunsdfsi -->
<g id="node31" class="node">
<title>__fixunsdfsi</title>
<ellipse fill="none" stroke="black" cx="871.65" cy="-90" rx="55.79" ry="18"/>
<text text-anchor="middle" x="871.65" y="-86.3" font-family="Times New Roman,serif" font-size="14.00">__fixunsdfsi</text>
</g>
<!-- _ftoa&#45;&gt;__fixunsdfsi -->
<g id="edge35" class="edge">
<title>_ftoa&#45;&gt;__fixunsdfsi</title>
<path fill="none" stroke="black" d="M744.75,-150.22C768.01,-139.36 804.33,-122.42 832.16,-109.43"/>
<polygon fill="black" stroke="black" points="833.66,-112.59 841.24,-105.19 830.7,-106.25 833.66,-112.59"/>
</g>
<!-- __floatunsidf -->
<g id="node32" class="node">
<title>__floatunsidf</title>
<ellipse fill="none" stroke="black" cx="1004.65" cy="-90" rx="59.29" ry="18"/>
<text text-anchor="middle" x="1004.65" y="-86.3" font-family="Times New Roman,serif" font-size="14.00">__floatunsidf</text>
</g>
<!-- _ftoa&#45;&gt;__floatunsidf -->
<g id="edge36" class="edge">
<title>_ftoa&#45;&gt;__floatunsidf</title>
<path fill="none" stroke="black" d="M748.8,-154.34C789.6,-144.32 869.11,-124.77 936.65,-108 941.2,-106.87 945.93,-105.69 950.68,-104.51"/>
<polygon fill="black" stroke="black" points="951.54,-107.9 960.39,-102.09 949.84,-101.11 951.54,-107.9"/>
</g>
<!-- __floatunsidf&#45;&gt;__clzsi2 -->
<g id="edge52" class="edge">
<title>__floatunsidf&#45;&gt;__clzsi2</title>
<path fill="none" stroke="black" d="M1019.58,-72.41C1027.61,-63.48 1037.67,-52.31 1046.5,-42.5"/>
<polygon fill="black" stroke="black" points="1049.17,-44.76 1053.26,-34.99 1043.96,-40.08 1049.17,-44.76"/>
</g>
<!-- _vsnprintf&#45;&gt;_ntoa_long -->
<g id="edge42" class="edge">
<title>_vsnprintf&#45;&gt;_ntoa_long</title>
<path fill="none" stroke="black" d="M526.99,-290.07C486.59,-264.57 404.2,-212.57 358.32,-183.62"/>
<polygon fill="black" stroke="black" points="359.98,-180.53 349.66,-178.16 356.25,-186.45 359.98,-180.53"/>
</g>
<!-- _vsnprintf&#45;&gt;_ntoa_long_long -->
<g id="edge39" class="edge">
<title>_vsnprintf&#45;&gt;_ntoa_long_long</title>
<path fill="none" stroke="black" d="M508.27,-297.17C442.65,-285.05 315.89,-261.64 238.03,-247.26"/>
<polygon fill="black" stroke="black" points="238.32,-243.75 227.85,-245.38 237.05,-250.64 238.32,-243.75"/>
</g>
<!-- _vsnprintf&#45;&gt;_etoa -->
<g id="edge41" class="edge">
<title>_vsnprintf&#45;&gt;_etoa</title>
<path fill="none" stroke="black" d="M567.66,-289.12C577.99,-279.48 591.3,-267.06 602.56,-256.54"/>
<polygon fill="black" stroke="black" points="605.05,-259.01 609.97,-249.63 600.27,-253.89 605.05,-259.01"/>
</g>
<!-- _vsnprintf&#45;&gt;_ftoa -->
<g id="edge40" class="edge">
<title>_vsnprintf&#45;&gt;_ftoa</title>
<path fill="none" stroke="black" d="M587.15,-294.26C611.44,-285.75 642.93,-271.94 665.65,-252 685.48,-234.59 700.77,-208.46 710.33,-189.01"/>
<polygon fill="black" stroke="black" points="713.57,-190.34 714.67,-179.8 707.24,-187.35 713.57,-190.34"/>
</g>
</g>
</svg>
