<?xml version="1.0" encoding="UTF-8" standalone="no"?>
<!DOCTYPE svg PUBLIC "-//W3C//DTD SVG 1.1//EN"
 "http://www.w3.org/Graphics/SVG/1.1/DTD/svg11.dtd">
<!-- Generated by graphviz version 6.0.2 (20221011.1828)
 -->
<!-- Pages: 1 -->
<svg width="1728pt" height="908pt"
 viewBox="0.00 0.00 1727.79 908.00" xmlns="http://www.w3.org/2000/svg" xmlns:xlink="http://www.w3.org/1999/xlink">
<g id="graph0" class="graph" transform="scale(1 1) rotate(0) translate(4 904)">
<polygon fill="white" stroke="none" points="-4,4 -4,-904 1723.79,-904 1723.79,4 -4,4"/>
<!-- __to_main -->
<g id="node1" class="node">
<title>__to_main</title>
<ellipse fill="none" stroke="black" cx="1164.65" cy="-882" rx="50.09" ry="18"/>
<text text-anchor="middle" x="1164.65" y="-878.3" font-family="Times New Roman,serif" font-size="14.00">__to_main</text>
</g>
<!-- main -->
<g id="node2" class="node">
<title>main</title>
<ellipse fill="none" stroke="black" cx="1164.65" cy="-774" rx="27.9" ry="18"/>
<text text-anchor="middle" x="1164.65" y="-770.3" font-family="Times New Roman,serif" font-size="14.00">main</text>
</g>
<!-- __to_main&#45;&gt;main -->
<g id="edge1" class="edge">
<title>__to_main&#45;&gt;main</title>
<path fill="none" stroke="black" d="M1164.65,-863.97C1164.65,-847.38 1164.65,-821.88 1164.65,-802.43"/>
<polygon fill="black" stroke="black" points="1168.15,-802.34 1164.65,-792.34 1161.15,-802.34 1168.15,-802.34"/>
</g>
<!-- benchmark -->
<g id="node5" class="node">
<title>benchmark</title>
<ellipse fill="none" stroke="black" cx="863.65" cy="-666" rx="50.89" ry="18"/>
<text text-anchor="middle" x="863.65" y="-662.3" font-family="Times New Roman,serif" font-size="14.00">benchmark</text>
</g>
<!-- main&#45;&gt;benchmark -->
<g id="edge8" class="edge">
<title>main&#45;&gt;benchmark</title>
<path fill="none" stroke="black" d="M1140.77,-764.59C1090.38,-746.85 972.49,-705.33 907.89,-682.58"/>
<polygon fill="black" stroke="black" points="908.98,-679.25 898.38,-679.23 906.65,-685.86 908.98,-679.25"/>
</g>
<!-- ck_uart_open -->
<g id="node10" class="node">
<title>ck_uart_open</title>
<ellipse fill="none" stroke="black" cx="1089.65" cy="-666" rx="61.19" ry="18"/>
<text text-anchor="middle" x="1089.65" y="-662.3" font-family="Times New Roman,serif" font-size="14.00">ck_uart_open</text>
</g>
<!-- main&#45;&gt;ck_uart_open -->
<g id="edge7" class="edge">
<title>main&#45;&gt;ck_uart_open</title>
<path fill="none" stroke="black" d="M1153.58,-757.36C1141.44,-740.2 1121.78,-712.42 1107.46,-692.18"/>
<polygon fill="black" stroke="black" points="1110.13,-689.9 1101.5,-683.76 1104.42,-693.94 1110.13,-689.9"/>
</g>
<!-- ck_uart_init -->
<g id="node11" class="node">
<title>ck_uart_init</title>
<ellipse fill="none" stroke="black" cx="1240.65" cy="-666" rx="53.89" ry="18"/>
<text text-anchor="middle" x="1240.65" y="-662.3" font-family="Times New Roman,serif" font-size="14.00">ck_uart_init</text>
</g>
<!-- main&#45;&gt;ck_uart_init -->
<g id="edge9" class="edge">
<title>main&#45;&gt;ck_uart_init</title>
<path fill="none" stroke="black" d="M1175.86,-757.36C1188.22,-740.13 1208.26,-712.17 1222.78,-691.91"/>
<polygon fill="black" stroke="black" points="1225.65,-693.92 1228.63,-683.76 1219.96,-689.84 1225.65,-693.92"/>
</g>
<!-- puts -->
<g id="node12" class="node">
<title>puts</title>
<ellipse fill="none" stroke="black" cx="1416.65" cy="-666" rx="27" ry="18"/>
<text text-anchor="middle" x="1416.65" y="-662.3" font-family="Times New Roman,serif" font-size="14.00">puts</text>
</g>
<!-- main&#45;&gt;puts -->
<g id="edge10" class="edge">
<title>main&#45;&gt;puts</title>
<path fill="none" stroke="black" d="M1187.45,-763.41C1232.64,-744.4 1333.61,-701.93 1385.12,-680.26"/>
<polygon fill="black" stroke="black" points="1386.57,-683.45 1394.43,-676.34 1383.86,-677 1386.57,-683.45"/>
</g>
<!-- fputc -->
<g id="node3" class="node">
<title>fputc</title>
<ellipse fill="none" stroke="black" cx="1476.65" cy="-558" rx="29.8" ry="18"/>
<text text-anchor="middle" x="1476.65" y="-554.3" font-family="Times New Roman,serif" font-size="14.00">fputc</text>
</g>
<!-- &lt;ck_uart_putc&gt; * -->
<g id="node4" class="node">
<title>&lt;ck_uart_putc&gt; *</title>
<ellipse fill="none" stroke="black" cx="1476.65" cy="-450" rx="76.89" ry="18"/>
<text text-anchor="middle" x="1476.65" y="-446.3" font-family="Times New Roman,serif" font-size="14.00">&lt;ck_uart_putc&gt; *</text>
</g>
<!-- fputc&#45;&gt;&lt;ck_uart_putc&gt; * -->
<g id="edge2" class="edge">
<title>fputc&#45;&gt;&lt;ck_uart_putc&gt; *</title>
<path fill="none" stroke="black" d="M1476.65,-539.97C1476.65,-523.38 1476.65,-497.88 1476.65,-478.43"/>
<polygon fill="black" stroke="black" points="1480.15,-478.34 1476.65,-468.34 1473.15,-478.34 1480.15,-478.34"/>
</g>
<!-- swi120 -->
<g id="node6" class="node">
<title>swi120</title>
<ellipse fill="none" stroke="black" cx="863.65" cy="-558" rx="36.29" ry="18"/>
<text text-anchor="middle" x="863.65" y="-554.3" font-family="Times New Roman,serif" font-size="14.00">swi120</text>
</g>
<!-- benchmark&#45;&gt;swi120 -->
<g id="edge3" class="edge">
<title>benchmark&#45;&gt;swi120</title>
<path fill="none" stroke="black" d="M863.65,-647.97C863.65,-631.38 863.65,-605.88 863.65,-586.43"/>
<polygon fill="black" stroke="black" points="867.15,-586.34 863.65,-576.34 860.15,-586.34 867.15,-586.34"/>
</g>
<!-- swi50 -->
<g id="node7" class="node">
<title>swi50</title>
<ellipse fill="none" stroke="black" cx="967.65" cy="-558" rx="31.7" ry="18"/>
<text text-anchor="middle" x="967.65" y="-554.3" font-family="Times New Roman,serif" font-size="14.00">swi50</text>
</g>
<!-- benchmark&#45;&gt;swi50 -->
<g id="edge4" class="edge">
<title>benchmark&#45;&gt;swi50</title>
<path fill="none" stroke="black" d="M879.9,-648.44C897.63,-630.37 926.1,-601.34 945.78,-581.28"/>
<polygon fill="black" stroke="black" points="948.35,-583.66 952.86,-574.07 943.35,-578.76 948.35,-583.66"/>
</g>
<!-- printf -->
<g id="node8" class="node">
<title>printf</title>
<ellipse fill="none" stroke="black" cx="661.65" cy="-558" rx="30.59" ry="18"/>
<text text-anchor="middle" x="661.65" y="-554.3" font-family="Times New Roman,serif" font-size="14.00">printf</text>
</g>
<!-- benchmark&#45;&gt;printf -->
<g id="edge5" class="edge">
<title>benchmark&#45;&gt;printf</title>
<path fill="none" stroke="black" d="M836.4,-650.7C799.02,-631.09 731.98,-595.91 692.7,-575.29"/>
<polygon fill="black" stroke="black" points="694.29,-572.18 683.81,-570.63 691.04,-578.38 694.29,-572.18"/>
</g>
<!-- swi10 -->
<g id="node9" class="node">
<title>swi10</title>
<ellipse fill="none" stroke="black" cx="759.65" cy="-558" rx="31.7" ry="18"/>
<text text-anchor="middle" x="759.65" y="-554.3" font-family="Times New Roman,serif" font-size="14.00">swi10</text>
</g>
<!-- benchmark&#45;&gt;swi10 -->
<g id="edge6" class="edge">
<title>benchmark&#45;&gt;swi10</title>
<path fill="none" stroke="black" d="M847.4,-648.44C829.67,-630.37 801.19,-601.34 781.51,-581.28"/>
<polygon fill="black" stroke="black" points="783.94,-578.76 774.44,-574.07 778.94,-583.66 783.94,-578.76"/>
</g>
<!-- _vsnprintf -->
<g id="node33" class="node">
<title>_vsnprintf</title>
<ellipse fill="none" stroke="black" cx="661.65" cy="-450" rx="48.19" ry="18"/>
<text text-anchor="middle" x="661.65" y="-446.3" font-family="Times New Roman,serif" font-size="14.00">_vsnprintf</text>
</g>
<!-- printf&#45;&gt;_vsnprintf -->
<g id="edge44" class="edge">
<title>printf&#45;&gt;_vsnprintf</title>
<path fill="none" stroke="black" d="M661.65,-539.97C661.65,-523.38 661.65,-497.88 661.65,-478.43"/>
<polygon fill="black" stroke="black" points="665.15,-478.34 661.65,-468.34 658.15,-478.34 665.15,-478.34"/>
</g>
<!-- ck_uart_set_parity -->
<g id="node34" class="node">
<title>ck_uart_set_parity</title>
<ellipse fill="none" stroke="black" cx="1113.65" cy="-558" rx="78.79" ry="18"/>
<text text-anchor="middle" x="1113.65" y="-554.3" font-family="Times New Roman,serif" font-size="14.00">ck_uart_set_parity</text>
</g>
<!-- ck_uart_init&#45;&gt;ck_uart_set_parity -->
<g id="edge45" class="edge">
<title>ck_uart_init&#45;&gt;ck_uart_set_parity</title>
<path fill="none" stroke="black" d="M1221.63,-649.13C1200.37,-631.38 1165.74,-602.48 1141.44,-582.2"/>
<polygon fill="black" stroke="black" points="1143.55,-579.4 1133.63,-575.68 1139.06,-584.77 1143.55,-579.4"/>
</g>
<!-- ck_uart_set_wordsize -->
<g id="node35" class="node">
<title>ck_uart_set_wordsize</title>
<ellipse fill="none" stroke="black" cx="1319.65" cy="-558" rx="90.98" ry="18"/>
<text text-anchor="middle" x="1319.65" y="-554.3" font-family="Times New Roman,serif" font-size="14.00">ck_uart_set_wordsize</text>
</g>
<!-- ck_uart_init&#45;&gt;ck_uart_set_wordsize -->
<g id="edge46" class="edge">
<title>ck_uart_init&#45;&gt;ck_uart_set_wordsize</title>
<path fill="none" stroke="black" d="M1252.99,-648.44C1265.82,-631.22 1286.07,-604.05 1300.89,-584.17"/>
<polygon fill="black" stroke="black" points="1303.7,-586.26 1306.86,-576.15 1298.08,-582.08 1303.7,-586.26"/>
</g>
<!-- puts&#45;&gt;fputc -->
<g id="edge43" class="edge">
<title>puts&#45;&gt;fputc</title>
<path fill="none" stroke="black" d="M1425.76,-648.9C1435.49,-631.7 1451.06,-604.21 1462.41,-584.15"/>
<polygon fill="black" stroke="black" points="1465.57,-585.68 1467.45,-575.25 1459.47,-582.23 1465.57,-585.68"/>
</g>
<!-- _ntoa_format -->
<g id="node13" class="node">
<title>_ntoa_format</title>
<ellipse fill="none" stroke="black" cx="280.65" cy="-126" rx="59.59" ry="18"/>
<text text-anchor="middle" x="280.65" y="-122.3" font-family="Times New Roman,serif" font-size="14.00">_ntoa_format</text>
</g>
<!-- &lt;_out_rev&gt; * -->
<g id="node14" class="node">
<title>&lt;_out_rev&gt; *</title>
<ellipse fill="none" stroke="black" cx="280.65" cy="-18" rx="61.19" ry="18"/>
<text text-anchor="middle" x="280.65" y="-14.3" font-family="Times New Roman,serif" font-size="14.00">&lt;_out_rev&gt; *</text>
</g>
<!-- _ntoa_format&#45;&gt;&lt;_out_rev&gt; * -->
<g id="edge11" class="edge">
<title>_ntoa_format&#45;&gt;&lt;_out_rev&gt; *</title>
<path fill="none" stroke="black" d="M280.65,-107.97C280.65,-91.38 280.65,-65.88 280.65,-46.43"/>
<polygon fill="black" stroke="black" points="284.15,-46.34 280.65,-36.34 277.15,-46.34 284.15,-46.34"/>
</g>
<!-- _out_rev -->
<g id="node15" class="node">
<title>_out_rev</title>
<ellipse fill="none" stroke="black" cx="690.65" cy="-18" rx="43.59" ry="18"/>
<text text-anchor="middle" x="690.65" y="-14.3" font-family="Times New Roman,serif" font-size="14.00">_out_rev</text>
</g>
<!-- _ntoa_format&#45;&gt;_out_rev -->
<g id="edge12" class="edge">
<title>_ntoa_format&#45;&gt;_out_rev</title>
<path fill="none" stroke="black" d="M324.52,-113.66C402.77,-93.43 565.64,-51.32 645.09,-30.78"/>
<polygon fill="black" stroke="black" points="646,-34.16 654.81,-28.26 644.25,-27.38 646,-34.16"/>
</g>
<!-- _ntoa_long -->
<g id="node16" class="node">
<title>_ntoa_long</title>
<ellipse fill="none" stroke="black" cx="407.65" cy="-234" rx="51.99" ry="18"/>
<text text-anchor="middle" x="407.65" y="-230.3" font-family="Times New Roman,serif" font-size="14.00">_ntoa_long</text>
</g>
<!-- _ntoa_long&#45;&gt;_ntoa_format -->
<g id="edge13" class="edge">
<title>_ntoa_long&#45;&gt;_ntoa_format</title>
<path fill="none" stroke="black" d="M388.63,-217.13C367.25,-199.28 332.33,-170.14 308.01,-149.84"/>
<polygon fill="black" stroke="black" points="310.13,-147.05 300.21,-143.33 305.64,-152.42 310.13,-147.05"/>
</g>
<!-- _ntoa_long_long -->
<g id="node17" class="node">
<title>_ntoa_long_long</title>
<ellipse fill="none" stroke="black" cx="262.65" cy="-342" rx="72.29" ry="18"/>
<text text-anchor="middle" x="262.65" y="-338.3" font-family="Times New Roman,serif" font-size="14.00">_ntoa_long_long</text>
</g>
<!-- _ntoa_long_long&#45;&gt;_ntoa_format -->
<g id="edge15" class="edge">
<title>_ntoa_long_long&#45;&gt;_ntoa_format</title>
<path fill="none" stroke="black" d="M264.09,-323.85C267.2,-286.83 274.57,-199.18 278.34,-154.39"/>
<polygon fill="black" stroke="black" points="281.85,-154.49 279.2,-144.23 274.87,-153.9 281.85,-154.49"/>
</g>
<!-- __umoddi3 -->
<g id="node18" class="node">
<title>__umoddi3</title>
<ellipse fill="none" stroke="black" cx="52.65" cy="-234" rx="52.79" ry="18"/>
<text text-anchor="middle" x="52.65" y="-230.3" font-family="Times New Roman,serif" font-size="14.00">__umoddi3</text>
</g>
<!-- _ntoa_long_long&#45;&gt;__umoddi3 -->
<g id="edge14" class="edge">
<title>_ntoa_long_long&#45;&gt;__umoddi3</title>
<path fill="none" stroke="black" d="M232.11,-325.59C194.43,-306.57 130.4,-274.25 89.88,-253.8"/>
<polygon fill="black" stroke="black" points="91.37,-250.63 80.86,-249.24 88.21,-256.87 91.37,-250.63"/>
</g>
<!-- __udivdi3 -->
<g id="node19" class="node">
<title>__udivdi3</title>
<ellipse fill="none" stroke="black" cx="188.65" cy="-234" rx="47.39" ry="18"/>
<text text-anchor="middle" x="188.65" y="-230.3" font-family="Times New Roman,serif" font-size="14.00">__udivdi3</text>
</g>
<!-- _ntoa_long_long&#45;&gt;__udivdi3 -->
<g id="edge16" class="edge">
<title>_ntoa_long_long&#45;&gt;__udivdi3</title>
<path fill="none" stroke="black" d="M250.76,-323.97C238.66,-306.64 219.77,-279.59 206,-259.86"/>
<polygon fill="black" stroke="black" points="208.86,-257.84 200.26,-251.64 203.12,-261.84 208.86,-257.84"/>
</g>
<!-- _etoa -->
<g id="node20" class="node">
<title>_etoa</title>
<ellipse fill="none" stroke="black" cx="859.65" cy="-342" rx="30.59" ry="18"/>
<text text-anchor="middle" x="859.65" y="-338.3" font-family="Times New Roman,serif" font-size="14.00">_etoa</text>
</g>
<!-- _etoa&#45;&gt;_ntoa_long -->
<g id="edge18" class="edge">
<title>_etoa&#45;&gt;_ntoa_long</title>
<path fill="none" stroke="black" d="M831.35,-334.5C767.97,-319.93 609.81,-283.44 477.65,-252 471.5,-250.54 465.05,-248.99 458.66,-247.45"/>
<polygon fill="black" stroke="black" points="459.26,-243.99 448.72,-245.04 457.61,-250.8 459.26,-243.99"/>
</g>
<!-- __floatsidf -->
<g id="node21" class="node">
<title>__floatsidf</title>
<ellipse fill="none" stroke="black" cx="1366.65" cy="-126" rx="50.09" ry="18"/>
<text text-anchor="middle" x="1366.65" y="-122.3" font-family="Times New Roman,serif" font-size="14.00">__floatsidf</text>
</g>
<!-- _etoa&#45;&gt;__floatsidf -->
<g id="edge17" class="edge">
<title>_etoa&#45;&gt;__floatsidf</title>
<path fill="none" stroke="black" d="M883.76,-330.82C964.4,-296.78 1225.28,-186.67 1326.23,-144.06"/>
<polygon fill="black" stroke="black" points="1327.64,-147.26 1335.49,-140.15 1324.92,-140.81 1327.64,-147.26"/>
</g>
<!-- __subdf3 -->
<g id="node22" class="node">
<title>__subdf3</title>
<ellipse fill="none" stroke="black" cx="1498.65" cy="-126" rx="46.29" ry="18"/>
<text text-anchor="middle" x="1498.65" y="-122.3" font-family="Times New Roman,serif" font-size="14.00">__subdf3</text>
</g>
<!-- _etoa&#45;&gt;__subdf3 -->
<g id="edge19" class="edge">
<title>_etoa&#45;&gt;__subdf3</title>
<path fill="none" stroke="black" d="M886.17,-332.93C936.26,-317.62 1048.12,-283.12 1141.65,-252 1255.73,-214.03 1389.25,-166.43 1456.04,-142.4"/>
<polygon fill="black" stroke="black" points="1457.56,-145.57 1465.79,-138.89 1455.19,-138.99 1457.56,-145.57"/>
</g>
<!-- __divdf3 -->
<g id="node23" class="node">
<title>__divdf3</title>
<ellipse fill="none" stroke="black" cx="539.65" cy="-234" rx="44.39" ry="18"/>
<text text-anchor="middle" x="539.65" y="-230.3" font-family="Times New Roman,serif" font-size="14.00">__divdf3</text>
</g>
<!-- _etoa&#45;&gt;__divdf3 -->
<g id="edge20" class="edge">
<title>_etoa&#45;&gt;__divdf3</title>
<path fill="none" stroke="black" d="M833.73,-332.42C778.82,-314.23 650.27,-271.64 582.77,-249.29"/>
<polygon fill="black" stroke="black" points="583.47,-245.83 572.88,-246.01 581.27,-252.48 583.47,-245.83"/>
</g>
<!-- __adddf3 -->
<g id="node24" class="node">
<title>__adddf3</title>
<ellipse fill="none" stroke="black" cx="1673.65" cy="-234" rx="46.29" ry="18"/>
<text text-anchor="middle" x="1673.65" y="-230.3" font-family="Times New Roman,serif" font-size="14.00">__adddf3</text>
</g>
<!-- _etoa&#45;&gt;__adddf3 -->
<g id="edge21" class="edge">
<title>_etoa&#45;&gt;__adddf3</title>
<path fill="none" stroke="black" d="M889.49,-337.5C986.58,-326.07 1302.22,-288.42 1562.65,-252 1581.95,-249.3 1603.11,-246.12 1621.73,-243.24"/>
<polygon fill="black" stroke="black" points="1622.44,-246.67 1631.78,-241.68 1621.36,-239.75 1622.44,-246.67"/>
</g>
<!-- __fixdfsi -->
<g id="node25" class="node">
<title>__fixdfsi</title>
<ellipse fill="none" stroke="black" cx="860.65" cy="-126" rx="43.59" ry="18"/>
<text text-anchor="middle" x="860.65" y="-122.3" font-family="Times New Roman,serif" font-size="14.00">__fixdfsi</text>
</g>
<!-- _etoa&#45;&gt;__fixdfsi -->
<g id="edge22" class="edge">
<title>_etoa&#45;&gt;__fixdfsi</title>
<path fill="none" stroke="black" d="M859.73,-323.85C859.9,-286.83 860.31,-199.18 860.52,-154.39"/>
<polygon fill="black" stroke="black" points="864.02,-154.25 860.56,-144.23 857.02,-154.22 864.02,-154.25"/>
</g>
<!-- __gedf2 -->
<g id="node26" class="node">
<title>__gedf2</title>
<ellipse fill="none" stroke="black" cx="611.65" cy="-126" rx="40.89" ry="18"/>
<text text-anchor="middle" x="611.65" y="-122.3" font-family="Times New Roman,serif" font-size="14.00">__gedf2</text>
</g>
<!-- _etoa&#45;&gt;__gedf2 -->
<g id="edge23" class="edge">
<title>_etoa&#45;&gt;__gedf2</title>
<path fill="none" stroke="black" d="M842.99,-326.63C800.52,-289.98 687.95,-192.85 637.16,-149.01"/>
<polygon fill="black" stroke="black" points="639.41,-146.34 629.55,-142.45 634.84,-151.64 639.41,-146.34"/>
</g>
<!-- __muldf3 -->
<g id="node27" class="node">
<title>__muldf3</title>
<ellipse fill="none" stroke="black" cx="734.65" cy="-126" rx="46.29" ry="18"/>
<text text-anchor="middle" x="734.65" y="-122.3" font-family="Times New Roman,serif" font-size="14.00">__muldf3</text>
</g>
<!-- _etoa&#45;&gt;__muldf3 -->
<g id="edge24" class="edge">
<title>_etoa&#45;&gt;__muldf3</title>
<path fill="none" stroke="black" d="M850.04,-324.56C828.38,-287.47 775.54,-197.02 749.57,-152.54"/>
<polygon fill="black" stroke="black" points="752.52,-150.66 744.45,-143.79 746.47,-154.19 752.52,-150.66"/>
</g>
<!-- __ledf2 -->
<g id="node28" class="node">
<title>__ledf2</title>
<ellipse fill="none" stroke="black" cx="1618.65" cy="-126" rx="38.19" ry="18"/>
<text text-anchor="middle" x="1618.65" y="-122.3" font-family="Times New Roman,serif" font-size="14.00">__ledf2</text>
</g>
<!-- _etoa&#45;&gt;__ledf2 -->
<g id="edge25" class="edge">
<title>_etoa&#45;&gt;__ledf2</title>
<path fill="none" stroke="black" d="M887.81,-334.66C948.67,-320.81 1096.89,-286.37 1219.65,-252 1352.17,-214.9 1507.23,-164.19 1578.77,-140.38"/>
<polygon fill="black" stroke="black" points="1579.92,-143.69 1588.3,-137.21 1577.71,-137.05 1579.92,-143.69"/>
</g>
<!-- _ftoa -->
<g id="node29" class="node">
<title>_ftoa</title>
<ellipse fill="none" stroke="black" cx="945.65" cy="-234" rx="29.8" ry="18"/>
<text text-anchor="middle" x="945.65" y="-230.3" font-family="Times New Roman,serif" font-size="14.00">_ftoa</text>
</g>
<!-- _etoa&#45;&gt;_ftoa -->
<g id="edge26" class="edge">
<title>_etoa&#45;&gt;_ftoa</title>
<path fill="none" stroke="black" d="M863.23,-323.97C874.33,-305.18 898.63,-274.98 918.52,-255.06"/>
<polygon fill="black" stroke="black" points="921.11,-257.43 925.89,-247.98 916.26,-252.39 921.11,-257.43"/>
</g>
<!-- __eqdf2 -->
<g id="node30" class="node">
<title>__eqdf2</title>
<ellipse fill="none" stroke="black" cx="492.65" cy="-126" rx="41.69" ry="18"/>
<text text-anchor="middle" x="492.65" y="-122.3" font-family="Times New Roman,serif" font-size="14.00">__eqdf2</text>
</g>
<!-- _etoa&#45;&gt;__eqdf2 -->
<g id="edge27" class="edge">
<title>_etoa&#45;&gt;__eqdf2</title>
<path fill="none" stroke="black" d="M838.6,-328.73C777.4,-293.04 599.18,-189.12 525.31,-146.05"/>
<polygon fill="black" stroke="black" points="526.83,-142.88 516.42,-140.87 523.3,-148.93 526.83,-142.88"/>
</g>
<!-- __clzsi2 -->
<g id="node36" class="node">
<title>__clzsi2</title>
<ellipse fill="none" stroke="black" cx="1293.65" cy="-18" rx="40.89" ry="18"/>
<text text-anchor="middle" x="1293.65" y="-14.3" font-family="Times New Roman,serif" font-size="14.00">__clzsi2</text>
</g>
<!-- __floatsidf&#45;&gt;__clzsi2 -->
<g id="edge51" class="edge">
<title>__floatsidf&#45;&gt;__clzsi2</title>
<path fill="none" stroke="black" d="M1355.24,-108.44C1343.29,-91.09 1324.4,-63.65 1310.68,-43.74"/>
<polygon fill="black" stroke="black" points="1313.53,-41.7 1304.97,-35.45 1307.76,-45.67 1313.53,-41.7"/>
</g>
<!-- __subdf3&#45;&gt;__clzsi2 -->
<g id="edge50" class="edge">
<title>__subdf3&#45;&gt;__clzsi2</title>
<path fill="none" stroke="black" d="M1471.85,-111.14C1434.99,-92.09 1368.65,-57.78 1328.13,-36.83"/>
<polygon fill="black" stroke="black" points="1329.65,-33.68 1319.16,-32.19 1326.44,-39.9 1329.65,-33.68"/>
</g>
<!-- __divdf3&#45;&gt;__clzsi2 -->
<g id="edge48" class="edge">
<title>__divdf3&#45;&gt;__clzsi2</title>
<path fill="none" stroke="black" d="M513.06,-219.48C470.85,-196.34 396.77,-147.77 432.65,-108 487.17,-47.55 1066.24,-25.67 1242.82,-20.38"/>
<polygon fill="black" stroke="black" points="1242.99,-23.87 1252.88,-20.08 1242.78,-16.87 1242.99,-23.87"/>
</g>
<!-- __adddf3&#45;&gt;__clzsi2 -->
<g id="edge47" class="edge">
<title>__adddf3&#45;&gt;__clzsi2</title>
<path fill="none" stroke="black" d="M1679.86,-215.89C1688.21,-189.62 1699.33,-139.11 1674.65,-108 1633.85,-56.58 1437.52,-32.08 1343.74,-23.15"/>
<polygon fill="black" stroke="black" points="1343.92,-19.65 1333.64,-22.21 1343.27,-26.62 1343.92,-19.65"/>
</g>
<!-- __muldf3&#45;&gt;__clzsi2 -->
<g id="edge49" class="edge">
<title>__muldf3&#45;&gt;__clzsi2</title>
<path fill="none" stroke="black" d="M771.07,-114.77C780.05,-112.4 789.67,-110 798.65,-108 961.39,-71.82 1156.74,-40.1 1245.52,-26.31"/>
<polygon fill="black" stroke="black" points="1246.21,-29.75 1255.55,-24.76 1245.14,-22.83 1246.21,-29.75"/>
</g>
<!-- _ftoa&#45;&gt;_out_rev -->
<g id="edge31" class="edge">
<title>_ftoa&#45;&gt;_out_rev</title>
<path fill="none" stroke="black" d="M947.4,-215.88C949.11,-189.59 948.45,-139.06 922.65,-108 877.84,-54.07 796.42,-32.74 742.93,-24.36"/>
<polygon fill="black" stroke="black" points="743.36,-20.89 732.95,-22.9 742.34,-27.81 743.36,-20.89"/>
</g>
<!-- _ftoa&#45;&gt;_etoa -->
<g id="edge30" class="edge">
<title>_ftoa&#45;&gt;_etoa</title>
<path fill="none" stroke="black" d="M942.1,-251.96C931.03,-270.73 906.71,-300.96 886.8,-320.91"/>
<polygon fill="black" stroke="black" points="884.2,-318.55 879.42,-328 889.05,-323.59 884.2,-318.55"/>
</g>
<!-- _ftoa&#45;&gt;__floatsidf -->
<g id="edge28" class="edge">
<title>_ftoa&#45;&gt;__floatsidf</title>
<path fill="none" stroke="black" d="M972.62,-226.21C1042,-208.74 1227.42,-162.05 1316.93,-139.52"/>
<polygon fill="black" stroke="black" points="1318,-142.86 1326.84,-137.02 1316.29,-136.07 1318,-142.86"/>
</g>
<!-- _ftoa&#45;&gt;__subdf3 -->
<g id="edge32" class="edge">
<title>_ftoa&#45;&gt;__subdf3</title>
<path fill="none" stroke="black" d="M974.19,-228.62C1049.73,-216.85 1260.95,-182.81 1434.65,-144 1440.4,-142.72 1446.41,-141.26 1452.35,-139.76"/>
<polygon fill="black" stroke="black" points="1453.41,-143.1 1462.22,-137.21 1451.66,-136.33 1453.41,-143.1"/>
</g>
<!-- _ftoa&#45;&gt;__fixdfsi -->
<g id="edge33" class="edge">
<title>_ftoa&#45;&gt;__fixdfsi</title>
<path fill="none" stroke="black" d="M933.1,-217.36C919.14,-199.95 896.4,-171.59 880.12,-151.29"/>
<polygon fill="black" stroke="black" points="882.78,-149.01 873.8,-143.4 877.32,-153.39 882.78,-149.01"/>
</g>
<!-- _ftoa&#45;&gt;__gedf2 -->
<g id="edge35" class="edge">
<title>_ftoa&#45;&gt;__gedf2</title>
<path fill="none" stroke="black" d="M919.71,-224.77C862.23,-206.53 723.65,-162.55 653.64,-140.33"/>
<polygon fill="black" stroke="black" points="654.41,-136.9 643.82,-137.21 652.29,-143.57 654.41,-136.9"/>
</g>
<!-- _ftoa&#45;&gt;__muldf3 -->
<g id="edge36" class="edge">
<title>_ftoa&#45;&gt;__muldf3</title>
<path fill="none" stroke="black" d="M923.46,-221.86C887.19,-203.63 814.83,-167.28 770.98,-145.25"/>
<polygon fill="black" stroke="black" points="772.32,-142.01 761.81,-140.65 769.18,-148.26 772.32,-142.01"/>
</g>
<!-- _ftoa&#45;&gt;__ledf2 -->
<g id="edge37" class="edge">
<title>_ftoa&#45;&gt;__ledf2</title>
<path fill="none" stroke="black" d="M975.16,-230.35C1064.48,-221.97 1339.48,-193.67 1562.65,-144 1567.78,-142.86 1573.13,-141.48 1578.4,-140.01"/>
<polygon fill="black" stroke="black" points="1579.73,-143.27 1588.35,-137.11 1577.77,-136.55 1579.73,-143.27"/>
</g>
<!-- _ftoa&#45;&gt;__eqdf2 -->
<g id="edge38" class="edge">
<title>_ftoa&#45;&gt;__eqdf2</title>
<path fill="none" stroke="black" d="M917.89,-227.25C853.47,-213.78 688.91,-178.71 552.65,-144 547.27,-142.63 541.64,-141.13 536.08,-139.6"/>
<polygon fill="black" stroke="black" points="536.77,-136.16 526.2,-136.85 534.89,-142.9 536.77,-136.16"/>
</g>
<!-- __fixunsdfsi -->
<g id="node31" class="node">
<title>__fixunsdfsi</title>
<ellipse fill="none" stroke="black" cx="1070.65" cy="-126" rx="55.79" ry="18"/>
<text text-anchor="middle" x="1070.65" y="-122.3" font-family="Times New Roman,serif" font-size="14.00">__fixunsdfsi</text>
</g>
<!-- _ftoa&#45;&gt;__fixunsdfsi -->
<g id="edge29" class="edge">
<title>_ftoa&#45;&gt;__fixunsdfsi</title>
<path fill="none" stroke="black" d="M962.24,-218.92C983.01,-201.32 1018.84,-170.93 1043.59,-149.95"/>
<polygon fill="black" stroke="black" points="1046.15,-152.36 1051.52,-143.22 1041.63,-147.02 1046.15,-152.36"/>
</g>
<!-- __floatunsidf -->
<g id="node32" class="node">
<title>__floatunsidf</title>
<ellipse fill="none" stroke="black" cx="1221.65" cy="-126" rx="59.29" ry="18"/>
<text text-anchor="middle" x="1221.65" y="-122.3" font-family="Times New Roman,serif" font-size="14.00">__floatunsidf</text>
</g>
<!-- _ftoa&#45;&gt;__floatunsidf -->
<g id="edge34" class="edge">
<title>_ftoa&#45;&gt;__floatunsidf</title>
<path fill="none" stroke="black" d="M970.14,-223.59C1016.63,-205.74 1118.26,-166.71 1177.11,-144.1"/>
<polygon fill="black" stroke="black" points="1178.44,-147.34 1186.52,-140.49 1175.93,-140.81 1178.44,-147.34"/>
</g>
<!-- __floatunsidf&#45;&gt;__clzsi2 -->
<g id="edge52" class="edge">
<title>__floatunsidf&#45;&gt;__clzsi2</title>
<path fill="none" stroke="black" d="M1233.21,-107.97C1244.93,-90.71 1263.2,-63.83 1276.58,-44.13"/>
<polygon fill="black" stroke="black" points="1279.62,-45.88 1282.34,-35.64 1273.83,-41.94 1279.62,-45.88"/>
</g>
<!-- _vsnprintf&#45;&gt;_ntoa_long -->
<g id="edge40" class="edge">
<title>_vsnprintf&#45;&gt;_ntoa_long</title>
<path fill="none" stroke="black" d="M642.97,-433.26C598.49,-395.79 486.16,-301.15 434.45,-257.59"/>
<polygon fill="black" stroke="black" points="436.6,-254.82 426.7,-251.05 432.09,-260.17 436.6,-254.82"/>
</g>
<!-- _vsnprintf&#45;&gt;_ntoa_long_long -->
<g id="edge39" class="edge">
<title>_vsnprintf&#45;&gt;_ntoa_long_long</title>
<path fill="none" stroke="black" d="M623.39,-438.84C553.01,-420.14 402.66,-380.2 320.01,-358.24"/>
<polygon fill="black" stroke="black" points="320.84,-354.84 310.28,-355.65 319.04,-361.6 320.84,-354.84"/>
</g>
<!-- _vsnprintf&#45;&gt;_etoa -->
<g id="edge41" class="edge">
<title>_vsnprintf&#45;&gt;_etoa</title>
<path fill="none" stroke="black" d="M687.94,-434.92C724.3,-415.46 789.84,-380.37 828.58,-359.63"/>
<polygon fill="black" stroke="black" points="830.65,-362.49 837.82,-354.69 827.35,-356.32 830.65,-362.49"/>
</g>
<!-- _vsnprintf&#45;&gt;_ftoa -->
<g id="edge42" class="edge">
<title>_vsnprintf&#45;&gt;_ftoa</title>
<path fill="none" stroke="black" d="M708.05,-444.76C763.46,-437.24 855.31,-416.52 908.65,-360 933.74,-333.41 941.9,-290.6 944.5,-262.63"/>
<polygon fill="black" stroke="black" points="948.01,-262.58 945.27,-252.35 941.03,-262.06 948.01,-262.58"/>
</g>
</g>
</svg>
