<?xml version="1.0" encoding="UTF-8" standalone="no"?>
<!DOCTYPE svg PUBLIC "-//W3C//DTD SVG 1.1//EN"
 "http://www.w3.org/Graphics/SVG/1.1/DTD/svg11.dtd">
<!-- Generated by graphviz version 6.0.2 (20221011.1828)
 -->
<!-- Pages: 1 -->
<svg width="1718pt" height="908pt"
 viewBox="0.00 0.00 1717.64 908.00" xmlns="http://www.w3.org/2000/svg" xmlns:xlink="http://www.w3.org/1999/xlink">
<g id="graph0" class="graph" transform="scale(1 1) rotate(0) translate(4 904)">
<polygon fill="white" stroke="none" points="-4,4 -4,-904 1713.64,-904 1713.64,4 -4,4"/>
<!-- __to_main -->
<g id="node1" class="node">
<title>__to_main</title>
<ellipse fill="none" stroke="black" cx="1135.45" cy="-882" rx="50.09" ry="18"/>
<text text-anchor="middle" x="1135.45" y="-878.3" font-family="Times New Roman,serif" font-size="14.00">__to_main</text>
</g>
<!-- main -->
<g id="node2" class="node">
<title>main</title>
<ellipse fill="none" stroke="black" cx="1135.45" cy="-774" rx="27.9" ry="18"/>
<text text-anchor="middle" x="1135.45" y="-770.3" font-family="Times New Roman,serif" font-size="14.00">main</text>
</g>
<!-- __to_main&#45;&gt;main -->
<g id="edge1" class="edge">
<title>__to_main&#45;&gt;main</title>
<path fill="none" stroke="black" d="M1135.45,-863.97C1135.45,-847.38 1135.45,-821.88 1135.45,-802.43"/>
<polygon fill="black" stroke="black" points="1138.95,-802.34 1135.45,-792.34 1131.95,-802.34 1138.95,-802.34"/>
</g>
<!-- benchmark -->
<g id="node3" class="node">
<title>benchmark</title>
<ellipse fill="none" stroke="black" cx="789.45" cy="-666" rx="50.89" ry="18"/>
<text text-anchor="middle" x="789.45" y="-662.3" font-family="Times New Roman,serif" font-size="14.00">benchmark</text>
</g>
<!-- main&#45;&gt;benchmark -->
<g id="edge5" class="edge">
<title>main&#45;&gt;benchmark</title>
<path fill="none" stroke="black" d="M1110.84,-765.46C1053.58,-747.92 910.66,-704.13 836.2,-681.32"/>
<polygon fill="black" stroke="black" points="837.19,-677.97 826.6,-678.38 835.14,-684.66 837.19,-677.97"/>
</g>
<!-- ck_uart_init -->
<g id="node8" class="node">
<title>ck_uart_init</title>
<ellipse fill="none" stroke="black" cx="1077.45" cy="-666" rx="53.89" ry="18"/>
<text text-anchor="middle" x="1077.45" y="-662.3" font-family="Times New Roman,serif" font-size="14.00">ck_uart_init</text>
</g>
<!-- main&#45;&gt;ck_uart_init -->
<g id="edge6" class="edge">
<title>main&#45;&gt;ck_uart_init</title>
<path fill="none" stroke="black" d="M1126.64,-756.9C1117.34,-739.9 1102.53,-712.85 1091.59,-692.85"/>
<polygon fill="black" stroke="black" points="1094.59,-691.05 1086.72,-683.95 1088.45,-694.41 1094.59,-691.05"/>
</g>
<!-- puts -->
<g id="node9" class="node">
<title>puts</title>
<ellipse fill="none" stroke="black" cx="1194.45" cy="-666" rx="27" ry="18"/>
<text text-anchor="middle" x="1194.45" y="-662.3" font-family="Times New Roman,serif" font-size="14.00">puts</text>
</g>
<!-- main&#45;&gt;puts -->
<g id="edge7" class="edge">
<title>main&#45;&gt;puts</title>
<path fill="none" stroke="black" d="M1144.41,-756.9C1153.98,-739.7 1169.28,-712.21 1180.45,-692.15"/>
<polygon fill="black" stroke="black" points="1183.6,-693.69 1185.4,-683.25 1177.48,-690.29 1183.6,-693.69"/>
</g>
<!-- ck_uart_open -->
<g id="node10" class="node">
<title>ck_uart_open</title>
<ellipse fill="none" stroke="black" cx="1318.45" cy="-666" rx="61.19" ry="18"/>
<text text-anchor="middle" x="1318.45" y="-662.3" font-family="Times New Roman,serif" font-size="14.00">ck_uart_open</text>
</g>
<!-- main&#45;&gt;ck_uart_open -->
<g id="edge8" class="edge">
<title>main&#45;&gt;ck_uart_open</title>
<path fill="none" stroke="black" d="M1155.73,-761.25C1186.49,-743.44 1245.34,-709.35 1283.2,-687.42"/>
<polygon fill="black" stroke="black" points="1284.97,-690.43 1291.87,-682.39 1281.46,-684.38 1284.97,-690.43"/>
</g>
<!-- printf -->
<g id="node4" class="node">
<title>printf</title>
<ellipse fill="none" stroke="black" cx="665.45" cy="-558" rx="30.59" ry="18"/>
<text text-anchor="middle" x="665.45" y="-554.3" font-family="Times New Roman,serif" font-size="14.00">printf</text>
</g>
<!-- benchmark&#45;&gt;printf -->
<g id="edge2" class="edge">
<title>benchmark&#45;&gt;printf</title>
<path fill="none" stroke="black" d="M770.88,-649.13C749.37,-630.74 713.83,-600.36 690.03,-580.02"/>
<polygon fill="black" stroke="black" points="692.02,-577.11 682.15,-573.28 687.47,-582.43 692.02,-577.11"/>
</g>
<!-- crc32pseudo -->
<g id="node5" class="node">
<title>crc32pseudo</title>
<ellipse fill="none" stroke="black" cx="789.45" cy="-558" rx="57.69" ry="18"/>
<text text-anchor="middle" x="789.45" y="-554.3" font-family="Times New Roman,serif" font-size="14.00">crc32pseudo</text>
</g>
<!-- benchmark&#45;&gt;crc32pseudo -->
<g id="edge3" class="edge">
<title>benchmark&#45;&gt;crc32pseudo</title>
<path fill="none" stroke="black" d="M789.45,-647.97C789.45,-631.38 789.45,-605.88 789.45,-586.43"/>
<polygon fill="black" stroke="black" points="792.95,-586.34 789.45,-576.34 785.95,-586.34 792.95,-586.34"/>
</g>
<!-- _vsnprintf -->
<g id="node31" class="node">
<title>_vsnprintf</title>
<ellipse fill="none" stroke="black" cx="665.45" cy="-450" rx="48.19" ry="18"/>
<text text-anchor="middle" x="665.45" y="-446.3" font-family="Times New Roman,serif" font-size="14.00">_vsnprintf</text>
</g>
<!-- printf&#45;&gt;_vsnprintf -->
<g id="edge42" class="edge">
<title>printf&#45;&gt;_vsnprintf</title>
<path fill="none" stroke="black" d="M665.45,-539.97C665.45,-523.38 665.45,-497.88 665.45,-478.43"/>
<polygon fill="black" stroke="black" points="668.95,-478.34 665.45,-468.34 661.95,-478.34 668.95,-478.34"/>
</g>
<!-- fputc -->
<g id="node6" class="node">
<title>fputc</title>
<ellipse fill="none" stroke="black" cx="1325.45" cy="-558" rx="29.8" ry="18"/>
<text text-anchor="middle" x="1325.45" y="-554.3" font-family="Times New Roman,serif" font-size="14.00">fputc</text>
</g>
<!-- &lt;ck_uart_putc&gt; * -->
<g id="node7" class="node">
<title>&lt;ck_uart_putc&gt; *</title>
<ellipse fill="none" stroke="black" cx="1325.45" cy="-450" rx="76.89" ry="18"/>
<text text-anchor="middle" x="1325.45" y="-446.3" font-family="Times New Roman,serif" font-size="14.00">&lt;ck_uart_putc&gt; *</text>
</g>
<!-- fputc&#45;&gt;&lt;ck_uart_putc&gt; * -->
<g id="edge4" class="edge">
<title>fputc&#45;&gt;&lt;ck_uart_putc&gt; *</title>
<path fill="none" stroke="black" d="M1325.45,-539.97C1325.45,-523.38 1325.45,-497.88 1325.45,-478.43"/>
<polygon fill="black" stroke="black" points="1328.95,-478.34 1325.45,-468.34 1321.95,-478.34 1328.95,-478.34"/>
</g>
<!-- ck_uart_set_wordsize -->
<g id="node32" class="node">
<title>ck_uart_set_wordsize</title>
<ellipse fill="none" stroke="black" cx="974.45" cy="-558" rx="90.98" ry="18"/>
<text text-anchor="middle" x="974.45" y="-554.3" font-family="Times New Roman,serif" font-size="14.00">ck_uart_set_wordsize</text>
</g>
<!-- ck_uart_init&#45;&gt;ck_uart_set_wordsize -->
<g id="edge43" class="edge">
<title>ck_uart_init&#45;&gt;ck_uart_set_wordsize</title>
<path fill="none" stroke="black" d="M1061.35,-648.44C1044.29,-630.88 1017.19,-602.99 997.79,-583.02"/>
<polygon fill="black" stroke="black" points="1000.25,-580.53 990.77,-575.8 995.23,-585.41 1000.25,-580.53"/>
</g>
<!-- ck_uart_set_parity -->
<g id="node33" class="node">
<title>ck_uart_set_parity</title>
<ellipse fill="none" stroke="black" cx="1180.45" cy="-558" rx="78.79" ry="18"/>
<text text-anchor="middle" x="1180.45" y="-554.3" font-family="Times New Roman,serif" font-size="14.00">ck_uart_set_parity</text>
</g>
<!-- ck_uart_init&#45;&gt;ck_uart_set_parity -->
<g id="edge44" class="edge">
<title>ck_uart_init&#45;&gt;ck_uart_set_parity</title>
<path fill="none" stroke="black" d="M1093.54,-648.44C1110.6,-630.88 1137.7,-602.99 1157.1,-583.02"/>
<polygon fill="black" stroke="black" points="1159.67,-585.41 1164.13,-575.8 1154.65,-580.53 1159.67,-585.41"/>
</g>
<!-- puts&#45;&gt;fputc -->
<g id="edge41" class="edge">
<title>puts&#45;&gt;fputc</title>
<path fill="none" stroke="black" d="M1211.04,-651.58C1233.53,-633.38 1273.89,-600.72 1300.16,-579.46"/>
<polygon fill="black" stroke="black" points="1302.59,-582 1308.16,-572.99 1298.18,-576.56 1302.59,-582"/>
</g>
<!-- _ntoa_format -->
<g id="node11" class="node">
<title>_ntoa_format</title>
<ellipse fill="none" stroke="black" cx="271.45" cy="-126" rx="59.59" ry="18"/>
<text text-anchor="middle" x="271.45" y="-122.3" font-family="Times New Roman,serif" font-size="14.00">_ntoa_format</text>
</g>
<!-- &lt;_out_rev&gt; * -->
<g id="node12" class="node">
<title>&lt;_out_rev&gt; *</title>
<ellipse fill="none" stroke="black" cx="271.45" cy="-18" rx="61.19" ry="18"/>
<text text-anchor="middle" x="271.45" y="-14.3" font-family="Times New Roman,serif" font-size="14.00">&lt;_out_rev&gt; *</text>
</g>
<!-- _ntoa_format&#45;&gt;&lt;_out_rev&gt; * -->
<g id="edge9" class="edge">
<title>_ntoa_format&#45;&gt;&lt;_out_rev&gt; *</title>
<path fill="none" stroke="black" d="M271.45,-107.97C271.45,-91.38 271.45,-65.88 271.45,-46.43"/>
<polygon fill="black" stroke="black" points="274.95,-46.34 271.45,-36.34 267.95,-46.34 274.95,-46.34"/>
</g>
<!-- _out_rev -->
<g id="node13" class="node">
<title>_out_rev</title>
<ellipse fill="none" stroke="black" cx="739.45" cy="-18" rx="43.59" ry="18"/>
<text text-anchor="middle" x="739.45" y="-14.3" font-family="Times New Roman,serif" font-size="14.00">_out_rev</text>
</g>
<!-- _ntoa_format&#45;&gt;_out_rev -->
<g id="edge10" class="edge">
<title>_ntoa_format&#45;&gt;_out_rev</title>
<path fill="none" stroke="black" d="M317.6,-114.55C406.86,-94.33 602.27,-50.07 692.31,-29.68"/>
<polygon fill="black" stroke="black" points="693.26,-33.05 702.23,-27.43 691.71,-26.22 693.26,-33.05"/>
</g>
<!-- _ntoa_long -->
<g id="node14" class="node">
<title>_ntoa_long</title>
<ellipse fill="none" stroke="black" cx="408.45" cy="-234" rx="51.99" ry="18"/>
<text text-anchor="middle" x="408.45" y="-230.3" font-family="Times New Roman,serif" font-size="14.00">_ntoa_long</text>
</g>
<!-- _ntoa_long&#45;&gt;_ntoa_format -->
<g id="edge11" class="edge">
<title>_ntoa_long&#45;&gt;_ntoa_format</title>
<path fill="none" stroke="black" d="M388.23,-217.36C364.99,-199.38 326.67,-169.73 300.3,-149.33"/>
<polygon fill="black" stroke="black" points="302.24,-146.4 292.19,-143.05 297.96,-151.94 302.24,-146.4"/>
</g>
<!-- _ntoa_long_long -->
<g id="node15" class="node">
<title>_ntoa_long_long</title>
<ellipse fill="none" stroke="black" cx="261.45" cy="-342" rx="72.29" ry="18"/>
<text text-anchor="middle" x="261.45" y="-338.3" font-family="Times New Roman,serif" font-size="14.00">_ntoa_long_long</text>
</g>
<!-- _ntoa_long_long&#45;&gt;_ntoa_format -->
<g id="edge14" class="edge">
<title>_ntoa_long_long&#45;&gt;_ntoa_format</title>
<path fill="none" stroke="black" d="M262.25,-323.85C263.98,-286.83 268.07,-199.18 270.17,-154.39"/>
<polygon fill="black" stroke="black" points="273.67,-154.38 270.64,-144.23 266.68,-154.06 273.67,-154.38"/>
</g>
<!-- __udivdi3 -->
<g id="node16" class="node">
<title>__udivdi3</title>
<ellipse fill="none" stroke="black" cx="47.45" cy="-234" rx="47.39" ry="18"/>
<text text-anchor="middle" x="47.45" y="-230.3" font-family="Times New Roman,serif" font-size="14.00">__udivdi3</text>
</g>
<!-- _ntoa_long_long&#45;&gt;__udivdi3 -->
<g id="edge12" class="edge">
<title>_ntoa_long_long&#45;&gt;__udivdi3</title>
<path fill="none" stroke="black" d="M230.33,-325.59C191.61,-306.41 125.59,-273.71 84.36,-253.28"/>
<polygon fill="black" stroke="black" points="85.71,-250.05 75.2,-248.75 82.6,-256.32 85.71,-250.05"/>
</g>
<!-- __umoddi3 -->
<g id="node17" class="node">
<title>__umoddi3</title>
<ellipse fill="none" stroke="black" cx="183.45" cy="-234" rx="52.79" ry="18"/>
<text text-anchor="middle" x="183.45" y="-230.3" font-family="Times New Roman,serif" font-size="14.00">__umoddi3</text>
</g>
<!-- _ntoa_long_long&#45;&gt;__umoddi3 -->
<g id="edge13" class="edge">
<title>_ntoa_long_long&#45;&gt;__umoddi3</title>
<path fill="none" stroke="black" d="M248.91,-323.97C236.16,-306.64 216.25,-279.59 201.74,-259.86"/>
<polygon fill="black" stroke="black" points="204.44,-257.62 195.69,-251.64 198.8,-261.77 204.44,-257.62"/>
</g>
<!-- _etoa -->
<g id="node18" class="node">
<title>_etoa</title>
<ellipse fill="none" stroke="black" cx="864.45" cy="-342" rx="30.59" ry="18"/>
<text text-anchor="middle" x="864.45" y="-338.3" font-family="Times New Roman,serif" font-size="14.00">_etoa</text>
</g>
<!-- _etoa&#45;&gt;_ntoa_long -->
<g id="edge16" class="edge">
<title>_etoa&#45;&gt;_ntoa_long</title>
<path fill="none" stroke="black" d="M836.33,-334.63C772.6,-320.18 612.29,-283.68 478.45,-252 472.3,-250.54 465.85,-249 459.46,-247.46"/>
<polygon fill="black" stroke="black" points="460.06,-244.01 449.51,-245.06 458.41,-250.81 460.06,-244.01"/>
</g>
<!-- __subdf3 -->
<g id="node19" class="node">
<title>__subdf3</title>
<ellipse fill="none" stroke="black" cx="741.45" cy="-126" rx="46.29" ry="18"/>
<text text-anchor="middle" x="741.45" y="-122.3" font-family="Times New Roman,serif" font-size="14.00">__subdf3</text>
</g>
<!-- _etoa&#45;&gt;__subdf3 -->
<g id="edge15" class="edge">
<title>_etoa&#45;&gt;__subdf3</title>
<path fill="none" stroke="black" d="M855,-324.56C833.68,-287.47 781.69,-197.02 756.13,-152.54"/>
<polygon fill="black" stroke="black" points="759.11,-150.71 751.09,-143.79 753.04,-154.2 759.11,-150.71"/>
</g>
<!-- __muldf3 -->
<g id="node20" class="node">
<title>__muldf3</title>
<ellipse fill="none" stroke="black" cx="1365.45" cy="-126" rx="46.29" ry="18"/>
<text text-anchor="middle" x="1365.45" y="-122.3" font-family="Times New Roman,serif" font-size="14.00">__muldf3</text>
</g>
<!-- _etoa&#45;&gt;__muldf3 -->
<g id="edge17" class="edge">
<title>_etoa&#45;&gt;__muldf3</title>
<path fill="none" stroke="black" d="M888.61,-330.68C968.82,-296.42 1226.73,-186.25 1326,-143.85"/>
<polygon fill="black" stroke="black" points="1327.55,-146.99 1335.37,-139.85 1324.8,-140.55 1327.55,-146.99"/>
</g>
<!-- __gedf2 -->
<g id="node21" class="node">
<title>__gedf2</title>
<ellipse fill="none" stroke="black" cx="482.45" cy="-126" rx="40.89" ry="18"/>
<text text-anchor="middle" x="482.45" y="-122.3" font-family="Times New Roman,serif" font-size="14.00">__gedf2</text>
</g>
<!-- _etoa&#45;&gt;__gedf2 -->
<g id="edge18" class="edge">
<title>_etoa&#45;&gt;__gedf2</title>
<path fill="none" stroke="black" d="M843.09,-329.04C779.68,-293.51 592.14,-188.45 515.57,-145.56"/>
<polygon fill="black" stroke="black" points="517.24,-142.48 506.8,-140.64 513.82,-148.59 517.24,-142.48"/>
</g>
<!-- __eqdf2 -->
<g id="node22" class="node">
<title>__eqdf2</title>
<ellipse fill="none" stroke="black" cx="865.45" cy="-126" rx="41.69" ry="18"/>
<text text-anchor="middle" x="865.45" y="-122.3" font-family="Times New Roman,serif" font-size="14.00">__eqdf2</text>
</g>
<!-- _etoa&#45;&gt;__eqdf2 -->
<g id="edge19" class="edge">
<title>_etoa&#45;&gt;__eqdf2</title>
<path fill="none" stroke="black" d="M864.53,-323.85C864.7,-286.83 865.11,-199.18 865.32,-154.39"/>
<polygon fill="black" stroke="black" points="868.82,-154.25 865.37,-144.23 861.82,-154.22 868.82,-154.25"/>
</g>
<!-- __adddf3 -->
<g id="node23" class="node">
<title>__adddf3</title>
<ellipse fill="none" stroke="black" cx="542.45" cy="-234" rx="46.29" ry="18"/>
<text text-anchor="middle" x="542.45" y="-230.3" font-family="Times New Roman,serif" font-size="14.00">__adddf3</text>
</g>
<!-- _etoa&#45;&gt;__adddf3 -->
<g id="edge20" class="edge">
<title>_etoa&#45;&gt;__adddf3</title>
<path fill="none" stroke="black" d="M838.37,-332.42C783.21,-314.26 654.23,-271.8 586.22,-249.41"/>
<polygon fill="black" stroke="black" points="587.23,-246.06 576.64,-246.26 585.04,-252.71 587.23,-246.06"/>
</g>
<!-- __fixdfsi -->
<g id="node24" class="node">
<title>__fixdfsi</title>
<ellipse fill="none" stroke="black" cx="1491.45" cy="-126" rx="43.59" ry="18"/>
<text text-anchor="middle" x="1491.45" y="-122.3" font-family="Times New Roman,serif" font-size="14.00">__fixdfsi</text>
</g>
<!-- _etoa&#45;&gt;__fixdfsi -->
<g id="edge21" class="edge">
<title>_etoa&#45;&gt;__fixdfsi</title>
<path fill="none" stroke="black" d="M891.09,-332.85C940.86,-317.55 1051.24,-283.26 1143.45,-252 1255.06,-214.17 1385.55,-166.32 1450.45,-142.27"/>
<polygon fill="black" stroke="black" points="1451.75,-145.52 1459.91,-138.76 1449.32,-138.95 1451.75,-145.52"/>
</g>
<!-- __divdf3 -->
<g id="node25" class="node">
<title>__divdf3</title>
<ellipse fill="none" stroke="black" cx="1665.45" cy="-234" rx="44.39" ry="18"/>
<text text-anchor="middle" x="1665.45" y="-230.3" font-family="Times New Roman,serif" font-size="14.00">__divdf3</text>
</g>
<!-- _etoa&#45;&gt;__divdf3 -->
<g id="edge22" class="edge">
<title>_etoa&#45;&gt;__divdf3</title>
<path fill="none" stroke="black" d="M894.21,-337.48C990.32,-326.07 1301.07,-288.63 1557.45,-252 1576.3,-249.31 1596.97,-246.11 1615.14,-243.22"/>
<polygon fill="black" stroke="black" points="1615.9,-246.64 1625.23,-241.61 1614.8,-239.73 1615.9,-246.64"/>
</g>
<!-- __floatsidf -->
<g id="node26" class="node">
<title>__floatsidf</title>
<ellipse fill="none" stroke="black" cx="609.45" cy="-126" rx="50.09" ry="18"/>
<text text-anchor="middle" x="609.45" y="-122.3" font-family="Times New Roman,serif" font-size="14.00">__floatsidf</text>
</g>
<!-- _etoa&#45;&gt;__floatsidf -->
<g id="edge23" class="edge">
<title>_etoa&#45;&gt;__floatsidf</title>
<path fill="none" stroke="black" d="M847.32,-326.63C803.75,-290.07 688.47,-193.32 636.06,-149.33"/>
<polygon fill="black" stroke="black" points="638.12,-146.49 628.21,-142.74 633.62,-151.85 638.12,-146.49"/>
</g>
<!-- __ledf2 -->
<g id="node27" class="node">
<title>__ledf2</title>
<ellipse fill="none" stroke="black" cx="1609.45" cy="-126" rx="38.19" ry="18"/>
<text text-anchor="middle" x="1609.45" y="-122.3" font-family="Times New Roman,serif" font-size="14.00">__ledf2</text>
</g>
<!-- _etoa&#45;&gt;__ledf2 -->
<g id="edge24" class="edge">
<title>_etoa&#45;&gt;__ledf2</title>
<path fill="none" stroke="black" d="M892.68,-334.57C953,-320.71 1098.77,-286.43 1219.45,-252 1348.48,-215.19 1499.21,-164.72 1569.53,-140.74"/>
<polygon fill="black" stroke="black" points="1570.98,-143.94 1579.31,-137.39 1568.71,-137.32 1570.98,-143.94"/>
</g>
<!-- _ftoa -->
<g id="node28" class="node">
<title>_ftoa</title>
<ellipse fill="none" stroke="black" cx="950.45" cy="-234" rx="29.8" ry="18"/>
<text text-anchor="middle" x="950.45" y="-230.3" font-family="Times New Roman,serif" font-size="14.00">_ftoa</text>
</g>
<!-- _etoa&#45;&gt;_ftoa -->
<g id="edge25" class="edge">
<title>_etoa&#45;&gt;_ftoa</title>
<path fill="none" stroke="black" d="M868.03,-323.97C879.13,-305.18 903.43,-274.98 923.32,-255.06"/>
<polygon fill="black" stroke="black" points="925.91,-257.43 930.69,-247.98 921.06,-252.39 925.91,-257.43"/>
</g>
<!-- __clzsi2 -->
<g id="node34" class="node">
<title>__clzsi2</title>
<ellipse fill="none" stroke="black" cx="963.45" cy="-18" rx="40.89" ry="18"/>
<text text-anchor="middle" x="963.45" y="-14.3" font-family="Times New Roman,serif" font-size="14.00">__clzsi2</text>
</g>
<!-- __subdf3&#45;&gt;__clzsi2 -->
<g id="edge48" class="edge">
<title>__subdf3&#45;&gt;__clzsi2</title>
<path fill="none" stroke="black" d="M769.56,-111.58C809.67,-92.42 883.33,-57.25 927.4,-36.21"/>
<polygon fill="black" stroke="black" points="929.08,-39.29 936.6,-31.82 926.06,-32.97 929.08,-39.29"/>
</g>
<!-- __muldf3&#45;&gt;__clzsi2 -->
<g id="edge47" class="edge">
<title>__muldf3&#45;&gt;__clzsi2</title>
<path fill="none" stroke="black" d="M1328.22,-115.1C1319.44,-112.77 1310.11,-110.29 1301.45,-108 1196.2,-80.17 1072.47,-47.64 1007.85,-30.66"/>
<polygon fill="black" stroke="black" points="1008.56,-27.23 998,-28.07 1006.78,-34 1008.56,-27.23"/>
</g>
<!-- __adddf3&#45;&gt;__clzsi2 -->
<g id="edge45" class="edge">
<title>__adddf3&#45;&gt;__clzsi2</title>
<path fill="none" stroke="black" d="M513.27,-219.96C467.4,-197.73 387.19,-150.72 423.45,-108 439.4,-89.2 784.68,-42.35 914.6,-25.32"/>
<polygon fill="black" stroke="black" points="915.21,-28.77 924.67,-24 914.3,-21.83 915.21,-28.77"/>
</g>
<!-- __divdf3&#45;&gt;__clzsi2 -->
<g id="edge46" class="edge">
<title>__divdf3&#45;&gt;__clzsi2</title>
<path fill="none" stroke="black" d="M1671.71,-216.01C1680.3,-189.43 1691.85,-137.96 1665.45,-108 1622.32,-59.06 1167.64,-30.07 1013.91,-21.61"/>
<polygon fill="black" stroke="black" points="1013.97,-18.11 1003.8,-21.06 1013.59,-25.1 1013.97,-18.11"/>
</g>
<!-- __floatsidf&#45;&gt;__clzsi2 -->
<g id="edge49" class="edge">
<title>__floatsidf&#45;&gt;__clzsi2</title>
<path fill="none" stroke="black" d="M646.66,-113.86C712.9,-94.02 850.85,-52.71 920.8,-31.77"/>
<polygon fill="black" stroke="black" points="922.04,-35.05 930.61,-28.83 920.03,-28.35 922.04,-35.05"/>
</g>
<!-- _ftoa&#45;&gt;_out_rev -->
<g id="edge29" class="edge">
<title>_ftoa&#45;&gt;_out_rev</title>
<path fill="none" stroke="black" d="M951.58,-215.67C952.38,-189.56 950.17,-139.8 925.45,-108 891.47,-64.31 830.69,-40.93 787.88,-29.26"/>
<polygon fill="black" stroke="black" points="788.51,-25.81 777.95,-26.68 786.75,-32.59 788.51,-25.81"/>
</g>
<!-- _ftoa&#45;&gt;_etoa -->
<g id="edge30" class="edge">
<title>_ftoa&#45;&gt;_etoa</title>
<path fill="none" stroke="black" d="M946.9,-251.96C935.83,-270.73 911.51,-300.96 891.6,-320.91"/>
<polygon fill="black" stroke="black" points="889,-318.55 884.22,-328 893.85,-323.59 889,-318.55"/>
</g>
<!-- _ftoa&#45;&gt;__subdf3 -->
<g id="edge26" class="edge">
<title>_ftoa&#45;&gt;__subdf3</title>
<path fill="none" stroke="black" d="M928.08,-221.66C892.07,-203.4 820.93,-167.31 777.63,-145.35"/>
<polygon fill="black" stroke="black" points="779.08,-142.16 768.57,-140.76 775.91,-148.4 779.08,-142.16"/>
</g>
<!-- _ftoa&#45;&gt;__muldf3 -->
<g id="edge28" class="edge">
<title>_ftoa&#45;&gt;__muldf3</title>
<path fill="none" stroke="black" d="M977.78,-226.18C1036.88,-211.41 1180.96,-175.28 1301.45,-144 1307.08,-142.54 1312.98,-140.99 1318.84,-139.45"/>
<polygon fill="black" stroke="black" points="1319.8,-142.81 1328.58,-136.87 1318.01,-136.04 1319.8,-142.81"/>
</g>
<!-- _ftoa&#45;&gt;__gedf2 -->
<g id="edge31" class="edge">
<title>_ftoa&#45;&gt;__gedf2</title>
<path fill="none" stroke="black" d="M922.03,-227.49C855.29,-214.41 683.41,-179.86 541.45,-144 536.15,-142.66 530.61,-141.18 525.13,-139.66"/>
<polygon fill="black" stroke="black" points="525.99,-136.27 515.42,-136.92 524.09,-143 525.99,-136.27"/>
</g>
<!-- _ftoa&#45;&gt;__eqdf2 -->
<g id="edge32" class="edge">
<title>_ftoa&#45;&gt;__eqdf2</title>
<path fill="none" stroke="black" d="M937.9,-217.36C923.94,-199.95 901.2,-171.59 884.92,-151.29"/>
<polygon fill="black" stroke="black" points="887.59,-149.01 878.6,-143.4 882.12,-153.39 887.59,-149.01"/>
</g>
<!-- _ftoa&#45;&gt;__fixdfsi -->
<g id="edge33" class="edge">
<title>_ftoa&#45;&gt;__fixdfsi</title>
<path fill="none" stroke="black" d="M978.96,-228.56C1053.45,-216.78 1259.83,-182.94 1429.45,-144 1435.16,-142.69 1441.14,-141.2 1447.04,-139.66"/>
<polygon fill="black" stroke="black" points="1448.06,-143.01 1456.82,-137.05 1446.25,-136.25 1448.06,-143.01"/>
</g>
<!-- _ftoa&#45;&gt;__floatsidf -->
<g id="edge34" class="edge">
<title>_ftoa&#45;&gt;__floatsidf</title>
<path fill="none" stroke="black" d="M924.54,-224.95C867.16,-207.11 728.73,-164.08 655.95,-141.46"/>
<polygon fill="black" stroke="black" points="656.72,-138.03 646.13,-138.4 654.64,-144.71 656.72,-138.03"/>
</g>
<!-- _ftoa&#45;&gt;__ledf2 -->
<g id="edge35" class="edge">
<title>_ftoa&#45;&gt;__ledf2</title>
<path fill="none" stroke="black" d="M979.91,-230.22C1067.85,-221.57 1335.83,-192.81 1553.45,-144 1558.58,-142.85 1563.93,-141.47 1569.2,-140"/>
<polygon fill="black" stroke="black" points="1570.53,-143.25 1579.15,-137.09 1568.57,-136.53 1570.53,-143.25"/>
</g>
<!-- __fixunsdfsi -->
<g id="node29" class="node">
<title>__fixunsdfsi</title>
<ellipse fill="none" stroke="black" cx="1073.45" cy="-126" rx="55.79" ry="18"/>
<text text-anchor="middle" x="1073.45" y="-122.3" font-family="Times New Roman,serif" font-size="14.00">__fixunsdfsi</text>
</g>
<!-- _ftoa&#45;&gt;__fixunsdfsi -->
<g id="edge27" class="edge">
<title>_ftoa&#45;&gt;__fixunsdfsi</title>
<path fill="none" stroke="black" d="M967.03,-218.7C987.54,-201.04 1022.68,-170.75 1046.94,-149.84"/>
<polygon fill="black" stroke="black" points="1049.42,-152.33 1054.71,-143.15 1044.85,-147.02 1049.42,-152.33"/>
</g>
<!-- __floatunsidf -->
<g id="node30" class="node">
<title>__floatunsidf</title>
<ellipse fill="none" stroke="black" cx="1224.45" cy="-126" rx="59.29" ry="18"/>
<text text-anchor="middle" x="1224.45" y="-122.3" font-family="Times New Roman,serif" font-size="14.00">__floatunsidf</text>
</g>
<!-- _ftoa&#45;&gt;__floatunsidf -->
<g id="edge36" class="edge">
<title>_ftoa&#45;&gt;__floatunsidf</title>
<path fill="none" stroke="black" d="M975.24,-223.41C1021.45,-205.53 1121.28,-166.91 1179.59,-144.35"/>
<polygon fill="black" stroke="black" points="1181.21,-147.48 1189.28,-140.61 1178.69,-140.95 1181.21,-147.48"/>
</g>
<!-- __floatunsidf&#45;&gt;__clzsi2 -->
<g id="edge50" class="edge">
<title>__floatunsidf&#45;&gt;__clzsi2</title>
<path fill="none" stroke="black" d="M1190.32,-111.14C1141.77,-91.42 1053.02,-55.38 1002.1,-34.7"/>
<polygon fill="black" stroke="black" points="1003.33,-31.42 992.74,-30.9 1000.69,-37.9 1003.33,-31.42"/>
</g>
<!-- _vsnprintf&#45;&gt;_ntoa_long -->
<g id="edge37" class="edge">
<title>_vsnprintf&#45;&gt;_ntoa_long</title>
<path fill="none" stroke="black" d="M646.55,-433.26C601.54,-395.79 487.89,-301.15 435.57,-257.59"/>
<polygon fill="black" stroke="black" points="437.64,-254.76 427.72,-251.05 433.17,-260.14 437.64,-254.76"/>
</g>
<!-- _vsnprintf&#45;&gt;_ntoa_long_long -->
<g id="edge38" class="edge">
<title>_vsnprintf&#45;&gt;_ntoa_long_long</title>
<path fill="none" stroke="black" d="M627.07,-438.93C555.81,-420.24 402.7,-380.06 318.99,-358.1"/>
<polygon fill="black" stroke="black" points="319.7,-354.66 309.13,-355.51 317.92,-361.44 319.7,-354.66"/>
</g>
<!-- _vsnprintf&#45;&gt;_etoa -->
<g id="edge40" class="edge">
<title>_vsnprintf&#45;&gt;_etoa</title>
<path fill="none" stroke="black" d="M691.87,-434.92C728.42,-415.46 794.29,-380.37 833.22,-359.63"/>
<polygon fill="black" stroke="black" points="835.33,-362.48 842.51,-354.69 832.03,-356.3 835.33,-362.48"/>
</g>
<!-- _vsnprintf&#45;&gt;_ftoa -->
<g id="edge39" class="edge">
<title>_vsnprintf&#45;&gt;_ftoa</title>
<path fill="none" stroke="black" d="M712.03,-444.82C767.66,-437.35 859.88,-416.69 913.45,-360 938.56,-333.42 946.71,-290.61 949.31,-262.63"/>
<polygon fill="black" stroke="black" points="952.82,-262.58 950.07,-252.35 945.84,-262.06 952.82,-262.58"/>
</g>
</g>
</svg>
