<?xml version="1.0" encoding="UTF-8" standalone="no"?>
<!DOCTYPE svg PUBLIC "-//W3C//DTD SVG 1.1//EN"
 "http://www.w3.org/Graphics/SVG/1.1/DTD/svg11.dtd">
<!-- Generated by graphviz version 6.0.2 (20221011.1828)
 -->
<!-- Pages: 1 -->
<svg width="1540pt" height="908pt"
 viewBox="0.00 0.00 1540.24 908.00" xmlns="http://www.w3.org/2000/svg" xmlns:xlink="http://www.w3.org/1999/xlink">
<g id="graph0" class="graph" transform="scale(1 1) rotate(0) translate(4 904)">
<polygon fill="white" stroke="none" points="-4,4 -4,-904 1536.24,-904 1536.24,4 -4,4"/>
<!-- __to_main -->
<g id="node1" class="node">
<title>__to_main</title>
<ellipse fill="none" stroke="black" cx="1077.09" cy="-882" rx="50.09" ry="18"/>
<text text-anchor="middle" x="1077.09" y="-878.3" font-family="Times New Roman,serif" font-size="14.00">__to_main</text>
</g>
<!-- main -->
<g id="node2" class="node">
<title>main</title>
<ellipse fill="none" stroke="black" cx="1077.09" cy="-774" rx="27.9" ry="18"/>
<text text-anchor="middle" x="1077.09" y="-770.3" font-family="Times New Roman,serif" font-size="14.00">main</text>
</g>
<!-- __to_main&#45;&gt;main -->
<g id="edge1" class="edge">
<title>__to_main&#45;&gt;main</title>
<path fill="none" stroke="black" d="M1077.09,-863.97C1077.09,-847.38 1077.09,-821.88 1077.09,-802.43"/>
<polygon fill="black" stroke="black" points="1080.59,-802.34 1077.09,-792.34 1073.59,-802.34 1080.59,-802.34"/>
</g>
<!-- benchmark -->
<g id="node3" class="node">
<title>benchmark</title>
<ellipse fill="none" stroke="black" cx="815.09" cy="-666" rx="50.89" ry="18"/>
<text text-anchor="middle" x="815.09" y="-662.3" font-family="Times New Roman,serif" font-size="14.00">benchmark</text>
</g>
<!-- main&#45;&gt;benchmark -->
<g id="edge8" class="edge">
<title>main&#45;&gt;benchmark</title>
<path fill="none" stroke="black" d="M1053.84,-763.59C1009.54,-745.67 912.48,-706.4 856.72,-683.84"/>
<polygon fill="black" stroke="black" points="857.72,-680.47 847.14,-679.97 855.1,-686.96 857.72,-680.47"/>
</g>
<!-- ck_uart_open -->
<g id="node8" class="node">
<title>ck_uart_open</title>
<ellipse fill="none" stroke="black" cx="1002.09" cy="-666" rx="61.19" ry="18"/>
<text text-anchor="middle" x="1002.09" y="-662.3" font-family="Times New Roman,serif" font-size="14.00">ck_uart_open</text>
</g>
<!-- main&#45;&gt;ck_uart_open -->
<g id="edge5" class="edge">
<title>main&#45;&gt;ck_uart_open</title>
<path fill="none" stroke="black" d="M1066.03,-757.36C1053.89,-740.2 1034.23,-712.42 1019.91,-692.18"/>
<polygon fill="black" stroke="black" points="1022.58,-689.9 1013.95,-683.76 1016.87,-693.94 1022.58,-689.9"/>
</g>
<!-- ck_uart_init -->
<g id="node9" class="node">
<title>ck_uart_init</title>
<ellipse fill="none" stroke="black" cx="1153.09" cy="-666" rx="53.89" ry="18"/>
<text text-anchor="middle" x="1153.09" y="-662.3" font-family="Times New Roman,serif" font-size="14.00">ck_uart_init</text>
</g>
<!-- main&#45;&gt;ck_uart_init -->
<g id="edge6" class="edge">
<title>main&#45;&gt;ck_uart_init</title>
<path fill="none" stroke="black" d="M1088.31,-757.36C1100.66,-740.13 1120.71,-712.17 1135.23,-691.91"/>
<polygon fill="black" stroke="black" points="1138.1,-693.92 1141.08,-683.76 1132.41,-689.84 1138.1,-693.92"/>
</g>
<!-- puts -->
<g id="node10" class="node">
<title>puts</title>
<ellipse fill="none" stroke="black" cx="1310.09" cy="-666" rx="27" ry="18"/>
<text text-anchor="middle" x="1310.09" y="-662.3" font-family="Times New Roman,serif" font-size="14.00">puts</text>
</g>
<!-- main&#45;&gt;puts -->
<g id="edge7" class="edge">
<title>main&#45;&gt;puts</title>
<path fill="none" stroke="black" d="M1099.44,-762.84C1141.31,-743.78 1231.68,-702.67 1279.3,-681.01"/>
<polygon fill="black" stroke="black" points="1280.85,-684.15 1288.5,-676.82 1277.95,-677.78 1280.85,-684.15"/>
</g>
<!-- crc32pseudo -->
<g id="node4" class="node">
<title>crc32pseudo</title>
<ellipse fill="none" stroke="black" cx="815.09" cy="-558" rx="57.69" ry="18"/>
<text text-anchor="middle" x="815.09" y="-554.3" font-family="Times New Roman,serif" font-size="14.00">crc32pseudo</text>
</g>
<!-- benchmark&#45;&gt;crc32pseudo -->
<g id="edge2" class="edge">
<title>benchmark&#45;&gt;crc32pseudo</title>
<path fill="none" stroke="black" d="M815.09,-647.97C815.09,-631.38 815.09,-605.88 815.09,-586.43"/>
<polygon fill="black" stroke="black" points="818.59,-586.34 815.09,-576.34 811.59,-586.34 818.59,-586.34"/>
</g>
<!-- printf -->
<g id="node5" class="node">
<title>printf</title>
<ellipse fill="none" stroke="black" cx="691.09" cy="-558" rx="30.59" ry="18"/>
<text text-anchor="middle" x="691.09" y="-554.3" font-family="Times New Roman,serif" font-size="14.00">printf</text>
</g>
<!-- benchmark&#45;&gt;printf -->
<g id="edge3" class="edge">
<title>benchmark&#45;&gt;printf</title>
<path fill="none" stroke="black" d="M796.53,-649.13C775.02,-630.74 739.48,-600.36 715.68,-580.02"/>
<polygon fill="black" stroke="black" points="717.67,-577.11 707.8,-573.28 713.12,-582.43 717.67,-577.11"/>
</g>
<!-- _vsnprintf -->
<g id="node31" class="node">
<title>_vsnprintf</title>
<ellipse fill="none" stroke="black" cx="691.09" cy="-450" rx="48.19" ry="18"/>
<text text-anchor="middle" x="691.09" y="-446.3" font-family="Times New Roman,serif" font-size="14.00">_vsnprintf</text>
</g>
<!-- printf&#45;&gt;_vsnprintf -->
<g id="edge42" class="edge">
<title>printf&#45;&gt;_vsnprintf</title>
<path fill="none" stroke="black" d="M691.09,-539.97C691.09,-523.38 691.09,-497.88 691.09,-478.43"/>
<polygon fill="black" stroke="black" points="694.59,-478.34 691.09,-468.34 687.59,-478.34 694.59,-478.34"/>
</g>
<!-- fputc -->
<g id="node6" class="node">
<title>fputc</title>
<ellipse fill="none" stroke="black" cx="1350.09" cy="-558" rx="29.8" ry="18"/>
<text text-anchor="middle" x="1350.09" y="-554.3" font-family="Times New Roman,serif" font-size="14.00">fputc</text>
</g>
<!-- &lt;ck_uart_putc&gt; * -->
<g id="node7" class="node">
<title>&lt;ck_uart_putc&gt; *</title>
<ellipse fill="none" stroke="black" cx="1350.09" cy="-450" rx="76.89" ry="18"/>
<text text-anchor="middle" x="1350.09" y="-446.3" font-family="Times New Roman,serif" font-size="14.00">&lt;ck_uart_putc&gt; *</text>
</g>
<!-- fputc&#45;&gt;&lt;ck_uart_putc&gt; * -->
<g id="edge4" class="edge">
<title>fputc&#45;&gt;&lt;ck_uart_putc&gt; *</title>
<path fill="none" stroke="black" d="M1350.09,-539.97C1350.09,-523.38 1350.09,-497.88 1350.09,-478.43"/>
<polygon fill="black" stroke="black" points="1353.59,-478.34 1350.09,-468.34 1346.59,-478.34 1353.59,-478.34"/>
</g>
<!-- ck_uart_set_wordsize -->
<g id="node32" class="node">
<title>ck_uart_set_wordsize</title>
<ellipse fill="none" stroke="black" cx="1193.09" cy="-558" rx="90.98" ry="18"/>
<text text-anchor="middle" x="1193.09" y="-554.3" font-family="Times New Roman,serif" font-size="14.00">ck_uart_set_wordsize</text>
</g>
<!-- ck_uart_init&#45;&gt;ck_uart_set_wordsize -->
<g id="edge43" class="edge">
<title>ck_uart_init&#45;&gt;ck_uart_set_wordsize</title>
<path fill="none" stroke="black" d="M1159.52,-647.97C1165.88,-631.12 1175.7,-605.1 1183.08,-585.54"/>
<polygon fill="black" stroke="black" points="1186.43,-586.58 1186.68,-575.99 1179.88,-584.11 1186.43,-586.58"/>
</g>
<!-- ck_uart_set_parity -->
<g id="node33" class="node">
<title>ck_uart_set_parity</title>
<ellipse fill="none" stroke="black" cx="987.09" cy="-558" rx="78.79" ry="18"/>
<text text-anchor="middle" x="987.09" y="-554.3" font-family="Times New Roman,serif" font-size="14.00">ck_uart_set_parity</text>
</g>
<!-- ck_uart_init&#45;&gt;ck_uart_set_parity -->
<g id="edge44" class="edge">
<title>ck_uart_init&#45;&gt;ck_uart_set_parity</title>
<path fill="none" stroke="black" d="M1129.31,-649.81C1100.96,-631.71 1053.37,-601.32 1021.13,-580.73"/>
<polygon fill="black" stroke="black" points="1022.78,-577.63 1012.47,-575.2 1019.01,-583.53 1022.78,-577.63"/>
</g>
<!-- puts&#45;&gt;fputc -->
<g id="edge41" class="edge">
<title>puts&#45;&gt;fputc</title>
<path fill="none" stroke="black" d="M1316.34,-648.44C1322.74,-631.5 1332.76,-604.94 1340.22,-585.16"/>
<polygon fill="black" stroke="black" points="1343.5,-586.39 1343.76,-575.8 1336.95,-583.92 1343.5,-586.39"/>
</g>
<!-- _ntoa_format -->
<g id="node11" class="node">
<title>_ntoa_format</title>
<ellipse fill="none" stroke="black" cx="61.09" cy="-126" rx="59.59" ry="18"/>
<text text-anchor="middle" x="61.09" y="-122.3" font-family="Times New Roman,serif" font-size="14.00">_ntoa_format</text>
</g>
<!-- &lt;_out_rev&gt; * -->
<g id="node12" class="node">
<title>&lt;_out_rev&gt; *</title>
<ellipse fill="none" stroke="black" cx="61.09" cy="-18" rx="61.19" ry="18"/>
<text text-anchor="middle" x="61.09" y="-14.3" font-family="Times New Roman,serif" font-size="14.00">&lt;_out_rev&gt; *</text>
</g>
<!-- _ntoa_format&#45;&gt;&lt;_out_rev&gt; * -->
<g id="edge9" class="edge">
<title>_ntoa_format&#45;&gt;&lt;_out_rev&gt; *</title>
<path fill="none" stroke="black" d="M61.09,-107.97C61.09,-91.38 61.09,-65.88 61.09,-46.43"/>
<polygon fill="black" stroke="black" points="64.59,-46.34 61.09,-36.34 57.59,-46.34 64.59,-46.34"/>
</g>
<!-- _out_rev -->
<g id="node13" class="node">
<title>_out_rev</title>
<ellipse fill="none" stroke="black" cx="313.09" cy="-18" rx="43.59" ry="18"/>
<text text-anchor="middle" x="313.09" y="-14.3" font-family="Times New Roman,serif" font-size="14.00">_out_rev</text>
</g>
<!-- _ntoa_format&#45;&gt;_out_rev -->
<g id="edge10" class="edge">
<title>_ntoa_format&#45;&gt;_out_rev</title>
<path fill="none" stroke="black" d="M94.56,-110.92C141.12,-91.34 225.27,-55.94 274.45,-35.25"/>
<polygon fill="black" stroke="black" points="275.94,-38.42 283.8,-31.32 273.23,-31.97 275.94,-38.42"/>
</g>
<!-- _ntoa_long -->
<g id="node14" class="node">
<title>_ntoa_long</title>
<ellipse fill="none" stroke="black" cx="526.09" cy="-234" rx="51.99" ry="18"/>
<text text-anchor="middle" x="526.09" y="-230.3" font-family="Times New Roman,serif" font-size="14.00">_ntoa_long</text>
</g>
<!-- _ntoa_long&#45;&gt;_ntoa_format -->
<g id="edge11" class="edge">
<title>_ntoa_long&#45;&gt;_ntoa_format</title>
<path fill="none" stroke="black" d="M484.01,-223.41C399.99,-204.25 211.47,-161.28 117.11,-139.77"/>
<polygon fill="black" stroke="black" points="117.71,-136.32 107.18,-137.51 116.16,-143.14 117.71,-136.32"/>
</g>
<!-- _ntoa_long_long -->
<g id="node15" class="node">
<title>_ntoa_long_long</title>
<ellipse fill="none" stroke="black" cx="226.09" cy="-342" rx="72.29" ry="18"/>
<text text-anchor="middle" x="226.09" y="-338.3" font-family="Times New Roman,serif" font-size="14.00">_ntoa_long_long</text>
</g>
<!-- _ntoa_long_long&#45;&gt;_ntoa_format -->
<g id="edge13" class="edge">
<title>_ntoa_long_long&#45;&gt;_ntoa_format</title>
<path fill="none" stroke="black" d="M214.94,-324.04C198.71,-299.63 167.35,-253.43 138.09,-216 120.42,-193.38 98.96,-168.79 83.18,-151.2"/>
<polygon fill="black" stroke="black" points="85.67,-148.72 76.37,-143.64 80.47,-153.41 85.67,-148.72"/>
</g>
<!-- __udivdi3 -->
<g id="node16" class="node">
<title>__udivdi3</title>
<ellipse fill="none" stroke="black" cx="277.09" cy="-234" rx="47.39" ry="18"/>
<text text-anchor="middle" x="277.09" y="-230.3" font-family="Times New Roman,serif" font-size="14.00">__udivdi3</text>
</g>
<!-- _ntoa_long_long&#45;&gt;__udivdi3 -->
<g id="edge12" class="edge">
<title>_ntoa_long_long&#45;&gt;__udivdi3</title>
<path fill="none" stroke="black" d="M234.29,-323.97C242.47,-306.97 255.14,-280.62 264.58,-261.01"/>
<polygon fill="black" stroke="black" points="267.74,-262.52 268.92,-251.99 261.43,-259.48 267.74,-262.52"/>
</g>
<!-- __umoddi3 -->
<g id="node17" class="node">
<title>__umoddi3</title>
<ellipse fill="none" stroke="black" cx="67.09" cy="-234" rx="52.79" ry="18"/>
<text text-anchor="middle" x="67.09" y="-230.3" font-family="Times New Roman,serif" font-size="14.00">__umoddi3</text>
</g>
<!-- _ntoa_long_long&#45;&gt;__umoddi3 -->
<g id="edge14" class="edge">
<title>_ntoa_long_long&#45;&gt;__umoddi3</title>
<path fill="none" stroke="black" d="M201.95,-324.9C174.35,-306.5 129.09,-276.33 98.71,-256.08"/>
<polygon fill="black" stroke="black" points="100.44,-253.02 90.18,-250.39 96.56,-258.85 100.44,-253.02"/>
</g>
<!-- _etoa -->
<g id="node18" class="node">
<title>_etoa</title>
<ellipse fill="none" stroke="black" cx="877.09" cy="-342" rx="30.59" ry="18"/>
<text text-anchor="middle" x="877.09" y="-338.3" font-family="Times New Roman,serif" font-size="14.00">_etoa</text>
</g>
<!-- _etoa&#45;&gt;_ntoa_long -->
<g id="edge18" class="edge">
<title>_etoa&#45;&gt;_ntoa_long</title>
<path fill="none" stroke="black" d="M850.42,-332.95C791.25,-315.07 648.3,-271.9 573.5,-249.32"/>
<polygon fill="black" stroke="black" points="574.44,-245.94 563.86,-246.4 572.42,-252.65 574.44,-245.94"/>
</g>
<!-- __subdf3 -->
<g id="node19" class="node">
<title>__subdf3</title>
<ellipse fill="none" stroke="black" cx="1075.09" cy="-126" rx="46.29" ry="18"/>
<text text-anchor="middle" x="1075.09" y="-122.3" font-family="Times New Roman,serif" font-size="14.00">__subdf3</text>
</g>
<!-- _etoa&#45;&gt;__subdf3 -->
<g id="edge15" class="edge">
<title>_etoa&#45;&gt;__subdf3</title>
<path fill="none" stroke="black" d="M891.02,-325.95C924.98,-289.24 1012.29,-194.88 1053.26,-150.6"/>
<polygon fill="black" stroke="black" points="1055.89,-152.91 1060.11,-143.19 1050.75,-148.15 1055.89,-152.91"/>
</g>
<!-- __ledf2 -->
<g id="node20" class="node">
<title>__ledf2</title>
<ellipse fill="none" stroke="black" cx="195.09" cy="-126" rx="38.19" ry="18"/>
<text text-anchor="middle" x="195.09" y="-122.3" font-family="Times New Roman,serif" font-size="14.00">__ledf2</text>
</g>
<!-- _etoa&#45;&gt;__ledf2 -->
<g id="edge16" class="edge">
<title>_etoa&#45;&gt;__ledf2</title>
<path fill="none" stroke="black" d="M851.34,-332.12C809.51,-317.38 724.61,-286.08 656.09,-252 628.25,-238.15 625.05,-227.33 596.09,-216 450.23,-158.91 402.85,-182.79 251.09,-144 246.06,-142.71 240.79,-141.26 235.6,-139.76"/>
<polygon fill="black" stroke="black" points="236.35,-136.33 225.77,-136.85 234.36,-143.04 236.35,-136.33"/>
</g>
<!-- __eqdf2 -->
<g id="node21" class="node">
<title>__eqdf2</title>
<ellipse fill="none" stroke="black" cx="951.09" cy="-126" rx="41.69" ry="18"/>
<text text-anchor="middle" x="951.09" y="-122.3" font-family="Times New Roman,serif" font-size="14.00">__eqdf2</text>
</g>
<!-- _etoa&#45;&gt;__eqdf2 -->
<g id="edge17" class="edge">
<title>_etoa&#45;&gt;__eqdf2</title>
<path fill="none" stroke="black" d="M882.9,-324.21C895.7,-287.19 926.44,-198.3 941.89,-153.6"/>
<polygon fill="black" stroke="black" points="945.25,-154.61 945.21,-144.01 938.64,-152.32 945.25,-154.61"/>
</g>
<!-- _ftoa -->
<g id="node22" class="node">
<title>_ftoa</title>
<ellipse fill="none" stroke="black" cx="792.09" cy="-234" rx="29.8" ry="18"/>
<text text-anchor="middle" x="792.09" y="-230.3" font-family="Times New Roman,serif" font-size="14.00">_ftoa</text>
</g>
<!-- _etoa&#45;&gt;_ftoa -->
<g id="edge19" class="edge">
<title>_etoa&#45;&gt;_ftoa</title>
<path fill="none" stroke="black" d="M857.44,-328C839.34,-311.27 814.88,-281.8 800.82,-260.52"/>
<polygon fill="black" stroke="black" points="803.74,-258.59 795.48,-251.96 797.8,-262.29 803.74,-258.59"/>
</g>
<!-- __divdf3 -->
<g id="node23" class="node">
<title>__divdf3</title>
<ellipse fill="none" stroke="black" cx="1356.09" cy="-234" rx="44.39" ry="18"/>
<text text-anchor="middle" x="1356.09" y="-230.3" font-family="Times New Roman,serif" font-size="14.00">__divdf3</text>
</g>
<!-- _etoa&#45;&gt;__divdf3 -->
<g id="edge20" class="edge">
<title>_etoa&#45;&gt;__divdf3</title>
<path fill="none" stroke="black" d="M905.27,-334.76C984.39,-317.26 1209.27,-267.49 1308.29,-245.58"/>
<polygon fill="black" stroke="black" points="1309.31,-248.94 1318.32,-243.36 1307.8,-242.1 1309.31,-248.94"/>
</g>
<!-- __floatsidf -->
<g id="node24" class="node">
<title>__floatsidf</title>
<ellipse fill="none" stroke="black" cx="319.09" cy="-126" rx="50.09" ry="18"/>
<text text-anchor="middle" x="319.09" y="-122.3" font-family="Times New Roman,serif" font-size="14.00">__floatsidf</text>
</g>
<!-- _etoa&#45;&gt;__floatsidf -->
<g id="edge21" class="edge">
<title>_etoa&#45;&gt;__floatsidf</title>
<path fill="none" stroke="black" d="M858.34,-327.79C821.94,-302.68 738.45,-247.76 661.09,-216 608.38,-194.36 452.11,-157.26 370.31,-138.54"/>
<polygon fill="black" stroke="black" points="371,-135.11 360.48,-136.29 369.45,-141.93 371,-135.11"/>
</g>
<!-- __muldf3 -->
<g id="node25" class="node">
<title>__muldf3</title>
<ellipse fill="none" stroke="black" cx="827.09" cy="-126" rx="46.29" ry="18"/>
<text text-anchor="middle" x="827.09" y="-122.3" font-family="Times New Roman,serif" font-size="14.00">__muldf3</text>
</g>
<!-- _etoa&#45;&gt;__muldf3 -->
<g id="edge22" class="edge">
<title>_etoa&#45;&gt;__muldf3</title>
<path fill="none" stroke="black" d="M873.09,-323.85C864.4,-286.66 843.77,-198.37 833.35,-153.77"/>
<polygon fill="black" stroke="black" points="836.73,-152.88 831.05,-143.94 829.92,-154.47 836.73,-152.88"/>
</g>
<!-- __adddf3 -->
<g id="node26" class="node">
<title>__adddf3</title>
<ellipse fill="none" stroke="black" cx="1486.09" cy="-234" rx="46.29" ry="18"/>
<text text-anchor="middle" x="1486.09" y="-230.3" font-family="Times New Roman,serif" font-size="14.00">__adddf3</text>
</g>
<!-- _etoa&#45;&gt;__adddf3 -->
<g id="edge23" class="edge">
<title>_etoa&#45;&gt;__adddf3</title>
<path fill="none" stroke="black" d="M906.57,-337.02C988.24,-325.8 1224.21,-292.11 1418.09,-252 1424.9,-250.59 1432.05,-248.97 1439.06,-247.29"/>
<polygon fill="black" stroke="black" points="1440.28,-250.59 1449.16,-244.82 1438.62,-243.79 1440.28,-250.59"/>
</g>
<!-- __fixdfsi -->
<g id="node27" class="node">
<title>__fixdfsi</title>
<ellipse fill="none" stroke="black" cx="1201.09" cy="-126" rx="43.59" ry="18"/>
<text text-anchor="middle" x="1201.09" y="-122.3" font-family="Times New Roman,serif" font-size="14.00">__fixdfsi</text>
</g>
<!-- _etoa&#45;&gt;__fixdfsi -->
<g id="edge24" class="edge">
<title>_etoa&#45;&gt;__fixdfsi</title>
<path fill="none" stroke="black" d="M896.87,-327.94C951.46,-291.88 1104.52,-190.78 1170.36,-147.3"/>
<polygon fill="black" stroke="black" points="1172.63,-149.99 1179.05,-141.56 1168.77,-144.15 1172.63,-149.99"/>
</g>
<!-- __gedf2 -->
<g id="node28" class="node">
<title>__gedf2</title>
<ellipse fill="none" stroke="black" cx="1321.09" cy="-126" rx="40.89" ry="18"/>
<text text-anchor="middle" x="1321.09" y="-122.3" font-family="Times New Roman,serif" font-size="14.00">__gedf2</text>
</g>
<!-- _etoa&#45;&gt;__gedf2 -->
<g id="edge25" class="edge">
<title>_etoa&#45;&gt;__gedf2</title>
<path fill="none" stroke="black" d="M900.56,-330.18C936.51,-313.57 1007.33,-280.7 1067.09,-252 1145.39,-214.4 1236.63,-169.15 1285.63,-144.72"/>
<polygon fill="black" stroke="black" points="1287.46,-147.72 1294.85,-140.12 1284.34,-141.45 1287.46,-147.72"/>
</g>
<!-- __clzsi2 -->
<g id="node34" class="node">
<title>__clzsi2</title>
<ellipse fill="none" stroke="black" cx="951.09" cy="-18" rx="40.89" ry="18"/>
<text text-anchor="middle" x="951.09" y="-14.3" font-family="Times New Roman,serif" font-size="14.00">__clzsi2</text>
</g>
<!-- __subdf3&#45;&gt;__clzsi2 -->
<g id="edge48" class="edge">
<title>__subdf3&#45;&gt;__clzsi2</title>
<path fill="none" stroke="black" d="M1056.8,-109.36C1035.61,-91.25 1000.58,-61.3 976.7,-40.89"/>
<polygon fill="black" stroke="black" points="978.94,-38.2 969.06,-34.36 974.39,-43.52 978.94,-38.2"/>
</g>
<!-- _ftoa&#45;&gt;_out_rev -->
<g id="edge36" class="edge">
<title>_ftoa&#45;&gt;_out_rev</title>
<path fill="none" stroke="black" d="M766.04,-225.03C756.35,-222.12 745.24,-218.84 735.09,-216 613.86,-182 572.83,-202.05 461.09,-144 410.08,-117.5 361.21,-70.66 334.36,-42.46"/>
<polygon fill="black" stroke="black" points="336.79,-39.92 327.39,-35.03 331.68,-44.71 336.79,-39.92"/>
</g>
<!-- _ftoa&#45;&gt;_etoa -->
<g id="edge32" class="edge">
<title>_ftoa&#45;&gt;_etoa</title>
<path fill="none" stroke="black" d="M811.73,-247.98C829.8,-264.69 854.24,-294.12 868.32,-315.41"/>
<polygon fill="black" stroke="black" points="865.4,-317.34 873.67,-323.97 871.34,-313.63 865.4,-317.34"/>
</g>
<!-- _ftoa&#45;&gt;__subdf3 -->
<g id="edge26" class="edge">
<title>_ftoa&#45;&gt;__subdf3</title>
<path fill="none" stroke="black" d="M816.71,-223.78C865.25,-205.6 973.74,-164.96 1033.55,-142.56"/>
<polygon fill="black" stroke="black" points="1034.93,-145.78 1043.07,-139 1032.48,-139.23 1034.93,-145.78"/>
</g>
<!-- _ftoa&#45;&gt;__ledf2 -->
<g id="edge27" class="edge">
<title>_ftoa&#45;&gt;__ledf2</title>
<path fill="none" stroke="black" d="M763.26,-228.77C666.06,-214.43 350.98,-167.27 251.09,-144 246.03,-142.82 240.75,-141.43 235.55,-139.97"/>
<polygon fill="black" stroke="black" points="236.29,-136.54 225.71,-137.09 234.32,-143.26 236.29,-136.54"/>
</g>
<!-- _ftoa&#45;&gt;__eqdf2 -->
<g id="edge28" class="edge">
<title>_ftoa&#45;&gt;__eqdf2</title>
<path fill="none" stroke="black" d="M811.59,-220C838.88,-201.81 888.71,-168.59 920.84,-147.17"/>
<polygon fill="black" stroke="black" points="923.02,-149.92 929.4,-141.46 919.14,-144.1 923.02,-149.92"/>
</g>
<!-- _ftoa&#45;&gt;__floatsidf -->
<g id="edge30" class="edge">
<title>_ftoa&#45;&gt;__floatsidf</title>
<path fill="none" stroke="black" d="M766.11,-224.77C756.42,-221.83 745.3,-218.6 735.09,-216 585.84,-177.96 546.63,-176.6 396.09,-144 387.82,-142.21 379.06,-140.29 370.52,-138.41"/>
<polygon fill="black" stroke="black" points="371.16,-134.97 360.64,-136.24 369.65,-141.81 371.16,-134.97"/>
</g>
<!-- _ftoa&#45;&gt;__muldf3 -->
<g id="edge31" class="edge">
<title>_ftoa&#45;&gt;__muldf3</title>
<path fill="none" stroke="black" d="M797.72,-215.97C803.28,-199.12 811.87,-173.1 818.33,-153.54"/>
<polygon fill="black" stroke="black" points="821.67,-154.58 821.49,-143.99 815.03,-152.39 821.67,-154.58"/>
</g>
<!-- _ftoa&#45;&gt;__fixdfsi -->
<g id="edge34" class="edge">
<title>_ftoa&#45;&gt;__fixdfsi</title>
<path fill="none" stroke="black" d="M819.13,-226.23C877.58,-211.55 1020.07,-175.58 1139.09,-144 1144.69,-142.51 1150.57,-140.93 1156.38,-139.36"/>
<polygon fill="black" stroke="black" points="1157.31,-142.73 1166.04,-136.72 1155.47,-135.98 1157.31,-142.73"/>
</g>
<!-- _ftoa&#45;&gt;__gedf2 -->
<g id="edge35" class="edge">
<title>_ftoa&#45;&gt;__gedf2</title>
<path fill="none" stroke="black" d="M820.71,-228.6C894.48,-217.04 1097.02,-183.93 1263.09,-144 1268.19,-142.77 1273.51,-141.38 1278.77,-139.93"/>
<polygon fill="black" stroke="black" points="1280.07,-143.2 1288.73,-137.1 1278.15,-136.46 1280.07,-143.2"/>
</g>
<!-- __floatunsidf -->
<g id="node29" class="node">
<title>__floatunsidf</title>
<ellipse fill="none" stroke="black" cx="686.09" cy="-126" rx="59.29" ry="18"/>
<text text-anchor="middle" x="686.09" y="-122.3" font-family="Times New Roman,serif" font-size="14.00">__floatunsidf</text>
</g>
<!-- _ftoa&#45;&gt;__floatunsidf -->
<g id="edge29" class="edge">
<title>_ftoa&#45;&gt;__floatunsidf</title>
<path fill="none" stroke="black" d="M777.36,-218.26C759.83,-200.73 730.34,-171.24 709.64,-150.54"/>
<polygon fill="black" stroke="black" points="711.99,-147.95 702.45,-143.35 707.04,-152.9 711.99,-147.95"/>
</g>
<!-- __fixunsdfsi -->
<g id="node30" class="node">
<title>__fixunsdfsi</title>
<ellipse fill="none" stroke="black" cx="535.09" cy="-126" rx="55.79" ry="18"/>
<text text-anchor="middle" x="535.09" y="-122.3" font-family="Times New Roman,serif" font-size="14.00">__fixunsdfsi</text>
</g>
<!-- _ftoa&#45;&gt;__fixunsdfsi -->
<g id="edge33" class="edge">
<title>_ftoa&#45;&gt;__fixunsdfsi</title>
<path fill="none" stroke="black" d="M767.92,-223.03C724.3,-205.04 631.95,-166.95 577.58,-144.52"/>
<polygon fill="black" stroke="black" points="578.8,-141.24 568.22,-140.66 576.13,-147.71 578.8,-141.24"/>
</g>
<!-- __divdf3&#45;&gt;__clzsi2 -->
<g id="edge46" class="edge">
<title>__divdf3&#45;&gt;__clzsi2</title>
<path fill="none" stroke="black" d="M1366.81,-216.38C1382.13,-190.31 1405.76,-139.54 1380.09,-108 1332.86,-49.96 1104.85,-28.57 1001.82,-21.77"/>
<polygon fill="black" stroke="black" points="1001.86,-18.27 991.66,-21.12 1001.41,-25.25 1001.86,-18.27"/>
</g>
<!-- __floatsidf&#45;&gt;__clzsi2 -->
<g id="edge49" class="edge">
<title>__floatsidf&#45;&gt;__clzsi2</title>
<path fill="none" stroke="black" d="M363.54,-117.55C478.49,-98.27 784.94,-46.87 903.41,-27"/>
<polygon fill="black" stroke="black" points="904.33,-30.39 913.61,-25.29 903.17,-23.49 904.33,-30.39"/>
</g>
<!-- __muldf3&#45;&gt;__clzsi2 -->
<g id="edge47" class="edge">
<title>__muldf3&#45;&gt;__clzsi2</title>
<path fill="none" stroke="black" d="M845.39,-109.36C866.58,-91.25 901.61,-61.3 925.49,-40.89"/>
<polygon fill="black" stroke="black" points="927.8,-43.52 933.13,-34.36 923.25,-38.2 927.8,-43.52"/>
</g>
<!-- __adddf3&#45;&gt;__clzsi2 -->
<g id="edge45" class="edge">
<title>__adddf3&#45;&gt;__clzsi2</title>
<path fill="none" stroke="black" d="M1481.26,-215.69C1472.63,-188.19 1451.83,-134.88 1414.09,-108 1348.05,-60.94 1106.85,-33.41 1001.22,-23.37"/>
<polygon fill="black" stroke="black" points="1001.41,-19.87 991.13,-22.43 1000.76,-26.84 1001.41,-19.87"/>
</g>
<!-- __floatunsidf&#45;&gt;__clzsi2 -->
<g id="edge50" class="edge">
<title>__floatunsidf&#45;&gt;__clzsi2</title>
<path fill="none" stroke="black" d="M720.47,-111.25C769.8,-91.52 860.44,-55.26 912.18,-34.57"/>
<polygon fill="black" stroke="black" points="913.69,-37.73 921.67,-30.77 911.09,-31.23 913.69,-37.73"/>
</g>
<!-- _vsnprintf&#45;&gt;_ntoa_long -->
<g id="edge39" class="edge">
<title>_vsnprintf&#45;&gt;_ntoa_long</title>
<path fill="none" stroke="black" d="M678.42,-432.56C649.63,-395.22 579.15,-303.81 545.11,-259.66"/>
<polygon fill="black" stroke="black" points="547.69,-257.28 538.81,-251.49 542.15,-261.55 547.69,-257.28"/>
</g>
<!-- _vsnprintf&#45;&gt;_ntoa_long_long -->
<g id="edge38" class="edge">
<title>_vsnprintf&#45;&gt;_ntoa_long_long</title>
<path fill="none" stroke="black" d="M651.05,-439.87C569.56,-421.29 384,-379 287.29,-356.95"/>
<polygon fill="black" stroke="black" points="287.89,-353.5 277.36,-354.69 286.33,-360.32 287.89,-353.5"/>
</g>
<!-- _vsnprintf&#45;&gt;_etoa -->
<g id="edge37" class="edge">
<title>_vsnprintf&#45;&gt;_etoa</title>
<path fill="none" stroke="black" d="M716.57,-434.48C750.54,-415.12 810.61,-380.89 846.84,-360.24"/>
<polygon fill="black" stroke="black" points="849,-363.04 855.95,-355.05 845.53,-356.96 849,-363.04"/>
</g>
<!-- _vsnprintf&#45;&gt;_ftoa -->
<g id="edge40" class="edge">
<title>_vsnprintf&#45;&gt;_ftoa</title>
<path fill="none" stroke="black" d="M699.02,-432.21C716.62,-394.92 759.04,-305.04 779.98,-260.67"/>
<polygon fill="black" stroke="black" points="783.24,-261.96 784.34,-251.42 776.91,-258.97 783.24,-261.96"/>
</g>
</g>
</svg>
