<?xml version="1.0" encoding="UTF-8" standalone="no"?>
<!DOCTYPE svg PUBLIC "-//W3C//DTD SVG 1.1//EN"
 "http://www.w3.org/Graphics/SVG/1.1/DTD/svg11.dtd">
<!-- Generated by graphviz version 6.0.2 (20221011.1828)
 -->
<!-- Pages: 1 -->
<svg width="1247pt" height="620pt"
 viewBox="0.00 0.00 1247.29 620.00" xmlns="http://www.w3.org/2000/svg" xmlns:xlink="http://www.w3.org/1999/xlink">
<g id="graph0" class="graph" transform="scale(1 1) rotate(0) translate(4 616)">
<polygon fill="white" stroke="none" points="-4,4 -4,-616 1243.29,-616 1243.29,4 -4,4"/>
<!-- __to_main -->
<g id="node1" class="node">
<title>__to_main</title>
<ellipse fill="none" stroke="black" cx="511.2" cy="-594" rx="50.09" ry="18"/>
<text text-anchor="middle" x="511.2" y="-590.3" font-family="Times New Roman,serif" font-size="14.00">__to_main</text>
</g>
<!-- main -->
<g id="node2" class="node">
<title>main</title>
<ellipse fill="none" stroke="black" cx="511.2" cy="-522" rx="27.9" ry="18"/>
<text text-anchor="middle" x="511.2" y="-518.3" font-family="Times New Roman,serif" font-size="14.00">main</text>
</g>
<!-- __to_main&#45;&gt;main -->
<g id="edge1" class="edge">
<title>__to_main&#45;&gt;main</title>
<path fill="none" stroke="black" d="M511.2,-575.7C511.2,-567.98 511.2,-558.71 511.2,-550.11"/>
<polygon fill="black" stroke="black" points="514.7,-550.1 511.2,-540.1 507.7,-550.1 514.7,-550.1"/>
</g>
<!-- puts -->
<g id="node24" class="node">
<title>puts</title>
<ellipse fill="none" stroke="black" cx="243.2" cy="-450" rx="27" ry="18"/>
<text text-anchor="middle" x="243.2" y="-446.3" font-family="Times New Roman,serif" font-size="14.00">puts</text>
</g>
<!-- main&#45;&gt;puts -->
<g id="edge42" class="edge">
<title>main&#45;&gt;puts</title>
<path fill="none" stroke="black" d="M485.5,-514.29C437.13,-501.65 332.52,-474.33 277.94,-460.07"/>
<polygon fill="black" stroke="black" points="278.6,-456.63 268.04,-457.49 276.83,-463.4 278.6,-456.63"/>
</g>
<!-- ck_uart_init -->
<g id="node27" class="node">
<title>ck_uart_init</title>
<ellipse fill="none" stroke="black" cx="450.2" cy="-450" rx="53.89" ry="18"/>
<text text-anchor="middle" x="450.2" y="-446.3" font-family="Times New Roman,serif" font-size="14.00">ck_uart_init</text>
</g>
<!-- main&#45;&gt;ck_uart_init -->
<g id="edge41" class="edge">
<title>main&#45;&gt;ck_uart_init</title>
<path fill="none" stroke="black" d="M497.96,-505.81C490.22,-496.93 480.26,-485.5 471.45,-475.39"/>
<polygon fill="black" stroke="black" points="473.89,-472.87 464.69,-467.63 468.62,-477.47 473.89,-472.87"/>
</g>
<!-- benchmark -->
<g id="node30" class="node">
<title>benchmark</title>
<ellipse fill="none" stroke="black" cx="579.2" cy="-450" rx="50.89" ry="18"/>
<text text-anchor="middle" x="579.2" y="-446.3" font-family="Times New Roman,serif" font-size="14.00">benchmark</text>
</g>
<!-- main&#45;&gt;benchmark -->
<g id="edge43" class="edge">
<title>main&#45;&gt;benchmark</title>
<path fill="none" stroke="black" d="M525.62,-506.15C534.53,-496.98 546.16,-485.01 556.3,-474.56"/>
<polygon fill="black" stroke="black" points="558.91,-476.9 563.37,-467.29 553.89,-472.02 558.91,-476.9"/>
</g>
<!-- ck_uart_open -->
<g id="node33" class="node">
<title>ck_uart_open</title>
<ellipse fill="none" stroke="black" cx="709.2" cy="-450" rx="61.19" ry="18"/>
<text text-anchor="middle" x="709.2" y="-446.3" font-family="Times New Roman,serif" font-size="14.00">ck_uart_open</text>
</g>
<!-- main&#45;&gt;ck_uart_open -->
<g id="edge44" class="edge">
<title>main&#45;&gt;ck_uart_open</title>
<path fill="none" stroke="black" d="M535.08,-512.56C566.44,-501.47 622.18,-481.76 662.16,-467.63"/>
<polygon fill="black" stroke="black" points="663.44,-470.89 671.7,-464.26 661.11,-464.29 663.44,-470.89"/>
</g>
<!-- _ntoa_format -->
<g id="node3" class="node">
<title>_ntoa_format</title>
<ellipse fill="none" stroke="black" cx="1178.2" cy="-90" rx="59.59" ry="18"/>
<text text-anchor="middle" x="1178.2" y="-86.3" font-family="Times New Roman,serif" font-size="14.00">_ntoa_format</text>
</g>
<!-- &lt;_out_rev&gt; * -->
<g id="node4" class="node">
<title>&lt;_out_rev&gt; *</title>
<ellipse fill="none" stroke="black" cx="1178.2" cy="-18" rx="61.19" ry="18"/>
<text text-anchor="middle" x="1178.2" y="-14.3" font-family="Times New Roman,serif" font-size="14.00">&lt;_out_rev&gt; *</text>
</g>
<!-- _ntoa_format&#45;&gt;&lt;_out_rev&gt; * -->
<g id="edge2" class="edge">
<title>_ntoa_format&#45;&gt;&lt;_out_rev&gt; *</title>
<path fill="none" stroke="black" d="M1178.2,-71.7C1178.2,-63.98 1178.2,-54.71 1178.2,-46.11"/>
<polygon fill="black" stroke="black" points="1181.7,-46.1 1178.2,-36.1 1174.7,-46.1 1181.7,-46.1"/>
</g>
<!-- _out_rev -->
<g id="node5" class="node">
<title>_out_rev</title>
<ellipse fill="none" stroke="black" cx="975.2" cy="-18" rx="43.59" ry="18"/>
<text text-anchor="middle" x="975.2" y="-14.3" font-family="Times New Roman,serif" font-size="14.00">_out_rev</text>
</g>
<!-- _ntoa_format&#45;&gt;_out_rev -->
<g id="edge3" class="edge">
<title>_ntoa_format&#45;&gt;_out_rev</title>
<path fill="none" stroke="black" d="M1140.49,-76C1105.59,-63.96 1053.77,-46.09 1017.48,-33.58"/>
<polygon fill="black" stroke="black" points="1018.27,-30.15 1007.68,-30.2 1015.99,-36.77 1018.27,-30.15"/>
</g>
<!-- _ntoa_long -->
<g id="node6" class="node">
<title>_ntoa_long</title>
<ellipse fill="none" stroke="black" cx="733.2" cy="-162" rx="51.99" ry="18"/>
<text text-anchor="middle" x="733.2" y="-158.3" font-family="Times New Roman,serif" font-size="14.00">_ntoa_long</text>
</g>
<!-- _ntoa_long&#45;&gt;_ntoa_format -->
<g id="edge4" class="edge">
<title>_ntoa_long&#45;&gt;_ntoa_format</title>
<path fill="none" stroke="black" d="M780.75,-154.45C878.49,-140.97 1094.18,-111.12 1110.2,-108 1114.95,-107.07 1119.86,-106.03 1124.78,-104.92"/>
<polygon fill="black" stroke="black" points="1125.88,-108.25 1134.82,-102.57 1124.28,-101.44 1125.88,-108.25"/>
</g>
<!-- _ntoa_long_long -->
<g id="node7" class="node">
<title>_ntoa_long_long</title>
<ellipse fill="none" stroke="black" cx="973.2" cy="-234" rx="72.29" ry="18"/>
<text text-anchor="middle" x="973.2" y="-230.3" font-family="Times New Roman,serif" font-size="14.00">_ntoa_long_long</text>
</g>
<!-- _ntoa_long_long&#45;&gt;_ntoa_format -->
<g id="edge6" class="edge">
<title>_ntoa_long_long&#45;&gt;_ntoa_format</title>
<path fill="none" stroke="black" d="M1015.41,-219.28C1039.71,-210.26 1070.1,-196.97 1094.2,-180 1119.88,-161.91 1143.92,-135.02 1159.65,-115.54"/>
<polygon fill="black" stroke="black" points="1162.4,-117.7 1165.86,-107.69 1156.91,-113.36 1162.4,-117.7"/>
</g>
<!-- __umoddi3 -->
<g id="node8" class="node">
<title>__umoddi3</title>
<ellipse fill="none" stroke="black" cx="1032.2" cy="-162" rx="52.79" ry="18"/>
<text text-anchor="middle" x="1032.2" y="-158.3" font-family="Times New Roman,serif" font-size="14.00">__umoddi3</text>
</g>
<!-- _ntoa_long_long&#45;&gt;__umoddi3 -->
<g id="edge5" class="edge">
<title>_ntoa_long_long&#45;&gt;__umoddi3</title>
<path fill="none" stroke="black" d="M987.48,-216.05C994.65,-207.54 1003.48,-197.07 1011.39,-187.68"/>
<polygon fill="black" stroke="black" points="1014.28,-189.69 1018.05,-179.79 1008.92,-185.18 1014.28,-189.69"/>
</g>
<!-- __udivdi3 -->
<g id="node9" class="node">
<title>__udivdi3</title>
<ellipse fill="none" stroke="black" cx="914.2" cy="-162" rx="47.39" ry="18"/>
<text text-anchor="middle" x="914.2" y="-158.3" font-family="Times New Roman,serif" font-size="14.00">__udivdi3</text>
</g>
<!-- _ntoa_long_long&#45;&gt;__udivdi3 -->
<g id="edge7" class="edge">
<title>_ntoa_long_long&#45;&gt;__udivdi3</title>
<path fill="none" stroke="black" d="M958.91,-216.05C951.56,-207.33 942.47,-196.54 934.41,-186.98"/>
<polygon fill="black" stroke="black" points="937.06,-184.7 927.94,-179.31 931.71,-189.21 937.06,-184.7"/>
</g>
<!-- _etoa -->
<g id="node10" class="node">
<title>_etoa</title>
<ellipse fill="none" stroke="black" cx="499.2" cy="-234" rx="30.59" ry="18"/>
<text text-anchor="middle" x="499.2" y="-230.3" font-family="Times New Roman,serif" font-size="14.00">_etoa</text>
</g>
<!-- _etoa&#45;&gt;_ntoa_long -->
<g id="edge12" class="edge">
<title>_etoa&#45;&gt;_ntoa_long</title>
<path fill="none" stroke="black" d="M526.04,-224.97C564.82,-213.37 637.12,-191.74 685.21,-177.35"/>
<polygon fill="black" stroke="black" points="686.51,-180.62 695.09,-174.4 684.5,-173.91 686.51,-180.62"/>
</g>
<!-- __fixdfsi -->
<g id="node11" class="node">
<title>__fixdfsi</title>
<ellipse fill="none" stroke="black" cx="557.2" cy="-90" rx="43.59" ry="18"/>
<text text-anchor="middle" x="557.2" y="-86.3" font-family="Times New Roman,serif" font-size="14.00">__fixdfsi</text>
</g>
<!-- _etoa&#45;&gt;__fixdfsi -->
<g id="edge8" class="edge">
<title>_etoa&#45;&gt;__fixdfsi</title>
<path fill="none" stroke="black" d="M500.68,-215.94C502.76,-197.51 507.57,-167.63 518.2,-144 522.81,-133.73 529.65,-123.52 536.32,-114.84"/>
<polygon fill="black" stroke="black" points="539.05,-117.02 542.58,-107.03 533.59,-112.64 539.05,-117.02"/>
</g>
<!-- __adddf3 -->
<g id="node12" class="node">
<title>__adddf3</title>
<ellipse fill="none" stroke="black" cx="157.2" cy="-162" rx="46.29" ry="18"/>
<text text-anchor="middle" x="157.2" y="-158.3" font-family="Times New Roman,serif" font-size="14.00">__adddf3</text>
</g>
<!-- _etoa&#45;&gt;__adddf3 -->
<g id="edge9" class="edge">
<title>_etoa&#45;&gt;__adddf3</title>
<path fill="none" stroke="black" d="M470.01,-228.27C418.92,-219.82 310.06,-201.02 219.2,-180 213.9,-178.77 208.36,-177.4 202.88,-175.97"/>
<polygon fill="black" stroke="black" points="203.7,-172.57 193.13,-173.38 201.9,-179.33 203.7,-172.57"/>
</g>
<!-- __subdf3 -->
<g id="node13" class="node">
<title>__subdf3</title>
<ellipse fill="none" stroke="black" cx="449.2" cy="-90" rx="46.29" ry="18"/>
<text text-anchor="middle" x="449.2" y="-86.3" font-family="Times New Roman,serif" font-size="14.00">__subdf3</text>
</g>
<!-- _etoa&#45;&gt;__subdf3 -->
<g id="edge10" class="edge">
<title>_etoa&#45;&gt;__subdf3</title>
<path fill="none" stroke="black" d="M493.26,-216.15C484.7,-191.84 468.79,-146.66 458.62,-117.75"/>
<polygon fill="black" stroke="black" points="461.9,-116.54 455.28,-108.27 455.3,-118.86 461.9,-116.54"/>
</g>
<!-- __floatsidf -->
<g id="node14" class="node">
<title>__floatsidf</title>
<ellipse fill="none" stroke="black" cx="125.2" cy="-90" rx="50.09" ry="18"/>
<text text-anchor="middle" x="125.2" y="-86.3" font-family="Times New Roman,serif" font-size="14.00">__floatsidf</text>
</g>
<!-- _etoa&#45;&gt;__floatsidf -->
<g id="edge11" class="edge">
<title>_etoa&#45;&gt;__floatsidf</title>
<path fill="none" stroke="black" d="M472.36,-225.21C439.5,-215.47 382.27,-197.91 334.2,-180 274.03,-157.58 205.85,-127.68 164.19,-108.88"/>
<polygon fill="black" stroke="black" points="165.51,-105.63 154.96,-104.7 162.62,-112.01 165.51,-105.63"/>
</g>
<!-- _ftoa -->
<g id="node15" class="node">
<title>_ftoa</title>
<ellipse fill="none" stroke="black" cx="557.2" cy="-162" rx="29.8" ry="18"/>
<text text-anchor="middle" x="557.2" y="-158.3" font-family="Times New Roman,serif" font-size="14.00">_ftoa</text>
</g>
<!-- _etoa&#45;&gt;_ftoa -->
<g id="edge13" class="edge">
<title>_etoa&#45;&gt;_ftoa</title>
<path fill="none" stroke="black" d="M507.1,-216.41C513.96,-206.87 523.83,-194.79 533.08,-184.53"/>
<polygon fill="black" stroke="black" points="535.73,-186.82 539.97,-177.11 530.6,-182.05 535.73,-186.82"/>
</g>
<!-- __muldf3 -->
<g id="node16" class="node">
<title>__muldf3</title>
<ellipse fill="none" stroke="black" cx="239.2" cy="-90" rx="46.29" ry="18"/>
<text text-anchor="middle" x="239.2" y="-86.3" font-family="Times New Roman,serif" font-size="14.00">__muldf3</text>
</g>
<!-- _etoa&#45;&gt;__muldf3 -->
<g id="edge14" class="edge">
<title>_etoa&#45;&gt;__muldf3</title>
<path fill="none" stroke="black" d="M477.13,-221.3C457.04,-210.61 426.57,-194.35 400.2,-180 356.4,-156.18 306.16,-128.32 273.61,-110.2"/>
<polygon fill="black" stroke="black" points="274.95,-106.94 264.51,-105.13 271.55,-113.06 274.95,-106.94"/>
</g>
<!-- __ledf2 -->
<g id="node17" class="node">
<title>__ledf2</title>
<ellipse fill="none" stroke="black" cx="961.2" cy="-90" rx="38.19" ry="18"/>
<text text-anchor="middle" x="961.2" y="-86.3" font-family="Times New Roman,serif" font-size="14.00">__ledf2</text>
</g>
<!-- _etoa&#45;&gt;__ledf2 -->
<g id="edge15" class="edge">
<title>_etoa&#45;&gt;__ledf2</title>
<path fill="none" stroke="black" d="M522.28,-222C542.42,-212.04 572.1,-196.43 596.2,-180 616.79,-165.96 616.39,-154.04 639.2,-144 749.99,-95.21 791.17,-134.92 909.2,-108 913.36,-107.05 917.67,-105.91 921.94,-104.67"/>
<polygon fill="black" stroke="black" points="923.23,-107.94 931.76,-101.66 921.17,-101.25 923.23,-107.94"/>
</g>
<!-- __divdf3 -->
<g id="node18" class="node">
<title>__divdf3</title>
<ellipse fill="none" stroke="black" cx="44.2" cy="-162" rx="44.39" ry="18"/>
<text text-anchor="middle" x="44.2" y="-158.3" font-family="Times New Roman,serif" font-size="14.00">__divdf3</text>
</g>
<!-- _etoa&#45;&gt;__divdf3 -->
<g id="edge16" class="edge">
<title>_etoa&#45;&gt;__divdf3</title>
<path fill="none" stroke="black" d="M469.05,-230.56C402.37,-224.81 237.56,-208.7 102.2,-180 97.44,-178.99 92.51,-177.79 87.62,-176.5"/>
<polygon fill="black" stroke="black" points="88.28,-173.06 77.71,-173.77 86.42,-179.8 88.28,-173.06"/>
</g>
<!-- __eqdf2 -->
<g id="node19" class="node">
<title>__eqdf2</title>
<ellipse fill="none" stroke="black" cx="1059.2" cy="-90" rx="41.69" ry="18"/>
<text text-anchor="middle" x="1059.2" y="-86.3" font-family="Times New Roman,serif" font-size="14.00">__eqdf2</text>
</g>
<!-- _etoa&#45;&gt;__eqdf2 -->
<g id="edge17" class="edge">
<title>_etoa&#45;&gt;__eqdf2</title>
<path fill="none" stroke="black" d="M526.25,-225.33C554.09,-216.74 598.1,-201.19 632.2,-180 652.51,-167.38 650.36,-153.75 672.2,-144 809.34,-82.79 861.44,-139.93 1008.2,-108 1011.78,-107.22 1015.47,-106.28 1019.14,-105.24"/>
<polygon fill="black" stroke="black" points="1020.19,-108.58 1028.75,-102.33 1018.16,-101.88 1020.19,-108.58"/>
</g>
<!-- __gedf2 -->
<g id="node20" class="node">
<title>__gedf2</title>
<ellipse fill="none" stroke="black" cx="344.2" cy="-90" rx="40.89" ry="18"/>
<text text-anchor="middle" x="344.2" y="-86.3" font-family="Times New Roman,serif" font-size="14.00">__gedf2</text>
</g>
<!-- _etoa&#45;&gt;__gedf2 -->
<g id="edge18" class="edge">
<title>_etoa&#45;&gt;__gedf2</title>
<path fill="none" stroke="black" d="M483.19,-218.34C456.1,-193.51 401.01,-143.05 368.92,-113.65"/>
<polygon fill="black" stroke="black" points="371.03,-110.83 361.29,-106.66 366.3,-115.99 371.03,-110.83"/>
</g>
<!-- __clzsi2 -->
<g id="node34" class="node">
<title>__clzsi2</title>
<ellipse fill="none" stroke="black" cx="182.2" cy="-18" rx="40.89" ry="18"/>
<text text-anchor="middle" x="182.2" y="-14.3" font-family="Times New Roman,serif" font-size="14.00">__clzsi2</text>
</g>
<!-- __adddf3&#45;&gt;__clzsi2 -->
<g id="edge45" class="edge">
<title>__adddf3&#45;&gt;__clzsi2</title>
<path fill="none" stroke="black" d="M121.83,-150.28C101.68,-142.16 78.13,-128.76 66.2,-108 58.22,-94.13 57.55,-85.46 66.2,-72 81.36,-48.4 109.92,-35.18 134.91,-27.84"/>
<polygon fill="black" stroke="black" points="135.89,-31.21 144.63,-25.22 134.06,-24.45 135.89,-31.21"/>
</g>
<!-- __subdf3&#45;&gt;__clzsi2 -->
<g id="edge48" class="edge">
<title>__subdf3&#45;&gt;__clzsi2</title>
<path fill="none" stroke="black" d="M414.66,-78.01C407.9,-75.95 400.84,-73.86 394.2,-72 337.03,-56.03 270.55,-39.79 227.5,-29.57"/>
<polygon fill="black" stroke="black" points="228.15,-26.12 217.61,-27.23 226.54,-32.93 228.15,-26.12"/>
</g>
<!-- __floatsidf&#45;&gt;__clzsi2 -->
<g id="edge49" class="edge">
<title>__floatsidf&#45;&gt;__clzsi2</title>
<path fill="none" stroke="black" d="M138.7,-72.41C145.73,-63.78 154.46,-53.06 162.25,-43.5"/>
<polygon fill="black" stroke="black" points="165.18,-45.43 168.78,-35.47 159.76,-41.01 165.18,-45.43"/>
</g>
<!-- _ftoa&#45;&gt;_out_rev -->
<g id="edge29" class="edge">
<title>_ftoa&#45;&gt;_out_rev</title>
<path fill="none" stroke="black" d="M580.61,-150.77C587.17,-148.23 594.37,-145.74 601.2,-144 720.65,-113.57 764.9,-160.98 876.2,-108 897.2,-98 896.97,-87.63 914.2,-72 925.46,-61.78 938.11,-50.72 948.97,-41.35"/>
<polygon fill="black" stroke="black" points="951.56,-43.74 956.87,-34.57 947,-38.43 951.56,-43.74"/>
</g>
<!-- _ftoa&#45;&gt;_etoa -->
<g id="edge22" class="edge">
<title>_ftoa&#45;&gt;_etoa</title>
<path fill="none" stroke="black" d="M549.28,-179.61C542.43,-189.12 532.59,-201.18 523.36,-211.42"/>
<polygon fill="black" stroke="black" points="520.72,-209.12 516.48,-218.83 525.85,-213.89 520.72,-209.12"/>
</g>
<!-- _ftoa&#45;&gt;__fixdfsi -->
<g id="edge19" class="edge">
<title>_ftoa&#45;&gt;__fixdfsi</title>
<path fill="none" stroke="black" d="M557.2,-143.7C557.2,-135.98 557.2,-126.71 557.2,-118.11"/>
<polygon fill="black" stroke="black" points="560.7,-118.1 557.2,-108.1 553.7,-118.1 560.7,-118.1"/>
</g>
<!-- _ftoa&#45;&gt;__subdf3 -->
<g id="edge20" class="edge">
<title>_ftoa&#45;&gt;__subdf3</title>
<path fill="none" stroke="black" d="M537.64,-148.32C521.69,-137.98 498.85,-123.18 480.38,-111.21"/>
<polygon fill="black" stroke="black" points="482.27,-108.27 471.98,-105.77 478.46,-114.14 482.27,-108.27"/>
</g>
<!-- _ftoa&#45;&gt;__floatsidf -->
<g id="edge21" class="edge">
<title>_ftoa&#45;&gt;__floatsidf</title>
<path fill="none" stroke="black" d="M527.93,-158.24C464.71,-151.99 310.83,-135.1 184.2,-108 180.09,-107.12 175.85,-106.11 171.62,-105.03"/>
<polygon fill="black" stroke="black" points="172.38,-101.61 161.82,-102.41 170.58,-108.37 172.38,-101.61"/>
</g>
<!-- _ftoa&#45;&gt;__muldf3 -->
<g id="edge23" class="edge">
<title>_ftoa&#45;&gt;__muldf3</title>
<path fill="none" stroke="black" d="M528.57,-156.21C480.03,-147.87 378.6,-129.49 294.2,-108 290.59,-107.08 286.88,-106.07 283.16,-105.02"/>
<polygon fill="black" stroke="black" points="283.95,-101.6 273.37,-102.15 281.98,-108.32 283.95,-101.6"/>
</g>
<!-- _ftoa&#45;&gt;__ledf2 -->
<g id="edge26" class="edge">
<title>_ftoa&#45;&gt;__ledf2</title>
<path fill="none" stroke="black" d="M580.59,-150.7C587.15,-148.16 594.36,-145.69 601.2,-144 734.98,-110.9 774.58,-137.56 909.2,-108 913.37,-107.08 917.68,-105.96 921.96,-104.74"/>
<polygon fill="black" stroke="black" points="923.24,-108.01 931.78,-101.75 921.19,-101.31 923.24,-108.01"/>
</g>
<!-- _ftoa&#45;&gt;__eqdf2 -->
<g id="edge27" class="edge">
<title>_ftoa&#45;&gt;__eqdf2</title>
<path fill="none" stroke="black" d="M584.77,-154.51C600.62,-150.98 620.94,-146.77 639.2,-144 802.1,-119.24 847.02,-142.27 1008.2,-108 1011.78,-107.24 1015.47,-106.31 1019.15,-105.28"/>
<polygon fill="black" stroke="black" points="1020.2,-108.62 1028.76,-102.38 1018.18,-101.92 1020.2,-108.62"/>
</g>
<!-- _ftoa&#45;&gt;__gedf2 -->
<g id="edge28" class="edge">
<title>_ftoa&#45;&gt;__gedf2</title>
<path fill="none" stroke="black" d="M531.47,-152.75C499.32,-142.42 442.62,-124.1 394.2,-108 391.25,-107.02 388.2,-106 385.14,-104.97"/>
<polygon fill="black" stroke="black" points="385.97,-101.56 375.38,-101.67 383.73,-108.19 385.97,-101.56"/>
</g>
<!-- __fixunsdfsi -->
<g id="node21" class="node">
<title>__fixunsdfsi</title>
<ellipse fill="none" stroke="black" cx="811.2" cy="-90" rx="55.79" ry="18"/>
<text text-anchor="middle" x="811.2" y="-86.3" font-family="Times New Roman,serif" font-size="14.00">__fixunsdfsi</text>
</g>
<!-- _ftoa&#45;&gt;__fixunsdfsi -->
<g id="edge24" class="edge">
<title>_ftoa&#45;&gt;__fixunsdfsi</title>
<path fill="none" stroke="black" d="M581.21,-151.1C587.64,-148.62 594.64,-146.07 601.2,-144 664.51,-124 681.85,-124.4 746.2,-108 750.51,-106.9 754.98,-105.75 759.47,-104.59"/>
<polygon fill="black" stroke="black" points="760.46,-107.95 769.26,-102.05 758.7,-101.17 760.46,-107.95"/>
</g>
<!-- __floatunsidf -->
<g id="node22" class="node">
<title>__floatunsidf</title>
<ellipse fill="none" stroke="black" cx="678.2" cy="-90" rx="59.29" ry="18"/>
<text text-anchor="middle" x="678.2" y="-86.3" font-family="Times New Roman,serif" font-size="14.00">__floatunsidf</text>
</g>
<!-- _ftoa&#45;&gt;__floatunsidf -->
<g id="edge25" class="edge">
<title>_ftoa&#45;&gt;__floatunsidf</title>
<path fill="none" stroke="black" d="M578,-148.97C595.85,-138.64 621.97,-123.53 643.06,-111.33"/>
<polygon fill="black" stroke="black" points="644.85,-114.33 651.75,-106.3 641.34,-108.28 644.85,-114.33"/>
</g>
<!-- __muldf3&#45;&gt;__clzsi2 -->
<g id="edge47" class="edge">
<title>__muldf3&#45;&gt;__clzsi2</title>
<path fill="none" stroke="black" d="M225.69,-72.41C218.66,-63.78 209.93,-53.06 202.14,-43.5"/>
<polygon fill="black" stroke="black" points="204.64,-41.01 195.61,-35.47 199.21,-45.43 204.64,-41.01"/>
</g>
<!-- __divdf3&#45;&gt;__clzsi2 -->
<g id="edge46" class="edge">
<title>__divdf3&#45;&gt;__clzsi2</title>
<path fill="none" stroke="black" d="M41.8,-143.71C40.09,-124.25 40.37,-92.68 56.2,-72 74.95,-47.5 107.16,-34.21 134.32,-27.07"/>
<polygon fill="black" stroke="black" points="135.17,-30.47 144.06,-24.71 133.52,-23.66 135.17,-30.47"/>
</g>
<!-- __floatunsidf&#45;&gt;__clzsi2 -->
<g id="edge50" class="edge">
<title>__floatunsidf&#45;&gt;__clzsi2</title>
<path fill="none" stroke="black" d="M635.57,-77.5C627.2,-75.48 618.45,-73.54 610.2,-72 474.59,-46.75 312.5,-30.39 232.28,-23.21"/>
<polygon fill="black" stroke="black" points="232.25,-19.69 221.98,-22.3 231.63,-26.66 232.25,-19.69"/>
</g>
<!-- _vsnprintf -->
<g id="node23" class="node">
<title>_vsnprintf</title>
<ellipse fill="none" stroke="black" cx="662.2" cy="-306" rx="48.19" ry="18"/>
<text text-anchor="middle" x="662.2" y="-302.3" font-family="Times New Roman,serif" font-size="14.00">_vsnprintf</text>
</g>
<!-- _vsnprintf&#45;&gt;_ntoa_long -->
<g id="edge32" class="edge">
<title>_vsnprintf&#45;&gt;_ntoa_long</title>
<path fill="none" stroke="black" d="M670.62,-288.15C682.9,-263.6 705.81,-217.77 720.24,-188.91"/>
<polygon fill="black" stroke="black" points="723.44,-190.33 724.78,-179.82 717.18,-187.2 723.44,-190.33"/>
</g>
<!-- _vsnprintf&#45;&gt;_ntoa_long_long -->
<g id="edge31" class="edge">
<title>_vsnprintf&#45;&gt;_ntoa_long_long</title>
<path fill="none" stroke="black" d="M702.22,-295.99C755.21,-284.06 849.19,-262.91 911.35,-248.92"/>
<polygon fill="black" stroke="black" points="912.44,-252.26 921.43,-246.65 910.9,-245.43 912.44,-252.26"/>
</g>
<!-- _vsnprintf&#45;&gt;_etoa -->
<g id="edge33" class="edge">
<title>_vsnprintf&#45;&gt;_etoa</title>
<path fill="none" stroke="black" d="M631.92,-292C603.71,-279.88 561.74,-261.86 532.58,-249.34"/>
<polygon fill="black" stroke="black" points="533.78,-246.04 523.22,-245.31 531.02,-252.48 533.78,-246.04"/>
</g>
<!-- _vsnprintf&#45;&gt;_ftoa -->
<g id="edge30" class="edge">
<title>_vsnprintf&#45;&gt;_ftoa</title>
<path fill="none" stroke="black" d="M649.95,-288.43C631.51,-263.5 596.53,-216.2 575.2,-187.34"/>
<polygon fill="black" stroke="black" points="577.81,-184.99 569.05,-179.03 572.18,-189.15 577.81,-184.99"/>
</g>
<!-- fputc -->
<g id="node25" class="node">
<title>fputc</title>
<ellipse fill="none" stroke="black" cx="135.2" cy="-378" rx="29.8" ry="18"/>
<text text-anchor="middle" x="135.2" y="-374.3" font-family="Times New Roman,serif" font-size="14.00">fputc</text>
</g>
<!-- puts&#45;&gt;fputc -->
<g id="edge34" class="edge">
<title>puts&#45;&gt;fputc</title>
<path fill="none" stroke="black" d="M224.38,-436.81C207.58,-425.92 182.74,-409.81 163.53,-397.37"/>
<polygon fill="black" stroke="black" points="165.18,-394.26 154.89,-391.76 161.38,-400.14 165.18,-394.26"/>
</g>
<!-- &lt;ck_uart_putc&gt; * -->
<g id="node32" class="node">
<title>&lt;ck_uart_putc&gt; *</title>
<ellipse fill="none" stroke="black" cx="135.2" cy="-306" rx="76.89" ry="18"/>
<text text-anchor="middle" x="135.2" y="-302.3" font-family="Times New Roman,serif" font-size="14.00">&lt;ck_uart_putc&gt; *</text>
</g>
<!-- fputc&#45;&gt;&lt;ck_uart_putc&gt; * -->
<g id="edge40" class="edge">
<title>fputc&#45;&gt;&lt;ck_uart_putc&gt; *</title>
<path fill="none" stroke="black" d="M135.2,-359.7C135.2,-351.98 135.2,-342.71 135.2,-334.11"/>
<polygon fill="black" stroke="black" points="138.7,-334.1 135.2,-324.1 131.7,-334.1 138.7,-334.1"/>
</g>
<!-- printf -->
<g id="node26" class="node">
<title>printf</title>
<ellipse fill="none" stroke="black" cx="662.2" cy="-378" rx="30.59" ry="18"/>
<text text-anchor="middle" x="662.2" y="-374.3" font-family="Times New Roman,serif" font-size="14.00">printf</text>
</g>
<!-- printf&#45;&gt;_vsnprintf -->
<g id="edge35" class="edge">
<title>printf&#45;&gt;_vsnprintf</title>
<path fill="none" stroke="black" d="M662.2,-359.7C662.2,-351.98 662.2,-342.71 662.2,-334.11"/>
<polygon fill="black" stroke="black" points="665.7,-334.1 662.2,-324.1 658.7,-334.1 665.7,-334.1"/>
</g>
<!-- ck_uart_set_wordsize -->
<g id="node28" class="node">
<title>ck_uart_set_wordsize</title>
<ellipse fill="none" stroke="black" cx="450.2" cy="-378" rx="90.98" ry="18"/>
<text text-anchor="middle" x="450.2" y="-374.3" font-family="Times New Roman,serif" font-size="14.00">ck_uart_set_wordsize</text>
</g>
<!-- ck_uart_init&#45;&gt;ck_uart_set_wordsize -->
<g id="edge36" class="edge">
<title>ck_uart_init&#45;&gt;ck_uart_set_wordsize</title>
<path fill="none" stroke="black" d="M450.2,-431.7C450.2,-423.98 450.2,-414.71 450.2,-406.11"/>
<polygon fill="black" stroke="black" points="453.7,-406.1 450.2,-396.1 446.7,-406.1 453.7,-406.1"/>
</g>
<!-- ck_uart_set_parity -->
<g id="node29" class="node">
<title>ck_uart_set_parity</title>
<ellipse fill="none" stroke="black" cx="262.2" cy="-378" rx="78.79" ry="18"/>
<text text-anchor="middle" x="262.2" y="-374.3" font-family="Times New Roman,serif" font-size="14.00">ck_uart_set_parity</text>
</g>
<!-- ck_uart_init&#45;&gt;ck_uart_set_parity -->
<g id="edge37" class="edge">
<title>ck_uart_init&#45;&gt;ck_uart_set_parity</title>
<path fill="none" stroke="black" d="M415.28,-436C385.89,-425.06 343.56,-409.3 310.86,-397.12"/>
<polygon fill="black" stroke="black" points="312.07,-393.84 301.48,-393.63 309.63,-400.4 312.07,-393.84"/>
</g>
<!-- benchmark&#45;&gt;printf -->
<g id="edge38" class="edge">
<title>benchmark&#45;&gt;printf</title>
<path fill="none" stroke="black" d="M598.03,-433.12C609.72,-423.26 624.88,-410.47 637.52,-399.81"/>
<polygon fill="black" stroke="black" points="640.02,-402.28 645.41,-393.16 635.51,-396.93 640.02,-402.28"/>
</g>
<!-- icrc -->
<g id="node31" class="node">
<title>icrc</title>
<ellipse fill="none" stroke="black" cx="586.2" cy="-378" rx="27" ry="18"/>
<text text-anchor="middle" x="586.2" y="-374.3" font-family="Times New Roman,serif" font-size="14.00">icrc</text>
</g>
<!-- benchmark&#45;&gt;icrc -->
<g id="edge39" class="edge">
<title>benchmark&#45;&gt;icrc</title>
<path fill="none" stroke="black" d="M580.93,-431.7C581.7,-423.98 582.62,-414.71 583.48,-406.11"/>
<polygon fill="black" stroke="black" points="586.97,-406.4 584.49,-396.1 580.01,-405.71 586.97,-406.4"/>
</g>
</g>
</svg>
