<?xml version="1.0" encoding="UTF-8" standalone="no"?>
<!DOCTYPE svg PUBLIC "-//W3C//DTD SVG 1.1//EN"
 "http://www.w3.org/Graphics/SVG/1.1/DTD/svg11.dtd">
<!-- Generated by graphviz version 6.0.2 (20221011.1828)
 -->
<!-- Pages: 1 -->
<svg width="1275pt" height="620pt"
 viewBox="0.00 0.00 1275.29 620.00" xmlns="http://www.w3.org/2000/svg" xmlns:xlink="http://www.w3.org/1999/xlink">
<g id="graph0" class="graph" transform="scale(1 1) rotate(0) translate(4 616)">
<polygon fill="white" stroke="none" points="-4,4 -4,-616 1271.29,-616 1271.29,4 -4,4"/>
<!-- __to_main -->
<g id="node1" class="node">
<title>__to_main</title>
<ellipse fill="none" stroke="black" cx="466.09" cy="-594" rx="50.09" ry="18"/>
<text text-anchor="middle" x="466.09" y="-590.3" font-family="Times New Roman,serif" font-size="14.00">__to_main</text>
</g>
<!-- main -->
<g id="node2" class="node">
<title>main</title>
<ellipse fill="none" stroke="black" cx="466.09" cy="-522" rx="27.9" ry="18"/>
<text text-anchor="middle" x="466.09" y="-518.3" font-family="Times New Roman,serif" font-size="14.00">main</text>
</g>
<!-- __to_main&#45;&gt;main -->
<g id="edge1" class="edge">
<title>__to_main&#45;&gt;main</title>
<path fill="none" stroke="black" d="M466.09,-575.7C466.09,-567.98 466.09,-558.71 466.09,-550.11"/>
<polygon fill="black" stroke="black" points="469.59,-550.1 466.09,-540.1 462.59,-550.1 469.59,-550.1"/>
</g>
<!-- puts -->
<g id="node24" class="node">
<title>puts</title>
<ellipse fill="none" stroke="black" cx="192.09" cy="-450" rx="27" ry="18"/>
<text text-anchor="middle" x="192.09" y="-446.3" font-family="Times New Roman,serif" font-size="14.00">puts</text>
</g>
<!-- main&#45;&gt;puts -->
<g id="edge42" class="edge">
<title>main&#45;&gt;puts</title>
<path fill="none" stroke="black" d="M440.32,-514.41C390.78,-501.76 282.26,-474.04 226.57,-459.81"/>
<polygon fill="black" stroke="black" points="227.37,-456.4 216.81,-457.31 225.64,-463.18 227.37,-456.4"/>
</g>
<!-- ck_uart_init -->
<g id="node27" class="node">
<title>ck_uart_init</title>
<ellipse fill="none" stroke="black" cx="405.09" cy="-450" rx="53.89" ry="18"/>
<text text-anchor="middle" x="405.09" y="-446.3" font-family="Times New Roman,serif" font-size="14.00">ck_uart_init</text>
</g>
<!-- main&#45;&gt;ck_uart_init -->
<g id="edge41" class="edge">
<title>main&#45;&gt;ck_uart_init</title>
<path fill="none" stroke="black" d="M452.86,-505.81C445.12,-496.93 435.16,-485.5 426.35,-475.39"/>
<polygon fill="black" stroke="black" points="428.79,-472.87 419.58,-467.63 423.52,-477.47 428.79,-472.87"/>
</g>
<!-- benchmark -->
<g id="node30" class="node">
<title>benchmark</title>
<ellipse fill="none" stroke="black" cx="528.09" cy="-450" rx="50.89" ry="18"/>
<text text-anchor="middle" x="528.09" y="-446.3" font-family="Times New Roman,serif" font-size="14.00">benchmark</text>
</g>
<!-- main&#45;&gt;benchmark -->
<g id="edge44" class="edge">
<title>main&#45;&gt;benchmark</title>
<path fill="none" stroke="black" d="M479.55,-505.81C487.42,-496.93 497.53,-485.5 506.49,-475.39"/>
<polygon fill="black" stroke="black" points="509.36,-477.43 513.37,-467.63 504.12,-472.79 509.36,-477.43"/>
</g>
<!-- ck_uart_open -->
<g id="node33" class="node">
<title>ck_uart_open</title>
<ellipse fill="none" stroke="black" cx="658.09" cy="-450" rx="61.19" ry="18"/>
<text text-anchor="middle" x="658.09" y="-446.3" font-family="Times New Roman,serif" font-size="14.00">ck_uart_open</text>
</g>
<!-- main&#45;&gt;ck_uart_open -->
<g id="edge43" class="edge">
<title>main&#45;&gt;ck_uart_open</title>
<path fill="none" stroke="black" d="M490.02,-512.28C520.42,-501.19 573.53,-481.83 611.93,-467.83"/>
<polygon fill="black" stroke="black" points="613.16,-471.11 621.35,-464.4 610.76,-464.53 613.16,-471.11"/>
</g>
<!-- _ntoa_format -->
<g id="node3" class="node">
<title>_ntoa_format</title>
<ellipse fill="none" stroke="black" cx="61.09" cy="-90" rx="59.59" ry="18"/>
<text text-anchor="middle" x="61.09" y="-86.3" font-family="Times New Roman,serif" font-size="14.00">_ntoa_format</text>
</g>
<!-- _out_rev -->
<g id="node4" class="node">
<title>_out_rev</title>
<ellipse fill="none" stroke="black" cx="273.09" cy="-18" rx="43.59" ry="18"/>
<text text-anchor="middle" x="273.09" y="-14.3" font-family="Times New Roman,serif" font-size="14.00">_out_rev</text>
</g>
<!-- _ntoa_format&#45;&gt;_out_rev -->
<g id="edge2" class="edge">
<title>_ntoa_format&#45;&gt;_out_rev</title>
<path fill="none" stroke="black" d="M99.98,-76.16C136.85,-63.99 192.12,-45.74 230.24,-33.15"/>
<polygon fill="black" stroke="black" points="231.63,-36.38 240.03,-29.92 229.43,-29.73 231.63,-36.38"/>
</g>
<!-- &lt;_out_rev&gt; * -->
<g id="node5" class="node">
<title>&lt;_out_rev&gt; *</title>
<ellipse fill="none" stroke="black" cx="61.09" cy="-18" rx="61.19" ry="18"/>
<text text-anchor="middle" x="61.09" y="-14.3" font-family="Times New Roman,serif" font-size="14.00">&lt;_out_rev&gt; *</text>
</g>
<!-- _ntoa_format&#45;&gt;&lt;_out_rev&gt; * -->
<g id="edge3" class="edge">
<title>_ntoa_format&#45;&gt;&lt;_out_rev&gt; *</title>
<path fill="none" stroke="black" d="M61.09,-71.7C61.09,-63.98 61.09,-54.71 61.09,-46.11"/>
<polygon fill="black" stroke="black" points="64.59,-46.1 61.09,-36.1 57.59,-46.1 64.59,-46.1"/>
</g>
<!-- _ntoa_long -->
<g id="node6" class="node">
<title>_ntoa_long</title>
<ellipse fill="none" stroke="black" cx="525.09" cy="-162" rx="51.99" ry="18"/>
<text text-anchor="middle" x="525.09" y="-158.3" font-family="Times New Roman,serif" font-size="14.00">_ntoa_long</text>
</g>
<!-- _ntoa_long&#45;&gt;_ntoa_format -->
<g id="edge4" class="edge">
<title>_ntoa_long&#45;&gt;_ntoa_format</title>
<path fill="none" stroke="black" d="M475.86,-156.13C400.86,-148.31 253.65,-131.44 130.09,-108 125.07,-107.05 119.87,-105.96 114.67,-104.8"/>
<polygon fill="black" stroke="black" points="115.27,-101.35 104.74,-102.51 113.7,-108.17 115.27,-101.35"/>
</g>
<!-- _ntoa_long_long -->
<g id="node7" class="node">
<title>_ntoa_long_long</title>
<ellipse fill="none" stroke="black" cx="235.09" cy="-234" rx="72.29" ry="18"/>
<text text-anchor="middle" x="235.09" y="-230.3" font-family="Times New Roman,serif" font-size="14.00">_ntoa_long_long</text>
</g>
<!-- _ntoa_long_long&#45;&gt;_ntoa_format -->
<g id="edge5" class="edge">
<title>_ntoa_long_long&#45;&gt;_ntoa_format</title>
<path fill="none" stroke="black" d="M227.78,-215.83C218.67,-196.2 201.41,-164.17 178.09,-144 159,-127.48 133.9,-115.2 111.85,-106.65"/>
<polygon fill="black" stroke="black" points="112.88,-103.3 102.29,-103.09 110.44,-109.86 112.88,-103.3"/>
</g>
<!-- __udivdi3 -->
<g id="node8" class="node">
<title>__udivdi3</title>
<ellipse fill="none" stroke="black" cx="272.09" cy="-162" rx="47.39" ry="18"/>
<text text-anchor="middle" x="272.09" y="-158.3" font-family="Times New Roman,serif" font-size="14.00">__udivdi3</text>
</g>
<!-- _ntoa_long_long&#45;&gt;__udivdi3 -->
<g id="edge6" class="edge">
<title>_ntoa_long_long&#45;&gt;__udivdi3</title>
<path fill="none" stroke="black" d="M244.05,-216.05C248.37,-207.89 253.64,-197.91 258.44,-188.82"/>
<polygon fill="black" stroke="black" points="261.64,-190.27 263.22,-179.79 255.45,-186.99 261.64,-190.27"/>
</g>
<!-- __umoddi3 -->
<g id="node9" class="node">
<title>__umoddi3</title>
<ellipse fill="none" stroke="black" cx="116.09" cy="-162" rx="52.79" ry="18"/>
<text text-anchor="middle" x="116.09" y="-158.3" font-family="Times New Roman,serif" font-size="14.00">__umoddi3</text>
</g>
<!-- _ntoa_long_long&#45;&gt;__umoddi3 -->
<g id="edge7" class="edge">
<title>_ntoa_long_long&#45;&gt;__umoddi3</title>
<path fill="none" stroke="black" d="M208.09,-217.12C190.88,-206.99 168.44,-193.79 150.04,-182.97"/>
<polygon fill="black" stroke="black" points="151.76,-179.92 141.36,-177.86 148.21,-185.95 151.76,-179.92"/>
</g>
<!-- _etoa -->
<g id="node10" class="node">
<title>_etoa</title>
<ellipse fill="none" stroke="black" cx="759.09" cy="-234" rx="30.59" ry="18"/>
<text text-anchor="middle" x="759.09" y="-230.3" font-family="Times New Roman,serif" font-size="14.00">_etoa</text>
</g>
<!-- _etoa&#45;&gt;_ntoa_long -->
<g id="edge13" class="edge">
<title>_etoa&#45;&gt;_ntoa_long</title>
<path fill="none" stroke="black" d="M732.25,-224.97C693.47,-213.37 621.17,-191.74 573.08,-177.35"/>
<polygon fill="black" stroke="black" points="573.79,-173.91 563.2,-174.4 571.78,-180.62 573.79,-173.91"/>
</g>
<!-- __divdf3 -->
<g id="node11" class="node">
<title>__divdf3</title>
<ellipse fill="none" stroke="black" cx="1223.09" cy="-162" rx="44.39" ry="18"/>
<text text-anchor="middle" x="1223.09" y="-158.3" font-family="Times New Roman,serif" font-size="14.00">__divdf3</text>
</g>
<!-- _etoa&#45;&gt;__divdf3 -->
<g id="edge8" class="edge">
<title>_etoa&#45;&gt;__divdf3</title>
<path fill="none" stroke="black" d="M789.33,-230.61C857,-224.92 1025.6,-208.84 1164.09,-180 1169.12,-178.95 1174.34,-177.7 1179.51,-176.35"/>
<polygon fill="black" stroke="black" points="1180.58,-179.69 1189.31,-173.68 1178.74,-172.93 1180.58,-179.69"/>
</g>
<!-- __subdf3 -->
<g id="node12" class="node">
<title>__subdf3</title>
<ellipse fill="none" stroke="black" cx="1118.09" cy="-90" rx="46.29" ry="18"/>
<text text-anchor="middle" x="1118.09" y="-86.3" font-family="Times New Roman,serif" font-size="14.00">__subdf3</text>
</g>
<!-- _etoa&#45;&gt;__subdf3 -->
<g id="edge9" class="edge">
<title>_etoa&#45;&gt;__subdf3</title>
<path fill="none" stroke="black" d="M784.26,-223.58C812.15,-213.1 858.43,-195.58 898.09,-180 961.2,-155.21 1034.08,-125.52 1078.09,-107.47"/>
<polygon fill="black" stroke="black" points="1079.64,-110.61 1087.56,-103.58 1076.98,-104.14 1079.64,-110.61"/>
</g>
<!-- _ftoa -->
<g id="node13" class="node">
<title>_ftoa</title>
<ellipse fill="none" stroke="black" cx="701.09" cy="-162" rx="29.8" ry="18"/>
<text text-anchor="middle" x="701.09" y="-158.3" font-family="Times New Roman,serif" font-size="14.00">_ftoa</text>
</g>
<!-- _etoa&#45;&gt;_ftoa -->
<g id="edge10" class="edge">
<title>_etoa&#45;&gt;_ftoa</title>
<path fill="none" stroke="black" d="M741.81,-218.83C733.21,-209.88 723.11,-198.07 715.01,-187.62"/>
<polygon fill="black" stroke="black" points="717.81,-185.51 709.01,-179.61 712.21,-189.71 717.81,-185.51"/>
</g>
<!-- __adddf3 -->
<g id="node14" class="node">
<title>__adddf3</title>
<ellipse fill="none" stroke="black" cx="1109.09" cy="-162" rx="46.29" ry="18"/>
<text text-anchor="middle" x="1109.09" y="-158.3" font-family="Times New Roman,serif" font-size="14.00">__adddf3</text>
</g>
<!-- _etoa&#45;&gt;__adddf3 -->
<g id="edge11" class="edge">
<title>_etoa&#45;&gt;__adddf3</title>
<path fill="none" stroke="black" d="M787.99,-227.92C838.6,-218.92 946.52,-199.32 1037.09,-180 1044.87,-178.34 1053.09,-176.49 1061.09,-174.64"/>
<polygon fill="black" stroke="black" points="1062.11,-178 1071.05,-172.31 1060.52,-171.18 1062.11,-178"/>
</g>
<!-- __floatsidf -->
<g id="node15" class="node">
<title>__floatsidf</title>
<ellipse fill="none" stroke="black" cx="283.09" cy="-90" rx="50.09" ry="18"/>
<text text-anchor="middle" x="283.09" y="-86.3" font-family="Times New Roman,serif" font-size="14.00">__floatsidf</text>
</g>
<!-- _etoa&#45;&gt;__floatsidf -->
<g id="edge12" class="edge">
<title>_etoa&#45;&gt;__floatsidf</title>
<path fill="none" stroke="black" d="M736.01,-222C715.87,-212.04 686.19,-196.43 662.09,-180 641.5,-165.96 641.93,-153.99 619.09,-144 503.73,-93.55 461.14,-134.69 338.09,-108 334.87,-107.3 331.57,-106.5 328.25,-105.63"/>
<polygon fill="black" stroke="black" points="328.93,-102.19 318.36,-102.88 327.06,-108.93 328.93,-102.19"/>
</g>
<!-- __gedf2 -->
<g id="node16" class="node">
<title>__gedf2</title>
<ellipse fill="none" stroke="black" cx="806.09" cy="-90" rx="40.89" ry="18"/>
<text text-anchor="middle" x="806.09" y="-86.3" font-family="Times New Roman,serif" font-size="14.00">__gedf2</text>
</g>
<!-- _etoa&#45;&gt;__gedf2 -->
<g id="edge14" class="edge">
<title>_etoa&#45;&gt;__gedf2</title>
<path fill="none" stroke="black" d="M764.67,-216.15C772.68,-191.94 787.54,-147.05 797.11,-118.13"/>
<polygon fill="black" stroke="black" points="800.56,-118.86 800.38,-108.27 793.91,-116.66 800.56,-118.86"/>
</g>
<!-- __eqdf2 -->
<g id="node17" class="node">
<title>__eqdf2</title>
<ellipse fill="none" stroke="black" cx="907.09" cy="-90" rx="41.69" ry="18"/>
<text text-anchor="middle" x="907.09" y="-86.3" font-family="Times New Roman,serif" font-size="14.00">__eqdf2</text>
</g>
<!-- _etoa&#45;&gt;__eqdf2 -->
<g id="edge15" class="edge">
<title>_etoa&#45;&gt;__eqdf2</title>
<path fill="none" stroke="black" d="M774.38,-218.34C800.25,-193.51 852.85,-143.05 883.49,-113.65"/>
<polygon fill="black" stroke="black" points="885.98,-116.11 890.77,-106.66 881.14,-111.06 885.98,-116.11"/>
</g>
<!-- __fixdfsi -->
<g id="node18" class="node">
<title>__fixdfsi</title>
<ellipse fill="none" stroke="black" cx="1010.09" cy="-90" rx="43.59" ry="18"/>
<text text-anchor="middle" x="1010.09" y="-86.3" font-family="Times New Roman,serif" font-size="14.00">__fixdfsi</text>
</g>
<!-- _etoa&#45;&gt;__fixdfsi -->
<g id="edge16" class="edge">
<title>_etoa&#45;&gt;__fixdfsi</title>
<path fill="none" stroke="black" d="M780.49,-220.89C824.22,-196.15 924.11,-139.65 976.54,-109.98"/>
<polygon fill="black" stroke="black" points="978.47,-112.91 985.45,-104.94 975.03,-106.82 978.47,-112.91"/>
</g>
<!-- __muldf3 -->
<g id="node19" class="node">
<title>__muldf3</title>
<ellipse fill="none" stroke="black" cx="701.09" cy="-90" rx="46.29" ry="18"/>
<text text-anchor="middle" x="701.09" y="-86.3" font-family="Times New Roman,serif" font-size="14.00">__muldf3</text>
</g>
<!-- _etoa&#45;&gt;__muldf3 -->
<g id="edge17" class="edge">
<title>_etoa&#45;&gt;__muldf3</title>
<path fill="none" stroke="black" d="M757.61,-215.94C755.53,-197.51 750.72,-167.63 740.09,-144 735.6,-134 728.99,-124.04 722.49,-115.51"/>
<polygon fill="black" stroke="black" points="725.07,-113.13 716.1,-107.5 719.6,-117.5 725.07,-113.13"/>
</g>
<!-- __ledf2 -->
<g id="node20" class="node">
<title>__ledf2</title>
<ellipse fill="none" stroke="black" cx="177.09" cy="-90" rx="38.19" ry="18"/>
<text text-anchor="middle" x="177.09" y="-86.3" font-family="Times New Roman,serif" font-size="14.00">__ledf2</text>
</g>
<!-- _etoa&#45;&gt;__ledf2 -->
<g id="edge18" class="edge">
<title>_etoa&#45;&gt;__ledf2</title>
<path fill="none" stroke="black" d="M731.25,-226.58C701.62,-218.84 654.28,-203.83 619.09,-180 601.12,-167.83 605.5,-153.71 586.09,-144 441.51,-71.64 381.77,-143.77 224.09,-108 221.06,-107.31 217.96,-106.48 214.86,-105.57"/>
<polygon fill="black" stroke="black" points="215.68,-102.15 205.09,-102.41 213.53,-108.81 215.68,-102.15"/>
</g>
<!-- __clzsi2 -->
<g id="node34" class="node">
<title>__clzsi2</title>
<ellipse fill="none" stroke="black" cx="909.09" cy="-18" rx="40.89" ry="18"/>
<text text-anchor="middle" x="909.09" y="-14.3" font-family="Times New Roman,serif" font-size="14.00">__clzsi2</text>
</g>
<!-- __divdf3&#45;&gt;__clzsi2 -->
<g id="edge46" class="edge">
<title>__divdf3&#45;&gt;__clzsi2</title>
<path fill="none" stroke="black" d="M1221.67,-143.73C1219.03,-123.39 1211.5,-90.07 1190.09,-72 1155.93,-43.16 1030.7,-28.66 959.49,-22.61"/>
<polygon fill="black" stroke="black" points="959.65,-19.11 949.4,-21.77 959.07,-26.08 959.65,-19.11"/>
</g>
<!-- __subdf3&#45;&gt;__clzsi2 -->
<g id="edge48" class="edge">
<title>__subdf3&#45;&gt;__clzsi2</title>
<path fill="none" stroke="black" d="M1084.05,-77.6C1047.48,-65.35 989.35,-45.88 950.24,-32.78"/>
<polygon fill="black" stroke="black" points="951.32,-29.45 940.73,-29.59 949.1,-36.09 951.32,-29.45"/>
</g>
<!-- _ftoa&#45;&gt;_out_rev -->
<g id="edge23" class="edge">
<title>_ftoa&#45;&gt;_out_rev</title>
<path fill="none" stroke="black" d="M677.68,-150.76C671.13,-148.22 663.92,-145.74 657.09,-144 536.78,-113.41 492.21,-161.31 380.09,-108 359.08,-98.01 359.79,-87.11 342.09,-72 329.31,-61.08 314.59,-49.64 302.05,-40.19"/>
<polygon fill="black" stroke="black" points="303.87,-37.18 293.76,-34 299.68,-42.79 303.87,-37.18"/>
</g>
<!-- _ftoa&#45;&gt;_etoa -->
<g id="edge28" class="edge">
<title>_ftoa&#45;&gt;_etoa</title>
<path fill="none" stroke="black" d="M718.32,-177.11C726.94,-186.07 737.06,-197.91 745.18,-208.38"/>
<polygon fill="black" stroke="black" points="742.39,-210.51 751.19,-216.41 748,-206.31 742.39,-210.51"/>
</g>
<!-- _ftoa&#45;&gt;__subdf3 -->
<g id="edge19" class="edge">
<title>_ftoa&#45;&gt;__subdf3</title>
<path fill="none" stroke="black" d="M730.47,-158.25C792.47,-152.12 941.05,-135.62 1063.09,-108 1066.77,-107.17 1070.56,-106.21 1074.34,-105.19"/>
<polygon fill="black" stroke="black" points="1075.63,-108.46 1084.28,-102.35 1073.71,-101.73 1075.63,-108.46"/>
</g>
<!-- _ftoa&#45;&gt;__floatsidf -->
<g id="edge20" class="edge">
<title>_ftoa&#45;&gt;__floatsidf</title>
<path fill="none" stroke="black" d="M677.7,-150.7C671.14,-148.16 663.93,-145.69 657.09,-144 522.44,-110.74 483.36,-133.87 347.09,-108 341.73,-106.98 336.15,-105.76 330.63,-104.43"/>
<polygon fill="black" stroke="black" points="331.34,-101.01 320.79,-101.98 329.64,-107.8 331.34,-101.01"/>
</g>
<!-- _ftoa&#45;&gt;__gedf2 -->
<g id="edge22" class="edge">
<title>_ftoa&#45;&gt;__gedf2</title>
<path fill="none" stroke="black" d="M720.35,-148.16C735.92,-137.78 758.12,-122.99 776.02,-111.05"/>
<polygon fill="black" stroke="black" points="778.04,-113.91 784.42,-105.45 774.16,-108.08 778.04,-113.91"/>
</g>
<!-- _ftoa&#45;&gt;__eqdf2 -->
<g id="edge24" class="edge">
<title>_ftoa&#45;&gt;__eqdf2</title>
<path fill="none" stroke="black" d="M726.77,-152.28C761.62,-140.43 824.29,-119.14 865.8,-105.03"/>
<polygon fill="black" stroke="black" points="867,-108.32 875.35,-101.79 864.75,-101.69 867,-108.32"/>
</g>
<!-- _ftoa&#45;&gt;__fixdfsi -->
<g id="edge25" class="edge">
<title>_ftoa&#45;&gt;__fixdfsi</title>
<path fill="none" stroke="black" d="M729.48,-156.23C777.11,-147.97 875.98,-129.82 958.09,-108 961.41,-107.12 964.82,-106.15 968.24,-105.13"/>
<polygon fill="black" stroke="black" points="969.29,-108.47 977.81,-102.18 967.22,-101.78 969.29,-108.47"/>
</g>
<!-- _ftoa&#45;&gt;__muldf3 -->
<g id="edge27" class="edge">
<title>_ftoa&#45;&gt;__muldf3</title>
<path fill="none" stroke="black" d="M701.09,-143.7C701.09,-135.98 701.09,-126.71 701.09,-118.11"/>
<polygon fill="black" stroke="black" points="704.59,-118.1 701.09,-108.1 697.59,-118.1 704.59,-118.1"/>
</g>
<!-- _ftoa&#45;&gt;__ledf2 -->
<g id="edge29" class="edge">
<title>_ftoa&#45;&gt;__ledf2</title>
<path fill="none" stroke="black" d="M673.53,-154.47C657.68,-150.92 637.36,-146.72 619.09,-144 444.73,-118.07 396.17,-146.29 224.09,-108 221.06,-107.32 217.95,-106.5 214.85,-105.59"/>
<polygon fill="black" stroke="black" points="215.67,-102.18 205.08,-102.44 213.52,-108.84 215.67,-102.18"/>
</g>
<!-- __floatunsidf -->
<g id="node21" class="node">
<title>__floatunsidf</title>
<ellipse fill="none" stroke="black" cx="578.09" cy="-90" rx="59.29" ry="18"/>
<text text-anchor="middle" x="578.09" y="-86.3" font-family="Times New Roman,serif" font-size="14.00">__floatunsidf</text>
</g>
<!-- _ftoa&#45;&gt;__floatunsidf -->
<g id="edge21" class="edge">
<title>_ftoa&#45;&gt;__floatunsidf</title>
<path fill="none" stroke="black" d="M679.95,-148.97C661.8,-138.64 635.25,-123.53 613.81,-111.33"/>
<polygon fill="black" stroke="black" points="615.4,-108.2 604.97,-106.3 611.93,-114.29 615.4,-108.2"/>
</g>
<!-- __fixunsdfsi -->
<g id="node22" class="node">
<title>__fixunsdfsi</title>
<ellipse fill="none" stroke="black" cx="445.09" cy="-90" rx="55.79" ry="18"/>
<text text-anchor="middle" x="445.09" y="-86.3" font-family="Times New Roman,serif" font-size="14.00">__fixunsdfsi</text>
</g>
<!-- _ftoa&#45;&gt;__fixunsdfsi -->
<g id="edge26" class="edge">
<title>_ftoa&#45;&gt;__fixunsdfsi</title>
<path fill="none" stroke="black" d="M677.09,-151.08C670.65,-148.6 663.66,-146.06 657.09,-144 592.92,-123.84 575.3,-124.51 510.09,-108 505.78,-106.91 501.31,-105.76 496.82,-104.61"/>
<polygon fill="black" stroke="black" points="497.59,-101.19 487.03,-102.07 495.83,-107.97 497.59,-101.19"/>
</g>
<!-- __adddf3&#45;&gt;__clzsi2 -->
<g id="edge45" class="edge">
<title>__adddf3&#45;&gt;__clzsi2</title>
<path fill="none" stroke="black" d="M1135.2,-147.03C1149.24,-137.96 1165.24,-124.71 1173.09,-108 1179.9,-93.52 1183.23,-84.38 1173.09,-72 1146.64,-39.71 1028.63,-26.68 959.67,-21.75"/>
<polygon fill="black" stroke="black" points="959.67,-18.24 949.45,-21.05 959.19,-25.23 959.67,-18.24"/>
</g>
<!-- __floatsidf&#45;&gt;__clzsi2 -->
<g id="edge49" class="edge">
<title>__floatsidf&#45;&gt;__clzsi2</title>
<path fill="none" stroke="black" d="M326.45,-80.7C343.17,-77.68 362.48,-74.42 380.09,-72 555.48,-47.88 765.02,-30.15 859.08,-22.78"/>
<polygon fill="black" stroke="black" points="859.46,-26.26 869.16,-21.99 858.92,-19.28 859.46,-26.26"/>
</g>
<!-- __muldf3&#45;&gt;__clzsi2 -->
<g id="edge47" class="edge">
<title>__muldf3&#45;&gt;__clzsi2</title>
<path fill="none" stroke="black" d="M734.98,-77.6C771.22,-65.4 828.74,-46.04 867.65,-32.95"/>
<polygon fill="black" stroke="black" points="869.25,-36.1 877.61,-29.59 867.02,-29.47 869.25,-36.1"/>
</g>
<!-- __floatunsidf&#45;&gt;__clzsi2 -->
<g id="edge50" class="edge">
<title>__floatunsidf&#45;&gt;__clzsi2</title>
<path fill="none" stroke="black" d="M621.92,-77.73C629.95,-75.75 638.26,-73.77 646.09,-72 721.28,-55.04 809.15,-37.86 861.89,-27.83"/>
<polygon fill="black" stroke="black" points="862.79,-31.23 871.96,-25.92 861.48,-24.35 862.79,-31.23"/>
</g>
<!-- _vsnprintf -->
<g id="node23" class="node">
<title>_vsnprintf</title>
<ellipse fill="none" stroke="black" cx="605.09" cy="-306" rx="48.19" ry="18"/>
<text text-anchor="middle" x="605.09" y="-302.3" font-family="Times New Roman,serif" font-size="14.00">_vsnprintf</text>
</g>
<!-- _vsnprintf&#45;&gt;_ntoa_long -->
<g id="edge33" class="edge">
<title>_vsnprintf&#45;&gt;_ntoa_long</title>
<path fill="none" stroke="black" d="M595.6,-288.15C581.77,-263.6 555.95,-217.77 539.69,-188.91"/>
<polygon fill="black" stroke="black" points="542.53,-186.82 534.57,-179.82 536.43,-190.26 542.53,-186.82"/>
</g>
<!-- _vsnprintf&#45;&gt;_ntoa_long_long -->
<g id="edge32" class="edge">
<title>_vsnprintf&#45;&gt;_ntoa_long_long</title>
<path fill="none" stroke="black" d="M563.01,-297.04C498.93,-284.92 376.36,-261.73 300.58,-247.39"/>
<polygon fill="black" stroke="black" points="301.14,-243.93 290.66,-245.51 299.84,-250.81 301.14,-243.93"/>
</g>
<!-- _vsnprintf&#45;&gt;_etoa -->
<g id="edge30" class="edge">
<title>_vsnprintf&#45;&gt;_etoa</title>
<path fill="none" stroke="black" d="M634.42,-291.67C660.65,-279.75 699.05,-262.29 726.29,-249.91"/>
<polygon fill="black" stroke="black" points="727.77,-253.08 735.42,-245.76 724.87,-246.71 727.77,-253.08"/>
</g>
<!-- _vsnprintf&#45;&gt;_ftoa -->
<g id="edge31" class="edge">
<title>_vsnprintf&#45;&gt;_ftoa</title>
<path fill="none" stroke="black" d="M616.29,-288.43C633.15,-263.5 665.13,-216.2 684.64,-187.34"/>
<polygon fill="black" stroke="black" points="687.56,-189.27 690.26,-179.03 681.76,-185.35 687.56,-189.27"/>
</g>
<!-- fputc -->
<g id="node25" class="node">
<title>fputc</title>
<ellipse fill="none" stroke="black" cx="78.09" cy="-378" rx="29.8" ry="18"/>
<text text-anchor="middle" x="78.09" y="-374.3" font-family="Times New Roman,serif" font-size="14.00">fputc</text>
</g>
<!-- puts&#45;&gt;fputc -->
<g id="edge34" class="edge">
<title>puts&#45;&gt;fputc</title>
<path fill="none" stroke="black" d="M172.76,-437.13C154.72,-426.05 127.57,-409.38 106.96,-396.73"/>
<polygon fill="black" stroke="black" points="108.65,-393.66 98.3,-391.4 104.99,-399.62 108.65,-393.66"/>
</g>
<!-- &lt;ck_uart_putc&gt; * -->
<g id="node32" class="node">
<title>&lt;ck_uart_putc&gt; *</title>
<ellipse fill="none" stroke="black" cx="78.09" cy="-306" rx="76.89" ry="18"/>
<text text-anchor="middle" x="78.09" y="-302.3" font-family="Times New Roman,serif" font-size="14.00">&lt;ck_uart_putc&gt; *</text>
</g>
<!-- fputc&#45;&gt;&lt;ck_uart_putc&gt; * -->
<g id="edge40" class="edge">
<title>fputc&#45;&gt;&lt;ck_uart_putc&gt; *</title>
<path fill="none" stroke="black" d="M78.09,-359.7C78.09,-351.98 78.09,-342.71 78.09,-334.11"/>
<polygon fill="black" stroke="black" points="81.59,-334.1 78.09,-324.1 74.59,-334.1 81.59,-334.1"/>
</g>
<!-- printf -->
<g id="node26" class="node">
<title>printf</title>
<ellipse fill="none" stroke="black" cx="605.09" cy="-378" rx="30.59" ry="18"/>
<text text-anchor="middle" x="605.09" y="-374.3" font-family="Times New Roman,serif" font-size="14.00">printf</text>
</g>
<!-- printf&#45;&gt;_vsnprintf -->
<g id="edge35" class="edge">
<title>printf&#45;&gt;_vsnprintf</title>
<path fill="none" stroke="black" d="M605.09,-359.7C605.09,-351.98 605.09,-342.71 605.09,-334.11"/>
<polygon fill="black" stroke="black" points="608.59,-334.1 605.09,-324.1 601.59,-334.1 608.59,-334.1"/>
</g>
<!-- ck_uart_set_parity -->
<g id="node28" class="node">
<title>ck_uart_set_parity</title>
<ellipse fill="none" stroke="black" cx="405.09" cy="-378" rx="78.79" ry="18"/>
<text text-anchor="middle" x="405.09" y="-374.3" font-family="Times New Roman,serif" font-size="14.00">ck_uart_set_parity</text>
</g>
<!-- ck_uart_init&#45;&gt;ck_uart_set_parity -->
<g id="edge36" class="edge">
<title>ck_uart_init&#45;&gt;ck_uart_set_parity</title>
<path fill="none" stroke="black" d="M405.09,-431.7C405.09,-423.98 405.09,-414.71 405.09,-406.11"/>
<polygon fill="black" stroke="black" points="408.59,-406.1 405.09,-396.1 401.59,-406.1 408.59,-406.1"/>
</g>
<!-- ck_uart_set_wordsize -->
<g id="node29" class="node">
<title>ck_uart_set_wordsize</title>
<ellipse fill="none" stroke="black" cx="217.09" cy="-378" rx="90.98" ry="18"/>
<text text-anchor="middle" x="217.09" y="-374.3" font-family="Times New Roman,serif" font-size="14.00">ck_uart_set_wordsize</text>
</g>
<!-- ck_uart_init&#45;&gt;ck_uart_set_wordsize -->
<g id="edge37" class="edge">
<title>ck_uart_init&#45;&gt;ck_uart_set_wordsize</title>
<path fill="none" stroke="black" d="M370.17,-436C341.3,-425.25 299.93,-409.84 267.47,-397.76"/>
<polygon fill="black" stroke="black" points="268.3,-394.33 257.71,-394.12 265.86,-400.89 268.3,-394.33"/>
</g>
<!-- benchmark&#45;&gt;printf -->
<g id="edge38" class="edge">
<title>benchmark&#45;&gt;printf</title>
<path fill="none" stroke="black" d="M545.95,-432.76C556.57,-423.12 570.15,-410.77 581.62,-400.34"/>
<polygon fill="black" stroke="black" points="584.12,-402.8 589.16,-393.48 579.41,-397.62 584.12,-402.8"/>
</g>
<!-- icrc -->
<g id="node31" class="node">
<title>icrc</title>
<ellipse fill="none" stroke="black" cx="529.09" cy="-378" rx="27" ry="18"/>
<text text-anchor="middle" x="529.09" y="-374.3" font-family="Times New Roman,serif" font-size="14.00">icrc</text>
</g>
<!-- benchmark&#45;&gt;icrc -->
<g id="edge39" class="edge">
<title>benchmark&#45;&gt;icrc</title>
<path fill="none" stroke="black" d="M528.34,-431.7C528.45,-423.98 528.58,-414.71 528.71,-406.11"/>
<polygon fill="black" stroke="black" points="532.21,-406.15 528.85,-396.1 525.21,-406.05 532.21,-406.15"/>
</g>
</g>
</svg>
