<?xml version="1.0" encoding="UTF-8" standalone="no"?>
<!DOCTYPE svg PUBLIC "-//W3C//DTD SVG 1.1//EN"
 "http://www.w3.org/Graphics/SVG/1.1/DTD/svg11.dtd">
<!-- Generated by graphviz version 6.0.2 (20221011.1828)
 -->
<!-- Pages: 1 -->
<svg width="1274pt" height="584pt"
 viewBox="0.00 0.00 1273.79 584.00" xmlns="http://www.w3.org/2000/svg" xmlns:xlink="http://www.w3.org/1999/xlink">
<g id="graph0" class="graph" transform="scale(1 1) rotate(0) translate(4 580)">
<polygon fill="white" stroke="none" points="-4,4 -4,-580 1269.79,-580 1269.79,4 -4,4"/>
<!-- __to_main -->
<g id="node1" class="node">
<title>__to_main</title>
<ellipse fill="none" stroke="black" cx="808.14" cy="-558" rx="50.09" ry="18"/>
<text text-anchor="middle" x="808.14" y="-554.3" font-family="Times New Roman,serif" font-size="14.00">__to_main</text>
</g>
<!-- main -->
<g id="node2" class="node">
<title>main</title>
<ellipse fill="none" stroke="black" cx="808.14" cy="-450" rx="27.9" ry="18"/>
<text text-anchor="middle" x="808.14" y="-446.3" font-family="Times New Roman,serif" font-size="14.00">main</text>
</g>
<!-- __to_main&#45;&gt;main -->
<g id="edge1" class="edge">
<title>__to_main&#45;&gt;main</title>
<path fill="none" stroke="black" d="M808.14,-539.97C808.14,-523.38 808.14,-497.88 808.14,-478.43"/>
<polygon fill="black" stroke="black" points="811.64,-478.34 808.14,-468.34 804.64,-478.34 811.64,-478.34"/>
</g>
<!-- benchmark -->
<g id="node5" class="node">
<title>benchmark</title>
<ellipse fill="none" stroke="black" cx="570.14" cy="-342" rx="50.89" ry="18"/>
<text text-anchor="middle" x="570.14" y="-338.3" font-family="Times New Roman,serif" font-size="14.00">benchmark</text>
</g>
<!-- main&#45;&gt;benchmark -->
<g id="edge11" class="edge">
<title>main&#45;&gt;benchmark</title>
<path fill="none" stroke="black" d="M785.75,-439.03C745.42,-421.07 660.09,-383.06 609.71,-360.62"/>
<polygon fill="black" stroke="black" points="610.98,-357.36 600.42,-356.49 608.13,-363.75 610.98,-357.36"/>
</g>
<!-- puts -->
<g id="node8" class="node">
<title>puts</title>
<ellipse fill="none" stroke="black" cx="786.14" cy="-234" rx="27" ry="18"/>
<text text-anchor="middle" x="786.14" y="-230.3" font-family="Times New Roman,serif" font-size="14.00">puts</text>
</g>
<!-- main&#45;&gt;puts -->
<g id="edge10" class="edge">
<title>main&#45;&gt;puts</title>
<path fill="none" stroke="black" d="M802.97,-432.14C797.81,-414.39 790.22,-385.53 787.14,-360 783.1,-326.44 783.61,-287.45 784.62,-262.05"/>
<polygon fill="black" stroke="black" points="788.12,-262.21 785.08,-252.06 781.13,-261.89 788.12,-262.21"/>
</g>
<!-- ck_uart_open -->
<g id="node11" class="node">
<title>ck_uart_open</title>
<ellipse fill="none" stroke="black" cx="866.14" cy="-342" rx="61.19" ry="18"/>
<text text-anchor="middle" x="866.14" y="-338.3" font-family="Times New Roman,serif" font-size="14.00">ck_uart_open</text>
</g>
<!-- main&#45;&gt;ck_uart_open -->
<g id="edge8" class="edge">
<title>main&#45;&gt;ck_uart_open</title>
<path fill="none" stroke="black" d="M816.95,-432.9C826.25,-415.9 841.06,-388.85 852,-368.85"/>
<polygon fill="black" stroke="black" points="855.14,-370.41 856.87,-359.95 849,-367.05 855.14,-370.41"/>
</g>
<!-- ck_uart_init -->
<g id="node12" class="node">
<title>ck_uart_init</title>
<ellipse fill="none" stroke="black" cx="1017.14" cy="-342" rx="53.89" ry="18"/>
<text text-anchor="middle" x="1017.14" y="-338.3" font-family="Times New Roman,serif" font-size="14.00">ck_uart_init</text>
</g>
<!-- main&#45;&gt;ck_uart_init -->
<g id="edge9" class="edge">
<title>main&#45;&gt;ck_uart_init</title>
<path fill="none" stroke="black" d="M829.33,-438.25C864.6,-420.37 935.79,-384.26 979.68,-362"/>
<polygon fill="black" stroke="black" points="981.27,-365.12 988.61,-357.47 978.1,-358.88 981.27,-365.12"/>
</g>
<!-- fputc -->
<g id="node3" class="node">
<title>fputc</title>
<ellipse fill="none" stroke="black" cx="786.14" cy="-126" rx="29.8" ry="18"/>
<text text-anchor="middle" x="786.14" y="-122.3" font-family="Times New Roman,serif" font-size="14.00">fputc</text>
</g>
<!-- &lt;ck_uart_putc&gt; * -->
<g id="node4" class="node">
<title>&lt;ck_uart_putc&gt; *</title>
<ellipse fill="none" stroke="black" cx="786.14" cy="-18" rx="76.89" ry="18"/>
<text text-anchor="middle" x="786.14" y="-14.3" font-family="Times New Roman,serif" font-size="14.00">&lt;ck_uart_putc&gt; *</text>
</g>
<!-- fputc&#45;&gt;&lt;ck_uart_putc&gt; * -->
<g id="edge2" class="edge">
<title>fputc&#45;&gt;&lt;ck_uart_putc&gt; *</title>
<path fill="none" stroke="black" d="M786.14,-107.97C786.14,-91.38 786.14,-65.88 786.14,-46.43"/>
<polygon fill="black" stroke="black" points="789.64,-46.34 786.14,-36.34 782.64,-46.34 789.64,-46.34"/>
</g>
<!-- ctl_pairStackInitSize -->
<g id="node6" class="node">
<title>ctl_pairStackInitSize</title>
<ellipse fill="none" stroke="black" cx="85.14" cy="-234" rx="85.29" ry="18"/>
<text text-anchor="middle" x="85.14" y="-230.3" font-family="Times New Roman,serif" font-size="14.00">ctl_pairStackInitSize</text>
</g>
<!-- benchmark&#45;&gt;ctl_pairStackInitSize -->
<g id="edge3" class="edge">
<title>benchmark&#45;&gt;ctl_pairStackInitSize</title>
<path fill="none" stroke="black" d="M527.95,-331.78C443.53,-313.33 253.26,-271.74 151.8,-249.57"/>
<polygon fill="black" stroke="black" points="152.48,-246.14 141.97,-247.42 150.99,-252.97 152.48,-246.14"/>
</g>
<!-- ctl_intStackPop -->
<g id="node7" class="node">
<title>ctl_intStackPop</title>
<ellipse fill="none" stroke="black" cx="275.14" cy="-234" rx="68.79" ry="18"/>
<text text-anchor="middle" x="275.14" y="-230.3" font-family="Times New Roman,serif" font-size="14.00">ctl_intStackPop</text>
</g>
<!-- benchmark&#45;&gt;ctl_intStackPop -->
<g id="edge4" class="edge">
<title>benchmark&#45;&gt;ctl_intStackPop</title>
<path fill="none" stroke="black" d="M535.72,-328.63C483.32,-309.8 383.32,-273.87 323.59,-252.41"/>
<polygon fill="black" stroke="black" points="324.6,-249.05 314.01,-248.96 322.23,-255.64 324.6,-249.05"/>
</g>
<!-- benchmark&#45;&gt;puts -->
<g id="edge5" class="edge">
<title>benchmark&#45;&gt;puts</title>
<path fill="none" stroke="black" d="M598.83,-326.92C639.6,-306.91 714,-270.4 755.71,-249.93"/>
<polygon fill="black" stroke="black" points="757.4,-253.01 764.83,-245.46 754.31,-246.72 757.4,-253.01"/>
</g>
<!-- ctl_intStackInitSize -->
<g id="node9" class="node">
<title>ctl_intStackInitSize</title>
<ellipse fill="none" stroke="black" cx="460.14" cy="-234" rx="80.69" ry="18"/>
<text text-anchor="middle" x="460.14" y="-230.3" font-family="Times New Roman,serif" font-size="14.00">ctl_intStackInitSize</text>
</g>
<!-- benchmark&#45;&gt;ctl_intStackInitSize -->
<g id="edge6" class="edge">
<title>benchmark&#45;&gt;ctl_intStackInitSize</title>
<path fill="none" stroke="black" d="M553.44,-324.9C535.13,-307.26 505.59,-278.79 484.65,-258.62"/>
<polygon fill="black" stroke="black" points="487,-256.02 477.37,-251.6 482.14,-261.06 487,-256.02"/>
</g>
<!-- ctl_pairStackPop -->
<g id="node10" class="node">
<title>ctl_pairStackPop</title>
<ellipse fill="none" stroke="black" cx="650.14" cy="-234" rx="73.39" ry="18"/>
<text text-anchor="middle" x="650.14" y="-230.3" font-family="Times New Roman,serif" font-size="14.00">ctl_pairStackPop</text>
</g>
<!-- benchmark&#45;&gt;ctl_pairStackPop -->
<g id="edge7" class="edge">
<title>benchmark&#45;&gt;ctl_pairStackPop</title>
<path fill="none" stroke="black" d="M582.64,-324.44C595.72,-307.11 616.39,-279.73 631.41,-259.82"/>
<polygon fill="black" stroke="black" points="634.24,-261.89 637.47,-251.8 628.65,-257.67 634.24,-261.89"/>
</g>
<!-- puts&#45;&gt;fputc -->
<g id="edge12" class="edge">
<title>puts&#45;&gt;fputc</title>
<path fill="none" stroke="black" d="M786.14,-215.97C786.14,-199.38 786.14,-173.88 786.14,-154.43"/>
<polygon fill="black" stroke="black" points="789.64,-154.34 786.14,-144.34 782.64,-154.34 789.64,-154.34"/>
</g>
<!-- ck_uart_set_wordsize -->
<g id="node13" class="node">
<title>ck_uart_set_wordsize</title>
<ellipse fill="none" stroke="black" cx="981.14" cy="-234" rx="90.98" ry="18"/>
<text text-anchor="middle" x="981.14" y="-230.3" font-family="Times New Roman,serif" font-size="14.00">ck_uart_set_wordsize</text>
</g>
<!-- ck_uart_init&#45;&gt;ck_uart_set_wordsize -->
<g id="edge13" class="edge">
<title>ck_uart_init&#45;&gt;ck_uart_set_wordsize</title>
<path fill="none" stroke="black" d="M1011.36,-323.97C1005.64,-307.12 996.8,-281.1 990.16,-261.54"/>
<polygon fill="black" stroke="black" points="993.44,-260.33 986.91,-251.99 986.81,-262.58 993.44,-260.33"/>
</g>
<!-- ck_uart_set_parity -->
<g id="node14" class="node">
<title>ck_uart_set_parity</title>
<ellipse fill="none" stroke="black" cx="1187.14" cy="-234" rx="78.79" ry="18"/>
<text text-anchor="middle" x="1187.14" y="-230.3" font-family="Times New Roman,serif" font-size="14.00">ck_uart_set_parity</text>
</g>
<!-- ck_uart_init&#45;&gt;ck_uart_set_parity -->
<g id="edge14" class="edge">
<title>ck_uart_init&#45;&gt;ck_uart_set_parity</title>
<path fill="none" stroke="black" d="M1041.5,-325.81C1070.62,-307.66 1119.55,-277.14 1152.58,-256.55"/>
<polygon fill="black" stroke="black" points="1154.81,-259.29 1161.44,-251.03 1151.1,-253.35 1154.81,-259.29"/>
</g>
</g>
</svg>
