<?xml version="1.0" encoding="UTF-8" standalone="no"?>
<!DOCTYPE svg PUBLIC "-//W3C//DTD SVG 1.1//EN"
 "http://www.w3.org/Graphics/SVG/1.1/DTD/svg11.dtd">
<!-- Generated by graphviz version 6.0.2 (20221011.1828)
 -->
<!-- Pages: 1 -->
<svg width="1278pt" height="584pt"
 viewBox="0.00 0.00 1277.89 584.00" xmlns="http://www.w3.org/2000/svg" xmlns:xlink="http://www.w3.org/1999/xlink">
<g id="graph0" class="graph" transform="scale(1 1) rotate(0) translate(4 580)">
<polygon fill="white" stroke="none" points="-4,4 -4,-580 1273.89,-580 1273.89,4 -4,4"/>
<!-- __to_main -->
<g id="node1" class="node">
<title>__to_main</title>
<ellipse fill="none" stroke="black" cx="804.89" cy="-558" rx="50.09" ry="18"/>
<text text-anchor="middle" x="804.89" y="-554.3" font-family="Times New Roman,serif" font-size="14.00">__to_main</text>
</g>
<!-- main -->
<g id="node2" class="node">
<title>main</title>
<ellipse fill="none" stroke="black" cx="804.89" cy="-450" rx="27.9" ry="18"/>
<text text-anchor="middle" x="804.89" y="-446.3" font-family="Times New Roman,serif" font-size="14.00">main</text>
</g>
<!-- __to_main&#45;&gt;main -->
<g id="edge1" class="edge">
<title>__to_main&#45;&gt;main</title>
<path fill="none" stroke="black" d="M804.89,-539.97C804.89,-523.38 804.89,-497.88 804.89,-478.43"/>
<polygon fill="black" stroke="black" points="808.39,-478.34 804.89,-468.34 801.39,-478.34 808.39,-478.34"/>
</g>
<!-- benchmark -->
<g id="node5" class="node">
<title>benchmark</title>
<ellipse fill="none" stroke="black" cx="567.89" cy="-342" rx="50.89" ry="18"/>
<text text-anchor="middle" x="567.89" y="-338.3" font-family="Times New Roman,serif" font-size="14.00">benchmark</text>
</g>
<!-- main&#45;&gt;benchmark -->
<g id="edge8" class="edge">
<title>main&#45;&gt;benchmark</title>
<path fill="none" stroke="black" d="M782.6,-439.03C742.44,-421.07 657.46,-383.06 607.29,-360.62"/>
<polygon fill="black" stroke="black" points="608.61,-357.37 598.05,-356.49 605.75,-363.76 608.61,-357.37"/>
</g>
<!-- puts -->
<g id="node8" class="node">
<title>puts</title>
<ellipse fill="none" stroke="black" cx="787.89" cy="-234" rx="27" ry="18"/>
<text text-anchor="middle" x="787.89" y="-230.3" font-family="Times New Roman,serif" font-size="14.00">puts</text>
</g>
<!-- main&#45;&gt;puts -->
<g id="edge11" class="edge">
<title>main&#45;&gt;puts</title>
<path fill="none" stroke="black" d="M799.68,-432.15C794.49,-414.4 786.87,-385.55 783.89,-360 779.98,-326.41 782.31,-287.42 784.74,-262.04"/>
<polygon fill="black" stroke="black" points="788.22,-262.36 785.76,-252.05 781.26,-261.64 788.22,-262.36"/>
</g>
<!-- ck_uart_open -->
<g id="node11" class="node">
<title>ck_uart_open</title>
<ellipse fill="none" stroke="black" cx="862.89" cy="-342" rx="61.19" ry="18"/>
<text text-anchor="middle" x="862.89" y="-338.3" font-family="Times New Roman,serif" font-size="14.00">ck_uart_open</text>
</g>
<!-- main&#45;&gt;ck_uart_open -->
<g id="edge9" class="edge">
<title>main&#45;&gt;ck_uart_open</title>
<path fill="none" stroke="black" d="M813.7,-432.9C823,-415.9 837.81,-388.85 848.75,-368.85"/>
<polygon fill="black" stroke="black" points="851.89,-370.41 853.62,-359.95 845.75,-367.05 851.89,-370.41"/>
</g>
<!-- ck_uart_init -->
<g id="node12" class="node">
<title>ck_uart_init</title>
<ellipse fill="none" stroke="black" cx="1013.89" cy="-342" rx="53.89" ry="18"/>
<text text-anchor="middle" x="1013.89" y="-338.3" font-family="Times New Roman,serif" font-size="14.00">ck_uart_init</text>
</g>
<!-- main&#45;&gt;ck_uart_init -->
<g id="edge10" class="edge">
<title>main&#45;&gt;ck_uart_init</title>
<path fill="none" stroke="black" d="M826.08,-438.25C861.35,-420.37 932.54,-384.26 976.43,-362"/>
<polygon fill="black" stroke="black" points="978.02,-365.12 985.36,-357.47 974.86,-358.88 978.02,-365.12"/>
</g>
<!-- fputc -->
<g id="node3" class="node">
<title>fputc</title>
<ellipse fill="none" stroke="black" cx="787.89" cy="-126" rx="29.8" ry="18"/>
<text text-anchor="middle" x="787.89" y="-122.3" font-family="Times New Roman,serif" font-size="14.00">fputc</text>
</g>
<!-- &lt;ck_uart_putc&gt; * -->
<g id="node4" class="node">
<title>&lt;ck_uart_putc&gt; *</title>
<ellipse fill="none" stroke="black" cx="787.89" cy="-18" rx="76.89" ry="18"/>
<text text-anchor="middle" x="787.89" y="-14.3" font-family="Times New Roman,serif" font-size="14.00">&lt;ck_uart_putc&gt; *</text>
</g>
<!-- fputc&#45;&gt;&lt;ck_uart_putc&gt; * -->
<g id="edge2" class="edge">
<title>fputc&#45;&gt;&lt;ck_uart_putc&gt; *</title>
<path fill="none" stroke="black" d="M787.89,-107.97C787.89,-91.38 787.89,-65.88 787.89,-46.43"/>
<polygon fill="black" stroke="black" points="791.39,-46.34 787.89,-36.34 784.39,-46.34 791.39,-46.34"/>
</g>
<!-- ctl_intStackPop -->
<g id="node6" class="node">
<title>ctl_intStackPop</title>
<ellipse fill="none" stroke="black" cx="68.89" cy="-234" rx="68.79" ry="18"/>
<text text-anchor="middle" x="68.89" y="-230.3" font-family="Times New Roman,serif" font-size="14.00">ctl_intStackPop</text>
</g>
<!-- benchmark&#45;&gt;ctl_intStackPop -->
<g id="edge3" class="edge">
<title>benchmark&#45;&gt;ctl_intStackPop</title>
<path fill="none" stroke="black" d="M525.35,-331.96C436.96,-313.19 233.18,-269.9 130.45,-248.08"/>
<polygon fill="black" stroke="black" points="131.05,-244.62 120.54,-245.97 129.59,-251.47 131.05,-244.62"/>
</g>
<!-- ctl_pairStackInitSize -->
<g id="node7" class="node">
<title>ctl_pairStackInitSize</title>
<ellipse fill="none" stroke="black" cx="258.89" cy="-234" rx="85.29" ry="18"/>
<text text-anchor="middle" x="258.89" y="-230.3" font-family="Times New Roman,serif" font-size="14.00">ctl_pairStackInitSize</text>
</g>
<!-- benchmark&#45;&gt;ctl_pairStackInitSize -->
<g id="edge4" class="edge">
<title>benchmark&#45;&gt;ctl_pairStackInitSize</title>
<path fill="none" stroke="black" d="M532.75,-328.94C478.62,-310.38 374.52,-274.66 311.42,-253.02"/>
<polygon fill="black" stroke="black" points="312.25,-249.6 301.66,-249.67 309.98,-256.23 312.25,-249.6"/>
</g>
<!-- benchmark&#45;&gt;puts -->
<g id="edge5" class="edge">
<title>benchmark&#45;&gt;puts</title>
<path fill="none" stroke="black" d="M596.66,-327.14C638.34,-307.06 715.21,-270.02 757.69,-249.55"/>
<polygon fill="black" stroke="black" points="759.22,-252.7 766.71,-245.21 756.18,-246.39 759.22,-252.7"/>
</g>
<!-- ctl_pairStackPop -->
<g id="node9" class="node">
<title>ctl_pairStackPop</title>
<ellipse fill="none" stroke="black" cx="453.89" cy="-234" rx="73.39" ry="18"/>
<text text-anchor="middle" x="453.89" y="-230.3" font-family="Times New Roman,serif" font-size="14.00">ctl_pairStackPop</text>
</g>
<!-- benchmark&#45;&gt;ctl_pairStackPop -->
<g id="edge6" class="edge">
<title>benchmark&#45;&gt;ctl_pairStackPop</title>
<path fill="none" stroke="black" d="M550.58,-324.9C531.61,-307.26 500.99,-278.79 479.3,-258.62"/>
<polygon fill="black" stroke="black" points="481.45,-255.85 471.75,-251.6 476.69,-260.97 481.45,-255.85"/>
</g>
<!-- ctl_intStackInitSize -->
<g id="node10" class="node">
<title>ctl_intStackInitSize</title>
<ellipse fill="none" stroke="black" cx="643.89" cy="-234" rx="80.69" ry="18"/>
<text text-anchor="middle" x="643.89" y="-230.3" font-family="Times New Roman,serif" font-size="14.00">ctl_intStackInitSize</text>
</g>
<!-- benchmark&#45;&gt;ctl_intStackInitSize -->
<g id="edge7" class="edge">
<title>benchmark&#45;&gt;ctl_intStackInitSize</title>
<path fill="none" stroke="black" d="M579.77,-324.44C592.06,-307.29 611.42,-280.29 625.66,-260.44"/>
<polygon fill="black" stroke="black" points="628.62,-262.31 631.6,-252.15 622.93,-258.24 628.62,-262.31"/>
</g>
<!-- puts&#45;&gt;fputc -->
<g id="edge12" class="edge">
<title>puts&#45;&gt;fputc</title>
<path fill="none" stroke="black" d="M787.89,-215.97C787.89,-199.38 787.89,-173.88 787.89,-154.43"/>
<polygon fill="black" stroke="black" points="791.39,-154.34 787.89,-144.34 784.39,-154.34 791.39,-154.34"/>
</g>
<!-- ck_uart_set_parity -->
<g id="node13" class="node">
<title>ck_uart_set_parity</title>
<ellipse fill="none" stroke="black" cx="972.89" cy="-234" rx="78.79" ry="18"/>
<text text-anchor="middle" x="972.89" y="-230.3" font-family="Times New Roman,serif" font-size="14.00">ck_uart_set_parity</text>
</g>
<!-- ck_uart_init&#45;&gt;ck_uart_set_parity -->
<g id="edge13" class="edge">
<title>ck_uart_init&#45;&gt;ck_uart_set_parity</title>
<path fill="none" stroke="black" d="M1007.31,-323.97C1000.79,-307.12 990.73,-281.1 983.16,-261.54"/>
<polygon fill="black" stroke="black" points="986.34,-260.05 979.46,-251.99 979.81,-262.58 986.34,-260.05"/>
</g>
<!-- ck_uart_set_wordsize -->
<g id="node14" class="node">
<title>ck_uart_set_wordsize</title>
<ellipse fill="none" stroke="black" cx="1178.89" cy="-234" rx="90.98" ry="18"/>
<text text-anchor="middle" x="1178.89" y="-230.3" font-family="Times New Roman,serif" font-size="14.00">ck_uart_set_wordsize</text>
</g>
<!-- ck_uart_init&#45;&gt;ck_uart_set_wordsize -->
<g id="edge14" class="edge">
<title>ck_uart_init&#45;&gt;ck_uart_set_wordsize</title>
<path fill="none" stroke="black" d="M1037.53,-325.81C1065.64,-307.76 1112.75,-277.49 1144.79,-256.91"/>
<polygon fill="black" stroke="black" points="1146.88,-259.73 1153.4,-251.38 1143.09,-253.84 1146.88,-259.73"/>
</g>
</g>
</svg>
