<?xml version="1.0" encoding="UTF-8" standalone="no"?>
<!DOCTYPE svg PUBLIC "-//W3C//DTD SVG 1.1//EN"
 "http://www.w3.org/Graphics/SVG/1.1/DTD/svg11.dtd">
<!-- Generated by graphviz version 6.0.2 (20221011.1828)
 -->
<!-- Pages: 1 -->
<svg width="1623pt" height="908pt"
 viewBox="0.00 0.00 1622.79 908.00" xmlns="http://www.w3.org/2000/svg" xmlns:xlink="http://www.w3.org/1999/xlink">
<g id="graph0" class="graph" transform="scale(1 1) rotate(0) translate(4 904)">
<polygon fill="white" stroke="none" points="-4,4 -4,-904 1618.79,-904 1618.79,4 -4,4"/>
<!-- __to_main -->
<g id="node1" class="node">
<title>__to_main</title>
<ellipse fill="none" stroke="black" cx="593.69" cy="-882" rx="50.09" ry="18"/>
<text text-anchor="middle" x="593.69" y="-878.3" font-family="Times New Roman,serif" font-size="14.00">__to_main</text>
</g>
<!-- main -->
<g id="node2" class="node">
<title>main</title>
<ellipse fill="none" stroke="black" cx="593.69" cy="-774" rx="27.9" ry="18"/>
<text text-anchor="middle" x="593.69" y="-770.3" font-family="Times New Roman,serif" font-size="14.00">main</text>
</g>
<!-- __to_main&#45;&gt;main -->
<g id="edge1" class="edge">
<title>__to_main&#45;&gt;main</title>
<path fill="none" stroke="black" d="M593.69,-863.97C593.69,-847.38 593.69,-821.88 593.69,-802.43"/>
<polygon fill="black" stroke="black" points="597.19,-802.34 593.69,-792.34 590.19,-802.34 597.19,-802.34"/>
</g>
<!-- puts -->
<g id="node5" class="node">
<title>puts</title>
<ellipse fill="none" stroke="black" cx="324.69" cy="-450" rx="27" ry="18"/>
<text text-anchor="middle" x="324.69" y="-446.3" font-family="Times New Roman,serif" font-size="14.00">puts</text>
</g>
<!-- main&#45;&gt;puts -->
<g id="edge10" class="edge">
<title>main&#45;&gt;puts</title>
<path fill="none" stroke="black" d="M566.06,-771.04C516.64,-765.96 413.43,-747.85 361.69,-684 313.01,-623.92 316.01,-525.73 320.94,-478.32"/>
<polygon fill="black" stroke="black" points="324.44,-478.54 322.1,-468.21 317.48,-477.74 324.44,-478.54"/>
</g>
<!-- benchmark -->
<g id="node6" class="node">
<title>benchmark</title>
<ellipse fill="none" stroke="black" cx="430.69" cy="-666" rx="50.89" ry="18"/>
<text text-anchor="middle" x="430.69" y="-662.3" font-family="Times New Roman,serif" font-size="14.00">benchmark</text>
</g>
<!-- main&#45;&gt;benchmark -->
<g id="edge12" class="edge">
<title>main&#45;&gt;benchmark</title>
<path fill="none" stroke="black" d="M574.68,-760.63C547.15,-742.74 495.88,-709.39 462.53,-687.7"/>
<polygon fill="black" stroke="black" points="464.34,-684.71 454.05,-682.19 460.52,-690.57 464.34,-684.71"/>
</g>
<!-- verify_benchmark -->
<g id="node8" class="node">
<title>verify_benchmark</title>
<ellipse fill="none" stroke="black" cx="593.69" cy="-666" rx="76.09" ry="18"/>
<text text-anchor="middle" x="593.69" y="-662.3" font-family="Times New Roman,serif" font-size="14.00">verify_benchmark</text>
</g>
<!-- main&#45;&gt;verify_benchmark -->
<g id="edge9" class="edge">
<title>main&#45;&gt;verify_benchmark</title>
<path fill="none" stroke="black" d="M593.69,-755.97C593.69,-739.38 593.69,-713.88 593.69,-694.43"/>
<polygon fill="black" stroke="black" points="597.19,-694.34 593.69,-684.34 590.19,-694.34 597.19,-694.34"/>
</g>
<!-- ck_uart_open -->
<g id="node11" class="node">
<title>ck_uart_open</title>
<ellipse fill="none" stroke="black" cx="766.69" cy="-666" rx="61.19" ry="18"/>
<text text-anchor="middle" x="766.69" y="-662.3" font-family="Times New Roman,serif" font-size="14.00">ck_uart_open</text>
</g>
<!-- main&#45;&gt;ck_uart_open -->
<g id="edge8" class="edge">
<title>main&#45;&gt;ck_uart_open</title>
<path fill="none" stroke="black" d="M613.2,-761.05C642.2,-743.28 697.09,-709.65 732.76,-687.79"/>
<polygon fill="black" stroke="black" points="734.69,-690.71 741.39,-682.5 731.03,-684.74 734.69,-690.71"/>
</g>
<!-- ck_uart_init -->
<g id="node12" class="node">
<title>ck_uart_init</title>
<ellipse fill="none" stroke="black" cx="917.69" cy="-666" rx="53.89" ry="18"/>
<text text-anchor="middle" x="917.69" y="-662.3" font-family="Times New Roman,serif" font-size="14.00">ck_uart_init</text>
</g>
<!-- main&#45;&gt;ck_uart_init -->
<g id="edge11" class="edge">
<title>main&#45;&gt;ck_uart_init</title>
<path fill="none" stroke="black" d="M618.05,-765.03C671.7,-747.48 800.87,-705.22 870.81,-682.34"/>
<polygon fill="black" stroke="black" points="872.27,-685.54 880.69,-679.11 870.09,-678.89 872.27,-685.54"/>
</g>
<!-- dijkstra -->
<g id="node3" class="node">
<title>dijkstra</title>
<ellipse fill="none" stroke="black" cx="429.69" cy="-558" rx="37.09" ry="18"/>
<text text-anchor="middle" x="429.69" y="-554.3" font-family="Times New Roman,serif" font-size="14.00">dijkstra</text>
</g>
<!-- enqueue -->
<g id="node4" class="node">
<title>enqueue</title>
<ellipse fill="none" stroke="black" cx="429.69" cy="-450" rx="40.09" ry="18"/>
<text text-anchor="middle" x="429.69" y="-446.3" font-family="Times New Roman,serif" font-size="14.00">enqueue</text>
</g>
<!-- dijkstra&#45;&gt;enqueue -->
<g id="edge2" class="edge">
<title>dijkstra&#45;&gt;enqueue</title>
<path fill="none" stroke="black" d="M429.69,-539.97C429.69,-523.38 429.69,-497.88 429.69,-478.43"/>
<polygon fill="black" stroke="black" points="433.19,-478.34 429.69,-468.34 426.19,-478.34 433.19,-478.34"/>
</g>
<!-- dijkstra&#45;&gt;puts -->
<g id="edge3" class="edge">
<title>dijkstra&#45;&gt;puts</title>
<path fill="none" stroke="black" d="M414.2,-541.36C396.19,-523.18 366.37,-493.07 346.14,-472.65"/>
<polygon fill="black" stroke="black" points="348.43,-469.99 338.9,-465.34 343.45,-474.91 348.43,-469.99"/>
</g>
<!-- fputc -->
<g id="node9" class="node">
<title>fputc</title>
<ellipse fill="none" stroke="black" cx="200.69" cy="-342" rx="29.8" ry="18"/>
<text text-anchor="middle" x="200.69" y="-338.3" font-family="Times New Roman,serif" font-size="14.00">fputc</text>
</g>
<!-- puts&#45;&gt;fputc -->
<g id="edge45" class="edge">
<title>puts&#45;&gt;fputc</title>
<path fill="none" stroke="black" d="M308.74,-435.36C287.58,-417.27 250.04,-385.18 225.25,-364"/>
<polygon fill="black" stroke="black" points="227.26,-361.1 217.38,-357.26 222.71,-366.42 227.26,-361.1"/>
</g>
<!-- benchmark&#45;&gt;dijkstra -->
<g id="edge5" class="edge">
<title>benchmark&#45;&gt;dijkstra</title>
<path fill="none" stroke="black" d="M430.53,-647.97C430.38,-631.38 430.14,-605.88 429.95,-586.43"/>
<polygon fill="black" stroke="black" points="433.45,-586.31 429.86,-576.34 426.45,-586.37 433.45,-586.31"/>
</g>
<!-- printf -->
<g id="node7" class="node">
<title>printf</title>
<ellipse fill="none" stroke="black" cx="593.69" cy="-558" rx="30.59" ry="18"/>
<text text-anchor="middle" x="593.69" y="-554.3" font-family="Times New Roman,serif" font-size="14.00">printf</text>
</g>
<!-- benchmark&#45;&gt;printf -->
<g id="edge4" class="edge">
<title>benchmark&#45;&gt;printf</title>
<path fill="none" stroke="black" d="M454.05,-649.81C483.37,-630.74 533.65,-598.05 565.2,-577.53"/>
<polygon fill="black" stroke="black" points="567.49,-580.22 573.96,-571.83 563.67,-574.35 567.49,-580.22"/>
</g>
<!-- _vsnprintf -->
<g id="node33" class="node">
<title>_vsnprintf</title>
<ellipse fill="none" stroke="black" cx="841.69" cy="-450" rx="48.19" ry="18"/>
<text text-anchor="middle" x="841.69" y="-446.3" font-family="Times New Roman,serif" font-size="14.00">_vsnprintf</text>
</g>
<!-- printf&#45;&gt;_vsnprintf -->
<g id="edge46" class="edge">
<title>printf&#45;&gt;_vsnprintf</title>
<path fill="none" stroke="black" d="M617.92,-546.64C660.72,-528.35 750.07,-490.16 801.98,-467.97"/>
<polygon fill="black" stroke="black" points="803.4,-471.17 811.22,-464.02 800.65,-464.74 803.4,-471.17"/>
</g>
<!-- verify_benchmark&#45;&gt;printf -->
<g id="edge6" class="edge">
<title>verify_benchmark&#45;&gt;printf</title>
<path fill="none" stroke="black" d="M593.69,-647.97C593.69,-631.38 593.69,-605.88 593.69,-586.43"/>
<polygon fill="black" stroke="black" points="597.19,-586.34 593.69,-576.34 590.19,-586.34 597.19,-586.34"/>
</g>
<!-- &lt;ck_uart_putc&gt; * -->
<g id="node10" class="node">
<title>&lt;ck_uart_putc&gt; *</title>
<ellipse fill="none" stroke="black" cx="76.69" cy="-234" rx="76.89" ry="18"/>
<text text-anchor="middle" x="76.69" y="-230.3" font-family="Times New Roman,serif" font-size="14.00">&lt;ck_uart_putc&gt; *</text>
</g>
<!-- fputc&#45;&gt;&lt;ck_uart_putc&gt; * -->
<g id="edge7" class="edge">
<title>fputc&#45;&gt;&lt;ck_uart_putc&gt; *</title>
<path fill="none" stroke="black" d="M184.23,-326.92C163.75,-309.42 128.5,-279.28 103.96,-258.31"/>
<polygon fill="black" stroke="black" points="105.96,-255.42 96.09,-251.58 101.41,-260.74 105.96,-255.42"/>
</g>
<!-- ck_uart_set_wordsize -->
<g id="node34" class="node">
<title>ck_uart_set_wordsize</title>
<ellipse fill="none" stroke="black" cx="834.69" cy="-558" rx="90.98" ry="18"/>
<text text-anchor="middle" x="834.69" y="-554.3" font-family="Times New Roman,serif" font-size="14.00">ck_uart_set_wordsize</text>
</g>
<!-- ck_uart_init&#45;&gt;ck_uart_set_wordsize -->
<g id="edge47" class="edge">
<title>ck_uart_init&#45;&gt;ck_uart_set_wordsize</title>
<path fill="none" stroke="black" d="M904.72,-648.44C891.24,-631.22 869.97,-604.05 854.4,-584.17"/>
<polygon fill="black" stroke="black" points="857.04,-581.86 848.12,-576.15 851.53,-586.18 857.04,-581.86"/>
</g>
<!-- ck_uart_set_parity -->
<g id="node35" class="node">
<title>ck_uart_set_parity</title>
<ellipse fill="none" stroke="black" cx="1040.69" cy="-558" rx="78.79" ry="18"/>
<text text-anchor="middle" x="1040.69" y="-554.3" font-family="Times New Roman,serif" font-size="14.00">ck_uart_set_parity</text>
</g>
<!-- ck_uart_init&#45;&gt;ck_uart_set_parity -->
<g id="edge48" class="edge">
<title>ck_uart_init&#45;&gt;ck_uart_set_parity</title>
<path fill="none" stroke="black" d="M936.37,-648.9C956.93,-631.18 990.17,-602.54 1013.59,-582.36"/>
<polygon fill="black" stroke="black" points="1016.14,-584.78 1021.43,-575.6 1011.57,-579.48 1016.14,-584.78"/>
</g>
<!-- _ntoa_format -->
<g id="node13" class="node">
<title>_ntoa_format</title>
<ellipse fill="none" stroke="black" cx="1553.69" cy="-126" rx="59.59" ry="18"/>
<text text-anchor="middle" x="1553.69" y="-122.3" font-family="Times New Roman,serif" font-size="14.00">_ntoa_format</text>
</g>
<!-- &lt;_out_rev&gt; * -->
<g id="node14" class="node">
<title>&lt;_out_rev&gt; *</title>
<ellipse fill="none" stroke="black" cx="1553.69" cy="-18" rx="61.19" ry="18"/>
<text text-anchor="middle" x="1553.69" y="-14.3" font-family="Times New Roman,serif" font-size="14.00">&lt;_out_rev&gt; *</text>
</g>
<!-- _ntoa_format&#45;&gt;&lt;_out_rev&gt; * -->
<g id="edge13" class="edge">
<title>_ntoa_format&#45;&gt;&lt;_out_rev&gt; *</title>
<path fill="none" stroke="black" d="M1553.69,-107.97C1553.69,-91.38 1553.69,-65.88 1553.69,-46.43"/>
<polygon fill="black" stroke="black" points="1557.19,-46.34 1553.69,-36.34 1550.19,-46.34 1557.19,-46.34"/>
</g>
<!-- _out_rev -->
<g id="node15" class="node">
<title>_out_rev</title>
<ellipse fill="none" stroke="black" cx="1230.69" cy="-18" rx="43.59" ry="18"/>
<text text-anchor="middle" x="1230.69" y="-14.3" font-family="Times New Roman,serif" font-size="14.00">_out_rev</text>
</g>
<!-- _ntoa_format&#45;&gt;_out_rev -->
<g id="edge14" class="edge">
<title>_ntoa_format&#45;&gt;_out_rev</title>
<path fill="none" stroke="black" d="M1514.73,-112.21C1453.89,-92.25 1336.76,-53.81 1273.59,-33.08"/>
<polygon fill="black" stroke="black" points="1274.53,-29.7 1263.93,-29.91 1272.34,-36.35 1274.53,-29.7"/>
</g>
<!-- _ntoa_long -->
<g id="node16" class="node">
<title>_ntoa_long</title>
<ellipse fill="none" stroke="black" cx="1107.69" cy="-234" rx="51.99" ry="18"/>
<text text-anchor="middle" x="1107.69" y="-230.3" font-family="Times New Roman,serif" font-size="14.00">_ntoa_long</text>
</g>
<!-- _ntoa_long&#45;&gt;_ntoa_format -->
<g id="edge15" class="edge">
<title>_ntoa_long&#45;&gt;_ntoa_format</title>
<path fill="none" stroke="black" d="M1149.25,-223.12C1229.92,-203.95 1407.71,-161.69 1498.3,-140.17"/>
<polygon fill="black" stroke="black" points="1499.19,-143.55 1508.11,-137.83 1497.57,-136.74 1499.19,-143.55"/>
</g>
<!-- _ntoa_long_long -->
<g id="node17" class="node">
<title>_ntoa_long_long</title>
<ellipse fill="none" stroke="black" cx="1274.69" cy="-342" rx="72.29" ry="18"/>
<text text-anchor="middle" x="1274.69" y="-338.3" font-family="Times New Roman,serif" font-size="14.00">_ntoa_long_long</text>
</g>
<!-- _ntoa_long_long&#45;&gt;_ntoa_format -->
<g id="edge17" class="edge">
<title>_ntoa_long_long&#45;&gt;_ntoa_format</title>
<path fill="none" stroke="black" d="M1266.14,-323.7C1254.6,-297.63 1238.06,-247.91 1261.69,-216 1276.04,-196.63 1417.53,-159.83 1498.16,-140.16"/>
<polygon fill="black" stroke="black" points="1499.26,-143.5 1508.15,-137.74 1497.61,-136.69 1499.26,-143.5"/>
</g>
<!-- __udivdi3 -->
<g id="node18" class="node">
<title>__udivdi3</title>
<ellipse fill="none" stroke="black" cx="1326.69" cy="-234" rx="47.39" ry="18"/>
<text text-anchor="middle" x="1326.69" y="-230.3" font-family="Times New Roman,serif" font-size="14.00">__udivdi3</text>
</g>
<!-- _ntoa_long_long&#45;&gt;__udivdi3 -->
<g id="edge16" class="edge">
<title>_ntoa_long_long&#45;&gt;__udivdi3</title>
<path fill="none" stroke="black" d="M1283.05,-323.97C1291.39,-306.97 1304.31,-280.62 1313.93,-261.01"/>
<polygon fill="black" stroke="black" points="1317.1,-262.51 1318.36,-251.99 1310.81,-259.42 1317.1,-262.51"/>
</g>
<!-- __umoddi3 -->
<g id="node19" class="node">
<title>__umoddi3</title>
<ellipse fill="none" stroke="black" cx="1462.69" cy="-234" rx="52.79" ry="18"/>
<text text-anchor="middle" x="1462.69" y="-230.3" font-family="Times New Roman,serif" font-size="14.00">__umoddi3</text>
</g>
<!-- _ntoa_long_long&#45;&gt;__umoddi3 -->
<g id="edge18" class="edge">
<title>_ntoa_long_long&#45;&gt;__umoddi3</title>
<path fill="none" stroke="black" d="M1302.43,-325.36C1335.77,-306.57 1391.71,-275.02 1427.91,-254.61"/>
<polygon fill="black" stroke="black" points="1429.67,-257.64 1436.66,-249.68 1426.23,-251.54 1429.67,-257.64"/>
</g>
<!-- _etoa -->
<g id="node20" class="node">
<title>_etoa</title>
<ellipse fill="none" stroke="black" cx="755.69" cy="-342" rx="30.59" ry="18"/>
<text text-anchor="middle" x="755.69" y="-338.3" font-family="Times New Roman,serif" font-size="14.00">_etoa</text>
</g>
<!-- _etoa&#45;&gt;_ntoa_long -->
<g id="edge22" class="edge">
<title>_etoa&#45;&gt;_ntoa_long</title>
<path fill="none" stroke="black" d="M782.44,-332.95C841.78,-315.07 985.14,-271.9 1060.15,-249.32"/>
<polygon fill="black" stroke="black" points="1061.26,-252.64 1069.82,-246.4 1059.24,-245.94 1061.26,-252.64"/>
</g>
<!-- __subdf3 -->
<g id="node21" class="node">
<title>__subdf3</title>
<ellipse fill="none" stroke="black" cx="300.69" cy="-126" rx="46.29" ry="18"/>
<text text-anchor="middle" x="300.69" y="-122.3" font-family="Times New Roman,serif" font-size="14.00">__subdf3</text>
</g>
<!-- _etoa&#45;&gt;__subdf3 -->
<g id="edge19" class="edge">
<title>_etoa&#45;&gt;__subdf3</title>
<path fill="none" stroke="black" d="M732.04,-330.3C695.45,-313.71 622.93,-280.71 561.69,-252 481.56,-214.43 388.13,-169.38 337.65,-144.93"/>
<polygon fill="black" stroke="black" points="338.96,-141.68 328.43,-140.47 335.91,-147.98 338.96,-141.68"/>
</g>
<!-- __ledf2 -->
<g id="node22" class="node">
<title>__ledf2</title>
<ellipse fill="none" stroke="black" cx="802.69" cy="-126" rx="38.19" ry="18"/>
<text text-anchor="middle" x="802.69" y="-122.3" font-family="Times New Roman,serif" font-size="14.00">__ledf2</text>
</g>
<!-- _etoa&#45;&gt;__ledf2 -->
<g id="edge20" class="edge">
<title>_etoa&#45;&gt;__ledf2</title>
<path fill="none" stroke="black" d="M759.46,-323.85C767.63,-286.66 787.02,-198.37 796.81,-153.77"/>
<polygon fill="black" stroke="black" points="800.25,-154.45 798.97,-143.94 793.41,-152.95 800.25,-154.45"/>
</g>
<!-- __eqdf2 -->
<g id="node23" class="node">
<title>__eqdf2</title>
<ellipse fill="none" stroke="black" cx="1293.69" cy="-126" rx="41.69" ry="18"/>
<text text-anchor="middle" x="1293.69" y="-122.3" font-family="Times New Roman,serif" font-size="14.00">__eqdf2</text>
</g>
<!-- _etoa&#45;&gt;__eqdf2 -->
<g id="edge21" class="edge">
<title>_etoa&#45;&gt;__eqdf2</title>
<path fill="none" stroke="black" d="M774.87,-327.69C811.68,-302.67 895.46,-248.24 972.69,-216 1084.14,-169.49 1118.45,-176.72 1234.69,-144 1239.7,-142.59 1244.93,-141.1 1250.13,-139.62"/>
<polygon fill="black" stroke="black" points="1251.37,-142.9 1260.02,-136.78 1249.44,-136.17 1251.37,-142.9"/>
</g>
<!-- _ftoa -->
<g id="node24" class="node">
<title>_ftoa</title>
<ellipse fill="none" stroke="black" cx="841.69" cy="-234" rx="29.8" ry="18"/>
<text text-anchor="middle" x="841.69" y="-230.3" font-family="Times New Roman,serif" font-size="14.00">_ftoa</text>
</g>
<!-- _etoa&#45;&gt;_ftoa -->
<g id="edge23" class="edge">
<title>_etoa&#45;&gt;_ftoa</title>
<path fill="none" stroke="black" d="M759.28,-323.97C770.38,-305.18 794.67,-274.98 814.57,-255.06"/>
<polygon fill="black" stroke="black" points="817.15,-257.43 821.94,-247.98 812.3,-252.39 817.15,-257.43"/>
</g>
<!-- __divdf3 -->
<g id="node25" class="node">
<title>__divdf3</title>
<ellipse fill="none" stroke="black" cx="233.69" cy="-234" rx="44.39" ry="18"/>
<text text-anchor="middle" x="233.69" y="-230.3" font-family="Times New Roman,serif" font-size="14.00">__divdf3</text>
</g>
<!-- _etoa&#45;&gt;__divdf3 -->
<g id="edge24" class="edge">
<title>_etoa&#45;&gt;__divdf3</title>
<path fill="none" stroke="black" d="M726.73,-336.19C653.93,-323.93 457.48,-289.77 295.69,-252 290.05,-250.68 284.15,-249.2 278.33,-247.68"/>
<polygon fill="black" stroke="black" points="279.22,-244.29 268.66,-245.09 277.41,-251.06 279.22,-244.29"/>
</g>
<!-- __floatsidf -->
<g id="node26" class="node">
<title>__floatsidf</title>
<ellipse fill="none" stroke="black" cx="550.69" cy="-126" rx="50.09" ry="18"/>
<text text-anchor="middle" x="550.69" y="-122.3" font-family="Times New Roman,serif" font-size="14.00">__floatsidf</text>
</g>
<!-- _etoa&#45;&gt;__floatsidf -->
<g id="edge25" class="edge">
<title>_etoa&#45;&gt;__floatsidf</title>
<path fill="none" stroke="black" d="M741.28,-325.95C706.11,-289.24 615.72,-194.88 573.3,-150.6"/>
<polygon fill="black" stroke="black" points="575.65,-147.99 566.2,-143.19 570.59,-152.83 575.65,-147.99"/>
</g>
<!-- __muldf3 -->
<g id="node27" class="node">
<title>__muldf3</title>
<ellipse fill="none" stroke="black" cx="682.69" cy="-126" rx="46.29" ry="18"/>
<text text-anchor="middle" x="682.69" y="-122.3" font-family="Times New Roman,serif" font-size="14.00">__muldf3</text>
</g>
<!-- _etoa&#45;&gt;__muldf3 -->
<g id="edge26" class="edge">
<title>_etoa&#45;&gt;__muldf3</title>
<path fill="none" stroke="black" d="M749.97,-324.21C737.34,-287.19 707.01,-198.3 691.77,-153.6"/>
<polygon fill="black" stroke="black" points="695.04,-152.34 688.5,-144.01 688.41,-154.6 695.04,-152.34"/>
</g>
<!-- __adddf3 -->
<g id="node28" class="node">
<title>__adddf3</title>
<ellipse fill="none" stroke="black" cx="359.69" cy="-234" rx="46.29" ry="18"/>
<text text-anchor="middle" x="359.69" y="-230.3" font-family="Times New Roman,serif" font-size="14.00">__adddf3</text>
</g>
<!-- _etoa&#45;&gt;__adddf3 -->
<g id="edge27" class="edge">
<title>_etoa&#45;&gt;__adddf3</title>
<path fill="none" stroke="black" d="M728.47,-333.71C661.81,-315.87 489.75,-269.81 406.37,-247.49"/>
<polygon fill="black" stroke="black" points="407.22,-244.1 396.65,-244.89 405.41,-250.86 407.22,-244.1"/>
</g>
<!-- __fixdfsi -->
<g id="node29" class="node">
<title>__fixdfsi</title>
<ellipse fill="none" stroke="black" cx="1414.69" cy="-126" rx="43.59" ry="18"/>
<text text-anchor="middle" x="1414.69" y="-122.3" font-family="Times New Roman,serif" font-size="14.00">__fixdfsi</text>
</g>
<!-- _etoa&#45;&gt;__fixdfsi -->
<g id="edge28" class="edge">
<title>_etoa&#45;&gt;__fixdfsi</title>
<path fill="none" stroke="black" d="M780.06,-330.91C818.9,-314.74 897.17,-281.8 962.69,-252 996.35,-236.69 1002.78,-228.18 1037.69,-216 1173.69,-168.54 1214.05,-179.34 1353.69,-144 1359.02,-142.65 1364.6,-141.18 1370.12,-139.69"/>
<polygon fill="black" stroke="black" points="1371.21,-143.02 1379.93,-137 1369.36,-136.27 1371.21,-143.02"/>
</g>
<!-- __gedf2 -->
<g id="node30" class="node">
<title>__gedf2</title>
<ellipse fill="none" stroke="black" cx="423.69" cy="-126" rx="40.89" ry="18"/>
<text text-anchor="middle" x="423.69" y="-122.3" font-family="Times New Roman,serif" font-size="14.00">__gedf2</text>
</g>
<!-- _etoa&#45;&gt;__gedf2 -->
<g id="edge29" class="edge">
<title>_etoa&#45;&gt;__gedf2</title>
<path fill="none" stroke="black" d="M735.92,-328.25C680.21,-292.34 521.65,-190.14 454.42,-146.81"/>
<polygon fill="black" stroke="black" points="456.24,-143.82 445.94,-141.34 452.45,-149.7 456.24,-143.82"/>
</g>
<!-- __clzsi2 -->
<g id="node36" class="node">
<title>__clzsi2</title>
<ellipse fill="none" stroke="black" cx="425.69" cy="-18" rx="40.89" ry="18"/>
<text text-anchor="middle" x="425.69" y="-14.3" font-family="Times New Roman,serif" font-size="14.00">__clzsi2</text>
</g>
<!-- __subdf3&#45;&gt;__clzsi2 -->
<g id="edge52" class="edge">
<title>__subdf3&#45;&gt;__clzsi2</title>
<path fill="none" stroke="black" d="M319.14,-109.36C340.49,-91.25 375.81,-61.3 399.88,-40.89"/>
<polygon fill="black" stroke="black" points="402.22,-43.5 407.58,-34.36 397.69,-38.16 402.22,-43.5"/>
</g>
<!-- _ftoa&#45;&gt;_out_rev -->
<g id="edge40" class="edge">
<title>_ftoa&#45;&gt;_out_rev</title>
<path fill="none" stroke="black" d="M863.98,-221.77C896.77,-205.16 959.83,-172.9 1012.69,-144 1079.03,-107.74 1155.44,-63.29 1197.9,-38.36"/>
<polygon fill="black" stroke="black" points="1199.83,-41.28 1206.68,-33.2 1196.29,-35.25 1199.83,-41.28"/>
</g>
<!-- _ftoa&#45;&gt;_etoa -->
<g id="edge36" class="edge">
<title>_ftoa&#45;&gt;_etoa</title>
<path fill="none" stroke="black" d="M838.15,-251.96C827.08,-270.73 802.76,-300.96 782.85,-320.91"/>
<polygon fill="black" stroke="black" points="780.25,-318.55 775.47,-328 785.1,-323.59 780.25,-318.55"/>
</g>
<!-- _ftoa&#45;&gt;__subdf3 -->
<g id="edge30" class="edge">
<title>_ftoa&#45;&gt;__subdf3</title>
<path fill="none" stroke="black" d="M813.04,-228.43C738.69,-216.39 533.56,-182.12 364.69,-144 358.95,-142.7 352.93,-141.24 347,-139.74"/>
<polygon fill="black" stroke="black" points="347.69,-136.3 337.13,-137.19 345.93,-143.08 347.69,-136.3"/>
</g>
<!-- _ftoa&#45;&gt;__ledf2 -->
<g id="edge31" class="edge">
<title>_ftoa&#45;&gt;__ledf2</title>
<path fill="none" stroke="black" d="M835.43,-215.97C829.23,-199.12 819.66,-173.1 812.46,-153.54"/>
<polygon fill="black" stroke="black" points="815.68,-152.16 808.94,-143.99 809.11,-154.58 815.68,-152.16"/>
</g>
<!-- _ftoa&#45;&gt;__eqdf2 -->
<g id="edge32" class="edge">
<title>_ftoa&#45;&gt;__eqdf2</title>
<path fill="none" stroke="black" d="M867.68,-224.78C877.37,-221.84 888.49,-218.61 898.69,-216 1046.65,-178.15 1086.56,-181.16 1234.69,-144 1239.8,-142.72 1245.13,-141.3 1250.4,-139.85"/>
<polygon fill="black" stroke="black" points="1251.74,-143.1 1260.42,-137.03 1249.84,-136.37 1251.74,-143.1"/>
</g>
<!-- _ftoa&#45;&gt;__floatsidf -->
<g id="edge34" class="edge">
<title>_ftoa&#45;&gt;__floatsidf</title>
<path fill="none" stroke="black" d="M816.63,-223.87C767.03,-205.8 655.84,-165.3 594.1,-142.81"/>
<polygon fill="black" stroke="black" points="595.22,-139.5 584.63,-139.36 592.83,-146.07 595.22,-139.5"/>
</g>
<!-- _ftoa&#45;&gt;__muldf3 -->
<g id="edge35" class="edge">
<title>_ftoa&#45;&gt;__muldf3</title>
<path fill="none" stroke="black" d="M822.2,-220C795.06,-201.91 745.63,-168.96 713.48,-147.53"/>
<polygon fill="black" stroke="black" points="715.17,-144.44 704.91,-141.81 711.29,-150.27 715.17,-144.44"/>
</g>
<!-- _ftoa&#45;&gt;__fixdfsi -->
<g id="edge38" class="edge">
<title>_ftoa&#45;&gt;__fixdfsi</title>
<path fill="none" stroke="black" d="M870.48,-229.02C948.66,-218.01 1171.3,-185.16 1353.69,-144 1359.12,-142.77 1364.79,-141.37 1370.39,-139.9"/>
<polygon fill="black" stroke="black" points="1371.58,-143.21 1380.33,-137.22 1369.76,-136.45 1371.58,-143.21"/>
</g>
<!-- _ftoa&#45;&gt;__gedf2 -->
<g id="edge39" class="edge">
<title>_ftoa&#45;&gt;__gedf2</title>
<path fill="none" stroke="black" d="M814.13,-226.54C753.84,-212.33 605.81,-176.99 482.69,-144 477.42,-142.59 471.89,-141.06 466.42,-139.52"/>
<polygon fill="black" stroke="black" points="467.29,-136.12 456.71,-136.75 465.37,-142.86 467.29,-136.12"/>
</g>
<!-- __floatunsidf -->
<g id="node31" class="node">
<title>__floatunsidf</title>
<ellipse fill="none" stroke="black" cx="935.69" cy="-126" rx="59.29" ry="18"/>
<text text-anchor="middle" x="935.69" y="-122.3" font-family="Times New Roman,serif" font-size="14.00">__floatunsidf</text>
</g>
<!-- _ftoa&#45;&gt;__floatunsidf -->
<g id="edge33" class="edge">
<title>_ftoa&#45;&gt;__floatunsidf</title>
<path fill="none" stroke="black" d="M855.16,-217.81C870.58,-200.43 896.04,-171.72 914.2,-151.23"/>
<polygon fill="black" stroke="black" points="917,-153.36 921.01,-143.56 911.76,-148.71 917,-153.36"/>
</g>
<!-- __fixunsdfsi -->
<g id="node32" class="node">
<title>__fixunsdfsi</title>
<ellipse fill="none" stroke="black" cx="1160.69" cy="-126" rx="55.79" ry="18"/>
<text text-anchor="middle" x="1160.69" y="-122.3" font-family="Times New Roman,serif" font-size="14.00">__fixunsdfsi</text>
</g>
<!-- _ftoa&#45;&gt;__fixunsdfsi -->
<g id="edge37" class="edge">
<title>_ftoa&#45;&gt;__fixunsdfsi</title>
<path fill="none" stroke="black" d="M867.26,-224.5C920.74,-206.73 1045.11,-165.41 1113.51,-142.68"/>
<polygon fill="black" stroke="black" points="1114.8,-145.94 1123.18,-139.46 1112.59,-139.3 1114.8,-145.94"/>
</g>
<!-- __divdf3&#45;&gt;__clzsi2 -->
<g id="edge50" class="edge">
<title>__divdf3&#45;&gt;__clzsi2</title>
<path fill="none" stroke="black" d="M225.82,-216.03C215.19,-190.37 199.96,-141.2 221.69,-108 255.78,-55.94 327.71,-34.16 376.38,-25.16"/>
<polygon fill="black" stroke="black" points="377.14,-28.58 386.39,-23.43 375.94,-21.69 377.14,-28.58"/>
</g>
<!-- __floatsidf&#45;&gt;__clzsi2 -->
<g id="edge53" class="edge">
<title>__floatsidf&#45;&gt;__clzsi2</title>
<path fill="none" stroke="black" d="M531.98,-109.13C510.56,-90.97 475.36,-61.12 451.39,-40.79"/>
<polygon fill="black" stroke="black" points="453.61,-38.09 443.72,-34.29 449.09,-43.43 453.61,-38.09"/>
</g>
<!-- __muldf3&#45;&gt;__clzsi2 -->
<g id="edge51" class="edge">
<title>__muldf3&#45;&gt;__clzsi2</title>
<path fill="none" stroke="black" d="M652.2,-112.42C605.24,-93.05 515.26,-55.94 463.98,-34.79"/>
<polygon fill="black" stroke="black" points="465.15,-31.49 454.57,-30.91 462.48,-37.96 465.15,-31.49"/>
</g>
<!-- __adddf3&#45;&gt;__clzsi2 -->
<g id="edge49" class="edge">
<title>__adddf3&#45;&gt;__clzsi2</title>
<path fill="none" stroke="black" d="M329.23,-220.29C283.77,-199.42 206.6,-155.43 236.69,-108 267.49,-59.46 332.61,-36.91 377.74,-26.77"/>
<polygon fill="black" stroke="black" points="378.56,-30.18 387.61,-24.68 377.11,-23.33 378.56,-30.18"/>
</g>
<!-- __floatunsidf&#45;&gt;__clzsi2 -->
<g id="edge54" class="edge">
<title>__floatunsidf&#45;&gt;__clzsi2</title>
<path fill="none" stroke="black" d="M889.3,-114.64C879.22,-112.42 868.6,-110.11 858.69,-108 718.26,-78.07 551.81,-44.35 472.39,-28.37"/>
<polygon fill="black" stroke="black" points="472.72,-24.86 462.23,-26.32 471.34,-31.73 472.72,-24.86"/>
</g>
<!-- _vsnprintf&#45;&gt;_ntoa_long -->
<g id="edge43" class="edge">
<title>_vsnprintf&#45;&gt;_ntoa_long</title>
<path fill="none" stroke="black" d="M861.25,-433.26C907.95,-395.7 1026.04,-300.69 1080.01,-257.27"/>
<polygon fill="black" stroke="black" points="1082.51,-259.75 1088.1,-250.76 1078.12,-254.3 1082.51,-259.75"/>
</g>
<!-- _vsnprintf&#45;&gt;_ntoa_long_long -->
<g id="edge42" class="edge">
<title>_vsnprintf&#45;&gt;_ntoa_long_long</title>
<path fill="none" stroke="black" d="M880.88,-439.41C957.03,-420.76 1125.38,-379.55 1215.32,-357.54"/>
<polygon fill="black" stroke="black" points="1216.21,-360.92 1225.09,-355.14 1214.55,-354.12 1216.21,-360.92"/>
</g>
<!-- _vsnprintf&#45;&gt;_etoa -->
<g id="edge41" class="edge">
<title>_vsnprintf&#45;&gt;_etoa</title>
<path fill="none" stroke="black" d="M828.26,-432.44C813.95,-414.81 791.19,-386.76 774.98,-366.77"/>
<polygon fill="black" stroke="black" points="777.49,-364.32 768.48,-358.75 772.06,-368.73 777.49,-364.32"/>
</g>
<!-- _vsnprintf&#45;&gt;_ftoa -->
<g id="edge44" class="edge">
<title>_vsnprintf&#45;&gt;_ftoa</title>
<path fill="none" stroke="black" d="M841.69,-431.85C841.69,-394.83 841.69,-307.18 841.69,-262.39"/>
<polygon fill="black" stroke="black" points="845.19,-262.23 841.69,-252.23 838.19,-262.23 845.19,-262.23"/>
</g>
</g>
</svg>
