<?xml version="1.0" encoding="UTF-8" standalone="no"?>
<!DOCTYPE svg PUBLIC "-//W3C//DTD SVG 1.1//EN"
 "http://www.w3.org/Graphics/SVG/1.1/DTD/svg11.dtd">
<!-- Generated by graphviz version 6.0.2 (20221011.1828)
 -->
<!-- Pages: 1 -->
<svg width="1634pt" height="908pt"
 viewBox="0.00 0.00 1633.79 908.00" xmlns="http://www.w3.org/2000/svg" xmlns:xlink="http://www.w3.org/1999/xlink">
<g id="graph0" class="graph" transform="scale(1 1) rotate(0) translate(4 904)">
<polygon fill="white" stroke="none" points="-4,4 -4,-904 1629.79,-904 1629.79,4 -4,4"/>
<!-- __to_main -->
<g id="node1" class="node">
<title>__to_main</title>
<ellipse fill="none" stroke="black" cx="593.69" cy="-882" rx="50.09" ry="18"/>
<text text-anchor="middle" x="593.69" y="-878.3" font-family="Times New Roman,serif" font-size="14.00">__to_main</text>
</g>
<!-- main -->
<g id="node2" class="node">
<title>main</title>
<ellipse fill="none" stroke="black" cx="593.69" cy="-774" rx="27.9" ry="18"/>
<text text-anchor="middle" x="593.69" y="-770.3" font-family="Times New Roman,serif" font-size="14.00">main</text>
</g>
<!-- __to_main&#45;&gt;main -->
<g id="edge1" class="edge">
<title>__to_main&#45;&gt;main</title>
<path fill="none" stroke="black" d="M593.69,-863.97C593.69,-847.38 593.69,-821.88 593.69,-802.43"/>
<polygon fill="black" stroke="black" points="597.19,-802.34 593.69,-792.34 590.19,-802.34 597.19,-802.34"/>
</g>
<!-- puts -->
<g id="node5" class="node">
<title>puts</title>
<ellipse fill="none" stroke="black" cx="324.69" cy="-450" rx="27" ry="18"/>
<text text-anchor="middle" x="324.69" y="-446.3" font-family="Times New Roman,serif" font-size="14.00">puts</text>
</g>
<!-- main&#45;&gt;puts -->
<g id="edge9" class="edge">
<title>main&#45;&gt;puts</title>
<path fill="none" stroke="black" d="M566.06,-771.04C516.64,-765.96 413.43,-747.85 361.69,-684 313.01,-623.92 316.01,-525.73 320.94,-478.32"/>
<polygon fill="black" stroke="black" points="324.44,-478.54 322.1,-468.21 317.48,-477.74 324.44,-478.54"/>
</g>
<!-- benchmark -->
<g id="node6" class="node">
<title>benchmark</title>
<ellipse fill="none" stroke="black" cx="430.69" cy="-666" rx="50.89" ry="18"/>
<text text-anchor="middle" x="430.69" y="-662.3" font-family="Times New Roman,serif" font-size="14.00">benchmark</text>
</g>
<!-- main&#45;&gt;benchmark -->
<g id="edge10" class="edge">
<title>main&#45;&gt;benchmark</title>
<path fill="none" stroke="black" d="M574.68,-760.63C547.15,-742.74 495.88,-709.39 462.53,-687.7"/>
<polygon fill="black" stroke="black" points="464.34,-684.71 454.05,-682.19 460.52,-690.57 464.34,-684.71"/>
</g>
<!-- verify_benchmark -->
<g id="node8" class="node">
<title>verify_benchmark</title>
<ellipse fill="none" stroke="black" cx="593.69" cy="-666" rx="76.09" ry="18"/>
<text text-anchor="middle" x="593.69" y="-662.3" font-family="Times New Roman,serif" font-size="14.00">verify_benchmark</text>
</g>
<!-- main&#45;&gt;verify_benchmark -->
<g id="edge12" class="edge">
<title>main&#45;&gt;verify_benchmark</title>
<path fill="none" stroke="black" d="M593.69,-755.97C593.69,-739.38 593.69,-713.88 593.69,-694.43"/>
<polygon fill="black" stroke="black" points="597.19,-694.34 593.69,-684.34 590.19,-694.34 597.19,-694.34"/>
</g>
<!-- ck_uart_init -->
<g id="node11" class="node">
<title>ck_uart_init</title>
<ellipse fill="none" stroke="black" cx="759.69" cy="-666" rx="53.89" ry="18"/>
<text text-anchor="middle" x="759.69" y="-662.3" font-family="Times New Roman,serif" font-size="14.00">ck_uart_init</text>
</g>
<!-- main&#45;&gt;ck_uart_init -->
<g id="edge8" class="edge">
<title>main&#45;&gt;ck_uart_init</title>
<path fill="none" stroke="black" d="M613.06,-760.63C641.09,-742.74 693.31,-709.39 727.27,-687.7"/>
<polygon fill="black" stroke="black" points="729.36,-690.52 735.91,-682.19 725.6,-684.62 729.36,-690.52"/>
</g>
<!-- ck_uart_open -->
<g id="node12" class="node">
<title>ck_uart_open</title>
<ellipse fill="none" stroke="black" cx="910.69" cy="-666" rx="61.19" ry="18"/>
<text text-anchor="middle" x="910.69" y="-662.3" font-family="Times New Roman,serif" font-size="14.00">ck_uart_open</text>
</g>
<!-- main&#45;&gt;ck_uart_open -->
<g id="edge11" class="edge">
<title>main&#45;&gt;ck_uart_open</title>
<path fill="none" stroke="black" d="M618.04,-764.86C670.14,-747.44 793.25,-706.27 862.04,-683.27"/>
<polygon fill="black" stroke="black" points="863.41,-686.5 871.78,-680.01 861.19,-679.86 863.41,-686.5"/>
</g>
<!-- dijkstra -->
<g id="node3" class="node">
<title>dijkstra</title>
<ellipse fill="none" stroke="black" cx="429.69" cy="-558" rx="37.09" ry="18"/>
<text text-anchor="middle" x="429.69" y="-554.3" font-family="Times New Roman,serif" font-size="14.00">dijkstra</text>
</g>
<!-- enqueue -->
<g id="node4" class="node">
<title>enqueue</title>
<ellipse fill="none" stroke="black" cx="429.69" cy="-450" rx="40.09" ry="18"/>
<text text-anchor="middle" x="429.69" y="-446.3" font-family="Times New Roman,serif" font-size="14.00">enqueue</text>
</g>
<!-- dijkstra&#45;&gt;enqueue -->
<g id="edge2" class="edge">
<title>dijkstra&#45;&gt;enqueue</title>
<path fill="none" stroke="black" d="M429.69,-539.97C429.69,-523.38 429.69,-497.88 429.69,-478.43"/>
<polygon fill="black" stroke="black" points="433.19,-478.34 429.69,-468.34 426.19,-478.34 433.19,-478.34"/>
</g>
<!-- dijkstra&#45;&gt;puts -->
<g id="edge3" class="edge">
<title>dijkstra&#45;&gt;puts</title>
<path fill="none" stroke="black" d="M414.2,-541.36C396.19,-523.18 366.37,-493.07 346.14,-472.65"/>
<polygon fill="black" stroke="black" points="348.43,-469.99 338.9,-465.34 343.45,-474.91 348.43,-469.99"/>
</g>
<!-- fputc -->
<g id="node9" class="node">
<title>fputc</title>
<ellipse fill="none" stroke="black" cx="200.69" cy="-342" rx="29.8" ry="18"/>
<text text-anchor="middle" x="200.69" y="-338.3" font-family="Times New Roman,serif" font-size="14.00">fputc</text>
</g>
<!-- puts&#45;&gt;fputc -->
<g id="edge45" class="edge">
<title>puts&#45;&gt;fputc</title>
<path fill="none" stroke="black" d="M308.74,-435.36C287.58,-417.27 250.04,-385.18 225.25,-364"/>
<polygon fill="black" stroke="black" points="227.26,-361.1 217.38,-357.26 222.71,-366.42 227.26,-361.1"/>
</g>
<!-- benchmark&#45;&gt;dijkstra -->
<g id="edge4" class="edge">
<title>benchmark&#45;&gt;dijkstra</title>
<path fill="none" stroke="black" d="M430.53,-647.97C430.38,-631.38 430.14,-605.88 429.95,-586.43"/>
<polygon fill="black" stroke="black" points="433.45,-586.31 429.86,-576.34 426.45,-586.37 433.45,-586.31"/>
</g>
<!-- printf -->
<g id="node7" class="node">
<title>printf</title>
<ellipse fill="none" stroke="black" cx="593.69" cy="-558" rx="30.59" ry="18"/>
<text text-anchor="middle" x="593.69" y="-554.3" font-family="Times New Roman,serif" font-size="14.00">printf</text>
</g>
<!-- benchmark&#45;&gt;printf -->
<g id="edge5" class="edge">
<title>benchmark&#45;&gt;printf</title>
<path fill="none" stroke="black" d="M454.05,-649.81C483.37,-630.74 533.65,-598.05 565.2,-577.53"/>
<polygon fill="black" stroke="black" points="567.49,-580.22 573.96,-571.83 563.67,-574.35 567.49,-580.22"/>
</g>
<!-- _vsnprintf -->
<g id="node33" class="node">
<title>_vsnprintf</title>
<ellipse fill="none" stroke="black" cx="841.69" cy="-450" rx="48.19" ry="18"/>
<text text-anchor="middle" x="841.69" y="-446.3" font-family="Times New Roman,serif" font-size="14.00">_vsnprintf</text>
</g>
<!-- printf&#45;&gt;_vsnprintf -->
<g id="edge46" class="edge">
<title>printf&#45;&gt;_vsnprintf</title>
<path fill="none" stroke="black" d="M617.92,-546.64C660.72,-528.35 750.07,-490.16 801.98,-467.97"/>
<polygon fill="black" stroke="black" points="803.4,-471.17 811.22,-464.02 800.65,-464.74 803.4,-471.17"/>
</g>
<!-- verify_benchmark&#45;&gt;printf -->
<g id="edge6" class="edge">
<title>verify_benchmark&#45;&gt;printf</title>
<path fill="none" stroke="black" d="M593.69,-647.97C593.69,-631.38 593.69,-605.88 593.69,-586.43"/>
<polygon fill="black" stroke="black" points="597.19,-586.34 593.69,-576.34 590.19,-586.34 597.19,-586.34"/>
</g>
<!-- &lt;ck_uart_putc&gt; * -->
<g id="node10" class="node">
<title>&lt;ck_uart_putc&gt; *</title>
<ellipse fill="none" stroke="black" cx="76.69" cy="-234" rx="76.89" ry="18"/>
<text text-anchor="middle" x="76.69" y="-230.3" font-family="Times New Roman,serif" font-size="14.00">&lt;ck_uart_putc&gt; *</text>
</g>
<!-- fputc&#45;&gt;&lt;ck_uart_putc&gt; * -->
<g id="edge7" class="edge">
<title>fputc&#45;&gt;&lt;ck_uart_putc&gt; *</title>
<path fill="none" stroke="black" d="M184.23,-326.92C163.75,-309.42 128.5,-279.28 103.96,-258.31"/>
<polygon fill="black" stroke="black" points="105.96,-255.42 96.09,-251.58 101.41,-260.74 105.96,-255.42"/>
</g>
<!-- ck_uart_set_parity -->
<g id="node34" class="node">
<title>ck_uart_set_parity</title>
<ellipse fill="none" stroke="black" cx="748.69" cy="-558" rx="78.79" ry="18"/>
<text text-anchor="middle" x="748.69" y="-554.3" font-family="Times New Roman,serif" font-size="14.00">ck_uart_set_parity</text>
</g>
<!-- ck_uart_init&#45;&gt;ck_uart_set_parity -->
<g id="edge47" class="edge">
<title>ck_uart_init&#45;&gt;ck_uart_set_parity</title>
<path fill="none" stroke="black" d="M757.93,-647.97C756.2,-631.38 753.56,-605.88 751.54,-586.43"/>
<polygon fill="black" stroke="black" points="755.01,-585.93 750.49,-576.34 748.04,-586.65 755.01,-585.93"/>
</g>
<!-- ck_uart_set_wordsize -->
<g id="node35" class="node">
<title>ck_uart_set_wordsize</title>
<ellipse fill="none" stroke="black" cx="954.69" cy="-558" rx="90.98" ry="18"/>
<text text-anchor="middle" x="954.69" y="-554.3" font-family="Times New Roman,serif" font-size="14.00">ck_uart_set_wordsize</text>
</g>
<!-- ck_uart_init&#45;&gt;ck_uart_set_wordsize -->
<g id="edge48" class="edge">
<title>ck_uart_init&#45;&gt;ck_uart_set_wordsize</title>
<path fill="none" stroke="black" d="M786.81,-650.26C820.43,-631.99 877.95,-600.72 916.15,-579.95"/>
<polygon fill="black" stroke="black" points="917.82,-583.03 924.94,-575.17 914.48,-576.88 917.82,-583.03"/>
</g>
<!-- _ntoa_format -->
<g id="node13" class="node">
<title>_ntoa_format</title>
<ellipse fill="none" stroke="black" cx="1564.69" cy="-126" rx="59.59" ry="18"/>
<text text-anchor="middle" x="1564.69" y="-122.3" font-family="Times New Roman,serif" font-size="14.00">_ntoa_format</text>
</g>
<!-- _out_rev -->
<g id="node14" class="node">
<title>_out_rev</title>
<ellipse fill="none" stroke="black" cx="1242.69" cy="-18" rx="43.59" ry="18"/>
<text text-anchor="middle" x="1242.69" y="-14.3" font-family="Times New Roman,serif" font-size="14.00">_out_rev</text>
</g>
<!-- _ntoa_format&#45;&gt;_out_rev -->
<g id="edge13" class="edge">
<title>_ntoa_format&#45;&gt;_out_rev</title>
<path fill="none" stroke="black" d="M1525.85,-112.21C1465.2,-92.25 1348.44,-53.81 1285.46,-33.08"/>
<polygon fill="black" stroke="black" points="1286.42,-29.71 1275.83,-29.91 1284.23,-36.36 1286.42,-29.71"/>
</g>
<!-- &lt;_out_rev&gt; * -->
<g id="node15" class="node">
<title>&lt;_out_rev&gt; *</title>
<ellipse fill="none" stroke="black" cx="1564.69" cy="-18" rx="61.19" ry="18"/>
<text text-anchor="middle" x="1564.69" y="-14.3" font-family="Times New Roman,serif" font-size="14.00">&lt;_out_rev&gt; *</text>
</g>
<!-- _ntoa_format&#45;&gt;&lt;_out_rev&gt; * -->
<g id="edge14" class="edge">
<title>_ntoa_format&#45;&gt;&lt;_out_rev&gt; *</title>
<path fill="none" stroke="black" d="M1564.69,-107.97C1564.69,-91.38 1564.69,-65.88 1564.69,-46.43"/>
<polygon fill="black" stroke="black" points="1568.19,-46.34 1564.69,-36.34 1561.19,-46.34 1568.19,-46.34"/>
</g>
<!-- _ntoa_long -->
<g id="node16" class="node">
<title>_ntoa_long</title>
<ellipse fill="none" stroke="black" cx="1107.69" cy="-234" rx="51.99" ry="18"/>
<text text-anchor="middle" x="1107.69" y="-230.3" font-family="Times New Roman,serif" font-size="14.00">_ntoa_long</text>
</g>
<!-- _ntoa_long&#45;&gt;_ntoa_format -->
<g id="edge15" class="edge">
<title>_ntoa_long&#45;&gt;_ntoa_format</title>
<path fill="none" stroke="black" d="M1149.87,-223.22C1232.69,-204.01 1416.59,-161.35 1509.17,-139.88"/>
<polygon fill="black" stroke="black" points="1509.96,-143.29 1518.91,-137.62 1508.38,-136.47 1509.96,-143.29"/>
</g>
<!-- _ntoa_long_long -->
<g id="node17" class="node">
<title>_ntoa_long_long</title>
<ellipse fill="none" stroke="black" cx="1274.69" cy="-342" rx="72.29" ry="18"/>
<text text-anchor="middle" x="1274.69" y="-338.3" font-family="Times New Roman,serif" font-size="14.00">_ntoa_long_long</text>
</g>
<!-- _ntoa_long_long&#45;&gt;_ntoa_format -->
<g id="edge17" class="edge">
<title>_ntoa_long_long&#45;&gt;_ntoa_format</title>
<path fill="none" stroke="black" d="M1266.29,-324.1C1254.69,-298.11 1237.77,-247.96 1261.69,-216 1276.71,-195.94 1424.8,-159.14 1508.25,-139.74"/>
<polygon fill="black" stroke="black" points="1509.14,-143.13 1518.09,-137.47 1507.56,-136.31 1509.14,-143.13"/>
</g>
<!-- __udivdi3 -->
<g id="node18" class="node">
<title>__udivdi3</title>
<ellipse fill="none" stroke="black" cx="1326.69" cy="-234" rx="47.39" ry="18"/>
<text text-anchor="middle" x="1326.69" y="-230.3" font-family="Times New Roman,serif" font-size="14.00">__udivdi3</text>
</g>
<!-- _ntoa_long_long&#45;&gt;__udivdi3 -->
<g id="edge16" class="edge">
<title>_ntoa_long_long&#45;&gt;__udivdi3</title>
<path fill="none" stroke="black" d="M1283.05,-323.97C1291.39,-306.97 1304.31,-280.62 1313.93,-261.01"/>
<polygon fill="black" stroke="black" points="1317.1,-262.51 1318.36,-251.99 1310.81,-259.42 1317.1,-262.51"/>
</g>
<!-- __umoddi3 -->
<g id="node19" class="node">
<title>__umoddi3</title>
<ellipse fill="none" stroke="black" cx="1462.69" cy="-234" rx="52.79" ry="18"/>
<text text-anchor="middle" x="1462.69" y="-230.3" font-family="Times New Roman,serif" font-size="14.00">__umoddi3</text>
</g>
<!-- _ntoa_long_long&#45;&gt;__umoddi3 -->
<g id="edge18" class="edge">
<title>_ntoa_long_long&#45;&gt;__umoddi3</title>
<path fill="none" stroke="black" d="M1302.43,-325.36C1335.77,-306.57 1391.71,-275.02 1427.91,-254.61"/>
<polygon fill="black" stroke="black" points="1429.67,-257.64 1436.66,-249.68 1426.23,-251.54 1429.67,-257.64"/>
</g>
<!-- _etoa -->
<g id="node20" class="node">
<title>_etoa</title>
<ellipse fill="none" stroke="black" cx="755.69" cy="-342" rx="30.59" ry="18"/>
<text text-anchor="middle" x="755.69" y="-338.3" font-family="Times New Roman,serif" font-size="14.00">_etoa</text>
</g>
<!-- _etoa&#45;&gt;_ntoa_long -->
<g id="edge28" class="edge">
<title>_etoa&#45;&gt;_ntoa_long</title>
<path fill="none" stroke="black" d="M782.44,-332.95C841.78,-315.07 985.14,-271.9 1060.15,-249.32"/>
<polygon fill="black" stroke="black" points="1061.26,-252.64 1069.82,-246.4 1059.24,-245.94 1061.26,-252.64"/>
</g>
<!-- __eqdf2 -->
<g id="node21" class="node">
<title>__eqdf2</title>
<ellipse fill="none" stroke="black" cx="810.69" cy="-126" rx="41.69" ry="18"/>
<text text-anchor="middle" x="810.69" y="-122.3" font-family="Times New Roman,serif" font-size="14.00">__eqdf2</text>
</g>
<!-- _etoa&#45;&gt;__eqdf2 -->
<g id="edge19" class="edge">
<title>_etoa&#45;&gt;__eqdf2</title>
<path fill="none" stroke="black" d="M760.1,-323.85C769.66,-286.66 792.35,-198.37 803.81,-153.77"/>
<polygon fill="black" stroke="black" points="807.24,-154.49 806.34,-143.94 800.46,-152.75 807.24,-154.49"/>
</g>
<!-- __ledf2 -->
<g id="node22" class="node">
<title>__ledf2</title>
<ellipse fill="none" stroke="black" cx="430.69" cy="-126" rx="38.19" ry="18"/>
<text text-anchor="middle" x="430.69" y="-122.3" font-family="Times New Roman,serif" font-size="14.00">__ledf2</text>
</g>
<!-- _etoa&#45;&gt;__ledf2 -->
<g id="edge20" class="edge">
<title>_etoa&#45;&gt;__ledf2</title>
<path fill="none" stroke="black" d="M735.85,-327.94C680.83,-291.71 526.08,-189.81 460.58,-146.68"/>
<polygon fill="black" stroke="black" points="462.23,-143.57 451.95,-141 458.38,-149.42 462.23,-143.57"/>
</g>
<!-- __subdf3 -->
<g id="node23" class="node">
<title>__subdf3</title>
<ellipse fill="none" stroke="black" cx="550.69" cy="-126" rx="46.29" ry="18"/>
<text text-anchor="middle" x="550.69" y="-122.3" font-family="Times New Roman,serif" font-size="14.00">__subdf3</text>
</g>
<!-- _etoa&#45;&gt;__subdf3 -->
<g id="edge21" class="edge">
<title>_etoa&#45;&gt;__subdf3</title>
<path fill="none" stroke="black" d="M741.28,-325.95C706.11,-289.24 615.72,-194.88 573.3,-150.6"/>
<polygon fill="black" stroke="black" points="575.65,-147.99 566.2,-143.19 570.59,-152.83 575.65,-147.99"/>
</g>
<!-- __floatsidf -->
<g id="node24" class="node">
<title>__floatsidf</title>
<ellipse fill="none" stroke="black" cx="682.69" cy="-126" rx="50.09" ry="18"/>
<text text-anchor="middle" x="682.69" y="-122.3" font-family="Times New Roman,serif" font-size="14.00">__floatsidf</text>
</g>
<!-- _etoa&#45;&gt;__floatsidf -->
<g id="edge22" class="edge">
<title>_etoa&#45;&gt;__floatsidf</title>
<path fill="none" stroke="black" d="M749.97,-324.21C737.34,-287.19 707.01,-198.3 691.77,-153.6"/>
<polygon fill="black" stroke="black" points="695.04,-152.34 688.5,-144.01 688.41,-154.6 695.04,-152.34"/>
</g>
<!-- __fixdfsi -->
<g id="node25" class="node">
<title>__fixdfsi</title>
<ellipse fill="none" stroke="black" cx="1307.69" cy="-126" rx="43.59" ry="18"/>
<text text-anchor="middle" x="1307.69" y="-122.3" font-family="Times New Roman,serif" font-size="14.00">__fixdfsi</text>
</g>
<!-- _etoa&#45;&gt;__fixdfsi -->
<g id="edge23" class="edge">
<title>_etoa&#45;&gt;__fixdfsi</title>
<path fill="none" stroke="black" d="M774.55,-327.81C811.15,-302.74 895.08,-247.89 972.69,-216 1089.16,-168.15 1125.16,-176.9 1246.69,-144 1251.93,-142.58 1257.42,-141.08 1262.87,-139.57"/>
<polygon fill="black" stroke="black" points="1263.86,-142.93 1272.56,-136.89 1261.99,-136.19 1263.86,-142.93"/>
</g>
<!-- _ftoa -->
<g id="node26" class="node">
<title>_ftoa</title>
<ellipse fill="none" stroke="black" cx="841.69" cy="-234" rx="29.8" ry="18"/>
<text text-anchor="middle" x="841.69" y="-230.3" font-family="Times New Roman,serif" font-size="14.00">_ftoa</text>
</g>
<!-- _etoa&#45;&gt;_ftoa -->
<g id="edge24" class="edge">
<title>_etoa&#45;&gt;_ftoa</title>
<path fill="none" stroke="black" d="M759.28,-323.97C770.38,-305.18 794.67,-274.98 814.57,-255.06"/>
<polygon fill="black" stroke="black" points="817.15,-257.43 821.94,-247.98 812.3,-252.39 817.15,-257.43"/>
</g>
<!-- __muldf3 -->
<g id="node27" class="node">
<title>__muldf3</title>
<ellipse fill="none" stroke="black" cx="310.69" cy="-126" rx="46.29" ry="18"/>
<text text-anchor="middle" x="310.69" y="-122.3" font-family="Times New Roman,serif" font-size="14.00">__muldf3</text>
</g>
<!-- _etoa&#45;&gt;__muldf3 -->
<g id="edge25" class="edge">
<title>_etoa&#45;&gt;__muldf3</title>
<path fill="none" stroke="black" d="M732.23,-330.17C696.29,-313.55 625.48,-280.65 565.69,-252 487.58,-214.57 396.59,-169.64 347.18,-145.14"/>
<polygon fill="black" stroke="black" points="348.68,-141.97 338.16,-140.66 345.56,-148.24 348.68,-141.97"/>
</g>
<!-- __gedf2 -->
<g id="node28" class="node">
<title>__gedf2</title>
<ellipse fill="none" stroke="black" cx="1427.69" cy="-126" rx="40.89" ry="18"/>
<text text-anchor="middle" x="1427.69" y="-122.3" font-family="Times New Roman,serif" font-size="14.00">__gedf2</text>
</g>
<!-- _etoa&#45;&gt;__gedf2 -->
<g id="edge26" class="edge">
<title>_etoa&#45;&gt;__gedf2</title>
<path fill="none" stroke="black" d="M780.06,-330.91C818.9,-314.74 897.17,-281.8 962.69,-252 996.35,-236.69 1002.72,-228 1037.69,-216 1180.51,-167 1223.38,-181.26 1369.69,-144 1374.71,-142.72 1379.95,-141.3 1385.14,-139.85"/>
<polygon fill="black" stroke="black" points="1386.33,-143.15 1394.99,-137.03 1384.41,-136.42 1386.33,-143.15"/>
</g>
<!-- __adddf3 -->
<g id="node29" class="node">
<title>__adddf3</title>
<ellipse fill="none" stroke="black" cx="359.69" cy="-234" rx="46.29" ry="18"/>
<text text-anchor="middle" x="359.69" y="-230.3" font-family="Times New Roman,serif" font-size="14.00">__adddf3</text>
</g>
<!-- _etoa&#45;&gt;__adddf3 -->
<g id="edge27" class="edge">
<title>_etoa&#45;&gt;__adddf3</title>
<path fill="none" stroke="black" d="M728.47,-333.71C661.81,-315.87 489.75,-269.81 406.37,-247.49"/>
<polygon fill="black" stroke="black" points="407.22,-244.1 396.65,-244.89 405.41,-250.86 407.22,-244.1"/>
</g>
<!-- __divdf3 -->
<g id="node30" class="node">
<title>__divdf3</title>
<ellipse fill="none" stroke="black" cx="233.69" cy="-234" rx="44.39" ry="18"/>
<text text-anchor="middle" x="233.69" y="-230.3" font-family="Times New Roman,serif" font-size="14.00">__divdf3</text>
</g>
<!-- _etoa&#45;&gt;__divdf3 -->
<g id="edge29" class="edge">
<title>_etoa&#45;&gt;__divdf3</title>
<path fill="none" stroke="black" d="M726.73,-336.19C653.93,-323.93 457.48,-289.77 295.69,-252 290.05,-250.68 284.15,-249.2 278.33,-247.68"/>
<polygon fill="black" stroke="black" points="279.22,-244.29 268.66,-245.09 277.41,-251.06 279.22,-244.29"/>
</g>
<!-- __clzsi2 -->
<g id="node36" class="node">
<title>__clzsi2</title>
<ellipse fill="none" stroke="black" cx="430.69" cy="-18" rx="40.89" ry="18"/>
<text text-anchor="middle" x="430.69" y="-14.3" font-family="Times New Roman,serif" font-size="14.00">__clzsi2</text>
</g>
<!-- __subdf3&#45;&gt;__clzsi2 -->
<g id="edge52" class="edge">
<title>__subdf3&#45;&gt;__clzsi2</title>
<path fill="none" stroke="black" d="M532.99,-109.36C512.58,-91.33 478.88,-61.56 455.77,-41.15"/>
<polygon fill="black" stroke="black" points="457.89,-38.36 448.08,-34.36 453.26,-43.6 457.89,-38.36"/>
</g>
<!-- __floatsidf&#45;&gt;__clzsi2 -->
<g id="edge53" class="edge">
<title>__floatsidf&#45;&gt;__clzsi2</title>
<path fill="none" stroke="black" d="M651.54,-111.9C605.37,-92.47 518.86,-56.09 468.92,-35.08"/>
<polygon fill="black" stroke="black" points="470.02,-31.74 459.44,-31.09 467.3,-38.2 470.02,-31.74"/>
</g>
<!-- _ftoa&#45;&gt;_out_rev -->
<g id="edge35" class="edge">
<title>_ftoa&#45;&gt;_out_rev</title>
<path fill="none" stroke="black" d="M864.77,-222.39C899.72,-206.19 968.02,-173.99 1024.69,-144 1091.7,-108.55 1168.17,-63.64 1210.39,-38.44"/>
<polygon fill="black" stroke="black" points="1212.33,-41.36 1219.12,-33.22 1208.74,-35.35 1212.33,-41.36"/>
</g>
<!-- _ftoa&#45;&gt;_etoa -->
<g id="edge40" class="edge">
<title>_ftoa&#45;&gt;_etoa</title>
<path fill="none" stroke="black" d="M838.15,-251.96C827.08,-270.73 802.76,-300.96 782.85,-320.91"/>
<polygon fill="black" stroke="black" points="780.25,-318.55 775.47,-328 785.1,-323.59 780.25,-318.55"/>
</g>
<!-- _ftoa&#45;&gt;__eqdf2 -->
<g id="edge30" class="edge">
<title>_ftoa&#45;&gt;__eqdf2</title>
<path fill="none" stroke="black" d="M836.71,-215.97C831.81,-199.2 824.25,-173.34 818.53,-153.81"/>
<polygon fill="black" stroke="black" points="821.83,-152.6 815.66,-143.99 815.11,-154.57 821.83,-152.6"/>
</g>
<!-- _ftoa&#45;&gt;__ledf2 -->
<g id="edge31" class="edge">
<title>_ftoa&#45;&gt;__ledf2</title>
<path fill="none" stroke="black" d="M814.41,-226.64C754.73,-212.63 608.24,-177.66 486.69,-144 481.74,-142.63 476.56,-141.14 471.43,-139.62"/>
<polygon fill="black" stroke="black" points="472.3,-136.23 461.72,-136.71 470.29,-142.93 472.3,-136.23"/>
</g>
<!-- _ftoa&#45;&gt;__subdf3 -->
<g id="edge32" class="edge">
<title>_ftoa&#45;&gt;__subdf3</title>
<path fill="none" stroke="black" d="M816.63,-223.87C766.64,-205.66 654.07,-164.66 592.64,-142.28"/>
<polygon fill="black" stroke="black" points="593.83,-138.99 583.24,-138.85 591.43,-145.57 593.83,-138.99"/>
</g>
<!-- _ftoa&#45;&gt;__floatsidf -->
<g id="edge34" class="edge">
<title>_ftoa&#45;&gt;__floatsidf</title>
<path fill="none" stroke="black" d="M822.2,-220C795.21,-202.01 746.18,-169.32 714.02,-147.89"/>
<polygon fill="black" stroke="black" points="715.69,-144.79 705.43,-142.16 711.81,-150.62 715.69,-144.79"/>
</g>
<!-- _ftoa&#45;&gt;__fixdfsi -->
<g id="edge36" class="edge">
<title>_ftoa&#45;&gt;__fixdfsi</title>
<path fill="none" stroke="black" d="M867.67,-224.74C877.36,-221.8 888.48,-218.57 898.69,-216 1051.84,-177.39 1093.2,-181.22 1246.69,-144 1252.04,-142.7 1257.62,-141.27 1263.14,-139.79"/>
<polygon fill="black" stroke="black" points="1264.23,-143.12 1272.96,-137.12 1262.39,-136.37 1264.23,-143.12"/>
</g>
<!-- _ftoa&#45;&gt;__muldf3 -->
<g id="edge37" class="edge">
<title>_ftoa&#45;&gt;__muldf3</title>
<path fill="none" stroke="black" d="M813.12,-228.29C739.89,-216.04 539.67,-181.58 374.69,-144 368.95,-142.69 362.94,-141.23 357,-139.72"/>
<polygon fill="black" stroke="black" points="357.69,-136.28 347.13,-137.16 355.94,-143.06 357.69,-136.28"/>
</g>
<!-- _ftoa&#45;&gt;__gedf2 -->
<g id="edge38" class="edge">
<title>_ftoa&#45;&gt;__gedf2</title>
<path fill="none" stroke="black" d="M870.83,-229.32C951.02,-218.93 1181.48,-187.29 1369.69,-144 1374.8,-142.82 1380.13,-141.46 1385.39,-140.03"/>
<polygon fill="black" stroke="black" points="1386.68,-143.3 1395.35,-137.21 1384.78,-136.56 1386.68,-143.3"/>
</g>
<!-- __floatunsidf -->
<g id="node31" class="node">
<title>__floatunsidf</title>
<ellipse fill="none" stroke="black" cx="947.69" cy="-126" rx="59.29" ry="18"/>
<text text-anchor="middle" x="947.69" y="-122.3" font-family="Times New Roman,serif" font-size="14.00">__floatunsidf</text>
</g>
<!-- _ftoa&#45;&gt;__floatunsidf -->
<g id="edge33" class="edge">
<title>_ftoa&#45;&gt;__floatunsidf</title>
<path fill="none" stroke="black" d="M856.43,-218.26C873.96,-200.73 903.45,-171.24 924.15,-150.54"/>
<polygon fill="black" stroke="black" points="926.75,-152.9 931.34,-143.35 921.8,-147.95 926.75,-152.9"/>
</g>
<!-- __fixunsdfsi -->
<g id="node32" class="node">
<title>__fixunsdfsi</title>
<ellipse fill="none" stroke="black" cx="1172.69" cy="-126" rx="55.79" ry="18"/>
<text text-anchor="middle" x="1172.69" y="-122.3" font-family="Times New Roman,serif" font-size="14.00">__fixunsdfsi</text>
</g>
<!-- _ftoa&#45;&gt;__fixunsdfsi -->
<g id="edge39" class="edge">
<title>_ftoa&#45;&gt;__fixunsdfsi</title>
<path fill="none" stroke="black" d="M867.39,-224.77C922.74,-207.05 1053.93,-165.03 1124.98,-142.28"/>
<polygon fill="black" stroke="black" points="1126.14,-145.58 1134.6,-139.2 1124,-138.92 1126.14,-145.58"/>
</g>
<!-- __muldf3&#45;&gt;__clzsi2 -->
<g id="edge51" class="edge">
<title>__muldf3&#45;&gt;__clzsi2</title>
<path fill="none" stroke="black" d="M328.4,-109.36C348.81,-91.33 382.51,-61.56 405.61,-41.15"/>
<polygon fill="black" stroke="black" points="408.13,-43.6 413.3,-34.36 403.49,-38.36 408.13,-43.6"/>
</g>
<!-- __adddf3&#45;&gt;__clzsi2 -->
<g id="edge49" class="edge">
<title>__adddf3&#45;&gt;__clzsi2</title>
<path fill="none" stroke="black" d="M331.12,-219.72C288.98,-198.23 218.09,-153.6 246.69,-108 276.34,-60.73 338.99,-37.95 382.91,-27.41"/>
<polygon fill="black" stroke="black" points="383.84,-30.79 392.81,-25.16 382.29,-23.96 383.84,-30.79"/>
</g>
<!-- __divdf3&#45;&gt;__clzsi2 -->
<g id="edge50" class="edge">
<title>__divdf3&#45;&gt;__clzsi2</title>
<path fill="none" stroke="black" d="M227.9,-216.01C220.28,-190.34 210.21,-141.15 231.69,-108 264.68,-57.11 334.34,-35.06 381.84,-25.68"/>
<polygon fill="black" stroke="black" points="382.72,-29.08 391.91,-23.82 381.44,-22.19 382.72,-29.08"/>
</g>
<!-- __floatunsidf&#45;&gt;__clzsi2 -->
<g id="edge54" class="edge">
<title>__floatunsidf&#45;&gt;__clzsi2</title>
<path fill="none" stroke="black" d="M901.3,-114.62C891.22,-112.4 880.6,-110.1 870.69,-108 727.67,-77.75 558.01,-44.05 477.53,-28.19"/>
<polygon fill="black" stroke="black" points="477.73,-24.66 467.25,-26.17 476.38,-31.53 477.73,-24.66"/>
</g>
<!-- _vsnprintf&#45;&gt;_ntoa_long -->
<g id="edge43" class="edge">
<title>_vsnprintf&#45;&gt;_ntoa_long</title>
<path fill="none" stroke="black" d="M861.25,-433.26C907.95,-395.7 1026.04,-300.69 1080.01,-257.27"/>
<polygon fill="black" stroke="black" points="1082.51,-259.75 1088.1,-250.76 1078.12,-254.3 1082.51,-259.75"/>
</g>
<!-- _vsnprintf&#45;&gt;_ntoa_long_long -->
<g id="edge44" class="edge">
<title>_vsnprintf&#45;&gt;_ntoa_long_long</title>
<path fill="none" stroke="black" d="M880.88,-439.41C957.03,-420.76 1125.38,-379.55 1215.32,-357.54"/>
<polygon fill="black" stroke="black" points="1216.21,-360.92 1225.09,-355.14 1214.55,-354.12 1216.21,-360.92"/>
</g>
<!-- _vsnprintf&#45;&gt;_etoa -->
<g id="edge41" class="edge">
<title>_vsnprintf&#45;&gt;_etoa</title>
<path fill="none" stroke="black" d="M828.26,-432.44C813.95,-414.81 791.19,-386.76 774.98,-366.77"/>
<polygon fill="black" stroke="black" points="777.49,-364.32 768.48,-358.75 772.06,-368.73 777.49,-364.32"/>
</g>
<!-- _vsnprintf&#45;&gt;_ftoa -->
<g id="edge42" class="edge">
<title>_vsnprintf&#45;&gt;_ftoa</title>
<path fill="none" stroke="black" d="M841.69,-431.85C841.69,-394.83 841.69,-307.18 841.69,-262.39"/>
<polygon fill="black" stroke="black" points="845.19,-262.23 841.69,-252.23 838.19,-262.23 845.19,-262.23"/>
</g>
</g>
</svg>
