<?xml version="1.0" encoding="UTF-8" standalone="no"?>
<!DOCTYPE svg PUBLIC "-//W3C//DTD SVG 1.1//EN"
 "http://www.w3.org/Graphics/SVG/1.1/DTD/svg11.dtd">
<!-- Generated by graphviz version 6.0.2 (20221011.1828)
 -->
<!-- Pages: 1 -->
<svg width="1519pt" height="908pt"
 viewBox="0.00 0.00 1519.24 908.00" xmlns="http://www.w3.org/2000/svg" xmlns:xlink="http://www.w3.org/1999/xlink">
<g id="graph0" class="graph" transform="scale(1 1) rotate(0) translate(4 904)">
<polygon fill="white" stroke="none" points="-4,4 -4,-904 1515.24,-904 1515.24,4 -4,4"/>
<!-- __to_main -->
<g id="node1" class="node">
<title>__to_main</title>
<ellipse fill="none" stroke="black" cx="1056.15" cy="-882" rx="50.09" ry="18"/>
<text text-anchor="middle" x="1056.15" y="-878.3" font-family="Times New Roman,serif" font-size="14.00">__to_main</text>
</g>
<!-- main -->
<g id="node2" class="node">
<title>main</title>
<ellipse fill="none" stroke="black" cx="1056.15" cy="-774" rx="27.9" ry="18"/>
<text text-anchor="middle" x="1056.15" y="-770.3" font-family="Times New Roman,serif" font-size="14.00">main</text>
</g>
<!-- __to_main&#45;&gt;main -->
<g id="edge1" class="edge">
<title>__to_main&#45;&gt;main</title>
<path fill="none" stroke="black" d="M1056.15,-863.97C1056.15,-847.38 1056.15,-821.88 1056.15,-802.43"/>
<polygon fill="black" stroke="black" points="1059.65,-802.34 1056.15,-792.34 1052.65,-802.34 1059.65,-802.34"/>
</g>
<!-- benchmark -->
<g id="node3" class="node">
<title>benchmark</title>
<ellipse fill="none" stroke="black" cx="727.15" cy="-666" rx="50.89" ry="18"/>
<text text-anchor="middle" x="727.15" y="-662.3" font-family="Times New Roman,serif" font-size="14.00">benchmark</text>
</g>
<!-- main&#45;&gt;benchmark -->
<g id="edge7" class="edge">
<title>main&#45;&gt;benchmark</title>
<path fill="none" stroke="black" d="M1031.69,-765.12C976.93,-747.48 843.75,-704.57 773.03,-681.78"/>
<polygon fill="black" stroke="black" points="774.07,-678.44 763.48,-678.71 771.92,-685.1 774.07,-678.44"/>
</g>
<!-- verify_benchmark -->
<g id="node5" class="node">
<title>verify_benchmark</title>
<ellipse fill="none" stroke="black" cx="890.15" cy="-666" rx="76.09" ry="18"/>
<text text-anchor="middle" x="890.15" y="-662.3" font-family="Times New Roman,serif" font-size="14.00">verify_benchmark</text>
</g>
<!-- main&#45;&gt;verify_benchmark -->
<g id="edge9" class="edge">
<title>main&#45;&gt;verify_benchmark</title>
<path fill="none" stroke="black" d="M1036.78,-760.63C1009.14,-742.99 957.99,-710.32 924,-688.62"/>
<polygon fill="black" stroke="black" points="925.65,-685.52 915.34,-683.08 921.88,-691.42 925.65,-685.52"/>
</g>
<!-- ck_uart_init -->
<g id="node9" class="node">
<title>ck_uart_init</title>
<ellipse fill="none" stroke="black" cx="1056.15" cy="-666" rx="53.89" ry="18"/>
<text text-anchor="middle" x="1056.15" y="-662.3" font-family="Times New Roman,serif" font-size="14.00">ck_uart_init</text>
</g>
<!-- main&#45;&gt;ck_uart_init -->
<g id="edge5" class="edge">
<title>main&#45;&gt;ck_uart_init</title>
<path fill="none" stroke="black" d="M1056.15,-755.97C1056.15,-739.38 1056.15,-713.88 1056.15,-694.43"/>
<polygon fill="black" stroke="black" points="1059.65,-694.34 1056.15,-684.34 1052.65,-694.34 1059.65,-694.34"/>
</g>
<!-- puts -->
<g id="node10" class="node">
<title>puts</title>
<ellipse fill="none" stroke="black" cx="1173.15" cy="-666" rx="27" ry="18"/>
<text text-anchor="middle" x="1173.15" y="-662.3" font-family="Times New Roman,serif" font-size="14.00">puts</text>
</g>
<!-- main&#45;&gt;puts -->
<g id="edge6" class="edge">
<title>main&#45;&gt;puts</title>
<path fill="none" stroke="black" d="M1071.93,-758.7C1092.01,-740.51 1126.87,-708.92 1149.98,-687.99"/>
<polygon fill="black" stroke="black" points="1152.56,-690.38 1157.62,-681.07 1147.86,-685.19 1152.56,-690.38"/>
</g>
<!-- ck_uart_open -->
<g id="node11" class="node">
<title>ck_uart_open</title>
<ellipse fill="none" stroke="black" cx="1297.15" cy="-666" rx="61.19" ry="18"/>
<text text-anchor="middle" x="1297.15" y="-662.3" font-family="Times New Roman,serif" font-size="14.00">ck_uart_open</text>
</g>
<!-- main&#45;&gt;ck_uart_open -->
<g id="edge8" class="edge">
<title>main&#45;&gt;ck_uart_open</title>
<path fill="none" stroke="black" d="M1078.82,-763.03C1119.11,-745.31 1203.75,-708.08 1255,-685.54"/>
<polygon fill="black" stroke="black" points="1256.73,-688.6 1264.47,-681.37 1253.91,-682.19 1256.73,-688.6"/>
</g>
<!-- duffcopy -->
<g id="node4" class="node">
<title>duffcopy</title>
<ellipse fill="none" stroke="black" cx="727.15" cy="-558" rx="44.39" ry="18"/>
<text text-anchor="middle" x="727.15" y="-554.3" font-family="Times New Roman,serif" font-size="14.00">duffcopy</text>
</g>
<!-- benchmark&#45;&gt;duffcopy -->
<g id="edge2" class="edge">
<title>benchmark&#45;&gt;duffcopy</title>
<path fill="none" stroke="black" d="M727.15,-647.97C727.15,-631.38 727.15,-605.88 727.15,-586.43"/>
<polygon fill="black" stroke="black" points="730.65,-586.34 727.15,-576.34 723.65,-586.34 730.65,-586.34"/>
</g>
<!-- printf -->
<g id="node6" class="node">
<title>printf</title>
<ellipse fill="none" stroke="black" cx="864.15" cy="-558" rx="30.59" ry="18"/>
<text text-anchor="middle" x="864.15" y="-554.3" font-family="Times New Roman,serif" font-size="14.00">printf</text>
</g>
<!-- verify_benchmark&#45;&gt;printf -->
<g id="edge3" class="edge">
<title>verify_benchmark&#45;&gt;printf</title>
<path fill="none" stroke="black" d="M885.97,-647.97C881.86,-631.2 875.51,-605.34 870.72,-585.81"/>
<polygon fill="black" stroke="black" points="874.09,-584.87 868.31,-575.99 867.3,-586.53 874.09,-584.87"/>
</g>
<!-- _vsnprintf -->
<g id="node32" class="node">
<title>_vsnprintf</title>
<ellipse fill="none" stroke="black" cx="864.15" cy="-450" rx="48.19" ry="18"/>
<text text-anchor="middle" x="864.15" y="-446.3" font-family="Times New Roman,serif" font-size="14.00">_vsnprintf</text>
</g>
<!-- printf&#45;&gt;_vsnprintf -->
<g id="edge43" class="edge">
<title>printf&#45;&gt;_vsnprintf</title>
<path fill="none" stroke="black" d="M864.15,-539.97C864.15,-523.38 864.15,-497.88 864.15,-478.43"/>
<polygon fill="black" stroke="black" points="867.65,-478.34 864.15,-468.34 860.65,-478.34 867.65,-478.34"/>
</g>
<!-- fputc -->
<g id="node7" class="node">
<title>fputc</title>
<ellipse fill="none" stroke="black" cx="1373.15" cy="-558" rx="29.8" ry="18"/>
<text text-anchor="middle" x="1373.15" y="-554.3" font-family="Times New Roman,serif" font-size="14.00">fputc</text>
</g>
<!-- &lt;ck_uart_putc&gt; * -->
<g id="node8" class="node">
<title>&lt;ck_uart_putc&gt; *</title>
<ellipse fill="none" stroke="black" cx="1373.15" cy="-450" rx="76.89" ry="18"/>
<text text-anchor="middle" x="1373.15" y="-446.3" font-family="Times New Roman,serif" font-size="14.00">&lt;ck_uart_putc&gt; *</text>
</g>
<!-- fputc&#45;&gt;&lt;ck_uart_putc&gt; * -->
<g id="edge4" class="edge">
<title>fputc&#45;&gt;&lt;ck_uart_putc&gt; *</title>
<path fill="none" stroke="black" d="M1373.15,-539.97C1373.15,-523.38 1373.15,-497.88 1373.15,-478.43"/>
<polygon fill="black" stroke="black" points="1376.65,-478.34 1373.15,-468.34 1369.65,-478.34 1376.65,-478.34"/>
</g>
<!-- ck_uart_set_parity -->
<g id="node33" class="node">
<title>ck_uart_set_parity</title>
<ellipse fill="none" stroke="black" cx="1228.15" cy="-558" rx="78.79" ry="18"/>
<text text-anchor="middle" x="1228.15" y="-554.3" font-family="Times New Roman,serif" font-size="14.00">ck_uart_set_parity</text>
</g>
<!-- ck_uart_init&#45;&gt;ck_uart_set_parity -->
<g id="edge44" class="edge">
<title>ck_uart_init&#45;&gt;ck_uart_set_parity</title>
<path fill="none" stroke="black" d="M1080.79,-649.81C1110.38,-631.58 1160.19,-600.88 1193.6,-580.29"/>
<polygon fill="black" stroke="black" points="1195.46,-583.25 1202.14,-575.03 1191.79,-577.29 1195.46,-583.25"/>
</g>
<!-- ck_uart_set_wordsize -->
<g id="node34" class="node">
<title>ck_uart_set_wordsize</title>
<ellipse fill="none" stroke="black" cx="1022.15" cy="-558" rx="90.98" ry="18"/>
<text text-anchor="middle" x="1022.15" y="-554.3" font-family="Times New Roman,serif" font-size="14.00">ck_uart_set_wordsize</text>
</g>
<!-- ck_uart_init&#45;&gt;ck_uart_set_wordsize -->
<g id="edge45" class="edge">
<title>ck_uart_init&#45;&gt;ck_uart_set_wordsize</title>
<path fill="none" stroke="black" d="M1050.68,-647.97C1045.28,-631.12 1036.93,-605.1 1030.66,-585.54"/>
<polygon fill="black" stroke="black" points="1033.98,-584.44 1027.6,-575.99 1027.32,-586.58 1033.98,-584.44"/>
</g>
<!-- puts&#45;&gt;fputc -->
<g id="edge42" class="edge">
<title>puts&#45;&gt;fputc</title>
<path fill="none" stroke="black" d="M1193.8,-654.06C1229.07,-635.36 1301.12,-597.17 1342.36,-575.32"/>
<polygon fill="black" stroke="black" points="1344.2,-578.3 1351.4,-570.53 1340.92,-572.12 1344.2,-578.3"/>
</g>
<!-- _ntoa_format -->
<g id="node12" class="node">
<title>_ntoa_format</title>
<ellipse fill="none" stroke="black" cx="1450.15" cy="-126" rx="59.59" ry="18"/>
<text text-anchor="middle" x="1450.15" y="-122.3" font-family="Times New Roman,serif" font-size="14.00">_ntoa_format</text>
</g>
<!-- _out_rev -->
<g id="node13" class="node">
<title>_out_rev</title>
<ellipse fill="none" stroke="black" cx="1202.15" cy="-18" rx="43.59" ry="18"/>
<text text-anchor="middle" x="1202.15" y="-14.3" font-family="Times New Roman,serif" font-size="14.00">_out_rev</text>
</g>
<!-- _ntoa_format&#45;&gt;_out_rev -->
<g id="edge10" class="edge">
<title>_ntoa_format&#45;&gt;_out_rev</title>
<path fill="none" stroke="black" d="M1417.21,-110.92C1371.51,-91.39 1289.02,-56.13 1240.56,-35.42"/>
<polygon fill="black" stroke="black" points="1241.92,-32.19 1231.35,-31.48 1239.17,-38.63 1241.92,-32.19"/>
</g>
<!-- &lt;_out_rev&gt; * -->
<g id="node14" class="node">
<title>&lt;_out_rev&gt; *</title>
<ellipse fill="none" stroke="black" cx="1450.15" cy="-18" rx="61.19" ry="18"/>
<text text-anchor="middle" x="1450.15" y="-14.3" font-family="Times New Roman,serif" font-size="14.00">&lt;_out_rev&gt; *</text>
</g>
<!-- _ntoa_format&#45;&gt;&lt;_out_rev&gt; * -->
<g id="edge11" class="edge">
<title>_ntoa_format&#45;&gt;&lt;_out_rev&gt; *</title>
<path fill="none" stroke="black" d="M1450.15,-107.97C1450.15,-91.38 1450.15,-65.88 1450.15,-46.43"/>
<polygon fill="black" stroke="black" points="1453.65,-46.34 1450.15,-36.34 1446.65,-46.34 1453.65,-46.34"/>
</g>
<!-- _ntoa_long -->
<g id="node15" class="node">
<title>_ntoa_long</title>
<ellipse fill="none" stroke="black" cx="1002.15" cy="-234" rx="51.99" ry="18"/>
<text text-anchor="middle" x="1002.15" y="-230.3" font-family="Times New Roman,serif" font-size="14.00">_ntoa_long</text>
</g>
<!-- _ntoa_long&#45;&gt;_ntoa_format -->
<g id="edge12" class="edge">
<title>_ntoa_long&#45;&gt;_ntoa_format</title>
<path fill="none" stroke="black" d="M1043.89,-223.12C1125.02,-203.93 1303.97,-161.59 1394.86,-140.08"/>
<polygon fill="black" stroke="black" points="1395.77,-143.46 1404.7,-137.75 1394.16,-136.65 1395.77,-143.46"/>
</g>
<!-- _ntoa_long_long -->
<g id="node16" class="node">
<title>_ntoa_long_long</title>
<ellipse fill="none" stroke="black" cx="1156.15" cy="-342" rx="72.29" ry="18"/>
<text text-anchor="middle" x="1156.15" y="-338.3" font-family="Times New Roman,serif" font-size="14.00">_ntoa_long_long</text>
</g>
<!-- _ntoa_long_long&#45;&gt;_ntoa_format -->
<g id="edge14" class="edge">
<title>_ntoa_long_long&#45;&gt;_ntoa_format</title>
<path fill="none" stroke="black" d="M1153.88,-323.75C1151.43,-297.28 1150.86,-246.51 1177.15,-216 1191.84,-198.94 1321.72,-161.64 1396.92,-141.16"/>
<polygon fill="black" stroke="black" points="1397.97,-144.5 1406.7,-138.51 1396.14,-137.75 1397.97,-144.5"/>
</g>
<!-- __udivdi3 -->
<g id="node17" class="node">
<title>__udivdi3</title>
<ellipse fill="none" stroke="black" cx="1384.15" cy="-234" rx="47.39" ry="18"/>
<text text-anchor="middle" x="1384.15" y="-230.3" font-family="Times New Roman,serif" font-size="14.00">__udivdi3</text>
</g>
<!-- _ntoa_long_long&#45;&gt;__udivdi3 -->
<g id="edge13" class="edge">
<title>_ntoa_long_long&#45;&gt;__udivdi3</title>
<path fill="none" stroke="black" d="M1188.81,-325.81C1230.34,-306.51 1301.91,-273.23 1345.93,-252.77"/>
<polygon fill="black" stroke="black" points="1347.56,-255.87 1355.15,-248.48 1344.61,-249.52 1347.56,-255.87"/>
</g>
<!-- __umoddi3 -->
<g id="node18" class="node">
<title>__umoddi3</title>
<ellipse fill="none" stroke="black" cx="1248.15" cy="-234" rx="52.79" ry="18"/>
<text text-anchor="middle" x="1248.15" y="-230.3" font-family="Times New Roman,serif" font-size="14.00">__umoddi3</text>
</g>
<!-- _ntoa_long_long&#45;&gt;__umoddi3 -->
<g id="edge15" class="edge">
<title>_ntoa_long_long&#45;&gt;__umoddi3</title>
<path fill="none" stroke="black" d="M1170.93,-323.97C1186.11,-306.48 1209.87,-279.1 1227.03,-259.33"/>
<polygon fill="black" stroke="black" points="1229.79,-261.49 1233.7,-251.64 1224.51,-256.9 1229.79,-261.49"/>
</g>
<!-- _etoa -->
<g id="node19" class="node">
<title>_etoa</title>
<ellipse fill="none" stroke="black" cx="651.15" cy="-342" rx="30.59" ry="18"/>
<text text-anchor="middle" x="651.15" y="-338.3" font-family="Times New Roman,serif" font-size="14.00">_etoa</text>
</g>
<!-- _etoa&#45;&gt;_ntoa_long -->
<g id="edge25" class="edge">
<title>_etoa&#45;&gt;_ntoa_long</title>
<path fill="none" stroke="black" d="M677.82,-332.95C736.99,-315.07 879.94,-271.9 954.74,-249.32"/>
<polygon fill="black" stroke="black" points="955.82,-252.65 964.38,-246.4 953.8,-245.94 955.82,-252.65"/>
</g>
<!-- __eqdf2 -->
<g id="node20" class="node">
<title>__eqdf2</title>
<ellipse fill="none" stroke="black" cx="327.15" cy="-126" rx="41.69" ry="18"/>
<text text-anchor="middle" x="327.15" y="-122.3" font-family="Times New Roman,serif" font-size="14.00">__eqdf2</text>
</g>
<!-- _etoa&#45;&gt;__eqdf2 -->
<g id="edge16" class="edge">
<title>_etoa&#45;&gt;__eqdf2</title>
<path fill="none" stroke="black" d="M631.37,-327.94C576.78,-291.88 423.72,-190.78 357.88,-147.3"/>
<polygon fill="black" stroke="black" points="359.47,-144.15 349.19,-141.56 355.61,-149.99 359.47,-144.15"/>
</g>
<!-- __ledf2 -->
<g id="node21" class="node">
<title>__ledf2</title>
<ellipse fill="none" stroke="black" cx="1316.15" cy="-126" rx="38.19" ry="18"/>
<text text-anchor="middle" x="1316.15" y="-122.3" font-family="Times New Roman,serif" font-size="14.00">__ledf2</text>
</g>
<!-- _etoa&#45;&gt;__ledf2 -->
<g id="edge17" class="edge">
<title>_etoa&#45;&gt;__ledf2</title>
<path fill="none" stroke="black" d="M675.67,-331.01C714.76,-314.97 793.49,-282.21 859.15,-252 892.01,-236.88 898.01,-227.97 932.15,-216 1072.99,-166.63 1115.74,-181.71 1260.15,-144 1265.12,-142.7 1270.31,-141.25 1275.44,-139.76"/>
<polygon fill="black" stroke="black" points="1276.58,-143.08 1285.17,-136.88 1274.58,-136.37 1276.58,-143.08"/>
</g>
<!-- __subdf3 -->
<g id="node22" class="node">
<title>__subdf3</title>
<ellipse fill="none" stroke="black" cx="1196.15" cy="-126" rx="46.29" ry="18"/>
<text text-anchor="middle" x="1196.15" y="-122.3" font-family="Times New Roman,serif" font-size="14.00">__subdf3</text>
</g>
<!-- _etoa&#45;&gt;__subdf3 -->
<g id="edge18" class="edge">
<title>_etoa&#45;&gt;__subdf3</title>
<path fill="none" stroke="black" d="M670.21,-327.66C706.81,-302.58 790.15,-248.05 867.15,-216 918.05,-194.81 1069.23,-157.3 1147.68,-138.46"/>
<polygon fill="black" stroke="black" points="1148.88,-141.78 1157.79,-136.04 1147.25,-134.97 1148.88,-141.78"/>
</g>
<!-- __floatsidf -->
<g id="node23" class="node">
<title>__floatsidf</title>
<ellipse fill="none" stroke="black" cx="199.15" cy="-126" rx="50.09" ry="18"/>
<text text-anchor="middle" x="199.15" y="-122.3" font-family="Times New Roman,serif" font-size="14.00">__floatsidf</text>
</g>
<!-- _etoa&#45;&gt;__floatsidf -->
<g id="edge19" class="edge">
<title>_etoa&#45;&gt;__floatsidf</title>
<path fill="none" stroke="black" d="M628.02,-330.23C592.22,-313.55 521.25,-280.41 461.15,-252 381.53,-214.36 288.53,-169.87 237.52,-145.41"/>
<polygon fill="black" stroke="black" points="238.72,-142.11 228.19,-140.94 235.7,-148.42 238.72,-142.11"/>
</g>
<!-- __fixdfsi -->
<g id="node24" class="node">
<title>__fixdfsi</title>
<ellipse fill="none" stroke="black" cx="577.15" cy="-126" rx="43.59" ry="18"/>
<text text-anchor="middle" x="577.15" y="-122.3" font-family="Times New Roman,serif" font-size="14.00">__fixdfsi</text>
</g>
<!-- _etoa&#45;&gt;__fixdfsi -->
<g id="edge20" class="edge">
<title>_etoa&#45;&gt;__fixdfsi</title>
<path fill="none" stroke="black" d="M645.34,-324.21C632.54,-287.19 601.8,-198.3 586.35,-153.6"/>
<polygon fill="black" stroke="black" points="589.6,-152.32 583.03,-144.01 582.99,-154.61 589.6,-152.32"/>
</g>
<!-- _ftoa -->
<g id="node25" class="node">
<title>_ftoa</title>
<ellipse fill="none" stroke="black" cx="736.15" cy="-234" rx="29.8" ry="18"/>
<text text-anchor="middle" x="736.15" y="-230.3" font-family="Times New Roman,serif" font-size="14.00">_ftoa</text>
</g>
<!-- _etoa&#45;&gt;_ftoa -->
<g id="edge21" class="edge">
<title>_etoa&#45;&gt;_ftoa</title>
<path fill="none" stroke="black" d="M654.57,-323.97C665.49,-305.18 689.5,-274.98 709.21,-255.06"/>
<polygon fill="black" stroke="black" points="711.77,-257.45 716.51,-247.98 706.9,-252.43 711.77,-257.45"/>
</g>
<!-- __muldf3 -->
<g id="node26" class="node">
<title>__muldf3</title>
<ellipse fill="none" stroke="black" cx="451.15" cy="-126" rx="46.29" ry="18"/>
<text text-anchor="middle" x="451.15" y="-122.3" font-family="Times New Roman,serif" font-size="14.00">__muldf3</text>
</g>
<!-- _etoa&#45;&gt;__muldf3 -->
<g id="edge22" class="edge">
<title>_etoa&#45;&gt;__muldf3</title>
<path fill="none" stroke="black" d="M637.08,-325.95C602.78,-289.24 514.58,-194.88 473.2,-150.6"/>
<polygon fill="black" stroke="black" points="475.66,-148.11 466.28,-143.19 470.55,-152.89 475.66,-148.11"/>
</g>
<!-- __gedf2 -->
<g id="node27" class="node">
<title>__gedf2</title>
<ellipse fill="none" stroke="black" cx="697.15" cy="-126" rx="40.89" ry="18"/>
<text text-anchor="middle" x="697.15" y="-122.3" font-family="Times New Roman,serif" font-size="14.00">__gedf2</text>
</g>
<!-- _etoa&#45;&gt;__gedf2 -->
<g id="edge23" class="edge">
<title>_etoa&#45;&gt;__gedf2</title>
<path fill="none" stroke="black" d="M654.83,-323.85C662.83,-286.66 681.8,-198.37 691.39,-153.77"/>
<polygon fill="black" stroke="black" points="694.83,-154.45 693.51,-143.94 687.98,-152.98 694.83,-154.45"/>
</g>
<!-- __adddf3 -->
<g id="node28" class="node">
<title>__adddf3</title>
<ellipse fill="none" stroke="black" cx="46.15" cy="-234" rx="46.29" ry="18"/>
<text text-anchor="middle" x="46.15" y="-230.3" font-family="Times New Roman,serif" font-size="14.00">__adddf3</text>
</g>
<!-- _etoa&#45;&gt;__adddf3 -->
<g id="edge24" class="edge">
<title>_etoa&#45;&gt;__adddf3</title>
<path fill="none" stroke="black" d="M621.59,-336.96C540.26,-325.65 306.38,-291.89 114.15,-252 107.34,-250.59 100.19,-248.96 93.18,-247.28"/>
<polygon fill="black" stroke="black" points="93.62,-243.79 83.08,-244.81 91.96,-250.59 93.62,-243.79"/>
</g>
<!-- __divdf3 -->
<g id="node29" class="node">
<title>__divdf3</title>
<ellipse fill="none" stroke="black" cx="176.15" cy="-234" rx="44.39" ry="18"/>
<text text-anchor="middle" x="176.15" y="-230.3" font-family="Times New Roman,serif" font-size="14.00">__divdf3</text>
</g>
<!-- _etoa&#45;&gt;__divdf3 -->
<g id="edge26" class="edge">
<title>_etoa&#45;&gt;__divdf3</title>
<path fill="none" stroke="black" d="M622.85,-334.85C557.17,-320.54 389.26,-283.82 249.15,-252 240.85,-250.11 232.02,-248.08 223.48,-246.1"/>
<polygon fill="black" stroke="black" points="224.17,-242.67 213.64,-243.81 222.59,-249.49 224.17,-242.67"/>
</g>
<!-- __clzsi2 -->
<g id="node35" class="node">
<title>__clzsi2</title>
<ellipse fill="none" stroke="black" cx="325.15" cy="-18" rx="40.89" ry="18"/>
<text text-anchor="middle" x="325.15" y="-14.3" font-family="Times New Roman,serif" font-size="14.00">__clzsi2</text>
</g>
<!-- __subdf3&#45;&gt;__clzsi2 -->
<g id="edge49" class="edge">
<title>__subdf3&#45;&gt;__clzsi2</title>
<path fill="none" stroke="black" d="M1152.95,-119.66C1125.75,-116.3 1089.89,-111.88 1058.15,-108 800.62,-76.5 492.14,-39.18 374.23,-24.93"/>
<polygon fill="black" stroke="black" points="374.43,-21.43 364.09,-23.7 373.59,-28.38 374.43,-21.43"/>
</g>
<!-- __floatsidf&#45;&gt;__clzsi2 -->
<g id="edge50" class="edge">
<title>__floatsidf&#45;&gt;__clzsi2</title>
<path fill="none" stroke="black" d="M218.01,-109.13C239.6,-90.97 275.08,-61.12 299.25,-40.79"/>
<polygon fill="black" stroke="black" points="301.57,-43.4 306.97,-34.29 297.07,-38.05 301.57,-43.4"/>
</g>
<!-- _ftoa&#45;&gt;_out_rev -->
<g id="edge32" class="edge">
<title>_ftoa&#45;&gt;_out_rev</title>
<path fill="none" stroke="black" d="M762.21,-225.08C771.91,-222.17 783.02,-218.89 793.15,-216 910.52,-182.56 950.46,-201.45 1058.15,-144 1107.8,-117.51 1155.02,-71.07 1181.13,-42.87"/>
<polygon fill="black" stroke="black" points="1183.76,-45.17 1187.92,-35.43 1178.59,-40.45 1183.76,-45.17"/>
</g>
<!-- _ftoa&#45;&gt;_etoa -->
<g id="edge37" class="edge">
<title>_ftoa&#45;&gt;_etoa</title>
<path fill="none" stroke="black" d="M732.76,-251.96C721.87,-270.73 697.84,-300.96 678.11,-320.91"/>
<polygon fill="black" stroke="black" points="675.54,-318.53 670.8,-328 680.41,-323.55 675.54,-318.53"/>
</g>
<!-- _ftoa&#45;&gt;__eqdf2 -->
<g id="edge27" class="edge">
<title>_ftoa&#45;&gt;__eqdf2</title>
<path fill="none" stroke="black" d="M708.93,-226.32C650.09,-211.82 506.7,-176.17 387.15,-144 381.79,-142.56 376.17,-141.01 370.61,-139.46"/>
<polygon fill="black" stroke="black" points="371.31,-136.02 360.74,-136.69 369.42,-142.76 371.31,-136.02"/>
</g>
<!-- _ftoa&#45;&gt;__ledf2 -->
<g id="edge28" class="edge">
<title>_ftoa&#45;&gt;__ledf2</title>
<path fill="none" stroke="black" d="M765.09,-229.39C844.72,-219.19 1073.56,-187.98 1260.15,-144 1265.21,-142.81 1270.48,-141.41 1275.69,-139.94"/>
<polygon fill="black" stroke="black" points="1276.91,-143.23 1285.53,-137.06 1274.95,-136.51 1276.91,-143.23"/>
</g>
<!-- _ftoa&#45;&gt;__subdf3 -->
<g id="edge29" class="edge">
<title>_ftoa&#45;&gt;__subdf3</title>
<path fill="none" stroke="black" d="M762.14,-224.8C771.83,-221.86 782.95,-218.63 793.15,-216 938.51,-178.52 976.71,-177.02 1123.15,-144 1131.09,-142.21 1139.51,-140.28 1147.7,-138.38"/>
<polygon fill="black" stroke="black" points="1148.58,-141.77 1157.53,-136.1 1146.99,-134.95 1148.58,-141.77"/>
</g>
<!-- _ftoa&#45;&gt;__floatsidf -->
<g id="edge31" class="edge">
<title>_ftoa&#45;&gt;__floatsidf</title>
<path fill="none" stroke="black" d="M707.75,-228.2C634.5,-215.68 433.29,-180.5 267.15,-144 261.06,-142.66 254.69,-141.18 248.39,-139.67"/>
<polygon fill="black" stroke="black" points="249.15,-136.25 238.61,-137.27 247.49,-143.05 249.15,-136.25"/>
</g>
<!-- _ftoa&#45;&gt;__fixdfsi -->
<g id="edge33" class="edge">
<title>_ftoa&#45;&gt;__fixdfsi</title>
<path fill="none" stroke="black" d="M716.65,-220C689.44,-201.86 639.8,-168.77 607.66,-147.35"/>
<polygon fill="black" stroke="black" points="609.36,-144.27 599.1,-141.63 605.48,-150.09 609.36,-144.27"/>
</g>
<!-- _ftoa&#45;&gt;__muldf3 -->
<g id="edge34" class="edge">
<title>_ftoa&#45;&gt;__muldf3</title>
<path fill="none" stroke="black" d="M711.35,-223.78C662.48,-205.6 553.21,-164.96 492.98,-142.56"/>
<polygon fill="black" stroke="black" points="493.99,-139.2 483.4,-139 491.55,-145.76 493.99,-139.2"/>
</g>
<!-- _ftoa&#45;&gt;__gedf2 -->
<g id="edge35" class="edge">
<title>_ftoa&#45;&gt;__gedf2</title>
<path fill="none" stroke="black" d="M729.88,-215.97C723.68,-199.12 714.11,-173.1 706.91,-153.54"/>
<polygon fill="black" stroke="black" points="710.13,-152.16 703.4,-143.99 703.56,-154.58 710.13,-152.16"/>
</g>
<!-- __floatunsidf -->
<g id="node30" class="node">
<title>__floatunsidf</title>
<ellipse fill="none" stroke="black" cx="981.15" cy="-126" rx="59.29" ry="18"/>
<text text-anchor="middle" x="981.15" y="-122.3" font-family="Times New Roman,serif" font-size="14.00">__floatunsidf</text>
</g>
<!-- _ftoa&#45;&gt;__floatunsidf -->
<g id="edge30" class="edge">
<title>_ftoa&#45;&gt;__floatunsidf</title>
<path fill="none" stroke="black" d="M759.64,-222.84C801.02,-204.93 887.42,-167.55 939.23,-145.13"/>
<polygon fill="black" stroke="black" points="940.7,-148.31 948.49,-141.13 937.92,-141.89 940.7,-148.31"/>
</g>
<!-- __fixunsdfsi -->
<g id="node31" class="node">
<title>__fixunsdfsi</title>
<ellipse fill="none" stroke="black" cx="830.15" cy="-126" rx="55.79" ry="18"/>
<text text-anchor="middle" x="830.15" y="-122.3" font-family="Times New Roman,serif" font-size="14.00">__fixunsdfsi</text>
</g>
<!-- _ftoa&#45;&gt;__fixunsdfsi -->
<g id="edge36" class="edge">
<title>_ftoa&#45;&gt;__fixunsdfsi</title>
<path fill="none" stroke="black" d="M749.61,-217.81C765.03,-200.43 790.49,-171.72 808.66,-151.23"/>
<polygon fill="black" stroke="black" points="811.45,-153.36 815.46,-143.56 806.21,-148.71 811.45,-153.36"/>
</g>
<!-- __muldf3&#45;&gt;__clzsi2 -->
<g id="edge48" class="edge">
<title>__muldf3&#45;&gt;__clzsi2</title>
<path fill="none" stroke="black" d="M432.55,-109.36C411.03,-91.25 375.43,-61.3 351.16,-40.89"/>
<polygon fill="black" stroke="black" points="353.31,-38.12 343.4,-34.36 348.8,-43.48 353.31,-38.12"/>
</g>
<!-- __adddf3&#45;&gt;__clzsi2 -->
<g id="edge46" class="edge">
<title>__adddf3&#45;&gt;__clzsi2</title>
<path fill="none" stroke="black" d="M51.56,-215.71C60.67,-189.2 81.45,-138.37 115.15,-108 162.41,-65.39 233.09,-41.2 279.16,-29.1"/>
<polygon fill="black" stroke="black" points="280.06,-32.49 288.89,-26.63 278.33,-25.7 280.06,-32.49"/>
</g>
<!-- __divdf3&#45;&gt;__clzsi2 -->
<g id="edge47" class="edge">
<title>__divdf3&#45;&gt;__clzsi2</title>
<path fill="none" stroke="black" d="M161.7,-216.97C141.14,-192.14 108.36,-143.53 131.15,-108 163.02,-58.31 230.35,-36 276.67,-26.23"/>
<polygon fill="black" stroke="black" points="277.37,-29.66 286.5,-24.28 276.01,-22.79 277.37,-29.66"/>
</g>
<!-- __floatunsidf&#45;&gt;__clzsi2 -->
<g id="edge51" class="edge">
<title>__floatunsidf&#45;&gt;__clzsi2</title>
<path fill="none" stroke="black" d="M935.64,-114.44C925.31,-112.19 914.37,-109.91 904.15,-108 708.63,-71.43 473.91,-38.79 374.01,-25.42"/>
<polygon fill="black" stroke="black" points="374.29,-21.93 363.92,-24.08 373.36,-28.87 374.29,-21.93"/>
</g>
<!-- _vsnprintf&#45;&gt;_ntoa_long -->
<g id="edge40" class="edge">
<title>_vsnprintf&#45;&gt;_ntoa_long</title>
<path fill="none" stroke="black" d="M874.97,-432.21C899.11,-394.78 957.42,-304.35 985.92,-260.16"/>
<polygon fill="black" stroke="black" points="988.89,-262.02 991.37,-251.71 983.01,-258.22 988.89,-262.02"/>
</g>
<!-- _vsnprintf&#45;&gt;_ntoa_long_long -->
<g id="edge41" class="edge">
<title>_vsnprintf&#45;&gt;_ntoa_long_long</title>
<path fill="none" stroke="black" d="M897.36,-436.94C948.76,-418.29 1047.84,-382.32 1107.38,-360.7"/>
<polygon fill="black" stroke="black" points="1108.73,-363.94 1116.94,-357.23 1106.34,-357.36 1108.73,-363.94"/>
</g>
<!-- _vsnprintf&#45;&gt;_etoa -->
<g id="edge38" class="edge">
<title>_vsnprintf&#45;&gt;_etoa</title>
<path fill="none" stroke="black" d="M836.3,-435.14C796.75,-415.46 724.52,-379.51 682.93,-358.82"/>
<polygon fill="black" stroke="black" points="684.31,-355.59 673.8,-354.27 681.19,-361.86 684.31,-355.59"/>
</g>
<!-- _vsnprintf&#45;&gt;_ftoa -->
<g id="edge39" class="edge">
<title>_vsnprintf&#45;&gt;_ftoa</title>
<path fill="none" stroke="black" d="M854.1,-432.21C831.65,-394.68 777.32,-303.84 750.97,-259.78"/>
<polygon fill="black" stroke="black" points="753.93,-257.91 745.79,-251.13 747.92,-261.51 753.93,-257.91"/>
</g>
</g>
</svg>
