<?xml version="1.0" encoding="UTF-8" standalone="no"?>
<!DOCTYPE svg PUBLIC "-//W3C//DTD SVG 1.1//EN"
 "http://www.w3.org/Graphics/SVG/1.1/DTD/svg11.dtd">
<!-- Generated by graphviz version 6.0.2 (20221011.1828)
 -->
<!-- Pages: 1 -->
<svg width="491pt" height="332pt"
 viewBox="0.00 0.00 490.69 332.00" xmlns="http://www.w3.org/2000/svg" xmlns:xlink="http://www.w3.org/1999/xlink">
<g id="graph0" class="graph" transform="scale(1 1) rotate(0) translate(4 328)">
<polygon fill="white" stroke="none" points="-4,4 -4,-328 486.69,-328 486.69,4 -4,4"/>
<!-- __to_main -->
<g id="node1" class="node">
<title>__to_main</title>
<ellipse fill="none" stroke="black" cx="203.69" cy="-306" rx="50.09" ry="18"/>
<text text-anchor="middle" x="203.69" y="-302.3" font-family="Times New Roman,serif" font-size="14.00">__to_main</text>
</g>
<!-- main -->
<g id="node2" class="node">
<title>main</title>
<ellipse fill="none" stroke="black" cx="203.69" cy="-234" rx="27.9" ry="18"/>
<text text-anchor="middle" x="203.69" y="-230.3" font-family="Times New Roman,serif" font-size="14.00">main</text>
</g>
<!-- __to_main&#45;&gt;main -->
<g id="edge1" class="edge">
<title>__to_main&#45;&gt;main</title>
<path fill="none" stroke="black" d="M203.69,-287.7C203.69,-279.98 203.69,-270.71 203.69,-262.11"/>
<polygon fill="black" stroke="black" points="207.19,-262.1 203.69,-252.1 200.19,-262.1 207.19,-262.1"/>
</g>
<!-- puts -->
<g id="node3" class="node">
<title>puts</title>
<ellipse fill="none" stroke="black" cx="90.69" cy="-162" rx="27" ry="18"/>
<text text-anchor="middle" x="90.69" y="-158.3" font-family="Times New Roman,serif" font-size="14.00">puts</text>
</g>
<!-- main&#45;&gt;puts -->
<g id="edge7" class="edge">
<title>main&#45;&gt;puts</title>
<path fill="none" stroke="black" d="M184.27,-220.97C166.13,-209.73 138.86,-192.84 118.43,-180.18"/>
<polygon fill="black" stroke="black" points="120.21,-177.17 109.87,-174.88 116.52,-183.12 120.21,-177.17"/>
</g>
<!-- ck_uart_init -->
<g id="node5" class="node">
<title>ck_uart_init</title>
<ellipse fill="none" stroke="black" cx="203.69" cy="-162" rx="53.89" ry="18"/>
<text text-anchor="middle" x="203.69" y="-158.3" font-family="Times New Roman,serif" font-size="14.00">ck_uart_init</text>
</g>
<!-- main&#45;&gt;ck_uart_init -->
<g id="edge6" class="edge">
<title>main&#45;&gt;ck_uart_init</title>
<path fill="none" stroke="black" d="M203.69,-215.7C203.69,-207.98 203.69,-198.71 203.69,-190.11"/>
<polygon fill="black" stroke="black" points="207.19,-190.1 203.69,-180.1 200.19,-190.1 207.19,-190.1"/>
</g>
<!-- ck_uart_open -->
<g id="node9" class="node">
<title>ck_uart_open</title>
<ellipse fill="none" stroke="black" cx="336.69" cy="-162" rx="61.19" ry="18"/>
<text text-anchor="middle" x="336.69" y="-158.3" font-family="Times New Roman,serif" font-size="14.00">ck_uart_open</text>
</g>
<!-- main&#45;&gt;ck_uart_open -->
<g id="edge8" class="edge">
<title>main&#45;&gt;ck_uart_open</title>
<path fill="none" stroke="black" d="M224.77,-221.91C244.77,-211.38 275.28,-195.32 299.4,-182.63"/>
<polygon fill="black" stroke="black" points="301.07,-185.7 308.29,-177.95 297.81,-179.51 301.07,-185.7"/>
</g>
<!-- fputc -->
<g id="node4" class="node">
<title>fputc</title>
<ellipse fill="none" stroke="black" cx="76.69" cy="-90" rx="29.8" ry="18"/>
<text text-anchor="middle" x="76.69" y="-86.3" font-family="Times New Roman,serif" font-size="14.00">fputc</text>
</g>
<!-- puts&#45;&gt;fputc -->
<g id="edge2" class="edge">
<title>puts&#45;&gt;fputc</title>
<path fill="none" stroke="black" d="M87.3,-144.05C85.76,-136.35 83.9,-127.03 82.17,-118.36"/>
<polygon fill="black" stroke="black" points="85.54,-117.39 80.15,-108.28 78.68,-118.77 85.54,-117.39"/>
</g>
<!-- &lt;ck_uart_putc&gt; * -->
<g id="node8" class="node">
<title>&lt;ck_uart_putc&gt; *</title>
<ellipse fill="none" stroke="black" cx="76.69" cy="-18" rx="76.89" ry="18"/>
<text text-anchor="middle" x="76.69" y="-14.3" font-family="Times New Roman,serif" font-size="14.00">&lt;ck_uart_putc&gt; *</text>
</g>
<!-- fputc&#45;&gt;&lt;ck_uart_putc&gt; * -->
<g id="edge5" class="edge">
<title>fputc&#45;&gt;&lt;ck_uart_putc&gt; *</title>
<path fill="none" stroke="black" d="M76.69,-71.7C76.69,-63.98 76.69,-54.71 76.69,-46.11"/>
<polygon fill="black" stroke="black" points="80.19,-46.1 76.69,-36.1 73.19,-46.1 80.19,-46.1"/>
</g>
<!-- ck_uart_set_parity -->
<g id="node6" class="node">
<title>ck_uart_set_parity</title>
<ellipse fill="none" stroke="black" cx="203.69" cy="-90" rx="78.79" ry="18"/>
<text text-anchor="middle" x="203.69" y="-86.3" font-family="Times New Roman,serif" font-size="14.00">ck_uart_set_parity</text>
</g>
<!-- ck_uart_init&#45;&gt;ck_uart_set_parity -->
<g id="edge3" class="edge">
<title>ck_uart_init&#45;&gt;ck_uart_set_parity</title>
<path fill="none" stroke="black" d="M203.69,-143.7C203.69,-135.98 203.69,-126.71 203.69,-118.11"/>
<polygon fill="black" stroke="black" points="207.19,-118.1 203.69,-108.1 200.19,-118.1 207.19,-118.1"/>
</g>
<!-- ck_uart_set_wordsize -->
<g id="node7" class="node">
<title>ck_uart_set_wordsize</title>
<ellipse fill="none" stroke="black" cx="391.69" cy="-90" rx="90.98" ry="18"/>
<text text-anchor="middle" x="391.69" y="-86.3" font-family="Times New Roman,serif" font-size="14.00">ck_uart_set_wordsize</text>
</g>
<!-- ck_uart_init&#45;&gt;ck_uart_set_wordsize -->
<g id="edge4" class="edge">
<title>ck_uart_init&#45;&gt;ck_uart_set_wordsize</title>
<path fill="none" stroke="black" d="M238.61,-148C267.48,-137.25 308.86,-121.84 341.31,-109.76"/>
<polygon fill="black" stroke="black" points="342.93,-112.89 351.08,-106.12 340.48,-106.33 342.93,-112.89"/>
</g>
</g>
</svg>
