<?xml version="1.0" encoding="UTF-8" standalone="no"?>
<!DOCTYPE svg PUBLIC "-//W3C//DTD SVG 1.1//EN"
 "http://www.w3.org/Graphics/SVG/1.1/DTD/svg11.dtd">
<!-- Generated by graphviz version 6.0.2 (20221011.1828)
 -->
<!-- Pages: 1 -->
<svg width="527pt" height="476pt"
 viewBox="0.00 0.00 526.69 476.00" xmlns="http://www.w3.org/2000/svg" xmlns:xlink="http://www.w3.org/1999/xlink">
<g id="graph0" class="graph" transform="scale(1 1) rotate(0) translate(4 472)">
<polygon fill="white" stroke="none" points="-4,4 -4,-472 522.69,-472 522.69,4 -4,4"/>
<!-- __to_main -->
<g id="node1" class="node">
<title>__to_main</title>
<ellipse fill="none" stroke="black" cx="296.99" cy="-450" rx="50.09" ry="18"/>
<text text-anchor="middle" x="296.99" y="-446.3" font-family="Times New Roman,serif" font-size="14.00">__to_main</text>
</g>
<!-- main -->
<g id="node2" class="node">
<title>main</title>
<ellipse fill="none" stroke="black" cx="296.99" cy="-342" rx="27.9" ry="18"/>
<text text-anchor="middle" x="296.99" y="-338.3" font-family="Times New Roman,serif" font-size="14.00">main</text>
</g>
<!-- __to_main&#45;&gt;main -->
<g id="edge1" class="edge">
<title>__to_main&#45;&gt;main</title>
<path fill="none" stroke="black" d="M296.99,-431.97C296.99,-415.38 296.99,-389.88 296.99,-370.43"/>
<polygon fill="black" stroke="black" points="300.49,-370.34 296.99,-360.34 293.49,-370.34 300.49,-370.34"/>
</g>
<!-- ck_uart_open -->
<g id="node5" class="node">
<title>ck_uart_open</title>
<ellipse fill="none" stroke="black" cx="145.99" cy="-234" rx="61.19" ry="18"/>
<text text-anchor="middle" x="145.99" y="-230.3" font-family="Times New Roman,serif" font-size="14.00">ck_uart_open</text>
</g>
<!-- main&#45;&gt;ck_uart_open -->
<g id="edge3" class="edge">
<title>main&#45;&gt;ck_uart_open</title>
<path fill="none" stroke="black" d="M278.78,-328.21C253.47,-310.45 207.32,-278.05 176.65,-256.52"/>
<polygon fill="black" stroke="black" points="178.64,-253.64 168.44,-250.76 174.62,-259.37 178.64,-253.64"/>
</g>
<!-- ck_uart_init -->
<g id="node6" class="node">
<title>ck_uart_init</title>
<ellipse fill="none" stroke="black" cx="296.99" cy="-234" rx="53.89" ry="18"/>
<text text-anchor="middle" x="296.99" y="-230.3" font-family="Times New Roman,serif" font-size="14.00">ck_uart_init</text>
</g>
<!-- main&#45;&gt;ck_uart_init -->
<g id="edge4" class="edge">
<title>main&#45;&gt;ck_uart_init</title>
<path fill="none" stroke="black" d="M296.99,-323.97C296.99,-307.38 296.99,-281.88 296.99,-262.43"/>
<polygon fill="black" stroke="black" points="300.49,-262.34 296.99,-252.34 293.49,-262.34 300.49,-262.34"/>
</g>
<!-- puts -->
<g id="node7" class="node">
<title>puts</title>
<ellipse fill="none" stroke="black" cx="427.99" cy="-234" rx="27" ry="18"/>
<text text-anchor="middle" x="427.99" y="-230.3" font-family="Times New Roman,serif" font-size="14.00">puts</text>
</g>
<!-- main&#45;&gt;puts -->
<g id="edge5" class="edge">
<title>main&#45;&gt;puts</title>
<path fill="none" stroke="black" d="M313.85,-327.36C336.55,-308.99 377.1,-276.18 403.25,-255.02"/>
<polygon fill="black" stroke="black" points="405.63,-257.6 411.2,-248.59 401.22,-252.16 405.63,-257.6"/>
</g>
<!-- fputc -->
<g id="node3" class="node">
<title>fputc</title>
<ellipse fill="none" stroke="black" cx="441.99" cy="-126" rx="29.8" ry="18"/>
<text text-anchor="middle" x="441.99" y="-122.3" font-family="Times New Roman,serif" font-size="14.00">fputc</text>
</g>
<!-- &lt;ck_uart_putc&gt; * -->
<g id="node4" class="node">
<title>&lt;ck_uart_putc&gt; *</title>
<ellipse fill="none" stroke="black" cx="441.99" cy="-18" rx="76.89" ry="18"/>
<text text-anchor="middle" x="441.99" y="-14.3" font-family="Times New Roman,serif" font-size="14.00">&lt;ck_uart_putc&gt; *</text>
</g>
<!-- fputc&#45;&gt;&lt;ck_uart_putc&gt; * -->
<g id="edge2" class="edge">
<title>fputc&#45;&gt;&lt;ck_uart_putc&gt; *</title>
<path fill="none" stroke="black" d="M441.99,-107.97C441.99,-91.38 441.99,-65.88 441.99,-46.43"/>
<polygon fill="black" stroke="black" points="445.49,-46.34 441.99,-36.34 438.49,-46.34 445.49,-46.34"/>
</g>
<!-- ck_uart_set_wordsize -->
<g id="node8" class="node">
<title>ck_uart_set_wordsize</title>
<ellipse fill="none" stroke="black" cx="90.99" cy="-126" rx="90.98" ry="18"/>
<text text-anchor="middle" x="90.99" y="-122.3" font-family="Times New Roman,serif" font-size="14.00">ck_uart_set_wordsize</text>
</g>
<!-- ck_uart_init&#45;&gt;ck_uart_set_wordsize -->
<g id="edge7" class="edge">
<title>ck_uart_init&#45;&gt;ck_uart_set_wordsize</title>
<path fill="none" stroke="black" d="M268.78,-218.48C233.2,-200.18 171.8,-168.58 131.29,-147.74"/>
<polygon fill="black" stroke="black" points="132.72,-144.54 122.23,-143.07 129.52,-150.76 132.72,-144.54"/>
</g>
<!-- ck_uart_set_parity -->
<g id="node9" class="node">
<title>ck_uart_set_parity</title>
<ellipse fill="none" stroke="black" cx="296.99" cy="-126" rx="78.79" ry="18"/>
<text text-anchor="middle" x="296.99" y="-122.3" font-family="Times New Roman,serif" font-size="14.00">ck_uart_set_parity</text>
</g>
<!-- ck_uart_init&#45;&gt;ck_uart_set_parity -->
<g id="edge8" class="edge">
<title>ck_uart_init&#45;&gt;ck_uart_set_parity</title>
<path fill="none" stroke="black" d="M296.99,-215.97C296.99,-199.38 296.99,-173.88 296.99,-154.43"/>
<polygon fill="black" stroke="black" points="300.49,-154.34 296.99,-144.34 293.49,-154.34 300.49,-154.34"/>
</g>
<!-- puts&#45;&gt;fputc -->
<g id="edge6" class="edge">
<title>puts&#45;&gt;fputc</title>
<path fill="none" stroke="black" d="M430.24,-215.97C432.45,-199.28 435.84,-173.58 438.41,-154.08"/>
<polygon fill="black" stroke="black" points="441.91,-154.36 439.75,-143.99 434.97,-153.44 441.91,-154.36"/>
</g>
</g>
</svg>
