<?xml version="1.0" encoding="UTF-8" standalone="no"?>
<!DOCTYPE svg PUBLIC "-//W3C//DTD SVG 1.1//EN"
 "http://www.w3.org/Graphics/SVG/1.1/DTD/svg11.dtd">
<!-- Generated by graphviz version 6.0.2 (20221011.1828)
 -->
<!-- Pages: 1 -->
<svg width="526pt" height="476pt"
 viewBox="0.00 0.00 526.34 476.00" xmlns="http://www.w3.org/2000/svg" xmlns:xlink="http://www.w3.org/1999/xlink">
<g id="graph0" class="graph" transform="scale(1 1) rotate(0) translate(4 472)">
<polygon fill="white" stroke="none" points="-4,4 -4,-472 522.34,-472 522.34,4 -4,4"/>
<!-- __to_main -->
<g id="node1" class="node">
<title>__to_main</title>
<ellipse fill="none" stroke="black" cx="284.64" cy="-450" rx="50.09" ry="18"/>
<text text-anchor="middle" x="284.64" y="-446.3" font-family="Times New Roman,serif" font-size="14.00">__to_main</text>
</g>
<!-- main -->
<g id="node2" class="node">
<title>main</title>
<ellipse fill="none" stroke="black" cx="284.64" cy="-342" rx="27.9" ry="18"/>
<text text-anchor="middle" x="284.64" y="-338.3" font-family="Times New Roman,serif" font-size="14.00">main</text>
</g>
<!-- __to_main&#45;&gt;main -->
<g id="edge1" class="edge">
<title>__to_main&#45;&gt;main</title>
<path fill="none" stroke="black" d="M284.64,-431.97C284.64,-415.38 284.64,-389.88 284.64,-370.43"/>
<polygon fill="black" stroke="black" points="288.14,-370.34 284.64,-360.34 281.14,-370.34 288.14,-370.34"/>
</g>
<!-- ck_uart_open -->
<g id="node5" class="node">
<title>ck_uart_open</title>
<ellipse fill="none" stroke="black" cx="133.64" cy="-234" rx="61.19" ry="18"/>
<text text-anchor="middle" x="133.64" y="-230.3" font-family="Times New Roman,serif" font-size="14.00">ck_uart_open</text>
</g>
<!-- main&#45;&gt;ck_uart_open -->
<g id="edge3" class="edge">
<title>main&#45;&gt;ck_uart_open</title>
<path fill="none" stroke="black" d="M266.43,-328.21C241.12,-310.45 194.97,-278.05 164.31,-256.52"/>
<polygon fill="black" stroke="black" points="166.29,-253.64 156.1,-250.76 162.27,-259.37 166.29,-253.64"/>
</g>
<!-- ck_uart_init -->
<g id="node6" class="node">
<title>ck_uart_init</title>
<ellipse fill="none" stroke="black" cx="284.64" cy="-234" rx="53.89" ry="18"/>
<text text-anchor="middle" x="284.64" y="-230.3" font-family="Times New Roman,serif" font-size="14.00">ck_uart_init</text>
</g>
<!-- main&#45;&gt;ck_uart_init -->
<g id="edge4" class="edge">
<title>main&#45;&gt;ck_uart_init</title>
<path fill="none" stroke="black" d="M284.64,-323.97C284.64,-307.38 284.64,-281.88 284.64,-262.43"/>
<polygon fill="black" stroke="black" points="288.14,-262.34 284.64,-252.34 281.14,-262.34 288.14,-262.34"/>
</g>
<!-- puts -->
<g id="node7" class="node">
<title>puts</title>
<ellipse fill="none" stroke="black" cx="421.64" cy="-234" rx="27" ry="18"/>
<text text-anchor="middle" x="421.64" y="-230.3" font-family="Times New Roman,serif" font-size="14.00">puts</text>
</g>
<!-- main&#45;&gt;puts -->
<g id="edge5" class="edge">
<title>main&#45;&gt;puts</title>
<path fill="none" stroke="black" d="M301.99,-327.58C325.88,-309.1 369.03,-275.71 396.46,-254.48"/>
<polygon fill="black" stroke="black" points="398.67,-257.2 404.43,-248.32 394.38,-251.67 398.67,-257.2"/>
</g>
<!-- fputc -->
<g id="node3" class="node">
<title>fputc</title>
<ellipse fill="none" stroke="black" cx="441.64" cy="-126" rx="29.8" ry="18"/>
<text text-anchor="middle" x="441.64" y="-122.3" font-family="Times New Roman,serif" font-size="14.00">fputc</text>
</g>
<!-- &lt;ck_uart_putc&gt; * -->
<g id="node4" class="node">
<title>&lt;ck_uart_putc&gt; *</title>
<ellipse fill="none" stroke="black" cx="441.64" cy="-18" rx="76.89" ry="18"/>
<text text-anchor="middle" x="441.64" y="-14.3" font-family="Times New Roman,serif" font-size="14.00">&lt;ck_uart_putc&gt; *</text>
</g>
<!-- fputc&#45;&gt;&lt;ck_uart_putc&gt; * -->
<g id="edge2" class="edge">
<title>fputc&#45;&gt;&lt;ck_uart_putc&gt; *</title>
<path fill="none" stroke="black" d="M441.64,-107.97C441.64,-91.38 441.64,-65.88 441.64,-46.43"/>
<polygon fill="black" stroke="black" points="445.14,-46.34 441.64,-36.34 438.14,-46.34 445.14,-46.34"/>
</g>
<!-- ck_uart_set_parity -->
<g id="node8" class="node">
<title>ck_uart_set_parity</title>
<ellipse fill="none" stroke="black" cx="78.64" cy="-126" rx="78.79" ry="18"/>
<text text-anchor="middle" x="78.64" y="-122.3" font-family="Times New Roman,serif" font-size="14.00">ck_uart_set_parity</text>
</g>
<!-- ck_uart_init&#45;&gt;ck_uart_set_parity -->
<g id="edge7" class="edge">
<title>ck_uart_init&#45;&gt;ck_uart_set_parity</title>
<path fill="none" stroke="black" d="M256.43,-218.48C220.65,-200.07 158.75,-168.22 118.25,-147.38"/>
<polygon fill="black" stroke="black" points="119.69,-144.18 109.19,-142.72 116.48,-150.41 119.69,-144.18"/>
</g>
<!-- ck_uart_set_wordsize -->
<g id="node9" class="node">
<title>ck_uart_set_wordsize</title>
<ellipse fill="none" stroke="black" cx="284.64" cy="-126" rx="90.98" ry="18"/>
<text text-anchor="middle" x="284.64" y="-122.3" font-family="Times New Roman,serif" font-size="14.00">ck_uart_set_wordsize</text>
</g>
<!-- ck_uart_init&#45;&gt;ck_uart_set_wordsize -->
<g id="edge8" class="edge">
<title>ck_uart_init&#45;&gt;ck_uart_set_wordsize</title>
<path fill="none" stroke="black" d="M284.64,-215.97C284.64,-199.38 284.64,-173.88 284.64,-154.43"/>
<polygon fill="black" stroke="black" points="288.14,-154.34 284.64,-144.34 281.14,-154.34 288.14,-154.34"/>
</g>
<!-- puts&#45;&gt;fputc -->
<g id="edge6" class="edge">
<title>puts&#45;&gt;fputc</title>
<path fill="none" stroke="black" d="M424.86,-215.97C428.01,-199.28 432.85,-173.58 436.53,-154.08"/>
<polygon fill="black" stroke="black" points="440.02,-154.46 438.44,-143.99 433.14,-153.17 440.02,-154.46"/>
</g>
</g>
</svg>
