<?xml version="1.0" encoding="UTF-8" standalone="no"?>
<!DOCTYPE svg PUBLIC "-//W3C//DTD SVG 1.1//EN"
 "http://www.w3.org/Graphics/SVG/1.1/DTD/svg11.dtd">
<!-- Generated by graphviz version 6.0.2 (20221011.1828)
 -->
<!-- Pages: 1 -->
<svg width="587pt" height="476pt"
 viewBox="0.00 0.00 586.69 476.00" xmlns="http://www.w3.org/2000/svg" xmlns:xlink="http://www.w3.org/1999/xlink">
<g id="graph0" class="graph" transform="scale(1 1) rotate(0) translate(4 472)">
<polygon fill="white" stroke="none" points="-4,4 -4,-472 582.69,-472 582.69,4 -4,4"/>
<!-- __to_main -->
<g id="node1" class="node">
<title>__to_main</title>
<ellipse fill="none" stroke="black" cx="354.99" cy="-450" rx="50.09" ry="18"/>
<text text-anchor="middle" x="354.99" y="-446.3" font-family="Times New Roman,serif" font-size="14.00">__to_main</text>
</g>
<!-- main -->
<g id="node2" class="node">
<title>main</title>
<ellipse fill="none" stroke="black" cx="354.99" cy="-342" rx="27.9" ry="18"/>
<text text-anchor="middle" x="354.99" y="-338.3" font-family="Times New Roman,serif" font-size="14.00">main</text>
</g>
<!-- __to_main&#45;&gt;main -->
<g id="edge1" class="edge">
<title>__to_main&#45;&gt;main</title>
<path fill="none" stroke="black" d="M354.99,-431.97C354.99,-415.38 354.99,-389.88 354.99,-370.43"/>
<polygon fill="black" stroke="black" points="358.49,-370.34 354.99,-360.34 351.49,-370.34 358.49,-370.34"/>
</g>
<!-- ck_uart_open -->
<g id="node5" class="node">
<title>ck_uart_open</title>
<ellipse fill="none" stroke="black" cx="145.99" cy="-234" rx="61.19" ry="18"/>
<text text-anchor="middle" x="145.99" y="-230.3" font-family="Times New Roman,serif" font-size="14.00">ck_uart_open</text>
</g>
<!-- main&#45;&gt;ck_uart_open -->
<g id="edge3" class="edge">
<title>main&#45;&gt;ck_uart_open</title>
<path fill="none" stroke="black" d="M333.8,-330.25C298.73,-312.46 228.13,-276.66 184.18,-254.37"/>
<polygon fill="black" stroke="black" points="185.73,-251.23 175.23,-249.83 182.57,-257.48 185.73,-251.23"/>
</g>
<!-- ck_uart_init -->
<g id="node6" class="node">
<title>ck_uart_init</title>
<ellipse fill="none" stroke="black" cx="296.99" cy="-234" rx="53.89" ry="18"/>
<text text-anchor="middle" x="296.99" y="-230.3" font-family="Times New Roman,serif" font-size="14.00">ck_uart_init</text>
</g>
<!-- main&#45;&gt;ck_uart_init -->
<g id="edge4" class="edge">
<title>main&#45;&gt;ck_uart_init</title>
<path fill="none" stroke="black" d="M346.18,-324.9C336.88,-307.9 322.08,-280.85 311.14,-260.85"/>
<polygon fill="black" stroke="black" points="314.14,-259.05 306.27,-251.95 308,-262.41 314.14,-259.05"/>
</g>
<!-- puts -->
<g id="node7" class="node">
<title>puts</title>
<ellipse fill="none" stroke="black" cx="413.99" cy="-234" rx="27" ry="18"/>
<text text-anchor="middle" x="413.99" y="-230.3" font-family="Times New Roman,serif" font-size="14.00">puts</text>
</g>
<!-- main&#45;&gt;puts -->
<g id="edge5" class="edge">
<title>main&#45;&gt;puts</title>
<path fill="none" stroke="black" d="M363.95,-324.9C373.53,-307.7 388.83,-280.21 399.99,-260.15"/>
<polygon fill="black" stroke="black" points="403.14,-261.69 404.95,-251.25 397.03,-258.29 403.14,-261.69"/>
</g>
<!-- benchmark -->
<g id="node8" class="node">
<title>benchmark</title>
<ellipse fill="none" stroke="black" cx="527.99" cy="-234" rx="50.89" ry="18"/>
<text text-anchor="middle" x="527.99" y="-230.3" font-family="Times New Roman,serif" font-size="14.00">benchmark</text>
</g>
<!-- main&#45;&gt;benchmark -->
<g id="edge6" class="edge">
<title>main&#45;&gt;benchmark</title>
<path fill="none" stroke="black" d="M374.5,-329.05C403.75,-311.13 459.32,-277.08 494.96,-255.24"/>
<polygon fill="black" stroke="black" points="496.86,-258.18 503.56,-249.97 493.21,-252.21 496.86,-258.18"/>
</g>
<!-- fputc -->
<g id="node3" class="node">
<title>fputc</title>
<ellipse fill="none" stroke="black" cx="441.99" cy="-126" rx="29.8" ry="18"/>
<text text-anchor="middle" x="441.99" y="-122.3" font-family="Times New Roman,serif" font-size="14.00">fputc</text>
</g>
<!-- &lt;ck_uart_putc&gt; * -->
<g id="node4" class="node">
<title>&lt;ck_uart_putc&gt; *</title>
<ellipse fill="none" stroke="black" cx="441.99" cy="-18" rx="76.89" ry="18"/>
<text text-anchor="middle" x="441.99" y="-14.3" font-family="Times New Roman,serif" font-size="14.00">&lt;ck_uart_putc&gt; *</text>
</g>
<!-- fputc&#45;&gt;&lt;ck_uart_putc&gt; * -->
<g id="edge2" class="edge">
<title>fputc&#45;&gt;&lt;ck_uart_putc&gt; *</title>
<path fill="none" stroke="black" d="M441.99,-107.97C441.99,-91.38 441.99,-65.88 441.99,-46.43"/>
<polygon fill="black" stroke="black" points="445.49,-46.34 441.99,-36.34 438.49,-46.34 445.49,-46.34"/>
</g>
<!-- ck_uart_set_wordsize -->
<g id="node9" class="node">
<title>ck_uart_set_wordsize</title>
<ellipse fill="none" stroke="black" cx="90.99" cy="-126" rx="90.98" ry="18"/>
<text text-anchor="middle" x="90.99" y="-122.3" font-family="Times New Roman,serif" font-size="14.00">ck_uart_set_wordsize</text>
</g>
<!-- ck_uart_init&#45;&gt;ck_uart_set_wordsize -->
<g id="edge8" class="edge">
<title>ck_uart_init&#45;&gt;ck_uart_set_wordsize</title>
<path fill="none" stroke="black" d="M268.78,-218.48C233.2,-200.18 171.8,-168.58 131.29,-147.74"/>
<polygon fill="black" stroke="black" points="132.72,-144.54 122.23,-143.07 129.52,-150.76 132.72,-144.54"/>
</g>
<!-- ck_uart_set_parity -->
<g id="node10" class="node">
<title>ck_uart_set_parity</title>
<ellipse fill="none" stroke="black" cx="296.99" cy="-126" rx="78.79" ry="18"/>
<text text-anchor="middle" x="296.99" y="-122.3" font-family="Times New Roman,serif" font-size="14.00">ck_uart_set_parity</text>
</g>
<!-- ck_uart_init&#45;&gt;ck_uart_set_parity -->
<g id="edge9" class="edge">
<title>ck_uart_init&#45;&gt;ck_uart_set_parity</title>
<path fill="none" stroke="black" d="M296.99,-215.97C296.99,-199.38 296.99,-173.88 296.99,-154.43"/>
<polygon fill="black" stroke="black" points="300.49,-154.34 296.99,-144.34 293.49,-154.34 300.49,-154.34"/>
</g>
<!-- puts&#45;&gt;fputc -->
<g id="edge7" class="edge">
<title>puts&#45;&gt;fputc</title>
<path fill="none" stroke="black" d="M418.49,-215.97C422.92,-199.2 429.75,-173.34 434.91,-153.81"/>
<polygon fill="black" stroke="black" points="438.33,-154.55 437.5,-143.99 431.57,-152.76 438.33,-154.55"/>
</g>
</g>
</svg>
