<?xml version="1.0" encoding="UTF-8" standalone="no"?>
<!DOCTYPE svg PUBLIC "-//W3C//DTD SVG 1.1//EN"
 "http://www.w3.org/Graphics/SVG/1.1/DTD/svg11.dtd">
<!-- Generated by graphviz version 6.0.2 (20221011.1828)
 -->
<!-- Pages: 1 -->
<svg width="591pt" height="476pt"
 viewBox="0.00 0.00 591.39 476.00" xmlns="http://www.w3.org/2000/svg" xmlns:xlink="http://www.w3.org/1999/xlink">
<g id="graph0" class="graph" transform="scale(1 1) rotate(0) translate(4 472)">
<polygon fill="white" stroke="none" points="-4,4 -4,-472 587.39,-472 587.39,4 -4,4"/>
<!-- __to_main -->
<g id="node1" class="node">
<title>__to_main</title>
<ellipse fill="none" stroke="black" cx="273.7" cy="-450" rx="50.09" ry="18"/>
<text text-anchor="middle" x="273.7" y="-446.3" font-family="Times New Roman,serif" font-size="14.00">__to_main</text>
</g>
<!-- main -->
<g id="node2" class="node">
<title>main</title>
<ellipse fill="none" stroke="black" cx="273.7" cy="-342" rx="27.9" ry="18"/>
<text text-anchor="middle" x="273.7" y="-338.3" font-family="Times New Roman,serif" font-size="14.00">main</text>
</g>
<!-- __to_main&#45;&gt;main -->
<g id="edge1" class="edge">
<title>__to_main&#45;&gt;main</title>
<path fill="none" stroke="black" d="M273.7,-431.97C273.7,-415.38 273.7,-389.88 273.7,-370.43"/>
<polygon fill="black" stroke="black" points="277.2,-370.34 273.7,-360.34 270.2,-370.34 277.2,-370.34"/>
</g>
<!-- benchmark -->
<g id="node5" class="node">
<title>benchmark</title>
<ellipse fill="none" stroke="black" cx="50.7" cy="-234" rx="50.89" ry="18"/>
<text text-anchor="middle" x="50.7" y="-230.3" font-family="Times New Roman,serif" font-size="14.00">benchmark</text>
</g>
<!-- main&#45;&gt;benchmark -->
<g id="edge3" class="edge">
<title>main&#45;&gt;benchmark</title>
<path fill="none" stroke="black" d="M251.91,-330.64C214.18,-312.71 136.21,-275.65 89.18,-253.29"/>
<polygon fill="black" stroke="black" points="90.45,-250.02 79.92,-248.89 87.45,-256.35 90.45,-250.02"/>
</g>
<!-- ck_uart_open -->
<g id="node6" class="node">
<title>ck_uart_open</title>
<ellipse fill="none" stroke="black" cx="198.7" cy="-234" rx="61.19" ry="18"/>
<text text-anchor="middle" x="198.7" y="-230.3" font-family="Times New Roman,serif" font-size="14.00">ck_uart_open</text>
</g>
<!-- main&#45;&gt;ck_uart_open -->
<g id="edge4" class="edge">
<title>main&#45;&gt;ck_uart_open</title>
<path fill="none" stroke="black" d="M262.63,-325.36C250.49,-308.2 230.83,-280.42 216.51,-260.18"/>
<polygon fill="black" stroke="black" points="219.18,-257.9 210.55,-251.76 213.47,-261.94 219.18,-257.9"/>
</g>
<!-- ck_uart_init -->
<g id="node7" class="node">
<title>ck_uart_init</title>
<ellipse fill="none" stroke="black" cx="349.7" cy="-234" rx="53.89" ry="18"/>
<text text-anchor="middle" x="349.7" y="-230.3" font-family="Times New Roman,serif" font-size="14.00">ck_uart_init</text>
</g>
<!-- main&#45;&gt;ck_uart_init -->
<g id="edge5" class="edge">
<title>main&#45;&gt;ck_uart_init</title>
<path fill="none" stroke="black" d="M284.91,-325.36C297.27,-308.13 317.31,-280.17 331.83,-259.91"/>
<polygon fill="black" stroke="black" points="334.7,-261.92 337.68,-251.76 329.01,-257.84 334.7,-261.92"/>
</g>
<!-- puts -->
<g id="node8" class="node">
<title>puts</title>
<ellipse fill="none" stroke="black" cx="486.7" cy="-234" rx="27" ry="18"/>
<text text-anchor="middle" x="486.7" y="-230.3" font-family="Times New Roman,serif" font-size="14.00">puts</text>
</g>
<!-- main&#45;&gt;puts -->
<g id="edge6" class="edge">
<title>main&#45;&gt;puts</title>
<path fill="none" stroke="black" d="M295.29,-330.25C333.52,-311.23 413.18,-271.59 456.71,-249.92"/>
<polygon fill="black" stroke="black" points="458.28,-253.05 465.67,-245.46 455.16,-246.78 458.28,-253.05"/>
</g>
<!-- fputc -->
<g id="node3" class="node">
<title>fputc</title>
<ellipse fill="none" stroke="black" cx="506.7" cy="-126" rx="29.8" ry="18"/>
<text text-anchor="middle" x="506.7" y="-122.3" font-family="Times New Roman,serif" font-size="14.00">fputc</text>
</g>
<!-- &lt;ck_uart_putc&gt; * -->
<g id="node4" class="node">
<title>&lt;ck_uart_putc&gt; *</title>
<ellipse fill="none" stroke="black" cx="506.7" cy="-18" rx="76.89" ry="18"/>
<text text-anchor="middle" x="506.7" y="-14.3" font-family="Times New Roman,serif" font-size="14.00">&lt;ck_uart_putc&gt; *</text>
</g>
<!-- fputc&#45;&gt;&lt;ck_uart_putc&gt; * -->
<g id="edge2" class="edge">
<title>fputc&#45;&gt;&lt;ck_uart_putc&gt; *</title>
<path fill="none" stroke="black" d="M506.7,-107.97C506.7,-91.38 506.7,-65.88 506.7,-46.43"/>
<polygon fill="black" stroke="black" points="510.2,-46.34 506.7,-36.34 503.2,-46.34 510.2,-46.34"/>
</g>
<!-- ck_uart_set_parity -->
<g id="node9" class="node">
<title>ck_uart_set_parity</title>
<ellipse fill="none" stroke="black" cx="143.7" cy="-126" rx="78.79" ry="18"/>
<text text-anchor="middle" x="143.7" y="-122.3" font-family="Times New Roman,serif" font-size="14.00">ck_uart_set_parity</text>
</g>
<!-- ck_uart_init&#45;&gt;ck_uart_set_parity -->
<g id="edge8" class="edge">
<title>ck_uart_init&#45;&gt;ck_uart_set_parity</title>
<path fill="none" stroke="black" d="M321.48,-218.48C285.7,-200.07 223.8,-168.22 183.3,-147.38"/>
<polygon fill="black" stroke="black" points="184.74,-144.18 174.25,-142.72 181.54,-150.41 184.74,-144.18"/>
</g>
<!-- ck_uart_set_wordsize -->
<g id="node10" class="node">
<title>ck_uart_set_wordsize</title>
<ellipse fill="none" stroke="black" cx="349.7" cy="-126" rx="90.98" ry="18"/>
<text text-anchor="middle" x="349.7" y="-122.3" font-family="Times New Roman,serif" font-size="14.00">ck_uart_set_wordsize</text>
</g>
<!-- ck_uart_init&#45;&gt;ck_uart_set_wordsize -->
<g id="edge9" class="edge">
<title>ck_uart_init&#45;&gt;ck_uart_set_wordsize</title>
<path fill="none" stroke="black" d="M349.7,-215.97C349.7,-199.38 349.7,-173.88 349.7,-154.43"/>
<polygon fill="black" stroke="black" points="353.2,-154.34 349.7,-144.34 346.2,-154.34 353.2,-154.34"/>
</g>
<!-- puts&#45;&gt;fputc -->
<g id="edge7" class="edge">
<title>puts&#45;&gt;fputc</title>
<path fill="none" stroke="black" d="M489.91,-215.97C493.06,-199.28 497.91,-173.58 501.59,-154.08"/>
<polygon fill="black" stroke="black" points="505.08,-154.46 503.49,-143.99 498.2,-153.17 505.08,-154.46"/>
</g>
</g>
</svg>
