<?xml version="1.0" encoding="UTF-8" standalone="no"?>
<!DOCTYPE svg PUBLIC "-//W3C//DTD SVG 1.1//EN"
 "http://www.w3.org/Graphics/SVG/1.1/DTD/svg11.dtd">
<!-- Generated by graphviz version 6.0.2 (20221011.1828)
 -->
<!-- Pages: 1 -->
<svg width="2567pt" height="548pt"
 viewBox="0.00 0.00 2566.84 548.00" xmlns="http://www.w3.org/2000/svg" xmlns:xlink="http://www.w3.org/1999/xlink">
<g id="graph0" class="graph" transform="scale(1 1) rotate(0) translate(4 544)">
<polygon fill="white" stroke="none" points="-4,4 -4,-544 2562.84,-544 2562.84,4 -4,4"/>
<!-- __to_main -->
<g id="node1" class="node">
<title>__to_main</title>
<ellipse fill="none" stroke="black" cx="1192.2" cy="-522" rx="50.09" ry="18"/>
<text text-anchor="middle" x="1192.2" y="-518.3" font-family="Times New Roman,serif" font-size="14.00">__to_main</text>
</g>
<!-- main -->
<g id="node2" class="node">
<title>main</title>
<ellipse fill="none" stroke="black" cx="1192.2" cy="-450" rx="27.9" ry="18"/>
<text text-anchor="middle" x="1192.2" y="-446.3" font-family="Times New Roman,serif" font-size="14.00">main</text>
</g>
<!-- __to_main&#45;&gt;main -->
<g id="edge1" class="edge">
<title>__to_main&#45;&gt;main</title>
<path fill="none" stroke="black" d="M1192.2,-503.7C1192.2,-495.98 1192.2,-486.71 1192.2,-478.11"/>
<polygon fill="black" stroke="black" points="1195.7,-478.1 1192.2,-468.1 1188.7,-478.1 1195.7,-478.1"/>
</g>
<!-- printf -->
<g id="node24" class="node">
<title>printf</title>
<ellipse fill="none" stroke="black" cx="743.2" cy="-378" rx="30.59" ry="18"/>
<text text-anchor="middle" x="743.2" y="-374.3" font-family="Times New Roman,serif" font-size="14.00">printf</text>
</g>
<!-- main&#45;&gt;printf -->
<g id="edge50" class="edge">
<title>main&#45;&gt;printf</title>
<path fill="none" stroke="black" d="M1164.62,-446.59C1100.63,-440.7 937.31,-423.99 803.2,-396 795.37,-394.37 787.07,-392.26 779.22,-390.09"/>
<polygon fill="black" stroke="black" points="780.16,-386.72 769.58,-387.34 778.24,-393.45 780.16,-386.72"/>
</g>
<!-- ck_uart_init -->
<g id="node27" class="node">
<title>ck_uart_init</title>
<ellipse fill="none" stroke="black" cx="866.2" cy="-378" rx="53.89" ry="18"/>
<text text-anchor="middle" x="866.2" y="-374.3" font-family="Times New Roman,serif" font-size="14.00">ck_uart_init</text>
</g>
<!-- main&#45;&gt;ck_uart_init -->
<g id="edge43" class="edge">
<title>main&#45;&gt;ck_uart_init</title>
<path fill="none" stroke="black" d="M1165.57,-444.22C1117.94,-435.55 1015.11,-416.23 929.2,-396 924.86,-394.98 920.37,-393.87 915.88,-392.73"/>
<polygon fill="black" stroke="black" points="916.65,-389.31 906.09,-390.18 914.89,-396.09 916.65,-389.31"/>
</g>
<!-- ck_uart_status -->
<g id="node35" class="node">
<title>ck_uart_status</title>
<ellipse fill="none" stroke="black" cx="1002.2" cy="-378" rx="63.89" ry="18"/>
<text text-anchor="middle" x="1002.2" y="-374.3" font-family="Times New Roman,serif" font-size="14.00">ck_uart_status</text>
</g>
<!-- main&#45;&gt;ck_uart_status -->
<g id="edge44" class="edge">
<title>main&#45;&gt;ck_uart_status</title>
<path fill="none" stroke="black" d="M1168.52,-440.28C1138.75,-429.31 1086.96,-410.23 1049.06,-396.27"/>
<polygon fill="black" stroke="black" points="1049.85,-392.83 1039.26,-392.65 1047.43,-399.4 1049.85,-392.83"/>
</g>
<!-- get_vtimer -->
<g id="node36" class="node">
<title>get_vtimer</title>
<ellipse fill="none" stroke="black" cx="1132.2" cy="-378" rx="48.99" ry="18"/>
<text text-anchor="middle" x="1132.2" y="-374.3" font-family="Times New Roman,serif" font-size="14.00">get_vtimer</text>
</g>
<!-- main&#45;&gt;get_vtimer -->
<g id="edge45" class="edge">
<title>main&#45;&gt;get_vtimer</title>
<path fill="none" stroke="black" d="M1179.18,-433.81C1171.56,-424.93 1161.77,-413.5 1153.1,-403.39"/>
<polygon fill="black" stroke="black" points="1155.61,-400.94 1146.45,-395.63 1150.3,-405.5 1155.61,-400.94"/>
</g>
<!-- ck_intc_init -->
<g id="node37" class="node">
<title>ck_intc_init</title>
<ellipse fill="none" stroke="black" cx="1252.2" cy="-378" rx="53.09" ry="18"/>
<text text-anchor="middle" x="1252.2" y="-374.3" font-family="Times New Roman,serif" font-size="14.00">ck_intc_init</text>
</g>
<!-- main&#45;&gt;ck_intc_init -->
<g id="edge46" class="edge">
<title>main&#45;&gt;ck_intc_init</title>
<path fill="none" stroke="black" d="M1205.22,-433.81C1212.83,-424.93 1222.62,-413.5 1231.29,-403.39"/>
<polygon fill="black" stroke="black" points="1234.09,-405.5 1237.94,-395.63 1228.78,-400.94 1234.09,-405.5"/>
</g>
<!-- ck_uart_open -->
<g id="node38" class="node">
<title>ck_uart_open</title>
<ellipse fill="none" stroke="black" cx="1384.2" cy="-378" rx="61.19" ry="18"/>
<text text-anchor="middle" x="1384.2" y="-374.3" font-family="Times New Roman,serif" font-size="14.00">ck_uart_open</text>
</g>
<!-- main&#45;&gt;ck_uart_open -->
<g id="edge47" class="edge">
<title>main&#45;&gt;ck_uart_open</title>
<path fill="none" stroke="black" d="M1216.12,-440.28C1246.52,-429.19 1299.63,-409.83 1338.03,-395.83"/>
<polygon fill="black" stroke="black" points="1339.26,-399.11 1347.45,-392.4 1336.86,-392.53 1339.26,-399.11"/>
</g>
<!-- memset -->
<g id="node39" class="node">
<title>memset</title>
<ellipse fill="none" stroke="black" cx="1501.2" cy="-378" rx="38.19" ry="18"/>
<text text-anchor="middle" x="1501.2" y="-374.3" font-family="Times New Roman,serif" font-size="14.00">memset</text>
</g>
<!-- main&#45;&gt;memset -->
<g id="edge48" class="edge">
<title>main&#45;&gt;memset</title>
<path fill="none" stroke="black" d="M1219.29,-444.87C1267.18,-437.28 1369.74,-419.68 1454.2,-396 1457.11,-395.18 1460.1,-394.27 1463.1,-393.31"/>
<polygon fill="black" stroke="black" points="1464.23,-396.62 1472.58,-390.11 1461.99,-389.99 1464.23,-396.62"/>
</g>
<!-- sim_end -->
<g id="node40" class="node">
<title>sim_end</title>
<ellipse fill="none" stroke="black" cx="1599.2" cy="-378" rx="41.69" ry="18"/>
<text text-anchor="middle" x="1599.2" y="-374.3" font-family="Times New Roman,serif" font-size="14.00">sim_end</text>
</g>
<!-- main&#45;&gt;sim_end -->
<g id="edge49" class="edge">
<title>main&#45;&gt;sim_end</title>
<path fill="none" stroke="black" d="M1219.75,-446.55C1279.97,-440.83 1427.56,-424.85 1548.2,-396 1551.61,-395.18 1555.13,-394.24 1558.64,-393.22"/>
<polygon fill="black" stroke="black" points="1559.9,-396.5 1568.43,-390.21 1557.84,-389.8 1559.9,-396.5"/>
</g>
<!-- _ntoa_format -->
<g id="node3" class="node">
<title>_ntoa_format</title>
<ellipse fill="none" stroke="black" cx="1210.2" cy="-90" rx="59.59" ry="18"/>
<text text-anchor="middle" x="1210.2" y="-86.3" font-family="Times New Roman,serif" font-size="14.00">_ntoa_format</text>
</g>
<!-- &lt;_out_rev&gt; * -->
<g id="node4" class="node">
<title>&lt;_out_rev&gt; *</title>
<ellipse fill="none" stroke="black" cx="1210.2" cy="-18" rx="61.19" ry="18"/>
<text text-anchor="middle" x="1210.2" y="-14.3" font-family="Times New Roman,serif" font-size="14.00">&lt;_out_rev&gt; *</text>
</g>
<!-- _ntoa_format&#45;&gt;&lt;_out_rev&gt; * -->
<g id="edge2" class="edge">
<title>_ntoa_format&#45;&gt;&lt;_out_rev&gt; *</title>
<path fill="none" stroke="black" d="M1210.2,-71.7C1210.2,-63.98 1210.2,-54.71 1210.2,-46.11"/>
<polygon fill="black" stroke="black" points="1213.7,-46.1 1210.2,-36.1 1206.7,-46.1 1213.7,-46.1"/>
</g>
<!-- _out_rev -->
<g id="node5" class="node">
<title>_out_rev</title>
<ellipse fill="none" stroke="black" cx="1007.2" cy="-18" rx="43.59" ry="18"/>
<text text-anchor="middle" x="1007.2" y="-14.3" font-family="Times New Roman,serif" font-size="14.00">_out_rev</text>
</g>
<!-- _ntoa_format&#45;&gt;_out_rev -->
<g id="edge3" class="edge">
<title>_ntoa_format&#45;&gt;_out_rev</title>
<path fill="none" stroke="black" d="M1172.49,-76C1137.59,-63.96 1085.77,-46.09 1049.48,-33.58"/>
<polygon fill="black" stroke="black" points="1050.27,-30.15 1039.68,-30.2 1047.99,-36.77 1050.27,-30.15"/>
</g>
<!-- _ntoa_long -->
<g id="node6" class="node">
<title>_ntoa_long</title>
<ellipse fill="none" stroke="black" cx="765.2" cy="-162" rx="51.99" ry="18"/>
<text text-anchor="middle" x="765.2" y="-158.3" font-family="Times New Roman,serif" font-size="14.00">_ntoa_long</text>
</g>
<!-- _ntoa_long&#45;&gt;_ntoa_format -->
<g id="edge4" class="edge">
<title>_ntoa_long&#45;&gt;_ntoa_format</title>
<path fill="none" stroke="black" d="M809.59,-152.48C825.23,-149.61 842.97,-146.5 859.2,-144 984.51,-124.71 1017.59,-131.42 1142.2,-108 1147.15,-107.07 1152.28,-105.99 1157.41,-104.85"/>
<polygon fill="black" stroke="black" points="1158.25,-108.24 1167.2,-102.57 1156.67,-101.42 1158.25,-108.24"/>
</g>
<!-- _ntoa_long_long -->
<g id="node7" class="node">
<title>_ntoa_long_long</title>
<ellipse fill="none" stroke="black" cx="974.2" cy="-234" rx="72.29" ry="18"/>
<text text-anchor="middle" x="974.2" y="-230.3" font-family="Times New Roman,serif" font-size="14.00">_ntoa_long_long</text>
</g>
<!-- _ntoa_long_long&#45;&gt;_ntoa_format -->
<g id="edge6" class="edge">
<title>_ntoa_long_long&#45;&gt;_ntoa_format</title>
<path fill="none" stroke="black" d="M1013.26,-218.73C1037.57,-209.16 1069.07,-195.51 1095.2,-180 1127.87,-160.6 1161.88,-133.25 1184.35,-114"/>
<polygon fill="black" stroke="black" points="1186.82,-116.49 1192.09,-107.3 1182.24,-111.2 1186.82,-116.49"/>
</g>
<!-- __umoddi3 -->
<g id="node8" class="node">
<title>__umoddi3</title>
<ellipse fill="none" stroke="black" cx="1033.2" cy="-162" rx="52.79" ry="18"/>
<text text-anchor="middle" x="1033.2" y="-158.3" font-family="Times New Roman,serif" font-size="14.00">__umoddi3</text>
</g>
<!-- _ntoa_long_long&#45;&gt;__umoddi3 -->
<g id="edge5" class="edge">
<title>_ntoa_long_long&#45;&gt;__umoddi3</title>
<path fill="none" stroke="black" d="M988.48,-216.05C995.65,-207.54 1004.48,-197.07 1012.39,-187.68"/>
<polygon fill="black" stroke="black" points="1015.28,-189.69 1019.05,-179.79 1009.92,-185.18 1015.28,-189.69"/>
</g>
<!-- __udivdi3 -->
<g id="node9" class="node">
<title>__udivdi3</title>
<ellipse fill="none" stroke="black" cx="915.2" cy="-162" rx="47.39" ry="18"/>
<text text-anchor="middle" x="915.2" y="-158.3" font-family="Times New Roman,serif" font-size="14.00">__udivdi3</text>
</g>
<!-- _ntoa_long_long&#45;&gt;__udivdi3 -->
<g id="edge7" class="edge">
<title>_ntoa_long_long&#45;&gt;__udivdi3</title>
<path fill="none" stroke="black" d="M959.91,-216.05C952.56,-207.33 943.47,-196.54 935.41,-186.98"/>
<polygon fill="black" stroke="black" points="938.06,-184.7 928.94,-179.31 932.71,-189.21 938.06,-184.7"/>
</g>
<!-- _etoa -->
<g id="node10" class="node">
<title>_etoa</title>
<ellipse fill="none" stroke="black" cx="531.2" cy="-234" rx="30.59" ry="18"/>
<text text-anchor="middle" x="531.2" y="-230.3" font-family="Times New Roman,serif" font-size="14.00">_etoa</text>
</g>
<!-- _etoa&#45;&gt;_ntoa_long -->
<g id="edge12" class="edge">
<title>_etoa&#45;&gt;_ntoa_long</title>
<path fill="none" stroke="black" d="M558.04,-224.97C596.82,-213.37 669.12,-191.74 717.21,-177.35"/>
<polygon fill="black" stroke="black" points="718.51,-180.62 727.09,-174.4 716.5,-173.91 718.51,-180.62"/>
</g>
<!-- __fixdfsi -->
<g id="node11" class="node">
<title>__fixdfsi</title>
<ellipse fill="none" stroke="black" cx="589.2" cy="-90" rx="43.59" ry="18"/>
<text text-anchor="middle" x="589.2" y="-86.3" font-family="Times New Roman,serif" font-size="14.00">__fixdfsi</text>
</g>
<!-- _etoa&#45;&gt;__fixdfsi -->
<g id="edge8" class="edge">
<title>_etoa&#45;&gt;__fixdfsi</title>
<path fill="none" stroke="black" d="M532.68,-215.94C534.76,-197.51 539.57,-167.63 550.2,-144 554.81,-133.73 561.65,-123.52 568.32,-114.84"/>
<polygon fill="black" stroke="black" points="571.05,-117.02 574.58,-107.03 565.59,-112.64 571.05,-117.02"/>
</g>
<!-- __adddf3 -->
<g id="node12" class="node">
<title>__adddf3</title>
<ellipse fill="none" stroke="black" cx="230.2" cy="-162" rx="46.29" ry="18"/>
<text text-anchor="middle" x="230.2" y="-158.3" font-family="Times New Roman,serif" font-size="14.00">__adddf3</text>
</g>
<!-- _etoa&#45;&gt;__adddf3 -->
<g id="edge9" class="edge">
<title>_etoa&#45;&gt;__adddf3</title>
<path fill="none" stroke="black" d="M503.15,-226.48C451.89,-214.56 342.52,-189.12 278.88,-174.32"/>
<polygon fill="black" stroke="black" points="279.61,-170.9 269.08,-172.04 278.02,-177.72 279.61,-170.9"/>
</g>
<!-- __subdf3 -->
<g id="node13" class="node">
<title>__subdf3</title>
<ellipse fill="none" stroke="black" cx="481.2" cy="-90" rx="46.29" ry="18"/>
<text text-anchor="middle" x="481.2" y="-86.3" font-family="Times New Roman,serif" font-size="14.00">__subdf3</text>
</g>
<!-- _etoa&#45;&gt;__subdf3 -->
<g id="edge10" class="edge">
<title>_etoa&#45;&gt;__subdf3</title>
<path fill="none" stroke="black" d="M525.26,-216.15C516.7,-191.84 500.79,-146.66 490.62,-117.75"/>
<polygon fill="black" stroke="black" points="493.9,-116.54 487.28,-108.27 487.3,-118.86 493.9,-116.54"/>
</g>
<!-- __floatsidf -->
<g id="node14" class="node">
<title>__floatsidf</title>
<ellipse fill="none" stroke="black" cx="157.2" cy="-90" rx="50.09" ry="18"/>
<text text-anchor="middle" x="157.2" y="-86.3" font-family="Times New Roman,serif" font-size="14.00">__floatsidf</text>
</g>
<!-- _etoa&#45;&gt;__floatsidf -->
<g id="edge11" class="edge">
<title>_etoa&#45;&gt;__floatsidf</title>
<path fill="none" stroke="black" d="M504.31,-225.33C471.4,-215.73 414.12,-198.29 366.2,-180 329.39,-165.96 321.4,-159.54 285.2,-144 256.42,-131.65 223.8,-118.15 198.69,-107.87"/>
<polygon fill="black" stroke="black" points="199.7,-104.5 189.12,-103.95 197.05,-110.98 199.7,-104.5"/>
</g>
<!-- _ftoa -->
<g id="node15" class="node">
<title>_ftoa</title>
<ellipse fill="none" stroke="black" cx="589.2" cy="-162" rx="29.8" ry="18"/>
<text text-anchor="middle" x="589.2" y="-158.3" font-family="Times New Roman,serif" font-size="14.00">_ftoa</text>
</g>
<!-- _etoa&#45;&gt;_ftoa -->
<g id="edge13" class="edge">
<title>_etoa&#45;&gt;_ftoa</title>
<path fill="none" stroke="black" d="M539.1,-216.41C545.96,-206.87 555.83,-194.79 565.08,-184.53"/>
<polygon fill="black" stroke="black" points="567.73,-186.82 571.97,-177.11 562.6,-182.05 567.73,-186.82"/>
</g>
<!-- __muldf3 -->
<g id="node16" class="node">
<title>__muldf3</title>
<ellipse fill="none" stroke="black" cx="271.2" cy="-90" rx="46.29" ry="18"/>
<text text-anchor="middle" x="271.2" y="-86.3" font-family="Times New Roman,serif" font-size="14.00">__muldf3</text>
</g>
<!-- _etoa&#45;&gt;__muldf3 -->
<g id="edge14" class="edge">
<title>_etoa&#45;&gt;__muldf3</title>
<path fill="none" stroke="black" d="M509.13,-221.3C489.04,-210.61 458.57,-194.35 432.2,-180 388.4,-156.18 338.16,-128.32 305.61,-110.2"/>
<polygon fill="black" stroke="black" points="306.95,-106.94 296.51,-105.13 303.55,-113.06 306.95,-106.94"/>
</g>
<!-- __ledf2 -->
<g id="node17" class="node">
<title>__ledf2</title>
<ellipse fill="none" stroke="black" cx="993.2" cy="-90" rx="38.19" ry="18"/>
<text text-anchor="middle" x="993.2" y="-86.3" font-family="Times New Roman,serif" font-size="14.00">__ledf2</text>
</g>
<!-- _etoa&#45;&gt;__ledf2 -->
<g id="edge15" class="edge">
<title>_etoa&#45;&gt;__ledf2</title>
<path fill="none" stroke="black" d="M554.28,-222C574.42,-212.04 604.1,-196.43 628.2,-180 648.79,-165.96 648.39,-154.04 671.2,-144 781.99,-95.21 823.17,-134.92 941.2,-108 945.36,-107.05 949.67,-105.91 953.94,-104.67"/>
<polygon fill="black" stroke="black" points="955.23,-107.94 963.76,-101.66 953.17,-101.25 955.23,-107.94"/>
</g>
<!-- __divdf3 -->
<g id="node18" class="node">
<title>__divdf3</title>
<ellipse fill="none" stroke="black" cx="44.2" cy="-162" rx="44.39" ry="18"/>
<text text-anchor="middle" x="44.2" y="-158.3" font-family="Times New Roman,serif" font-size="14.00">__divdf3</text>
</g>
<!-- _etoa&#45;&gt;__divdf3 -->
<g id="edge16" class="edge">
<title>_etoa&#45;&gt;__divdf3</title>
<path fill="none" stroke="black" d="M501.83,-228.78C421.41,-217.22 196.86,-184.94 95.27,-170.34"/>
<polygon fill="black" stroke="black" points="95.64,-166.86 85.25,-168.9 94.65,-173.79 95.64,-166.86"/>
</g>
<!-- __eqdf2 -->
<g id="node19" class="node">
<title>__eqdf2</title>
<ellipse fill="none" stroke="black" cx="1091.2" cy="-90" rx="41.69" ry="18"/>
<text text-anchor="middle" x="1091.2" y="-86.3" font-family="Times New Roman,serif" font-size="14.00">__eqdf2</text>
</g>
<!-- _etoa&#45;&gt;__eqdf2 -->
<g id="edge17" class="edge">
<title>_etoa&#45;&gt;__eqdf2</title>
<path fill="none" stroke="black" d="M558.25,-225.33C586.09,-216.74 630.1,-201.19 664.2,-180 684.51,-167.38 682.36,-153.75 704.2,-144 841.34,-82.79 893.44,-139.93 1040.2,-108 1043.78,-107.22 1047.47,-106.28 1051.14,-105.24"/>
<polygon fill="black" stroke="black" points="1052.19,-108.58 1060.75,-102.33 1050.16,-101.88 1052.19,-108.58"/>
</g>
<!-- __gedf2 -->
<g id="node20" class="node">
<title>__gedf2</title>
<ellipse fill="none" stroke="black" cx="376.2" cy="-90" rx="40.89" ry="18"/>
<text text-anchor="middle" x="376.2" y="-86.3" font-family="Times New Roman,serif" font-size="14.00">__gedf2</text>
</g>
<!-- _etoa&#45;&gt;__gedf2 -->
<g id="edge18" class="edge">
<title>_etoa&#45;&gt;__gedf2</title>
<path fill="none" stroke="black" d="M515.19,-218.34C488.1,-193.51 433.01,-143.05 400.92,-113.65"/>
<polygon fill="black" stroke="black" points="403.03,-110.83 393.29,-106.66 398.3,-115.99 403.03,-110.83"/>
</g>
<!-- __clzsi2 -->
<g id="node41" class="node">
<title>__clzsi2</title>
<ellipse fill="none" stroke="black" cx="214.2" cy="-18" rx="40.89" ry="18"/>
<text text-anchor="middle" x="214.2" y="-14.3" font-family="Times New Roman,serif" font-size="14.00">__clzsi2</text>
</g>
<!-- __adddf3&#45;&gt;__clzsi2 -->
<g id="edge51" class="edge">
<title>__adddf3&#45;&gt;__clzsi2</title>
<path fill="none" stroke="black" d="M186.34,-156.05C156.03,-150.09 117.77,-136.95 98.2,-108 89.23,-94.75 89.55,-85.46 98.2,-72 113.36,-48.4 141.92,-35.18 166.91,-27.84"/>
<polygon fill="black" stroke="black" points="167.89,-31.21 176.63,-25.22 166.06,-24.45 167.89,-31.21"/>
</g>
<!-- __subdf3&#45;&gt;__clzsi2 -->
<g id="edge54" class="edge">
<title>__subdf3&#45;&gt;__clzsi2</title>
<path fill="none" stroke="black" d="M446.66,-78.01C439.9,-75.95 432.84,-73.86 426.2,-72 369.03,-56.03 302.55,-39.79 259.5,-29.57"/>
<polygon fill="black" stroke="black" points="260.15,-26.12 249.61,-27.23 258.54,-32.93 260.15,-26.12"/>
</g>
<!-- __floatsidf&#45;&gt;__clzsi2 -->
<g id="edge55" class="edge">
<title>__floatsidf&#45;&gt;__clzsi2</title>
<path fill="none" stroke="black" d="M170.7,-72.41C177.73,-63.78 186.46,-53.06 194.25,-43.5"/>
<polygon fill="black" stroke="black" points="197.18,-45.43 200.78,-35.47 191.76,-41.01 197.18,-45.43"/>
</g>
<!-- _ftoa&#45;&gt;_out_rev -->
<g id="edge29" class="edge">
<title>_ftoa&#45;&gt;_out_rev</title>
<path fill="none" stroke="black" d="M612.61,-150.77C619.17,-148.23 626.37,-145.74 633.2,-144 752.65,-113.57 796.9,-160.98 908.2,-108 929.2,-98 928.97,-87.63 946.2,-72 957.46,-61.78 970.11,-50.72 980.97,-41.35"/>
<polygon fill="black" stroke="black" points="983.56,-43.74 988.87,-34.57 979,-38.43 983.56,-43.74"/>
</g>
<!-- _ftoa&#45;&gt;_etoa -->
<g id="edge22" class="edge">
<title>_ftoa&#45;&gt;_etoa</title>
<path fill="none" stroke="black" d="M581.28,-179.61C574.43,-189.12 564.59,-201.18 555.36,-211.42"/>
<polygon fill="black" stroke="black" points="552.72,-209.12 548.48,-218.83 557.85,-213.89 552.72,-209.12"/>
</g>
<!-- _ftoa&#45;&gt;__fixdfsi -->
<g id="edge19" class="edge">
<title>_ftoa&#45;&gt;__fixdfsi</title>
<path fill="none" stroke="black" d="M589.2,-143.7C589.2,-135.98 589.2,-126.71 589.2,-118.11"/>
<polygon fill="black" stroke="black" points="592.7,-118.1 589.2,-108.1 585.7,-118.1 592.7,-118.1"/>
</g>
<!-- _ftoa&#45;&gt;__subdf3 -->
<g id="edge20" class="edge">
<title>_ftoa&#45;&gt;__subdf3</title>
<path fill="none" stroke="black" d="M569.64,-148.32C553.69,-137.98 530.85,-123.18 512.38,-111.21"/>
<polygon fill="black" stroke="black" points="514.27,-108.27 503.98,-105.77 510.46,-114.14 514.27,-108.27"/>
</g>
<!-- _ftoa&#45;&gt;__floatsidf -->
<g id="edge21" class="edge">
<title>_ftoa&#45;&gt;__floatsidf</title>
<path fill="none" stroke="black" d="M559.93,-158.24C496.71,-151.99 342.83,-135.1 216.2,-108 212.09,-107.12 207.85,-106.11 203.62,-105.03"/>
<polygon fill="black" stroke="black" points="204.38,-101.61 193.82,-102.41 202.58,-108.37 204.38,-101.61"/>
</g>
<!-- _ftoa&#45;&gt;__muldf3 -->
<g id="edge23" class="edge">
<title>_ftoa&#45;&gt;__muldf3</title>
<path fill="none" stroke="black" d="M560.57,-156.21C512.03,-147.87 410.6,-129.49 326.2,-108 322.59,-107.08 318.88,-106.07 315.16,-105.02"/>
<polygon fill="black" stroke="black" points="315.95,-101.6 305.37,-102.15 313.98,-108.32 315.95,-101.6"/>
</g>
<!-- _ftoa&#45;&gt;__ledf2 -->
<g id="edge26" class="edge">
<title>_ftoa&#45;&gt;__ledf2</title>
<path fill="none" stroke="black" d="M612.59,-150.7C619.15,-148.16 626.36,-145.69 633.2,-144 766.98,-110.9 806.58,-137.56 941.2,-108 945.37,-107.08 949.68,-105.96 953.96,-104.74"/>
<polygon fill="black" stroke="black" points="955.24,-108.01 963.78,-101.75 953.19,-101.31 955.24,-108.01"/>
</g>
<!-- _ftoa&#45;&gt;__eqdf2 -->
<g id="edge27" class="edge">
<title>_ftoa&#45;&gt;__eqdf2</title>
<path fill="none" stroke="black" d="M616.77,-154.51C632.62,-150.98 652.94,-146.77 671.2,-144 834.1,-119.24 879.02,-142.27 1040.2,-108 1043.78,-107.24 1047.47,-106.31 1051.15,-105.28"/>
<polygon fill="black" stroke="black" points="1052.2,-108.62 1060.76,-102.38 1050.18,-101.92 1052.2,-108.62"/>
</g>
<!-- _ftoa&#45;&gt;__gedf2 -->
<g id="edge28" class="edge">
<title>_ftoa&#45;&gt;__gedf2</title>
<path fill="none" stroke="black" d="M563.47,-152.75C531.32,-142.42 474.62,-124.1 426.2,-108 423.25,-107.02 420.2,-106 417.14,-104.97"/>
<polygon fill="black" stroke="black" points="417.97,-101.56 407.38,-101.67 415.73,-108.19 417.97,-101.56"/>
</g>
<!-- __fixunsdfsi -->
<g id="node21" class="node">
<title>__fixunsdfsi</title>
<ellipse fill="none" stroke="black" cx="843.2" cy="-90" rx="55.79" ry="18"/>
<text text-anchor="middle" x="843.2" y="-86.3" font-family="Times New Roman,serif" font-size="14.00">__fixunsdfsi</text>
</g>
<!-- _ftoa&#45;&gt;__fixunsdfsi -->
<g id="edge24" class="edge">
<title>_ftoa&#45;&gt;__fixunsdfsi</title>
<path fill="none" stroke="black" d="M613.21,-151.1C619.64,-148.62 626.64,-146.07 633.2,-144 696.51,-124 713.85,-124.4 778.2,-108 782.51,-106.9 786.98,-105.75 791.47,-104.59"/>
<polygon fill="black" stroke="black" points="792.46,-107.95 801.26,-102.05 790.7,-101.17 792.46,-107.95"/>
</g>
<!-- __floatunsidf -->
<g id="node22" class="node">
<title>__floatunsidf</title>
<ellipse fill="none" stroke="black" cx="710.2" cy="-90" rx="59.29" ry="18"/>
<text text-anchor="middle" x="710.2" y="-86.3" font-family="Times New Roman,serif" font-size="14.00">__floatunsidf</text>
</g>
<!-- _ftoa&#45;&gt;__floatunsidf -->
<g id="edge25" class="edge">
<title>_ftoa&#45;&gt;__floatunsidf</title>
<path fill="none" stroke="black" d="M610,-148.97C627.85,-138.64 653.97,-123.53 675.06,-111.33"/>
<polygon fill="black" stroke="black" points="676.85,-114.33 683.75,-106.3 673.34,-108.28 676.85,-114.33"/>
</g>
<!-- __muldf3&#45;&gt;__clzsi2 -->
<g id="edge53" class="edge">
<title>__muldf3&#45;&gt;__clzsi2</title>
<path fill="none" stroke="black" d="M257.69,-72.41C250.66,-63.78 241.93,-53.06 234.14,-43.5"/>
<polygon fill="black" stroke="black" points="236.64,-41.01 227.61,-35.47 231.21,-45.43 236.64,-41.01"/>
</g>
<!-- __divdf3&#45;&gt;__clzsi2 -->
<g id="edge52" class="edge">
<title>__divdf3&#45;&gt;__clzsi2</title>
<path fill="none" stroke="black" d="M48.64,-144.07C54.6,-124.35 66.98,-91.96 88.2,-72 110.57,-50.95 142.54,-37.63 168.68,-29.62"/>
<polygon fill="black" stroke="black" points="169.75,-32.95 178.38,-26.8 167.8,-26.23 169.75,-32.95"/>
</g>
<!-- __floatunsidf&#45;&gt;__clzsi2 -->
<g id="edge56" class="edge">
<title>__floatunsidf&#45;&gt;__clzsi2</title>
<path fill="none" stroke="black" d="M667.57,-77.5C659.2,-75.48 650.45,-73.54 642.2,-72 506.59,-46.75 344.5,-30.39 264.28,-23.21"/>
<polygon fill="black" stroke="black" points="264.25,-19.69 253.98,-22.3 263.63,-26.66 264.25,-19.69"/>
</g>
<!-- _vsnprintf -->
<g id="node23" class="node">
<title>_vsnprintf</title>
<ellipse fill="none" stroke="black" cx="721.2" cy="-306" rx="48.19" ry="18"/>
<text text-anchor="middle" x="721.2" y="-302.3" font-family="Times New Roman,serif" font-size="14.00">_vsnprintf</text>
</g>
<!-- _vsnprintf&#45;&gt;_ntoa_long -->
<g id="edge32" class="edge">
<title>_vsnprintf&#45;&gt;_ntoa_long</title>
<path fill="none" stroke="black" d="M726.5,-287.87C734.04,-263.56 747.9,-218.82 756.83,-190.01"/>
<polygon fill="black" stroke="black" points="760.25,-190.78 759.87,-180.19 753.57,-188.71 760.25,-190.78"/>
</g>
<!-- _vsnprintf&#45;&gt;_ntoa_long_long -->
<g id="edge31" class="edge">
<title>_vsnprintf&#45;&gt;_ntoa_long_long</title>
<path fill="none" stroke="black" d="M757.34,-294.07C764.25,-292.02 771.44,-289.92 778.2,-288 824.42,-274.86 876.99,-260.69 916.04,-250.31"/>
<polygon fill="black" stroke="black" points="917.41,-253.56 926.17,-247.62 915.61,-246.8 917.41,-253.56"/>
</g>
<!-- _vsnprintf&#45;&gt;_etoa -->
<g id="edge33" class="edge">
<title>_vsnprintf&#45;&gt;_etoa</title>
<path fill="none" stroke="black" d="M688.1,-292.81C653.94,-280.22 600.87,-260.67 566.07,-247.85"/>
<polygon fill="black" stroke="black" points="566.93,-244.43 556.33,-244.26 564.51,-251 566.93,-244.43"/>
</g>
<!-- _vsnprintf&#45;&gt;_ftoa -->
<g id="edge30" class="edge">
<title>_vsnprintf&#45;&gt;_ftoa</title>
<path fill="none" stroke="black" d="M706.05,-288.71C682.53,-263.41 637.14,-214.58 610.38,-185.79"/>
<polygon fill="black" stroke="black" points="612.73,-183.18 603.36,-178.24 607.61,-187.95 612.73,-183.18"/>
</g>
<!-- printf&#45;&gt;_vsnprintf -->
<g id="edge34" class="edge">
<title>printf&#45;&gt;_vsnprintf</title>
<path fill="none" stroke="black" d="M737.87,-360.05C735.42,-352.26 732.45,-342.82 729.71,-334.08"/>
<polygon fill="black" stroke="black" points="732.96,-332.77 726.63,-324.28 726.28,-334.86 732.96,-332.77"/>
</g>
<!-- vsnprintf -->
<g id="node25" class="node">
<title>vsnprintf</title>
<ellipse fill="none" stroke="black" cx="2453.2" cy="-450" rx="42.79" ry="18"/>
<text text-anchor="middle" x="2453.2" y="-446.3" font-family="Times New Roman,serif" font-size="14.00">vsnprintf</text>
</g>
<!-- &lt;_vsnprintf&gt; * -->
<g id="node26" class="node">
<title>&lt;_vsnprintf&gt; *</title>
<ellipse fill="none" stroke="black" cx="2493.2" cy="-378" rx="65.79" ry="18"/>
<text text-anchor="middle" x="2493.2" y="-374.3" font-family="Times New Roman,serif" font-size="14.00">&lt;_vsnprintf&gt; *</text>
</g>
<!-- vsnprintf&#45;&gt;&lt;_vsnprintf&gt; * -->
<g id="edge35" class="edge">
<title>vsnprintf&#45;&gt;&lt;_vsnprintf&gt; *</title>
<path fill="none" stroke="black" d="M2462.68,-432.41C2467.39,-424.16 2473.19,-414.01 2478.47,-404.78"/>
<polygon fill="black" stroke="black" points="2481.58,-406.38 2483.51,-395.96 2475.51,-402.9 2481.58,-406.38"/>
</g>
<!-- ck_uart_set_wordsize -->
<g id="node28" class="node">
<title>ck_uart_set_wordsize</title>
<ellipse fill="none" stroke="black" cx="1054.2" cy="-306" rx="90.98" ry="18"/>
<text text-anchor="middle" x="1054.2" y="-302.3" font-family="Times New Roman,serif" font-size="14.00">ck_uart_set_wordsize</text>
</g>
<!-- ck_uart_init&#45;&gt;ck_uart_set_wordsize -->
<g id="edge36" class="edge">
<title>ck_uart_init&#45;&gt;ck_uart_set_wordsize</title>
<path fill="none" stroke="black" d="M901.12,-364C929.99,-353.25 971.36,-337.84 1003.82,-325.76"/>
<polygon fill="black" stroke="black" points="1005.43,-328.89 1013.58,-322.12 1002.99,-322.33 1005.43,-328.89"/>
</g>
<!-- ck_uart_set_parity -->
<g id="node29" class="node">
<title>ck_uart_set_parity</title>
<ellipse fill="none" stroke="black" cx="866.2" cy="-306" rx="78.79" ry="18"/>
<text text-anchor="middle" x="866.2" y="-302.3" font-family="Times New Roman,serif" font-size="14.00">ck_uart_set_parity</text>
</g>
<!-- ck_uart_init&#45;&gt;ck_uart_set_parity -->
<g id="edge37" class="edge">
<title>ck_uart_init&#45;&gt;ck_uart_set_parity</title>
<path fill="none" stroke="black" d="M866.2,-359.7C866.2,-351.98 866.2,-342.71 866.2,-334.11"/>
<polygon fill="black" stroke="black" points="869.7,-334.1 866.2,-324.1 862.7,-334.1 869.7,-334.1"/>
</g>
<!-- vasprintf -->
<g id="node30" class="node">
<title>vasprintf</title>
<ellipse fill="none" stroke="black" cx="2217.2" cy="-522" rx="42.49" ry="18"/>
<text text-anchor="middle" x="2217.2" y="-518.3" font-family="Times New Roman,serif" font-size="14.00">vasprintf</text>
</g>
<!-- vasprintf&#45;&gt;vsnprintf -->
<g id="edge42" class="edge">
<title>vasprintf&#45;&gt;vsnprintf</title>
<path fill="none" stroke="black" d="M2250.76,-511.05C2292.37,-498.7 2363.41,-477.63 2409.31,-464.02"/>
<polygon fill="black" stroke="black" points="2410.39,-467.35 2418.98,-461.15 2408.4,-460.64 2410.39,-467.35"/>
</g>
<!-- strlen -->
<g id="node31" class="node">
<title>strlen</title>
<ellipse fill="none" stroke="black" cx="1969.2" cy="-450" rx="30.59" ry="18"/>
<text text-anchor="middle" x="1969.2" y="-446.3" font-family="Times New Roman,serif" font-size="14.00">strlen</text>
</g>
<!-- vasprintf&#45;&gt;strlen -->
<g id="edge38" class="edge">
<title>vasprintf&#45;&gt;strlen</title>
<path fill="none" stroke="black" d="M2182.97,-511.34C2136.45,-498.21 2053.6,-474.82 2005.85,-461.35"/>
<polygon fill="black" stroke="black" points="2006.79,-457.98 1996.22,-458.63 2004.89,-464.71 2006.79,-457.98"/>
</g>
<!-- strdup -->
<g id="node32" class="node">
<title>strdup</title>
<ellipse fill="none" stroke="black" cx="2104.2" cy="-450" rx="34.39" ry="18"/>
<text text-anchor="middle" x="2104.2" y="-446.3" font-family="Times New Roman,serif" font-size="14.00">strdup</text>
</g>
<!-- vasprintf&#45;&gt;strdup -->
<g id="edge39" class="edge">
<title>vasprintf&#45;&gt;strdup</title>
<path fill="none" stroke="black" d="M2194.33,-506.83C2176.96,-496.07 2152.92,-481.18 2134.04,-469.49"/>
<polygon fill="black" stroke="black" points="2135.84,-466.49 2125.5,-464.2 2132.16,-472.44 2135.84,-466.49"/>
</g>
<!-- malloc -->
<g id="node33" class="node">
<title>malloc</title>
<ellipse fill="none" stroke="black" cx="2217.2" cy="-450" rx="34.39" ry="18"/>
<text text-anchor="middle" x="2217.2" y="-446.3" font-family="Times New Roman,serif" font-size="14.00">malloc</text>
</g>
<!-- vasprintf&#45;&gt;malloc -->
<g id="edge40" class="edge">
<title>vasprintf&#45;&gt;malloc</title>
<path fill="none" stroke="black" d="M2217.2,-503.7C2217.2,-495.98 2217.2,-486.71 2217.2,-478.11"/>
<polygon fill="black" stroke="black" points="2220.7,-478.1 2217.2,-468.1 2213.7,-478.1 2220.7,-478.1"/>
</g>
<!-- free -->
<g id="node34" class="node">
<title>free</title>
<ellipse fill="none" stroke="black" cx="2325.2" cy="-450" rx="27" ry="18"/>
<text text-anchor="middle" x="2325.2" y="-446.3" font-family="Times New Roman,serif" font-size="14.00">free</text>
</g>
<!-- vasprintf&#45;&gt;free -->
<g id="edge41" class="edge">
<title>vasprintf&#45;&gt;free</title>
<path fill="none" stroke="black" d="M2239.57,-506.5C2256.41,-495.58 2279.58,-480.57 2297.57,-468.91"/>
<polygon fill="black" stroke="black" points="2299.96,-471.53 2306.45,-463.15 2296.15,-465.66 2299.96,-471.53"/>
</g>
<!-- &lt;_strdup_r&gt; * -->
<g id="node52" class="node">
<title>&lt;_strdup_r&gt; *</title>
<ellipse fill="none" stroke="black" cx="2070.2" cy="-378" rx="64.19" ry="18"/>
<text text-anchor="middle" x="2070.2" y="-374.3" font-family="Times New Roman,serif" font-size="14.00">&lt;_strdup_r&gt; *</text>
</g>
<!-- strdup&#45;&gt;&lt;_strdup_r&gt; * -->
<g id="edge66" class="edge">
<title>strdup&#45;&gt;&lt;_strdup_r&gt; *</title>
<path fill="none" stroke="black" d="M2096.14,-432.41C2092.17,-424.25 2087.3,-414.22 2082.86,-405.07"/>
<polygon fill="black" stroke="black" points="2085.95,-403.42 2078.43,-395.96 2079.65,-406.48 2085.95,-403.42"/>
</g>
<!-- &lt;_malloc_r&gt; * -->
<g id="node42" class="node">
<title>&lt;_malloc_r&gt; *</title>
<ellipse fill="none" stroke="black" cx="2217.2" cy="-378" rx="64.99" ry="18"/>
<text text-anchor="middle" x="2217.2" y="-374.3" font-family="Times New Roman,serif" font-size="14.00">&lt;_malloc_r&gt; *</text>
</g>
<!-- malloc&#45;&gt;&lt;_malloc_r&gt; * -->
<g id="edge57" class="edge">
<title>malloc&#45;&gt;&lt;_malloc_r&gt; *</title>
<path fill="none" stroke="black" d="M2217.2,-431.7C2217.2,-423.98 2217.2,-414.71 2217.2,-406.11"/>
<polygon fill="black" stroke="black" points="2220.7,-406.1 2217.2,-396.1 2213.7,-406.1 2220.7,-406.1"/>
</g>
<!-- &lt;_free_r&gt; * -->
<g id="node43" class="node">
<title>&lt;_free_r&gt; *</title>
<ellipse fill="none" stroke="black" cx="2355.2" cy="-378" rx="54.69" ry="18"/>
<text text-anchor="middle" x="2355.2" y="-374.3" font-family="Times New Roman,serif" font-size="14.00">&lt;_free_r&gt; *</text>
</g>
<!-- free&#45;&gt;&lt;_free_r&gt; * -->
<g id="edge58" class="edge">
<title>free&#45;&gt;&lt;_free_r&gt; *</title>
<path fill="none" stroke="black" d="M2332.31,-432.41C2335.77,-424.34 2340.01,-414.43 2343.9,-405.35"/>
<polygon fill="black" stroke="black" points="2347.21,-406.53 2347.93,-395.96 2340.77,-403.77 2347.21,-406.53"/>
</g>
<!-- _malloc_r -->
<g id="node44" class="node">
<title>_malloc_r</title>
<ellipse fill="none" stroke="black" cx="1846.2" cy="-450" rx="47.39" ry="18"/>
<text text-anchor="middle" x="1846.2" y="-446.3" font-family="Times New Roman,serif" font-size="14.00">_malloc_r</text>
</g>
<!-- __malloc_lock -->
<g id="node45" class="node">
<title>__malloc_lock</title>
<ellipse fill="none" stroke="black" cx="1780.2" cy="-234" rx="64.99" ry="18"/>
<text text-anchor="middle" x="1780.2" y="-230.3" font-family="Times New Roman,serif" font-size="14.00">__malloc_lock</text>
</g>
<!-- _malloc_r&#45;&gt;__malloc_lock -->
<g id="edge59" class="edge">
<title>_malloc_r&#45;&gt;__malloc_lock</title>
<path fill="none" stroke="black" d="M1829.44,-432.75C1808.06,-410.58 1772.48,-368.52 1761.2,-324 1755.94,-303.26 1761.56,-279.56 1768.02,-261.83"/>
<polygon fill="black" stroke="black" points="1771.43,-262.74 1771.85,-252.15 1764.92,-260.16 1771.43,-262.74"/>
</g>
<!-- _sbrk_r -->
<g id="node46" class="node">
<title>_sbrk_r</title>
<ellipse fill="none" stroke="black" cx="1657.2" cy="-234" rx="39.79" ry="18"/>
<text text-anchor="middle" x="1657.2" y="-230.3" font-family="Times New Roman,serif" font-size="14.00">_sbrk_r</text>
</g>
<!-- _malloc_r&#45;&gt;_sbrk_r -->
<g id="edge60" class="edge">
<title>_malloc_r&#45;&gt;_sbrk_r</title>
<path fill="none" stroke="black" d="M1822.02,-434.27C1807.03,-424.48 1787.9,-410.76 1773.2,-396 1730.74,-353.39 1692.24,-294.02 1672.05,-260.57"/>
<polygon fill="black" stroke="black" points="1674.98,-258.65 1666.85,-251.85 1668.97,-262.23 1674.98,-258.65"/>
</g>
<!-- _free_r -->
<g id="node47" class="node">
<title>_free_r</title>
<ellipse fill="none" stroke="black" cx="1846.2" cy="-378" rx="37.09" ry="18"/>
<text text-anchor="middle" x="1846.2" y="-374.3" font-family="Times New Roman,serif" font-size="14.00">_free_r</text>
</g>
<!-- _malloc_r&#45;&gt;_free_r -->
<g id="edge61" class="edge">
<title>_malloc_r&#45;&gt;_free_r</title>
<path fill="none" stroke="black" d="M1846.2,-431.7C1846.2,-423.98 1846.2,-414.71 1846.2,-406.11"/>
<polygon fill="black" stroke="black" points="1849.7,-406.1 1846.2,-396.1 1842.7,-406.1 1849.7,-406.1"/>
</g>
<!-- __malloc_unlock -->
<g id="node48" class="node">
<title>__malloc_unlock</title>
<ellipse fill="none" stroke="black" cx="1952.2" cy="-234" rx="73.39" ry="18"/>
<text text-anchor="middle" x="1952.2" y="-230.3" font-family="Times New Roman,serif" font-size="14.00">__malloc_unlock</text>
</g>
<!-- _malloc_r&#45;&gt;__malloc_unlock -->
<g id="edge62" class="edge">
<title>_malloc_r&#45;&gt;__malloc_unlock</title>
<path fill="none" stroke="black" d="M1864.35,-432.95C1887.71,-411.02 1927.31,-369.21 1944.2,-324 1951.56,-304.29 1953.37,-280.49 1953.44,-262.46"/>
<polygon fill="black" stroke="black" points="1956.94,-262.28 1953.3,-252.32 1949.94,-262.37 1956.94,-262.28"/>
</g>
<!-- &lt;__retarget_lock_acquire_recursive&gt; * -->
<g id="node49" class="node">
<title>&lt;__retarget_lock_acquire_recursive&gt; *</title>
<ellipse fill="none" stroke="black" cx="1780.2" cy="-162" rx="154.07" ry="18"/>
<text text-anchor="middle" x="1780.2" y="-158.3" font-family="Times New Roman,serif" font-size="14.00">&lt;__retarget_lock_acquire_recursive&gt; *</text>
</g>
<!-- __malloc_lock&#45;&gt;&lt;__retarget_lock_acquire_recursive&gt; * -->
<g id="edge63" class="edge">
<title>__malloc_lock&#45;&gt;&lt;__retarget_lock_acquire_recursive&gt; *</title>
<path fill="none" stroke="black" d="M1780.2,-215.7C1780.2,-207.98 1780.2,-198.71 1780.2,-190.11"/>
<polygon fill="black" stroke="black" points="1783.7,-190.1 1780.2,-180.1 1776.7,-190.1 1783.7,-190.1"/>
</g>
<!-- _sbrk -->
<g id="node51" class="node">
<title>_sbrk</title>
<ellipse fill="none" stroke="black" cx="1576.2" cy="-162" rx="31.7" ry="18"/>
<text text-anchor="middle" x="1576.2" y="-158.3" font-family="Times New Roman,serif" font-size="14.00">_sbrk</text>
</g>
<!-- _sbrk_r&#45;&gt;_sbrk -->
<g id="edge65" class="edge">
<title>_sbrk_r&#45;&gt;_sbrk</title>
<path fill="none" stroke="black" d="M1639.62,-217.81C1628.25,-207.98 1613.28,-195.04 1600.73,-184.21"/>
<polygon fill="black" stroke="black" points="1602.76,-181.33 1592.91,-177.44 1598.18,-186.63 1602.76,-181.33"/>
</g>
<!-- _free_r&#45;&gt;__malloc_lock -->
<g id="edge73" class="edge">
<title>_free_r&#45;&gt;__malloc_lock</title>
<path fill="none" stroke="black" d="M1818.78,-365.67C1801.71,-357.01 1781.17,-343.26 1771.2,-324 1761.25,-304.8 1764.79,-280.16 1770.08,-261.68"/>
<polygon fill="black" stroke="black" points="1773.42,-262.71 1773.13,-252.12 1766.76,-260.58 1773.42,-262.71"/>
</g>
<!-- _free_r&#45;&gt;__malloc_unlock -->
<g id="edge75" class="edge">
<title>_free_r&#45;&gt;__malloc_unlock</title>
<path fill="none" stroke="black" d="M1871.23,-364.6C1887.5,-355.4 1908.06,-341.45 1921.2,-324 1934.92,-305.78 1942.89,-281.01 1947.3,-262.23"/>
<polygon fill="black" stroke="black" points="1950.77,-262.73 1949.45,-252.22 1943.93,-261.26 1950.77,-262.73"/>
</g>
<!-- _malloc_trim_r -->
<g id="node55" class="node">
<title>_malloc_trim_r</title>
<ellipse fill="none" stroke="black" cx="1846.2" cy="-306" rx="66.09" ry="18"/>
<text text-anchor="middle" x="1846.2" y="-302.3" font-family="Times New Roman,serif" font-size="14.00">_malloc_trim_r</text>
</g>
<!-- _free_r&#45;&gt;_malloc_trim_r -->
<g id="edge74" class="edge">
<title>_free_r&#45;&gt;_malloc_trim_r</title>
<path fill="none" stroke="black" d="M1846.2,-359.7C1846.2,-351.98 1846.2,-342.71 1846.2,-334.11"/>
<polygon fill="black" stroke="black" points="1849.7,-334.1 1846.2,-324.1 1842.7,-334.1 1849.7,-334.1"/>
</g>
<!-- &lt;__retarget_lock_release_recursive&gt; * -->
<g id="node50" class="node">
<title>&lt;__retarget_lock_release_recursive&gt; *</title>
<ellipse fill="none" stroke="black" cx="2104.2" cy="-162" rx="152.17" ry="18"/>
<text text-anchor="middle" x="2104.2" y="-158.3" font-family="Times New Roman,serif" font-size="14.00">&lt;__retarget_lock_release_recursive&gt; *</text>
</g>
<!-- __malloc_unlock&#45;&gt;&lt;__retarget_lock_release_recursive&gt; * -->
<g id="edge64" class="edge">
<title>__malloc_unlock&#45;&gt;&lt;__retarget_lock_release_recursive&gt; *</title>
<path fill="none" stroke="black" d="M1985.18,-217.81C2006.84,-207.84 2035.45,-194.66 2059.19,-183.73"/>
<polygon fill="black" stroke="black" points="2060.74,-186.87 2068.36,-179.5 2057.81,-180.51 2060.74,-186.87"/>
</g>
<!-- __errno -->
<g id="node56" class="node">
<title>__errno</title>
<ellipse fill="none" stroke="black" cx="1576.2" cy="-90" rx="39.79" ry="18"/>
<text text-anchor="middle" x="1576.2" y="-86.3" font-family="Times New Roman,serif" font-size="14.00">__errno</text>
</g>
<!-- _sbrk&#45;&gt;__errno -->
<g id="edge76" class="edge">
<title>_sbrk&#45;&gt;__errno</title>
<path fill="none" stroke="black" d="M1576.2,-143.7C1576.2,-135.98 1576.2,-126.71 1576.2,-118.11"/>
<polygon fill="black" stroke="black" points="1579.7,-118.1 1576.2,-108.1 1572.7,-118.1 1579.7,-118.1"/>
</g>
<!-- _strdup_r -->
<g id="node53" class="node">
<title>_strdup_r</title>
<ellipse fill="none" stroke="black" cx="1846.2" cy="-522" rx="46.59" ry="18"/>
<text text-anchor="middle" x="1846.2" y="-518.3" font-family="Times New Roman,serif" font-size="14.00">_strdup_r</text>
</g>
<!-- _strdup_r&#45;&gt;strlen -->
<g id="edge67" class="edge">
<title>_strdup_r&#45;&gt;strlen</title>
<path fill="none" stroke="black" d="M1871.38,-506.67C1890.98,-495.52 1918.23,-480.01 1938.99,-468.19"/>
<polygon fill="black" stroke="black" points="1940.78,-471.2 1947.74,-463.21 1937.31,-465.12 1940.78,-471.2"/>
</g>
<!-- _strdup_r&#45;&gt;_malloc_r -->
<g id="edge68" class="edge">
<title>_strdup_r&#45;&gt;_malloc_r</title>
<path fill="none" stroke="black" d="M1846.2,-503.7C1846.2,-495.98 1846.2,-486.71 1846.2,-478.11"/>
<polygon fill="black" stroke="black" points="1849.7,-478.1 1846.2,-468.1 1842.7,-478.1 1849.7,-478.1"/>
</g>
<!-- memcpy -->
<g id="node54" class="node">
<title>memcpy</title>
<ellipse fill="none" stroke="black" cx="1738.2" cy="-450" rx="42.49" ry="18"/>
<text text-anchor="middle" x="1738.2" y="-446.3" font-family="Times New Roman,serif" font-size="14.00">memcpy</text>
</g>
<!-- _strdup_r&#45;&gt;memcpy -->
<g id="edge69" class="edge">
<title>_strdup_r&#45;&gt;memcpy</title>
<path fill="none" stroke="black" d="M1823.29,-506.15C1807.47,-495.9 1786.26,-482.15 1768.96,-470.94"/>
<polygon fill="black" stroke="black" points="1770.62,-467.85 1760.33,-465.35 1766.82,-473.72 1770.62,-467.85"/>
</g>
<!-- _malloc_trim_r&#45;&gt;__malloc_lock -->
<g id="edge70" class="edge">
<title>_malloc_trim_r&#45;&gt;__malloc_lock</title>
<path fill="none" stroke="black" d="M1830.55,-288.41C1822.37,-279.73 1812.2,-268.95 1803.15,-259.34"/>
<polygon fill="black" stroke="black" points="1805.59,-256.83 1796.18,-251.96 1800.5,-261.63 1805.59,-256.83"/>
</g>
<!-- _malloc_trim_r&#45;&gt;_sbrk_r -->
<g id="edge71" class="edge">
<title>_malloc_trim_r&#45;&gt;_sbrk_r</title>
<path fill="none" stroke="black" d="M1808.4,-291C1775.99,-279 1729.46,-261.76 1696.59,-249.59"/>
<polygon fill="black" stroke="black" points="1697.45,-246.18 1686.86,-245.99 1695.02,-252.74 1697.45,-246.18"/>
</g>
<!-- _malloc_trim_r&#45;&gt;__malloc_unlock -->
<g id="edge72" class="edge">
<title>_malloc_trim_r&#45;&gt;__malloc_unlock</title>
<path fill="none" stroke="black" d="M1870.25,-289.12C1884.78,-279.52 1903.51,-267.15 1919.39,-256.67"/>
<polygon fill="black" stroke="black" points="1921.46,-259.49 1927.87,-251.06 1917.6,-253.65 1921.46,-259.49"/>
</g>
</g>
</svg>
