<?xml version="1.0" encoding="UTF-8" standalone="no"?>
<!DOCTYPE svg PUBLIC "-//W3C//DTD SVG 1.1//EN"
 "http://www.w3.org/Graphics/SVG/1.1/DTD/svg11.dtd">
<!-- Generated by graphviz version 6.0.2 (20221011.1828)
 -->
<!-- Pages: 1 -->
<svg width="2626pt" height="548pt"
 viewBox="0.00 0.00 2625.74 548.00" xmlns="http://www.w3.org/2000/svg" xmlns:xlink="http://www.w3.org/1999/xlink">
<g id="graph0" class="graph" transform="scale(1 1) rotate(0) translate(4 544)">
<polygon fill="white" stroke="none" points="-4,4 -4,-544 2621.74,-544 2621.74,4 -4,4"/>
<!-- __to_main -->
<g id="node1" class="node">
<title>__to_main</title>
<ellipse fill="none" stroke="black" cx="1090.09" cy="-522" rx="50.09" ry="18"/>
<text text-anchor="middle" x="1090.09" y="-518.3" font-family="Times New Roman,serif" font-size="14.00">__to_main</text>
</g>
<!-- main -->
<g id="node2" class="node">
<title>main</title>
<ellipse fill="none" stroke="black" cx="1090.09" cy="-450" rx="27.9" ry="18"/>
<text text-anchor="middle" x="1090.09" y="-446.3" font-family="Times New Roman,serif" font-size="14.00">main</text>
</g>
<!-- __to_main&#45;&gt;main -->
<g id="edge1" class="edge">
<title>__to_main&#45;&gt;main</title>
<path fill="none" stroke="black" d="M1090.09,-503.7C1090.09,-495.98 1090.09,-486.71 1090.09,-478.11"/>
<polygon fill="black" stroke="black" points="1093.59,-478.1 1090.09,-468.1 1086.59,-478.1 1093.59,-478.1"/>
</g>
<!-- printf -->
<g id="node24" class="node">
<title>printf</title>
<ellipse fill="none" stroke="black" cx="673.09" cy="-378" rx="30.59" ry="18"/>
<text text-anchor="middle" x="673.09" y="-374.3" font-family="Times New Roman,serif" font-size="14.00">printf</text>
</g>
<!-- main&#45;&gt;printf -->
<g id="edge49" class="edge">
<title>main&#45;&gt;printf</title>
<path fill="none" stroke="black" d="M1062.62,-445.82C1003.24,-438.74 858.66,-420.36 739.09,-396 729.64,-394.07 719.52,-391.65 710.11,-389.24"/>
<polygon fill="black" stroke="black" points="710.8,-385.81 700.24,-386.66 709.03,-392.58 710.8,-385.81"/>
</g>
<!-- ck_uart_init -->
<g id="node27" class="node">
<title>ck_uart_init</title>
<ellipse fill="none" stroke="black" cx="802.09" cy="-378" rx="53.89" ry="18"/>
<text text-anchor="middle" x="802.09" y="-374.3" font-family="Times New Roman,serif" font-size="14.00">ck_uart_init</text>
</g>
<!-- main&#45;&gt;ck_uart_init -->
<g id="edge48" class="edge">
<title>main&#45;&gt;ck_uart_init</title>
<path fill="none" stroke="black" d="M1064.04,-443.15C1022.06,-433.66 936.88,-414.14 865.09,-396 860.96,-394.95 856.67,-393.85 852.37,-392.72"/>
<polygon fill="black" stroke="black" points="852.94,-389.25 842.37,-390.08 851.15,-396.02 852.94,-389.25"/>
</g>
<!-- ck_intc_init -->
<g id="node35" class="node">
<title>ck_intc_init</title>
<ellipse fill="none" stroke="black" cx="927.09" cy="-378" rx="53.09" ry="18"/>
<text text-anchor="middle" x="927.09" y="-374.3" font-family="Times New Roman,serif" font-size="14.00">ck_intc_init</text>
</g>
<!-- main&#45;&gt;ck_intc_init -->
<g id="edge43" class="edge">
<title>main&#45;&gt;ck_intc_init</title>
<path fill="none" stroke="black" d="M1067.43,-439.27C1041.82,-428.27 999.63,-410.15 968.18,-396.64"/>
<polygon fill="black" stroke="black" points="969.36,-393.34 958.79,-392.61 966.6,-399.78 969.36,-393.34"/>
</g>
<!-- memset -->
<g id="node36" class="node">
<title>memset</title>
<ellipse fill="none" stroke="black" cx="1037.09" cy="-378" rx="38.19" ry="18"/>
<text text-anchor="middle" x="1037.09" y="-374.3" font-family="Times New Roman,serif" font-size="14.00">memset</text>
</g>
<!-- main&#45;&gt;memset -->
<g id="edge44" class="edge">
<title>main&#45;&gt;memset</title>
<path fill="none" stroke="black" d="M1078.33,-433.46C1071.66,-424.65 1063.16,-413.43 1055.62,-403.46"/>
<polygon fill="black" stroke="black" points="1058.39,-401.33 1049.56,-395.47 1052.81,-405.55 1058.39,-401.33"/>
</g>
<!-- get_vtimer -->
<g id="node37" class="node">
<title>get_vtimer</title>
<ellipse fill="none" stroke="black" cx="1142.09" cy="-378" rx="48.99" ry="18"/>
<text text-anchor="middle" x="1142.09" y="-374.3" font-family="Times New Roman,serif" font-size="14.00">get_vtimer</text>
</g>
<!-- main&#45;&gt;get_vtimer -->
<g id="edge45" class="edge">
<title>main&#45;&gt;get_vtimer</title>
<path fill="none" stroke="black" d="M1101.64,-433.46C1108.11,-424.74 1116.35,-413.65 1123.7,-403.76"/>
<polygon fill="black" stroke="black" points="1126.71,-405.58 1129.86,-395.47 1121.09,-401.41 1126.71,-405.58"/>
</g>
<!-- ck_uart_open -->
<g id="node38" class="node">
<title>ck_uart_open</title>
<ellipse fill="none" stroke="black" cx="1270.09" cy="-378" rx="61.19" ry="18"/>
<text text-anchor="middle" x="1270.09" y="-374.3" font-family="Times New Roman,serif" font-size="14.00">ck_uart_open</text>
</g>
<!-- main&#45;&gt;ck_uart_open -->
<g id="edge46" class="edge">
<title>main&#45;&gt;ck_uart_open</title>
<path fill="none" stroke="black" d="M1113.63,-439.85C1141.85,-428.87 1189.77,-410.24 1225.16,-396.47"/>
<polygon fill="black" stroke="black" points="1226.74,-399.62 1234.79,-392.73 1224.2,-393.09 1226.74,-399.62"/>
</g>
<!-- sim_end -->
<g id="node39" class="node">
<title>sim_end</title>
<ellipse fill="none" stroke="black" cx="1391.09" cy="-378" rx="41.69" ry="18"/>
<text text-anchor="middle" x="1391.09" y="-374.3" font-family="Times New Roman,serif" font-size="14.00">sim_end</text>
</g>
<!-- main&#45;&gt;sim_end -->
<g id="edge47" class="edge">
<title>main&#45;&gt;sim_end</title>
<path fill="none" stroke="black" d="M1116.97,-444.33C1163.02,-436.11 1259.82,-417.81 1340.09,-396 1343.44,-395.09 1346.88,-394.09 1350.33,-393.04"/>
<polygon fill="black" stroke="black" points="1351.5,-396.34 1359.98,-389.99 1349.39,-389.67 1351.5,-396.34"/>
</g>
<!-- ck_uart_status -->
<g id="node40" class="node">
<title>ck_uart_status</title>
<ellipse fill="none" stroke="black" cx="1514.09" cy="-378" rx="63.89" ry="18"/>
<text text-anchor="middle" x="1514.09" y="-374.3" font-family="Times New Roman,serif" font-size="14.00">ck_uart_status</text>
</g>
<!-- main&#45;&gt;ck_uart_status -->
<g id="edge50" class="edge">
<title>main&#45;&gt;ck_uart_status</title>
<path fill="none" stroke="black" d="M1117.61,-445.64C1177.08,-438.21 1321.95,-419.19 1442.09,-396 1447.17,-395.02 1452.42,-393.93 1457.68,-392.79"/>
<polygon fill="black" stroke="black" points="1458.74,-396.14 1467.74,-390.54 1457.22,-389.3 1458.74,-396.14"/>
</g>
<!-- _ntoa_format -->
<g id="node3" class="node">
<title>_ntoa_format</title>
<ellipse fill="none" stroke="black" cx="61.09" cy="-90" rx="59.59" ry="18"/>
<text text-anchor="middle" x="61.09" y="-86.3" font-family="Times New Roman,serif" font-size="14.00">_ntoa_format</text>
</g>
<!-- _out_rev -->
<g id="node4" class="node">
<title>_out_rev</title>
<ellipse fill="none" stroke="black" cx="278.09" cy="-18" rx="43.59" ry="18"/>
<text text-anchor="middle" x="278.09" y="-14.3" font-family="Times New Roman,serif" font-size="14.00">_out_rev</text>
</g>
<!-- _ntoa_format&#45;&gt;_out_rev -->
<g id="edge2" class="edge">
<title>_ntoa_format&#45;&gt;_out_rev</title>
<path fill="none" stroke="black" d="M100.39,-76.32C138.45,-64.05 196,-45.48 235.22,-32.83"/>
<polygon fill="black" stroke="black" points="236.33,-36.15 244.78,-29.75 234.19,-29.49 236.33,-36.15"/>
</g>
<!-- &lt;_out_rev&gt; * -->
<g id="node5" class="node">
<title>&lt;_out_rev&gt; *</title>
<ellipse fill="none" stroke="black" cx="61.09" cy="-18" rx="61.19" ry="18"/>
<text text-anchor="middle" x="61.09" y="-14.3" font-family="Times New Roman,serif" font-size="14.00">&lt;_out_rev&gt; *</text>
</g>
<!-- _ntoa_format&#45;&gt;&lt;_out_rev&gt; * -->
<g id="edge3" class="edge">
<title>_ntoa_format&#45;&gt;&lt;_out_rev&gt; *</title>
<path fill="none" stroke="black" d="M61.09,-71.7C61.09,-63.98 61.09,-54.71 61.09,-46.11"/>
<polygon fill="black" stroke="black" points="64.59,-46.1 61.09,-36.1 57.59,-46.1 64.59,-46.1"/>
</g>
<!-- _ntoa_long -->
<g id="node6" class="node">
<title>_ntoa_long</title>
<ellipse fill="none" stroke="black" cx="536.09" cy="-162" rx="51.99" ry="18"/>
<text text-anchor="middle" x="536.09" y="-158.3" font-family="Times New Roman,serif" font-size="14.00">_ntoa_long</text>
</g>
<!-- _ntoa_long&#45;&gt;_ntoa_format -->
<g id="edge4" class="edge">
<title>_ntoa_long&#45;&gt;_ntoa_format</title>
<path fill="none" stroke="black" d="M486.62,-156.42C409.72,-148.88 257.04,-132.24 129.09,-108 124.14,-107.06 119.01,-105.98 113.89,-104.83"/>
<polygon fill="black" stroke="black" points="114.63,-101.41 104.1,-102.55 113.04,-108.23 114.63,-101.41"/>
</g>
<!-- _ntoa_long_long -->
<g id="node7" class="node">
<title>_ntoa_long_long</title>
<ellipse fill="none" stroke="black" cx="237.09" cy="-234" rx="72.29" ry="18"/>
<text text-anchor="middle" x="237.09" y="-230.3" font-family="Times New Roman,serif" font-size="14.00">_ntoa_long_long</text>
</g>
<!-- _ntoa_long_long&#45;&gt;_ntoa_format -->
<g id="edge7" class="edge">
<title>_ntoa_long_long&#45;&gt;_ntoa_format</title>
<path fill="none" stroke="black" d="M229.38,-215.84C219.81,-196.21 201.81,-164.19 178.09,-144 158.87,-127.63 133.76,-115.37 111.73,-106.79"/>
<polygon fill="black" stroke="black" points="112.78,-103.44 102.18,-103.22 110.32,-110 112.78,-103.44"/>
</g>
<!-- __umoddi3 -->
<g id="node8" class="node">
<title>__umoddi3</title>
<ellipse fill="none" stroke="black" cx="278.09" cy="-162" rx="52.79" ry="18"/>
<text text-anchor="middle" x="278.09" y="-158.3" font-family="Times New Roman,serif" font-size="14.00">__umoddi3</text>
</g>
<!-- _ntoa_long_long&#45;&gt;__umoddi3 -->
<g id="edge5" class="edge">
<title>_ntoa_long_long&#45;&gt;__umoddi3</title>
<path fill="none" stroke="black" d="M247.02,-216.05C251.85,-207.8 257.77,-197.7 263.14,-188.54"/>
<polygon fill="black" stroke="black" points="266.23,-190.19 268.26,-179.79 260.19,-186.65 266.23,-190.19"/>
</g>
<!-- __udivdi3 -->
<g id="node9" class="node">
<title>__udivdi3</title>
<ellipse fill="none" stroke="black" cx="122.09" cy="-162" rx="47.39" ry="18"/>
<text text-anchor="middle" x="122.09" y="-158.3" font-family="Times New Roman,serif" font-size="14.00">__udivdi3</text>
</g>
<!-- _ntoa_long_long&#45;&gt;__udivdi3 -->
<g id="edge6" class="edge">
<title>_ntoa_long_long&#45;&gt;__udivdi3</title>
<path fill="none" stroke="black" d="M211,-217.12C194.41,-207.02 172.79,-193.86 155.02,-183.04"/>
<polygon fill="black" stroke="black" points="156.49,-179.84 146.13,-177.63 152.85,-185.82 156.49,-179.84"/>
</g>
<!-- _etoa -->
<g id="node10" class="node">
<title>_etoa</title>
<ellipse fill="none" stroke="black" cx="770.09" cy="-234" rx="30.59" ry="18"/>
<text text-anchor="middle" x="770.09" y="-230.3" font-family="Times New Roman,serif" font-size="14.00">_etoa</text>
</g>
<!-- _etoa&#45;&gt;_ntoa_long -->
<g id="edge9" class="edge">
<title>_etoa&#45;&gt;_ntoa_long</title>
<path fill="none" stroke="black" d="M743.25,-224.97C704.47,-213.37 632.17,-191.74 584.08,-177.35"/>
<polygon fill="black" stroke="black" points="584.79,-173.91 574.2,-174.4 582.78,-180.62 584.79,-173.91"/>
</g>
<!-- __eqdf2 -->
<g id="node11" class="node">
<title>__eqdf2</title>
<ellipse fill="none" stroke="black" cx="1122.09" cy="-90" rx="41.69" ry="18"/>
<text text-anchor="middle" x="1122.09" y="-86.3" font-family="Times New Roman,serif" font-size="14.00">__eqdf2</text>
</g>
<!-- _etoa&#45;&gt;__eqdf2 -->
<g id="edge8" class="edge">
<title>_etoa&#45;&gt;__eqdf2</title>
<path fill="none" stroke="black" d="M795.43,-223.82C823.74,-213.48 870.89,-196.03 911.09,-180 972.25,-155.62 1042.58,-125.54 1084.62,-107.34"/>
<polygon fill="black" stroke="black" points="1086.13,-110.5 1093.91,-103.31 1083.35,-104.07 1086.13,-110.5"/>
</g>
<!-- _ftoa -->
<g id="node12" class="node">
<title>_ftoa</title>
<ellipse fill="none" stroke="black" cx="712.09" cy="-162" rx="29.8" ry="18"/>
<text text-anchor="middle" x="712.09" y="-158.3" font-family="Times New Roman,serif" font-size="14.00">_ftoa</text>
</g>
<!-- _etoa&#45;&gt;_ftoa -->
<g id="edge10" class="edge">
<title>_etoa&#45;&gt;_ftoa</title>
<path fill="none" stroke="black" d="M752.81,-218.83C744.21,-209.88 734.11,-198.07 726.01,-187.62"/>
<polygon fill="black" stroke="black" points="728.81,-185.51 720.01,-179.61 723.21,-189.71 728.81,-185.51"/>
</g>
<!-- __fixdfsi -->
<g id="node13" class="node">
<title>__fixdfsi</title>
<ellipse fill="none" stroke="black" cx="182.09" cy="-90" rx="43.59" ry="18"/>
<text text-anchor="middle" x="182.09" y="-86.3" font-family="Times New Roman,serif" font-size="14.00">__fixdfsi</text>
</g>
<!-- _etoa&#45;&gt;__fixdfsi -->
<g id="edge11" class="edge">
<title>_etoa&#45;&gt;__fixdfsi</title>
<path fill="none" stroke="black" d="M742.25,-226.58C712.62,-218.84 665.28,-203.83 630.09,-180 612.12,-167.83 616.5,-153.71 597.09,-144 452.51,-71.64 393.4,-140.87 235.09,-108 231.43,-107.24 227.65,-106.32 223.89,-105.3"/>
<polygon fill="black" stroke="black" points="224.61,-101.87 214.04,-102.44 222.66,-108.59 224.61,-101.87"/>
</g>
<!-- __floatsidf -->
<g id="node14" class="node">
<title>__floatsidf</title>
<ellipse fill="none" stroke="black" cx="294.09" cy="-90" rx="50.09" ry="18"/>
<text text-anchor="middle" x="294.09" y="-86.3" font-family="Times New Roman,serif" font-size="14.00">__floatsidf</text>
</g>
<!-- _etoa&#45;&gt;__floatsidf -->
<g id="edge12" class="edge">
<title>_etoa&#45;&gt;__floatsidf</title>
<path fill="none" stroke="black" d="M747.01,-222C726.87,-212.04 697.19,-196.43 673.09,-180 652.5,-165.96 652.93,-153.99 630.09,-144 514.73,-93.55 472.14,-134.69 349.09,-108 345.87,-107.3 342.57,-106.5 339.25,-105.63"/>
<polygon fill="black" stroke="black" points="339.93,-102.19 329.36,-102.88 338.06,-108.93 339.93,-102.19"/>
</g>
<!-- __divdf3 -->
<g id="node15" class="node">
<title>__divdf3</title>
<ellipse fill="none" stroke="black" cx="1111.09" cy="-162" rx="44.39" ry="18"/>
<text text-anchor="middle" x="1111.09" y="-158.3" font-family="Times New Roman,serif" font-size="14.00">__divdf3</text>
</g>
<!-- _etoa&#45;&gt;__divdf3 -->
<g id="edge13" class="edge">
<title>_etoa&#45;&gt;__divdf3</title>
<path fill="none" stroke="black" d="M799.18,-227.82C849.04,-218.83 954,-199.42 1042.09,-180 1049.47,-178.37 1057.26,-176.56 1064.84,-174.73"/>
<polygon fill="black" stroke="black" points="1065.76,-178.11 1074.65,-172.33 1064.1,-171.31 1065.76,-178.11"/>
</g>
<!-- __gedf2 -->
<g id="node16" class="node">
<title>__gedf2</title>
<ellipse fill="none" stroke="black" cx="817.09" cy="-90" rx="40.89" ry="18"/>
<text text-anchor="middle" x="817.09" y="-86.3" font-family="Times New Roman,serif" font-size="14.00">__gedf2</text>
</g>
<!-- _etoa&#45;&gt;__gedf2 -->
<g id="edge14" class="edge">
<title>_etoa&#45;&gt;__gedf2</title>
<path fill="none" stroke="black" d="M775.67,-216.15C783.68,-191.94 798.54,-147.05 808.11,-118.13"/>
<polygon fill="black" stroke="black" points="811.56,-118.86 811.38,-108.27 804.91,-116.66 811.56,-118.86"/>
</g>
<!-- __subdf3 -->
<g id="node17" class="node">
<title>__subdf3</title>
<ellipse fill="none" stroke="black" cx="712.09" cy="-90" rx="46.29" ry="18"/>
<text text-anchor="middle" x="712.09" y="-86.3" font-family="Times New Roman,serif" font-size="14.00">__subdf3</text>
</g>
<!-- _etoa&#45;&gt;__subdf3 -->
<g id="edge15" class="edge">
<title>_etoa&#45;&gt;__subdf3</title>
<path fill="none" stroke="black" d="M768.61,-215.94C766.53,-197.51 761.72,-167.63 751.09,-144 746.6,-134 739.99,-124.04 733.49,-115.51"/>
<polygon fill="black" stroke="black" points="736.07,-113.13 727.1,-107.5 730.6,-117.5 736.07,-113.13"/>
</g>
<!-- __ledf2 -->
<g id="node18" class="node">
<title>__ledf2</title>
<ellipse fill="none" stroke="black" cx="1024.09" cy="-90" rx="38.19" ry="18"/>
<text text-anchor="middle" x="1024.09" y="-86.3" font-family="Times New Roman,serif" font-size="14.00">__ledf2</text>
</g>
<!-- _etoa&#45;&gt;__ledf2 -->
<g id="edge16" class="edge">
<title>_etoa&#45;&gt;__ledf2</title>
<path fill="none" stroke="black" d="M791.75,-220.89C836.34,-195.96 938.64,-138.78 991.35,-109.3"/>
<polygon fill="black" stroke="black" points="993.27,-112.24 1000.29,-104.31 989.86,-106.13 993.27,-112.24"/>
</g>
<!-- __adddf3 -->
<g id="node19" class="node">
<title>__adddf3</title>
<ellipse fill="none" stroke="black" cx="1225.09" cy="-162" rx="46.29" ry="18"/>
<text text-anchor="middle" x="1225.09" y="-158.3" font-family="Times New Roman,serif" font-size="14.00">__adddf3</text>
</g>
<!-- _etoa&#45;&gt;__adddf3 -->
<g id="edge17" class="edge">
<title>_etoa&#45;&gt;__adddf3</title>
<path fill="none" stroke="black" d="M800.24,-230.38C866.52,-224.3 1029.73,-207.62 1164.09,-180 1169.21,-178.95 1174.53,-177.7 1179.8,-176.37"/>
<polygon fill="black" stroke="black" points="1181.04,-179.66 1189.81,-173.72 1179.25,-172.89 1181.04,-179.66"/>
</g>
<!-- __muldf3 -->
<g id="node20" class="node">
<title>__muldf3</title>
<ellipse fill="none" stroke="black" cx="922.09" cy="-90" rx="46.29" ry="18"/>
<text text-anchor="middle" x="922.09" y="-86.3" font-family="Times New Roman,serif" font-size="14.00">__muldf3</text>
</g>
<!-- _etoa&#45;&gt;__muldf3 -->
<g id="edge18" class="edge">
<title>_etoa&#45;&gt;__muldf3</title>
<path fill="none" stroke="black" d="M785.79,-218.34C812.22,-193.65 865.81,-143.58 897.35,-114.12"/>
<polygon fill="black" stroke="black" points="899.95,-116.48 904.86,-107.1 895.17,-111.37 899.95,-116.48"/>
</g>
<!-- _ftoa&#45;&gt;_out_rev -->
<g id="edge22" class="edge">
<title>_ftoa&#45;&gt;_out_rev</title>
<path fill="none" stroke="black" d="M688.68,-150.76C682.13,-148.22 674.92,-145.74 668.09,-144 547.78,-113.41 503.21,-161.31 391.09,-108 370.08,-98.01 371.08,-86.75 353.09,-72 339,-60.45 322.55,-48.65 308.65,-39.12"/>
<polygon fill="black" stroke="black" points="310.61,-36.22 300.36,-33.51 306.68,-42.02 310.61,-36.22"/>
</g>
<!-- _ftoa&#45;&gt;_etoa -->
<g id="edge29" class="edge">
<title>_ftoa&#45;&gt;_etoa</title>
<path fill="none" stroke="black" d="M729.32,-177.11C737.94,-186.07 748.06,-197.91 756.18,-208.38"/>
<polygon fill="black" stroke="black" points="753.39,-210.51 762.19,-216.41 759,-206.31 753.39,-210.51"/>
</g>
<!-- _ftoa&#45;&gt;__eqdf2 -->
<g id="edge20" class="edge">
<title>_ftoa&#45;&gt;__eqdf2</title>
<path fill="none" stroke="black" d="M741.74,-158.4C803.6,-152.58 950.67,-136.72 1071.09,-108 1074.51,-107.18 1078.03,-106.24 1081.54,-105.23"/>
<polygon fill="black" stroke="black" points="1082.8,-108.5 1091.33,-102.22 1080.74,-101.81 1082.8,-108.5"/>
</g>
<!-- _ftoa&#45;&gt;__fixdfsi -->
<g id="edge23" class="edge">
<title>_ftoa&#45;&gt;__fixdfsi</title>
<path fill="none" stroke="black" d="M684.53,-154.47C668.68,-150.92 648.36,-146.72 630.09,-144 455.73,-118.07 407.84,-143.13 235.09,-108 231.26,-107.22 227.32,-106.26 223.39,-105.2"/>
<polygon fill="black" stroke="black" points="224.32,-101.83 213.74,-102.4 222.37,-108.55 224.32,-101.83"/>
</g>
<!-- _ftoa&#45;&gt;__floatsidf -->
<g id="edge24" class="edge">
<title>_ftoa&#45;&gt;__floatsidf</title>
<path fill="none" stroke="black" d="M688.7,-150.7C682.14,-148.16 674.93,-145.69 668.09,-144 533.44,-110.74 494.36,-133.87 358.09,-108 352.73,-106.98 347.15,-105.76 341.63,-104.43"/>
<polygon fill="black" stroke="black" points="342.34,-101.01 331.79,-101.98 340.64,-107.8 342.34,-101.01"/>
</g>
<!-- _ftoa&#45;&gt;__gedf2 -->
<g id="edge28" class="edge">
<title>_ftoa&#45;&gt;__gedf2</title>
<path fill="none" stroke="black" d="M731.35,-148.16C746.92,-137.78 769.12,-122.99 787.02,-111.05"/>
<polygon fill="black" stroke="black" points="789.04,-113.91 795.42,-105.45 785.16,-108.08 789.04,-113.91"/>
</g>
<!-- _ftoa&#45;&gt;__subdf3 -->
<g id="edge26" class="edge">
<title>_ftoa&#45;&gt;__subdf3</title>
<path fill="none" stroke="black" d="M712.09,-143.7C712.09,-135.98 712.09,-126.71 712.09,-118.11"/>
<polygon fill="black" stroke="black" points="715.59,-118.1 712.09,-108.1 708.59,-118.1 715.59,-118.1"/>
</g>
<!-- _ftoa&#45;&gt;__ledf2 -->
<g id="edge27" class="edge">
<title>_ftoa&#45;&gt;__ledf2</title>
<path fill="none" stroke="black" d="M741.05,-156.67C790.14,-149 892.59,-131.59 977.09,-108 980.01,-107.19 983,-106.28 986,-105.32"/>
<polygon fill="black" stroke="black" points="987.13,-108.63 995.48,-102.12 984.89,-102 987.13,-108.63"/>
</g>
<!-- _ftoa&#45;&gt;__muldf3 -->
<g id="edge25" class="edge">
<title>_ftoa&#45;&gt;__muldf3</title>
<path fill="none" stroke="black" d="M737.84,-152.42C772.9,-140.73 836.13,-119.65 878.61,-105.49"/>
<polygon fill="black" stroke="black" points="879.76,-108.8 888.14,-102.32 877.54,-102.16 879.76,-108.8"/>
</g>
<!-- __fixunsdfsi -->
<g id="node21" class="node">
<title>__fixunsdfsi</title>
<ellipse fill="none" stroke="black" cx="456.09" cy="-90" rx="55.79" ry="18"/>
<text text-anchor="middle" x="456.09" y="-86.3" font-family="Times New Roman,serif" font-size="14.00">__fixunsdfsi</text>
</g>
<!-- _ftoa&#45;&gt;__fixunsdfsi -->
<g id="edge19" class="edge">
<title>_ftoa&#45;&gt;__fixunsdfsi</title>
<path fill="none" stroke="black" d="M688.09,-151.08C681.65,-148.6 674.66,-146.06 668.09,-144 603.92,-123.84 586.3,-124.51 521.09,-108 516.78,-106.91 512.31,-105.76 507.82,-104.61"/>
<polygon fill="black" stroke="black" points="508.59,-101.19 498.03,-102.07 506.83,-107.97 508.59,-101.19"/>
</g>
<!-- __floatunsidf -->
<g id="node22" class="node">
<title>__floatunsidf</title>
<ellipse fill="none" stroke="black" cx="589.09" cy="-90" rx="59.29" ry="18"/>
<text text-anchor="middle" x="589.09" y="-86.3" font-family="Times New Roman,serif" font-size="14.00">__floatunsidf</text>
</g>
<!-- _ftoa&#45;&gt;__floatunsidf -->
<g id="edge21" class="edge">
<title>_ftoa&#45;&gt;__floatunsidf</title>
<path fill="none" stroke="black" d="M690.95,-148.97C672.8,-138.64 646.25,-123.53 624.81,-111.33"/>
<polygon fill="black" stroke="black" points="626.4,-108.2 615.97,-106.3 622.93,-114.29 626.4,-108.2"/>
</g>
<!-- __clzsi2 -->
<g id="node41" class="node">
<title>__clzsi2</title>
<ellipse fill="none" stroke="black" cx="817.09" cy="-18" rx="40.89" ry="18"/>
<text text-anchor="middle" x="817.09" y="-14.3" font-family="Times New Roman,serif" font-size="14.00">__clzsi2</text>
</g>
<!-- __floatsidf&#45;&gt;__clzsi2 -->
<g id="edge55" class="edge">
<title>__floatsidf&#45;&gt;__clzsi2</title>
<path fill="none" stroke="black" d="M337.48,-80.92C354.2,-77.93 373.51,-74.63 391.09,-72 526.88,-51.67 687.85,-33.15 767.44,-24.37"/>
<polygon fill="black" stroke="black" points="768.1,-27.82 777.66,-23.24 767.33,-20.86 768.1,-27.82"/>
</g>
<!-- __divdf3&#45;&gt;__clzsi2 -->
<g id="edge52" class="edge">
<title>__divdf3&#45;&gt;__clzsi2</title>
<path fill="none" stroke="black" d="M1133.57,-146.47C1158.99,-128.27 1194.24,-96.53 1173.09,-72 1134.34,-27.05 957.05,-19.62 868.18,-18.79"/>
<polygon fill="black" stroke="black" points="868.08,-15.29 858.06,-18.72 868.03,-22.29 868.08,-15.29"/>
</g>
<!-- __subdf3&#45;&gt;__clzsi2 -->
<g id="edge54" class="edge">
<title>__subdf3&#45;&gt;__clzsi2</title>
<path fill="none" stroke="black" d="M734.36,-74.15C749.74,-63.9 770.37,-50.15 787.18,-38.94"/>
<polygon fill="black" stroke="black" points="789.2,-41.8 795.58,-33.35 785.32,-35.98 789.2,-41.8"/>
</g>
<!-- __adddf3&#45;&gt;__clzsi2 -->
<g id="edge51" class="edge">
<title>__adddf3&#45;&gt;__clzsi2</title>
<path fill="none" stroke="black" d="M1223.65,-143.91C1220.95,-123.42 1213.21,-89.64 1191.09,-72 1142.22,-33.02 958.71,-22.7 868.21,-19.98"/>
<polygon fill="black" stroke="black" points="868.27,-16.48 858.17,-19.69 868.07,-23.47 868.27,-16.48"/>
</g>
<!-- __muldf3&#45;&gt;__clzsi2 -->
<g id="edge53" class="edge">
<title>__muldf3&#45;&gt;__clzsi2</title>
<path fill="none" stroke="black" d="M899.83,-74.15C884.45,-63.9 863.82,-50.15 847.01,-38.94"/>
<polygon fill="black" stroke="black" points="848.87,-35.98 838.61,-33.35 844.99,-41.8 848.87,-35.98"/>
</g>
<!-- __floatunsidf&#45;&gt;__clzsi2 -->
<g id="edge56" class="edge">
<title>__floatunsidf&#45;&gt;__clzsi2</title>
<path fill="none" stroke="black" d="M629.07,-76.73C669.98,-64.17 733.3,-44.73 774.97,-31.93"/>
<polygon fill="black" stroke="black" points="776.02,-35.27 784.55,-28.99 773.96,-28.58 776.02,-35.27"/>
</g>
<!-- _vsnprintf -->
<g id="node23" class="node">
<title>_vsnprintf</title>
<ellipse fill="none" stroke="black" cx="645.09" cy="-306" rx="48.19" ry="18"/>
<text text-anchor="middle" x="645.09" y="-302.3" font-family="Times New Roman,serif" font-size="14.00">_vsnprintf</text>
</g>
<!-- _vsnprintf&#45;&gt;_ntoa_long -->
<g id="edge33" class="edge">
<title>_vsnprintf&#45;&gt;_ntoa_long</title>
<path fill="none" stroke="black" d="M632.38,-288.43C613.26,-263.53 577.01,-216.3 554.85,-187.43"/>
<polygon fill="black" stroke="black" points="557.6,-185.26 548.73,-179.46 552.04,-189.53 557.6,-185.26"/>
</g>
<!-- _vsnprintf&#45;&gt;_ntoa_long_long -->
<g id="edge30" class="edge">
<title>_vsnprintf&#45;&gt;_ntoa_long_long</title>
<path fill="none" stroke="black" d="M602.2,-297.64C531.33,-285.48 389.22,-261.1 304.72,-246.6"/>
<polygon fill="black" stroke="black" points="305.15,-243.13 294.71,-244.88 303.97,-250.02 305.15,-243.13"/>
</g>
<!-- _vsnprintf&#45;&gt;_etoa -->
<g id="edge32" class="edge">
<title>_vsnprintf&#45;&gt;_etoa</title>
<path fill="none" stroke="black" d="M670.69,-290.67C690.73,-279.45 718.64,-263.81 739.79,-251.97"/>
<polygon fill="black" stroke="black" points="741.67,-254.93 748.69,-246.99 738.25,-248.82 741.67,-254.93"/>
</g>
<!-- _vsnprintf&#45;&gt;_ftoa -->
<g id="edge31" class="edge">
<title>_vsnprintf&#45;&gt;_ftoa</title>
<path fill="none" stroke="black" d="M653.04,-288.15C664.63,-263.6 686.25,-217.77 699.87,-188.91"/>
<polygon fill="black" stroke="black" points="703.05,-190.36 704.16,-179.82 696.72,-187.38 703.05,-190.36"/>
</g>
<!-- printf&#45;&gt;_vsnprintf -->
<g id="edge34" class="edge">
<title>printf&#45;&gt;_vsnprintf</title>
<path fill="none" stroke="black" d="M666.46,-360.41C663.23,-352.34 659.27,-342.43 655.64,-333.35"/>
<polygon fill="black" stroke="black" points="658.84,-331.94 651.88,-323.96 652.34,-334.54 658.84,-331.94"/>
</g>
<!-- vsnprintf -->
<g id="node25" class="node">
<title>vsnprintf</title>
<ellipse fill="none" stroke="black" cx="1833.09" cy="-450" rx="42.79" ry="18"/>
<text text-anchor="middle" x="1833.09" y="-446.3" font-family="Times New Roman,serif" font-size="14.00">vsnprintf</text>
</g>
<!-- &lt;_vsnprintf&gt; * -->
<g id="node26" class="node">
<title>&lt;_vsnprintf&gt; *</title>
<ellipse fill="none" stroke="black" cx="1808.09" cy="-378" rx="65.79" ry="18"/>
<text text-anchor="middle" x="1808.09" y="-374.3" font-family="Times New Roman,serif" font-size="14.00">&lt;_vsnprintf&gt; *</text>
</g>
<!-- vsnprintf&#45;&gt;&lt;_vsnprintf&gt; * -->
<g id="edge35" class="edge">
<title>vsnprintf&#45;&gt;&lt;_vsnprintf&gt; *</title>
<path fill="none" stroke="black" d="M1827.04,-432.05C1824.23,-424.18 1820.81,-414.62 1817.66,-405.79"/>
<polygon fill="black" stroke="black" points="1820.92,-404.52 1814.26,-396.28 1814.33,-406.87 1820.92,-404.52"/>
</g>
<!-- ck_uart_set_parity -->
<g id="node28" class="node">
<title>ck_uart_set_parity</title>
<ellipse fill="none" stroke="black" cx="990.09" cy="-306" rx="78.79" ry="18"/>
<text text-anchor="middle" x="990.09" y="-302.3" font-family="Times New Roman,serif" font-size="14.00">ck_uart_set_parity</text>
</g>
<!-- ck_uart_init&#45;&gt;ck_uart_set_parity -->
<g id="edge36" class="edge">
<title>ck_uart_init&#45;&gt;ck_uart_set_parity</title>
<path fill="none" stroke="black" d="M837.02,-364C866.4,-353.06 908.73,-337.3 941.43,-325.12"/>
<polygon fill="black" stroke="black" points="942.66,-328.4 950.81,-321.63 940.22,-321.84 942.66,-328.4"/>
</g>
<!-- ck_uart_set_wordsize -->
<g id="node29" class="node">
<title>ck_uart_set_wordsize</title>
<ellipse fill="none" stroke="black" cx="802.09" cy="-306" rx="90.98" ry="18"/>
<text text-anchor="middle" x="802.09" y="-302.3" font-family="Times New Roman,serif" font-size="14.00">ck_uart_set_wordsize</text>
</g>
<!-- ck_uart_init&#45;&gt;ck_uart_set_wordsize -->
<g id="edge37" class="edge">
<title>ck_uart_init&#45;&gt;ck_uart_set_wordsize</title>
<path fill="none" stroke="black" d="M802.09,-359.7C802.09,-351.98 802.09,-342.71 802.09,-334.11"/>
<polygon fill="black" stroke="black" points="805.59,-334.1 802.09,-324.1 798.59,-334.1 805.59,-334.1"/>
</g>
<!-- vasprintf -->
<g id="node30" class="node">
<title>vasprintf</title>
<ellipse fill="none" stroke="black" cx="1946.09" cy="-522" rx="42.49" ry="18"/>
<text text-anchor="middle" x="1946.09" y="-518.3" font-family="Times New Roman,serif" font-size="14.00">vasprintf</text>
</g>
<!-- vasprintf&#45;&gt;vsnprintf -->
<g id="edge38" class="edge">
<title>vasprintf&#45;&gt;vsnprintf</title>
<path fill="none" stroke="black" d="M1923.23,-506.83C1906.49,-496.47 1883.56,-482.26 1865.02,-470.78"/>
<polygon fill="black" stroke="black" points="1866.66,-467.68 1856.32,-465.38 1862.97,-473.63 1866.66,-467.68"/>
</g>
<!-- free -->
<g id="node31" class="node">
<title>free</title>
<ellipse fill="none" stroke="black" cx="1946.09" cy="-450" rx="27" ry="18"/>
<text text-anchor="middle" x="1946.09" y="-446.3" font-family="Times New Roman,serif" font-size="14.00">free</text>
</g>
<!-- vasprintf&#45;&gt;free -->
<g id="edge39" class="edge">
<title>vasprintf&#45;&gt;free</title>
<path fill="none" stroke="black" d="M1946.09,-503.7C1946.09,-495.98 1946.09,-486.71 1946.09,-478.11"/>
<polygon fill="black" stroke="black" points="1949.59,-478.1 1946.09,-468.1 1942.59,-478.1 1949.59,-478.1"/>
</g>
<!-- strlen -->
<g id="node32" class="node">
<title>strlen</title>
<ellipse fill="none" stroke="black" cx="2110.09" cy="-450" rx="30.59" ry="18"/>
<text text-anchor="middle" x="2110.09" y="-446.3" font-family="Times New Roman,serif" font-size="14.00">strlen</text>
</g>
<!-- vasprintf&#45;&gt;strlen -->
<g id="edge40" class="edge">
<title>vasprintf&#45;&gt;strlen</title>
<path fill="none" stroke="black" d="M1975.04,-508.65C2003.37,-496.55 2046.53,-478.13 2076.39,-465.38"/>
<polygon fill="black" stroke="black" points="2078.15,-468.44 2085.97,-461.3 2075.4,-462 2078.15,-468.44"/>
</g>
<!-- malloc -->
<g id="node33" class="node">
<title>malloc</title>
<ellipse fill="none" stroke="black" cx="2026.09" cy="-450" rx="34.39" ry="18"/>
<text text-anchor="middle" x="2026.09" y="-446.3" font-family="Times New Roman,serif" font-size="14.00">malloc</text>
</g>
<!-- vasprintf&#45;&gt;malloc -->
<g id="edge41" class="edge">
<title>vasprintf&#45;&gt;malloc</title>
<path fill="none" stroke="black" d="M1963.85,-505.46C1974.95,-495.75 1989.4,-483.1 2001.59,-472.44"/>
<polygon fill="black" stroke="black" points="2003.99,-474.99 2009.21,-465.77 1999.38,-469.72 2003.99,-474.99"/>
</g>
<!-- strdup -->
<g id="node34" class="node">
<title>strdup</title>
<ellipse fill="none" stroke="black" cx="1687.09" cy="-450" rx="34.39" ry="18"/>
<text text-anchor="middle" x="1687.09" y="-446.3" font-family="Times New Roman,serif" font-size="14.00">strdup</text>
</g>
<!-- vasprintf&#45;&gt;strdup -->
<g id="edge42" class="edge">
<title>vasprintf&#45;&gt;strdup</title>
<path fill="none" stroke="black" d="M1911.43,-511.63C1863.59,-498.7 1777.52,-475.44 1727.03,-461.79"/>
<polygon fill="black" stroke="black" points="1727.7,-458.35 1717.13,-459.12 1725.87,-465.11 1727.7,-458.35"/>
</g>
<!-- &lt;_free_r&gt; * -->
<g id="node43" class="node">
<title>&lt;_free_r&gt; *</title>
<ellipse fill="none" stroke="black" cx="1946.09" cy="-378" rx="54.69" ry="18"/>
<text text-anchor="middle" x="1946.09" y="-374.3" font-family="Times New Roman,serif" font-size="14.00">&lt;_free_r&gt; *</text>
</g>
<!-- free&#45;&gt;&lt;_free_r&gt; * -->
<g id="edge58" class="edge">
<title>free&#45;&gt;&lt;_free_r&gt; *</title>
<path fill="none" stroke="black" d="M1946.09,-431.7C1946.09,-423.98 1946.09,-414.71 1946.09,-406.11"/>
<polygon fill="black" stroke="black" points="1949.59,-406.1 1946.09,-396.1 1942.59,-406.1 1949.59,-406.1"/>
</g>
<!-- &lt;_malloc_r&gt; * -->
<g id="node42" class="node">
<title>&lt;_malloc_r&gt; *</title>
<ellipse fill="none" stroke="black" cx="2084.09" cy="-378" rx="64.99" ry="18"/>
<text text-anchor="middle" x="2084.09" y="-374.3" font-family="Times New Roman,serif" font-size="14.00">&lt;_malloc_r&gt; *</text>
</g>
<!-- malloc&#45;&gt;&lt;_malloc_r&gt; * -->
<g id="edge57" class="edge">
<title>malloc&#45;&gt;&lt;_malloc_r&gt; *</title>
<path fill="none" stroke="black" d="M2039.26,-433.12C2046.46,-424.42 2055.55,-413.45 2063.66,-403.66"/>
<polygon fill="black" stroke="black" points="2066.49,-405.73 2070.18,-395.8 2061.1,-401.26 2066.49,-405.73"/>
</g>
<!-- &lt;_strdup_r&gt; * -->
<g id="node52" class="node">
<title>&lt;_strdup_r&gt; *</title>
<ellipse fill="none" stroke="black" cx="1660.09" cy="-378" rx="64.19" ry="18"/>
<text text-anchor="middle" x="1660.09" y="-374.3" font-family="Times New Roman,serif" font-size="14.00">&lt;_strdup_r&gt; *</text>
</g>
<!-- strdup&#45;&gt;&lt;_strdup_r&gt; * -->
<g id="edge66" class="edge">
<title>strdup&#45;&gt;&lt;_strdup_r&gt; *</title>
<path fill="none" stroke="black" d="M1680.56,-432.05C1677.52,-424.18 1673.83,-414.62 1670.43,-405.79"/>
<polygon fill="black" stroke="black" points="1673.62,-404.35 1666.76,-396.28 1667.09,-406.86 1673.62,-404.35"/>
</g>
<!-- _malloc_r -->
<g id="node44" class="node">
<title>_malloc_r</title>
<ellipse fill="none" stroke="black" cx="2309.09" cy="-450" rx="47.39" ry="18"/>
<text text-anchor="middle" x="2309.09" y="-446.3" font-family="Times New Roman,serif" font-size="14.00">_malloc_r</text>
</g>
<!-- __malloc_unlock -->
<g id="node45" class="node">
<title>__malloc_unlock</title>
<ellipse fill="none" stroke="black" cx="2203.09" cy="-234" rx="73.39" ry="18"/>
<text text-anchor="middle" x="2203.09" y="-230.3" font-family="Times New Roman,serif" font-size="14.00">__malloc_unlock</text>
</g>
<!-- _malloc_r&#45;&gt;__malloc_unlock -->
<g id="edge59" class="edge">
<title>_malloc_r&#45;&gt;__malloc_unlock</title>
<path fill="none" stroke="black" d="M2291.57,-433.27C2268.55,-411.38 2229.06,-369.27 2212.09,-324 2204.7,-304.28 2202.62,-280.47 2202.29,-262.45"/>
<polygon fill="black" stroke="black" points="2205.79,-262.31 2202.28,-252.32 2198.79,-262.32 2205.79,-262.31"/>
</g>
<!-- __malloc_lock -->
<g id="node46" class="node">
<title>__malloc_lock</title>
<ellipse fill="none" stroke="black" cx="2374.09" cy="-234" rx="64.99" ry="18"/>
<text text-anchor="middle" x="2374.09" y="-230.3" font-family="Times New Roman,serif" font-size="14.00">__malloc_lock</text>
</g>
<!-- _malloc_r&#45;&gt;__malloc_lock -->
<g id="edge60" class="edge">
<title>_malloc_r&#45;&gt;__malloc_lock</title>
<path fill="none" stroke="black" d="M2326.93,-432.97C2349.73,-411.06 2387.87,-369.26 2401.09,-324 2405.58,-308.64 2404.83,-303.56 2401.09,-288 2398.85,-278.66 2394.68,-269.11 2390.27,-260.74"/>
<polygon fill="black" stroke="black" points="2393.23,-258.87 2385.28,-251.86 2387.13,-262.29 2393.23,-258.87"/>
</g>
<!-- _sbrk_r -->
<g id="node47" class="node">
<title>_sbrk_r</title>
<ellipse fill="none" stroke="black" cx="2497.09" cy="-234" rx="39.79" ry="18"/>
<text text-anchor="middle" x="2497.09" y="-230.3" font-family="Times New Roman,serif" font-size="14.00">_sbrk_r</text>
</g>
<!-- _malloc_r&#45;&gt;_sbrk_r -->
<g id="edge61" class="edge">
<title>_malloc_r&#45;&gt;_sbrk_r</title>
<path fill="none" stroke="black" d="M2335.13,-434.7C2351.23,-425.08 2371.68,-411.38 2387.09,-396 2428.94,-354.26 2464.87,-294.57 2483.49,-260.83"/>
<polygon fill="black" stroke="black" points="2486.57,-262.49 2488.27,-252.04 2480.42,-259.15 2486.57,-262.49"/>
</g>
<!-- _free_r -->
<g id="node48" class="node">
<title>_free_r</title>
<ellipse fill="none" stroke="black" cx="2309.09" cy="-378" rx="37.09" ry="18"/>
<text text-anchor="middle" x="2309.09" y="-374.3" font-family="Times New Roman,serif" font-size="14.00">_free_r</text>
</g>
<!-- _malloc_r&#45;&gt;_free_r -->
<g id="edge62" class="edge">
<title>_malloc_r&#45;&gt;_free_r</title>
<path fill="none" stroke="black" d="M2309.09,-431.7C2309.09,-423.98 2309.09,-414.71 2309.09,-406.11"/>
<polygon fill="black" stroke="black" points="2312.59,-406.1 2309.09,-396.1 2305.59,-406.1 2312.59,-406.1"/>
</g>
<!-- &lt;__retarget_lock_release_recursive&gt; * -->
<g id="node50" class="node">
<title>&lt;__retarget_lock_release_recursive&gt; *</title>
<ellipse fill="none" stroke="black" cx="2050.09" cy="-162" rx="152.17" ry="18"/>
<text text-anchor="middle" x="2050.09" y="-158.3" font-family="Times New Roman,serif" font-size="14.00">&lt;__retarget_lock_release_recursive&gt; *</text>
</g>
<!-- __malloc_unlock&#45;&gt;&lt;__retarget_lock_release_recursive&gt; * -->
<g id="edge64" class="edge">
<title>__malloc_unlock&#45;&gt;&lt;__retarget_lock_release_recursive&gt; *</title>
<path fill="none" stroke="black" d="M2169.9,-217.81C2148.09,-207.84 2119.29,-194.66 2095.4,-183.73"/>
<polygon fill="black" stroke="black" points="2096.72,-180.48 2086.17,-179.5 2093.8,-186.85 2096.72,-180.48"/>
</g>
<!-- &lt;__retarget_lock_acquire_recursive&gt; * -->
<g id="node49" class="node">
<title>&lt;__retarget_lock_acquire_recursive&gt; *</title>
<ellipse fill="none" stroke="black" cx="2374.09" cy="-162" rx="154.07" ry="18"/>
<text text-anchor="middle" x="2374.09" y="-158.3" font-family="Times New Roman,serif" font-size="14.00">&lt;__retarget_lock_acquire_recursive&gt; *</text>
</g>
<!-- __malloc_lock&#45;&gt;&lt;__retarget_lock_acquire_recursive&gt; * -->
<g id="edge63" class="edge">
<title>__malloc_lock&#45;&gt;&lt;__retarget_lock_acquire_recursive&gt; *</title>
<path fill="none" stroke="black" d="M2374.09,-215.7C2374.09,-207.98 2374.09,-198.71 2374.09,-190.11"/>
<polygon fill="black" stroke="black" points="2377.59,-190.1 2374.09,-180.1 2370.59,-190.1 2377.59,-190.1"/>
</g>
<!-- _sbrk -->
<g id="node51" class="node">
<title>_sbrk</title>
<ellipse fill="none" stroke="black" cx="2578.09" cy="-162" rx="31.7" ry="18"/>
<text text-anchor="middle" x="2578.09" y="-158.3" font-family="Times New Roman,serif" font-size="14.00">_sbrk</text>
</g>
<!-- _sbrk_r&#45;&gt;_sbrk -->
<g id="edge65" class="edge">
<title>_sbrk_r&#45;&gt;_sbrk</title>
<path fill="none" stroke="black" d="M2514.67,-217.81C2526.04,-207.98 2541.02,-195.04 2553.56,-184.21"/>
<polygon fill="black" stroke="black" points="2556.11,-186.63 2561.38,-177.44 2551.53,-181.33 2556.11,-186.63"/>
</g>
<!-- _free_r&#45;&gt;__malloc_unlock -->
<g id="edge73" class="edge">
<title>_free_r&#45;&gt;__malloc_unlock</title>
<path fill="none" stroke="black" d="M2284.06,-364.6C2267.79,-355.4 2247.23,-341.45 2234.09,-324 2220.37,-305.78 2212.4,-281.01 2207.99,-262.23"/>
<polygon fill="black" stroke="black" points="2211.36,-261.26 2205.84,-252.22 2204.52,-262.73 2211.36,-261.26"/>
</g>
<!-- _free_r&#45;&gt;__malloc_lock -->
<g id="edge75" class="edge">
<title>_free_r&#45;&gt;__malloc_lock</title>
<path fill="none" stroke="black" d="M2336.51,-365.67C2353.58,-357.01 2374.12,-343.26 2384.09,-324 2394.05,-304.78 2390.22,-280.14 2384.65,-261.66"/>
<polygon fill="black" stroke="black" points="2387.95,-260.48 2381.46,-252.11 2381.31,-262.7 2387.95,-260.48"/>
</g>
<!-- _malloc_trim_r -->
<g id="node55" class="node">
<title>_malloc_trim_r</title>
<ellipse fill="none" stroke="black" cx="2309.09" cy="-306" rx="66.09" ry="18"/>
<text text-anchor="middle" x="2309.09" y="-302.3" font-family="Times New Roman,serif" font-size="14.00">_malloc_trim_r</text>
</g>
<!-- _free_r&#45;&gt;_malloc_trim_r -->
<g id="edge74" class="edge">
<title>_free_r&#45;&gt;_malloc_trim_r</title>
<path fill="none" stroke="black" d="M2309.09,-359.7C2309.09,-351.98 2309.09,-342.71 2309.09,-334.11"/>
<polygon fill="black" stroke="black" points="2312.59,-334.1 2309.09,-324.1 2305.59,-334.1 2312.59,-334.1"/>
</g>
<!-- __errno -->
<g id="node56" class="node">
<title>__errno</title>
<ellipse fill="none" stroke="black" cx="2578.09" cy="-90" rx="39.79" ry="18"/>
<text text-anchor="middle" x="2578.09" y="-86.3" font-family="Times New Roman,serif" font-size="14.00">__errno</text>
</g>
<!-- _sbrk&#45;&gt;__errno -->
<g id="edge76" class="edge">
<title>_sbrk&#45;&gt;__errno</title>
<path fill="none" stroke="black" d="M2578.09,-143.7C2578.09,-135.98 2578.09,-126.71 2578.09,-118.11"/>
<polygon fill="black" stroke="black" points="2581.59,-118.1 2578.09,-108.1 2574.59,-118.1 2581.59,-118.1"/>
</g>
<!-- _strdup_r -->
<g id="node53" class="node">
<title>_strdup_r</title>
<ellipse fill="none" stroke="black" cx="2201.09" cy="-522" rx="46.59" ry="18"/>
<text text-anchor="middle" x="2201.09" y="-518.3" font-family="Times New Roman,serif" font-size="14.00">_strdup_r</text>
</g>
<!-- _strdup_r&#45;&gt;strlen -->
<g id="edge68" class="edge">
<title>_strdup_r&#45;&gt;strlen</title>
<path fill="none" stroke="black" d="M2180.9,-505.46C2167.68,-495.3 2150.28,-481.91 2136.04,-470.96"/>
<polygon fill="black" stroke="black" points="2138.14,-468.16 2128.08,-464.83 2133.87,-473.7 2138.14,-468.16"/>
</g>
<!-- _strdup_r&#45;&gt;_malloc_r -->
<g id="edge67" class="edge">
<title>_strdup_r&#45;&gt;_malloc_r</title>
<path fill="none" stroke="black" d="M2224,-506.15C2239.61,-496.04 2260.47,-482.52 2277.63,-471.39"/>
<polygon fill="black" stroke="black" points="2279.74,-474.2 2286.22,-465.82 2275.93,-468.33 2279.74,-474.2"/>
</g>
<!-- memcpy -->
<g id="node54" class="node">
<title>memcpy</title>
<ellipse fill="none" stroke="black" cx="2201.09" cy="-450" rx="42.49" ry="18"/>
<text text-anchor="middle" x="2201.09" y="-446.3" font-family="Times New Roman,serif" font-size="14.00">memcpy</text>
</g>
<!-- _strdup_r&#45;&gt;memcpy -->
<g id="edge69" class="edge">
<title>_strdup_r&#45;&gt;memcpy</title>
<path fill="none" stroke="black" d="M2201.09,-503.7C2201.09,-495.98 2201.09,-486.71 2201.09,-478.11"/>
<polygon fill="black" stroke="black" points="2204.59,-478.1 2201.09,-468.1 2197.59,-478.1 2204.59,-478.1"/>
</g>
<!-- _malloc_trim_r&#45;&gt;__malloc_unlock -->
<g id="edge70" class="edge">
<title>_malloc_trim_r&#45;&gt;__malloc_unlock</title>
<path fill="none" stroke="black" d="M2285.04,-289.12C2270.51,-279.52 2251.78,-267.15 2235.9,-256.67"/>
<polygon fill="black" stroke="black" points="2237.69,-253.65 2227.42,-251.06 2233.84,-259.49 2237.69,-253.65"/>
</g>
<!-- _malloc_trim_r&#45;&gt;__malloc_lock -->
<g id="edge71" class="edge">
<title>_malloc_trim_r&#45;&gt;__malloc_lock</title>
<path fill="none" stroke="black" d="M2324.5,-288.41C2332.56,-279.73 2342.57,-268.95 2351.49,-259.34"/>
<polygon fill="black" stroke="black" points="2354.11,-261.67 2358.35,-251.96 2348.98,-256.9 2354.11,-261.67"/>
</g>
<!-- _malloc_trim_r&#45;&gt;_sbrk_r -->
<g id="edge72" class="edge">
<title>_malloc_trim_r&#45;&gt;_sbrk_r</title>
<path fill="none" stroke="black" d="M2346.69,-291C2378.83,-279.03 2424.94,-261.87 2457.61,-249.7"/>
<polygon fill="black" stroke="black" points="2459.14,-252.87 2467.29,-246.1 2456.7,-246.31 2459.14,-252.87"/>
</g>
</g>
</svg>
