<?xml version="1.0" encoding="UTF-8" standalone="no"?>
<!DOCTYPE svg PUBLIC "-//W3C//DTD SVG 1.1//EN"
 "http://www.w3.org/Graphics/SVG/1.1/DTD/svg11.dtd">
<!-- Generated by graphviz version 6.0.2 (20221011.1828)
 -->
<!-- Pages: 1 -->
<svg width="2620pt" height="548pt"
 viewBox="0.00 0.00 2619.79 548.00" xmlns="http://www.w3.org/2000/svg" xmlns:xlink="http://www.w3.org/1999/xlink">
<g id="graph0" class="graph" transform="scale(1 1) rotate(0) translate(4 544)">
<polygon fill="white" stroke="none" points="-4,4 -4,-544 2615.79,-544 2615.79,4 -4,4"/>
<!-- __to_main -->
<g id="node1" class="node">
<title>__to_main</title>
<ellipse fill="none" stroke="black" cx="1104.09" cy="-522" rx="50.09" ry="18"/>
<text text-anchor="middle" x="1104.09" y="-518.3" font-family="Times New Roman,serif" font-size="14.00">__to_main</text>
</g>
<!-- main -->
<g id="node2" class="node">
<title>main</title>
<ellipse fill="none" stroke="black" cx="1104.09" cy="-450" rx="27.9" ry="18"/>
<text text-anchor="middle" x="1104.09" y="-446.3" font-family="Times New Roman,serif" font-size="14.00">main</text>
</g>
<!-- __to_main&#45;&gt;main -->
<g id="edge1" class="edge">
<title>__to_main&#45;&gt;main</title>
<path fill="none" stroke="black" d="M1104.09,-503.7C1104.09,-495.98 1104.09,-486.71 1104.09,-478.11"/>
<polygon fill="black" stroke="black" points="1107.59,-478.1 1104.09,-468.1 1100.59,-478.1 1107.59,-478.1"/>
</g>
<!-- printf -->
<g id="node24" class="node">
<title>printf</title>
<ellipse fill="none" stroke="black" cx="662.09" cy="-378" rx="30.59" ry="18"/>
<text text-anchor="middle" x="662.09" y="-374.3" font-family="Times New Roman,serif" font-size="14.00">printf</text>
</g>
<!-- main&#45;&gt;printf -->
<g id="edge48" class="edge">
<title>main&#45;&gt;printf</title>
<path fill="none" stroke="black" d="M1076.55,-446.19C1014.16,-439.59 857.41,-421.69 728.09,-396 718.55,-394.1 708.32,-391.67 698.84,-389.24"/>
<polygon fill="black" stroke="black" points="699.47,-385.79 688.91,-386.63 697.69,-392.56 699.47,-385.79"/>
</g>
<!-- ck_uart_init -->
<g id="node27" class="node">
<title>ck_uart_init</title>
<ellipse fill="none" stroke="black" cx="791.09" cy="-378" rx="53.89" ry="18"/>
<text text-anchor="middle" x="791.09" y="-374.3" font-family="Times New Roman,serif" font-size="14.00">ck_uart_init</text>
</g>
<!-- main&#45;&gt;ck_uart_init -->
<g id="edge50" class="edge">
<title>main&#45;&gt;ck_uart_init</title>
<path fill="none" stroke="black" d="M1077.71,-443.9C1032,-434.95 935.19,-415.52 854.09,-396 849.76,-394.96 845.28,-393.83 840.79,-392.68"/>
<polygon fill="black" stroke="black" points="841.56,-389.27 831,-390.12 839.79,-396.04 841.56,-389.27"/>
</g>
<!-- get_vtimer -->
<g id="node37" class="node">
<title>get_vtimer</title>
<ellipse fill="none" stroke="black" cx="912.09" cy="-378" rx="48.99" ry="18"/>
<text text-anchor="middle" x="912.09" y="-374.3" font-family="Times New Roman,serif" font-size="14.00">get_vtimer</text>
</g>
<!-- main&#45;&gt;get_vtimer -->
<g id="edge44" class="edge">
<title>main&#45;&gt;get_vtimer</title>
<path fill="none" stroke="black" d="M1080.17,-440.28C1048.94,-428.89 993.72,-408.76 955.13,-394.69"/>
<polygon fill="black" stroke="black" points="956.3,-391.39 945.7,-391.25 953.9,-397.97 956.3,-391.39"/>
</g>
<!-- ck_uart_status -->
<g id="node38" class="node">
<title>ck_uart_status</title>
<ellipse fill="none" stroke="black" cx="1042.09" cy="-378" rx="63.89" ry="18"/>
<text text-anchor="middle" x="1042.09" y="-374.3" font-family="Times New Roman,serif" font-size="14.00">ck_uart_status</text>
</g>
<!-- main&#45;&gt;ck_uart_status -->
<g id="edge45" class="edge">
<title>main&#45;&gt;ck_uart_status</title>
<path fill="none" stroke="black" d="M1090.64,-433.81C1082.77,-424.93 1072.66,-413.5 1063.69,-403.39"/>
<polygon fill="black" stroke="black" points="1066.07,-400.79 1056.82,-395.63 1060.83,-405.43 1066.07,-400.79"/>
</g>
<!-- sim_end -->
<g id="node39" class="node">
<title>sim_end</title>
<ellipse fill="none" stroke="black" cx="1165.09" cy="-378" rx="41.69" ry="18"/>
<text text-anchor="middle" x="1165.09" y="-374.3" font-family="Times New Roman,serif" font-size="14.00">sim_end</text>
</g>
<!-- main&#45;&gt;sim_end -->
<g id="edge46" class="edge">
<title>main&#45;&gt;sim_end</title>
<path fill="none" stroke="black" d="M1117.33,-433.81C1125.18,-424.8 1135.31,-413.18 1144.22,-402.95"/>
<polygon fill="black" stroke="black" points="1147.1,-404.97 1151.04,-395.13 1141.83,-400.37 1147.1,-404.97"/>
</g>
<!-- ck_intc_init -->
<g id="node40" class="node">
<title>ck_intc_init</title>
<ellipse fill="none" stroke="black" cx="1278.09" cy="-378" rx="53.09" ry="18"/>
<text text-anchor="middle" x="1278.09" y="-374.3" font-family="Times New Roman,serif" font-size="14.00">ck_intc_init</text>
</g>
<!-- main&#45;&gt;ck_intc_init -->
<g id="edge47" class="edge">
<title>main&#45;&gt;ck_intc_init</title>
<path fill="none" stroke="black" d="M1127.2,-439.7C1154.71,-428.64 1201.23,-409.92 1235.36,-396.19"/>
<polygon fill="black" stroke="black" points="1237.1,-399.27 1245.07,-392.29 1234.49,-392.77 1237.1,-399.27"/>
</g>
<!-- ck_uart_open -->
<g id="node41" class="node">
<title>ck_uart_open</title>
<ellipse fill="none" stroke="black" cx="1410.09" cy="-378" rx="61.19" ry="18"/>
<text text-anchor="middle" x="1410.09" y="-374.3" font-family="Times New Roman,serif" font-size="14.00">ck_uart_open</text>
</g>
<!-- main&#45;&gt;ck_uart_open -->
<g id="edge49" class="edge">
<title>main&#45;&gt;ck_uart_open</title>
<path fill="none" stroke="black" d="M1130.32,-443.27C1173.92,-433.7 1264.04,-413.77 1340.09,-396 1344.79,-394.9 1349.67,-393.75 1354.56,-392.58"/>
<polygon fill="black" stroke="black" points="1355.65,-395.92 1364.56,-390.18 1354.02,-389.11 1355.65,-395.92"/>
</g>
<!-- memset -->
<g id="node42" class="node">
<title>memset</title>
<ellipse fill="none" stroke="black" cx="1527.09" cy="-378" rx="38.19" ry="18"/>
<text text-anchor="middle" x="1527.09" y="-374.3" font-family="Times New Roman,serif" font-size="14.00">memset</text>
</g>
<!-- main&#45;&gt;memset -->
<g id="edge51" class="edge">
<title>main&#45;&gt;memset</title>
<path fill="none" stroke="black" d="M1131.83,-447.07C1194.62,-442.26 1352.14,-427.79 1480.09,-396 1483.03,-395.27 1486.04,-394.42 1489.05,-393.51"/>
<polygon fill="black" stroke="black" points="1490.14,-396.83 1498.55,-390.39 1487.96,-390.18 1490.14,-396.83"/>
</g>
<!-- _ntoa_format -->
<g id="node3" class="node">
<title>_ntoa_format</title>
<ellipse fill="none" stroke="black" cx="61.09" cy="-90" rx="59.59" ry="18"/>
<text text-anchor="middle" x="61.09" y="-86.3" font-family="Times New Roman,serif" font-size="14.00">_ntoa_format</text>
</g>
<!-- _out_rev -->
<g id="node4" class="node">
<title>_out_rev</title>
<ellipse fill="none" stroke="black" cx="273.09" cy="-18" rx="43.59" ry="18"/>
<text text-anchor="middle" x="273.09" y="-14.3" font-family="Times New Roman,serif" font-size="14.00">_out_rev</text>
</g>
<!-- _ntoa_format&#45;&gt;_out_rev -->
<g id="edge2" class="edge">
<title>_ntoa_format&#45;&gt;_out_rev</title>
<path fill="none" stroke="black" d="M99.98,-76.16C136.85,-63.99 192.12,-45.74 230.24,-33.15"/>
<polygon fill="black" stroke="black" points="231.63,-36.38 240.03,-29.92 229.43,-29.73 231.63,-36.38"/>
</g>
<!-- &lt;_out_rev&gt; * -->
<g id="node5" class="node">
<title>&lt;_out_rev&gt; *</title>
<ellipse fill="none" stroke="black" cx="61.09" cy="-18" rx="61.19" ry="18"/>
<text text-anchor="middle" x="61.09" y="-14.3" font-family="Times New Roman,serif" font-size="14.00">&lt;_out_rev&gt; *</text>
</g>
<!-- _ntoa_format&#45;&gt;&lt;_out_rev&gt; * -->
<g id="edge3" class="edge">
<title>_ntoa_format&#45;&gt;&lt;_out_rev&gt; *</title>
<path fill="none" stroke="black" d="M61.09,-71.7C61.09,-63.98 61.09,-54.71 61.09,-46.11"/>
<polygon fill="black" stroke="black" points="64.59,-46.1 61.09,-36.1 57.59,-46.1 64.59,-46.1"/>
</g>
<!-- _ntoa_long -->
<g id="node6" class="node">
<title>_ntoa_long</title>
<ellipse fill="none" stroke="black" cx="525.09" cy="-162" rx="51.99" ry="18"/>
<text text-anchor="middle" x="525.09" y="-158.3" font-family="Times New Roman,serif" font-size="14.00">_ntoa_long</text>
</g>
<!-- _ntoa_long&#45;&gt;_ntoa_format -->
<g id="edge4" class="edge">
<title>_ntoa_long&#45;&gt;_ntoa_format</title>
<path fill="none" stroke="black" d="M475.86,-156.13C400.86,-148.31 253.65,-131.44 130.09,-108 125.07,-107.05 119.87,-105.96 114.67,-104.8"/>
<polygon fill="black" stroke="black" points="115.27,-101.35 104.74,-102.51 113.7,-108.17 115.27,-101.35"/>
</g>
<!-- _ntoa_long_long -->
<g id="node7" class="node">
<title>_ntoa_long_long</title>
<ellipse fill="none" stroke="black" cx="234.09" cy="-234" rx="72.29" ry="18"/>
<text text-anchor="middle" x="234.09" y="-230.3" font-family="Times New Roman,serif" font-size="14.00">_ntoa_long_long</text>
</g>
<!-- _ntoa_long_long&#45;&gt;_ntoa_format -->
<g id="edge5" class="edge">
<title>_ntoa_long_long&#45;&gt;_ntoa_format</title>
<path fill="none" stroke="black" d="M226.99,-215.83C218.1,-196.19 201.21,-164.16 178.09,-144 159.06,-127.4 133.98,-115.12 111.91,-106.58"/>
<polygon fill="black" stroke="black" points="112.94,-103.23 102.35,-103.03 110.51,-109.79 112.94,-103.23"/>
</g>
<!-- __udivdi3 -->
<g id="node8" class="node">
<title>__udivdi3</title>
<ellipse fill="none" stroke="black" cx="272.09" cy="-162" rx="47.39" ry="18"/>
<text text-anchor="middle" x="272.09" y="-158.3" font-family="Times New Roman,serif" font-size="14.00">__udivdi3</text>
</g>
<!-- _ntoa_long_long&#45;&gt;__udivdi3 -->
<g id="edge6" class="edge">
<title>_ntoa_long_long&#45;&gt;__udivdi3</title>
<path fill="none" stroke="black" d="M243.29,-216.05C247.73,-207.89 253.14,-197.91 258.08,-188.82"/>
<polygon fill="black" stroke="black" points="261.29,-190.25 262.98,-179.79 255.13,-186.91 261.29,-190.25"/>
</g>
<!-- __umoddi3 -->
<g id="node9" class="node">
<title>__umoddi3</title>
<ellipse fill="none" stroke="black" cx="116.09" cy="-162" rx="52.79" ry="18"/>
<text text-anchor="middle" x="116.09" y="-158.3" font-family="Times New Roman,serif" font-size="14.00">__umoddi3</text>
</g>
<!-- _ntoa_long_long&#45;&gt;__umoddi3 -->
<g id="edge7" class="edge">
<title>_ntoa_long_long&#45;&gt;__umoddi3</title>
<path fill="none" stroke="black" d="M207.32,-217.12C190.41,-207.09 168.41,-194.03 150.25,-183.26"/>
<polygon fill="black" stroke="black" points="151.54,-179.96 141.15,-177.86 147.97,-185.98 151.54,-179.96"/>
</g>
<!-- _etoa -->
<g id="node10" class="node">
<title>_etoa</title>
<ellipse fill="none" stroke="black" cx="759.09" cy="-234" rx="30.59" ry="18"/>
<text text-anchor="middle" x="759.09" y="-230.3" font-family="Times New Roman,serif" font-size="14.00">_etoa</text>
</g>
<!-- _etoa&#45;&gt;_ntoa_long -->
<g id="edge13" class="edge">
<title>_etoa&#45;&gt;_ntoa_long</title>
<path fill="none" stroke="black" d="M732.25,-224.97C693.47,-213.37 621.17,-191.74 573.08,-177.35"/>
<polygon fill="black" stroke="black" points="573.79,-173.91 563.2,-174.4 571.78,-180.62 573.79,-173.91"/>
</g>
<!-- __divdf3 -->
<g id="node11" class="node">
<title>__divdf3</title>
<ellipse fill="none" stroke="black" cx="1230.09" cy="-162" rx="44.39" ry="18"/>
<text text-anchor="middle" x="1230.09" y="-158.3" font-family="Times New Roman,serif" font-size="14.00">__divdf3</text>
</g>
<!-- _etoa&#45;&gt;__divdf3 -->
<g id="edge8" class="edge">
<title>_etoa&#45;&gt;__divdf3</title>
<path fill="none" stroke="black" d="M789.33,-231.08C858.61,-226.28 1033.91,-211.76 1177.09,-180 1180.7,-179.2 1184.42,-178.26 1188.12,-177.24"/>
<polygon fill="black" stroke="black" points="1189.23,-180.56 1197.84,-174.39 1187.26,-173.84 1189.23,-180.56"/>
</g>
<!-- __subdf3 -->
<g id="node12" class="node">
<title>__subdf3</title>
<ellipse fill="none" stroke="black" cx="1118.09" cy="-90" rx="46.29" ry="18"/>
<text text-anchor="middle" x="1118.09" y="-86.3" font-family="Times New Roman,serif" font-size="14.00">__subdf3</text>
</g>
<!-- _etoa&#45;&gt;__subdf3 -->
<g id="edge9" class="edge">
<title>_etoa&#45;&gt;__subdf3</title>
<path fill="none" stroke="black" d="M784.2,-223.7C812.27,-213.26 859.06,-195.71 899.09,-180 961.96,-155.33 1034.49,-125.6 1078.29,-107.51"/>
<polygon fill="black" stroke="black" points="1079.81,-110.67 1087.72,-103.61 1077.14,-104.2 1079.81,-110.67"/>
</g>
<!-- _ftoa -->
<g id="node13" class="node">
<title>_ftoa</title>
<ellipse fill="none" stroke="black" cx="701.09" cy="-162" rx="29.8" ry="18"/>
<text text-anchor="middle" x="701.09" y="-158.3" font-family="Times New Roman,serif" font-size="14.00">_ftoa</text>
</g>
<!-- _etoa&#45;&gt;_ftoa -->
<g id="edge10" class="edge">
<title>_etoa&#45;&gt;_ftoa</title>
<path fill="none" stroke="black" d="M741.81,-218.83C733.21,-209.88 723.11,-198.07 715.01,-187.62"/>
<polygon fill="black" stroke="black" points="717.81,-185.51 709.01,-179.61 712.21,-189.71 717.81,-185.51"/>
</g>
<!-- __adddf3 -->
<g id="node14" class="node">
<title>__adddf3</title>
<ellipse fill="none" stroke="black" cx="1122.09" cy="-162" rx="46.29" ry="18"/>
<text text-anchor="middle" x="1122.09" y="-158.3" font-family="Times New Roman,serif" font-size="14.00">__adddf3</text>
</g>
<!-- _etoa&#45;&gt;__adddf3 -->
<g id="edge11" class="edge">
<title>_etoa&#45;&gt;__adddf3</title>
<path fill="none" stroke="black" d="M788.55,-228.88C842.93,-221.04 962.66,-202.72 1062.09,-180 1066.86,-178.91 1071.81,-177.68 1076.73,-176.39"/>
<polygon fill="black" stroke="black" points="1077.98,-179.67 1086.72,-173.68 1076.15,-172.92 1077.98,-179.67"/>
</g>
<!-- __floatsidf -->
<g id="node15" class="node">
<title>__floatsidf</title>
<ellipse fill="none" stroke="black" cx="283.09" cy="-90" rx="50.09" ry="18"/>
<text text-anchor="middle" x="283.09" y="-86.3" font-family="Times New Roman,serif" font-size="14.00">__floatsidf</text>
</g>
<!-- _etoa&#45;&gt;__floatsidf -->
<g id="edge12" class="edge">
<title>_etoa&#45;&gt;__floatsidf</title>
<path fill="none" stroke="black" d="M736.01,-222C715.87,-212.04 686.19,-196.43 662.09,-180 641.5,-165.96 641.93,-153.99 619.09,-144 503.73,-93.55 461.14,-134.69 338.09,-108 334.87,-107.3 331.57,-106.5 328.25,-105.63"/>
<polygon fill="black" stroke="black" points="328.93,-102.19 318.36,-102.88 327.06,-108.93 328.93,-102.19"/>
</g>
<!-- __gedf2 -->
<g id="node16" class="node">
<title>__gedf2</title>
<ellipse fill="none" stroke="black" cx="806.09" cy="-90" rx="40.89" ry="18"/>
<text text-anchor="middle" x="806.09" y="-86.3" font-family="Times New Roman,serif" font-size="14.00">__gedf2</text>
</g>
<!-- _etoa&#45;&gt;__gedf2 -->
<g id="edge14" class="edge">
<title>_etoa&#45;&gt;__gedf2</title>
<path fill="none" stroke="black" d="M764.67,-216.15C772.68,-191.94 787.54,-147.05 797.11,-118.13"/>
<polygon fill="black" stroke="black" points="800.56,-118.86 800.38,-108.27 793.91,-116.66 800.56,-118.86"/>
</g>
<!-- __eqdf2 -->
<g id="node17" class="node">
<title>__eqdf2</title>
<ellipse fill="none" stroke="black" cx="907.09" cy="-90" rx="41.69" ry="18"/>
<text text-anchor="middle" x="907.09" y="-86.3" font-family="Times New Roman,serif" font-size="14.00">__eqdf2</text>
</g>
<!-- _etoa&#45;&gt;__eqdf2 -->
<g id="edge15" class="edge">
<title>_etoa&#45;&gt;__eqdf2</title>
<path fill="none" stroke="black" d="M774.38,-218.34C800.25,-193.51 852.85,-143.05 883.49,-113.65"/>
<polygon fill="black" stroke="black" points="885.98,-116.11 890.77,-106.66 881.14,-111.06 885.98,-116.11"/>
</g>
<!-- __fixdfsi -->
<g id="node18" class="node">
<title>__fixdfsi</title>
<ellipse fill="none" stroke="black" cx="1010.09" cy="-90" rx="43.59" ry="18"/>
<text text-anchor="middle" x="1010.09" y="-86.3" font-family="Times New Roman,serif" font-size="14.00">__fixdfsi</text>
</g>
<!-- _etoa&#45;&gt;__fixdfsi -->
<g id="edge16" class="edge">
<title>_etoa&#45;&gt;__fixdfsi</title>
<path fill="none" stroke="black" d="M780.49,-220.89C824.22,-196.15 924.11,-139.65 976.54,-109.98"/>
<polygon fill="black" stroke="black" points="978.47,-112.91 985.45,-104.94 975.03,-106.82 978.47,-112.91"/>
</g>
<!-- __muldf3 -->
<g id="node19" class="node">
<title>__muldf3</title>
<ellipse fill="none" stroke="black" cx="701.09" cy="-90" rx="46.29" ry="18"/>
<text text-anchor="middle" x="701.09" y="-86.3" font-family="Times New Roman,serif" font-size="14.00">__muldf3</text>
</g>
<!-- _etoa&#45;&gt;__muldf3 -->
<g id="edge17" class="edge">
<title>_etoa&#45;&gt;__muldf3</title>
<path fill="none" stroke="black" d="M757.61,-215.94C755.53,-197.51 750.72,-167.63 740.09,-144 735.6,-134 728.99,-124.04 722.49,-115.51"/>
<polygon fill="black" stroke="black" points="725.07,-113.13 716.1,-107.5 719.6,-117.5 725.07,-113.13"/>
</g>
<!-- __ledf2 -->
<g id="node20" class="node">
<title>__ledf2</title>
<ellipse fill="none" stroke="black" cx="177.09" cy="-90" rx="38.19" ry="18"/>
<text text-anchor="middle" x="177.09" y="-86.3" font-family="Times New Roman,serif" font-size="14.00">__ledf2</text>
</g>
<!-- _etoa&#45;&gt;__ledf2 -->
<g id="edge18" class="edge">
<title>_etoa&#45;&gt;__ledf2</title>
<path fill="none" stroke="black" d="M731.25,-226.58C701.62,-218.84 654.28,-203.83 619.09,-180 601.12,-167.83 605.5,-153.71 586.09,-144 441.51,-71.64 381.77,-143.77 224.09,-108 221.06,-107.31 217.96,-106.48 214.86,-105.57"/>
<polygon fill="black" stroke="black" points="215.68,-102.15 205.09,-102.41 213.53,-108.81 215.68,-102.15"/>
</g>
<!-- __clzsi2 -->
<g id="node43" class="node">
<title>__clzsi2</title>
<ellipse fill="none" stroke="black" cx="909.09" cy="-18" rx="40.89" ry="18"/>
<text text-anchor="middle" x="909.09" y="-14.3" font-family="Times New Roman,serif" font-size="14.00">__clzsi2</text>
</g>
<!-- __divdf3&#45;&gt;__clzsi2 -->
<g id="edge53" class="edge">
<title>__divdf3&#45;&gt;__clzsi2</title>
<path fill="none" stroke="black" d="M1227.52,-144.02C1223.49,-123.63 1213.67,-89.95 1191.09,-72 1155.93,-44.04 1030.31,-29.17 959.17,-22.82"/>
<polygon fill="black" stroke="black" points="959.35,-19.32 949.09,-21.95 958.75,-26.3 959.35,-19.32"/>
</g>
<!-- __subdf3&#45;&gt;__clzsi2 -->
<g id="edge55" class="edge">
<title>__subdf3&#45;&gt;__clzsi2</title>
<path fill="none" stroke="black" d="M1084.05,-77.6C1047.48,-65.35 989.35,-45.88 950.24,-32.78"/>
<polygon fill="black" stroke="black" points="951.32,-29.45 940.73,-29.59 949.1,-36.09 951.32,-29.45"/>
</g>
<!-- _ftoa&#45;&gt;_out_rev -->
<g id="edge23" class="edge">
<title>_ftoa&#45;&gt;_out_rev</title>
<path fill="none" stroke="black" d="M677.68,-150.76C671.13,-148.22 663.92,-145.74 657.09,-144 536.78,-113.41 492.21,-161.31 380.09,-108 359.08,-98.01 359.79,-87.11 342.09,-72 329.31,-61.08 314.59,-49.64 302.05,-40.19"/>
<polygon fill="black" stroke="black" points="303.87,-37.18 293.76,-34 299.68,-42.79 303.87,-37.18"/>
</g>
<!-- _ftoa&#45;&gt;_etoa -->
<g id="edge28" class="edge">
<title>_ftoa&#45;&gt;_etoa</title>
<path fill="none" stroke="black" d="M718.32,-177.11C726.94,-186.07 737.06,-197.91 745.18,-208.38"/>
<polygon fill="black" stroke="black" points="742.39,-210.51 751.19,-216.41 748,-206.31 742.39,-210.51"/>
</g>
<!-- _ftoa&#45;&gt;__subdf3 -->
<g id="edge19" class="edge">
<title>_ftoa&#45;&gt;__subdf3</title>
<path fill="none" stroke="black" d="M730.47,-158.25C792.47,-152.12 941.05,-135.62 1063.09,-108 1066.77,-107.17 1070.56,-106.21 1074.34,-105.19"/>
<polygon fill="black" stroke="black" points="1075.63,-108.46 1084.28,-102.35 1073.71,-101.73 1075.63,-108.46"/>
</g>
<!-- _ftoa&#45;&gt;__floatsidf -->
<g id="edge20" class="edge">
<title>_ftoa&#45;&gt;__floatsidf</title>
<path fill="none" stroke="black" d="M677.7,-150.7C671.14,-148.16 663.93,-145.69 657.09,-144 522.44,-110.74 483.36,-133.87 347.09,-108 341.73,-106.98 336.15,-105.76 330.63,-104.43"/>
<polygon fill="black" stroke="black" points="331.34,-101.01 320.79,-101.98 329.64,-107.8 331.34,-101.01"/>
</g>
<!-- _ftoa&#45;&gt;__gedf2 -->
<g id="edge22" class="edge">
<title>_ftoa&#45;&gt;__gedf2</title>
<path fill="none" stroke="black" d="M720.35,-148.16C735.92,-137.78 758.12,-122.99 776.02,-111.05"/>
<polygon fill="black" stroke="black" points="778.04,-113.91 784.42,-105.45 774.16,-108.08 778.04,-113.91"/>
</g>
<!-- _ftoa&#45;&gt;__eqdf2 -->
<g id="edge24" class="edge">
<title>_ftoa&#45;&gt;__eqdf2</title>
<path fill="none" stroke="black" d="M726.77,-152.28C761.62,-140.43 824.29,-119.14 865.8,-105.03"/>
<polygon fill="black" stroke="black" points="867,-108.32 875.35,-101.79 864.75,-101.69 867,-108.32"/>
</g>
<!-- _ftoa&#45;&gt;__fixdfsi -->
<g id="edge25" class="edge">
<title>_ftoa&#45;&gt;__fixdfsi</title>
<path fill="none" stroke="black" d="M729.48,-156.23C777.11,-147.97 875.98,-129.82 958.09,-108 961.41,-107.12 964.82,-106.15 968.24,-105.13"/>
<polygon fill="black" stroke="black" points="969.29,-108.47 977.81,-102.18 967.22,-101.78 969.29,-108.47"/>
</g>
<!-- _ftoa&#45;&gt;__muldf3 -->
<g id="edge27" class="edge">
<title>_ftoa&#45;&gt;__muldf3</title>
<path fill="none" stroke="black" d="M701.09,-143.7C701.09,-135.98 701.09,-126.71 701.09,-118.11"/>
<polygon fill="black" stroke="black" points="704.59,-118.1 701.09,-108.1 697.59,-118.1 704.59,-118.1"/>
</g>
<!-- _ftoa&#45;&gt;__ledf2 -->
<g id="edge29" class="edge">
<title>_ftoa&#45;&gt;__ledf2</title>
<path fill="none" stroke="black" d="M673.53,-154.47C657.68,-150.92 637.36,-146.72 619.09,-144 444.73,-118.07 396.17,-146.29 224.09,-108 221.06,-107.32 217.95,-106.5 214.85,-105.59"/>
<polygon fill="black" stroke="black" points="215.67,-102.18 205.08,-102.44 213.52,-108.84 215.67,-102.18"/>
</g>
<!-- __floatunsidf -->
<g id="node21" class="node">
<title>__floatunsidf</title>
<ellipse fill="none" stroke="black" cx="578.09" cy="-90" rx="59.29" ry="18"/>
<text text-anchor="middle" x="578.09" y="-86.3" font-family="Times New Roman,serif" font-size="14.00">__floatunsidf</text>
</g>
<!-- _ftoa&#45;&gt;__floatunsidf -->
<g id="edge21" class="edge">
<title>_ftoa&#45;&gt;__floatunsidf</title>
<path fill="none" stroke="black" d="M679.95,-148.97C661.8,-138.64 635.25,-123.53 613.81,-111.33"/>
<polygon fill="black" stroke="black" points="615.4,-108.2 604.97,-106.3 611.93,-114.29 615.4,-108.2"/>
</g>
<!-- __fixunsdfsi -->
<g id="node22" class="node">
<title>__fixunsdfsi</title>
<ellipse fill="none" stroke="black" cx="445.09" cy="-90" rx="55.79" ry="18"/>
<text text-anchor="middle" x="445.09" y="-86.3" font-family="Times New Roman,serif" font-size="14.00">__fixunsdfsi</text>
</g>
<!-- _ftoa&#45;&gt;__fixunsdfsi -->
<g id="edge26" class="edge">
<title>_ftoa&#45;&gt;__fixunsdfsi</title>
<path fill="none" stroke="black" d="M677.09,-151.08C670.65,-148.6 663.66,-146.06 657.09,-144 592.92,-123.84 575.3,-124.51 510.09,-108 505.78,-106.91 501.31,-105.76 496.82,-104.61"/>
<polygon fill="black" stroke="black" points="497.59,-101.19 487.03,-102.07 495.83,-107.97 497.59,-101.19"/>
</g>
<!-- __adddf3&#45;&gt;__clzsi2 -->
<g id="edge52" class="edge">
<title>__adddf3&#45;&gt;__clzsi2</title>
<path fill="none" stroke="black" d="M1141.99,-145.55C1163.49,-126.98 1192.28,-95.42 1173.09,-72 1146.64,-39.71 1028.63,-26.68 959.67,-21.75"/>
<polygon fill="black" stroke="black" points="959.67,-18.24 949.45,-21.05 959.19,-25.23 959.67,-18.24"/>
</g>
<!-- __floatsidf&#45;&gt;__clzsi2 -->
<g id="edge56" class="edge">
<title>__floatsidf&#45;&gt;__clzsi2</title>
<path fill="none" stroke="black" d="M326.45,-80.7C343.17,-77.68 362.48,-74.42 380.09,-72 555.48,-47.88 765.02,-30.15 859.08,-22.78"/>
<polygon fill="black" stroke="black" points="859.46,-26.26 869.16,-21.99 858.92,-19.28 859.46,-26.26"/>
</g>
<!-- __muldf3&#45;&gt;__clzsi2 -->
<g id="edge54" class="edge">
<title>__muldf3&#45;&gt;__clzsi2</title>
<path fill="none" stroke="black" d="M734.98,-77.6C771.22,-65.4 828.74,-46.04 867.65,-32.95"/>
<polygon fill="black" stroke="black" points="869.25,-36.1 877.61,-29.59 867.02,-29.47 869.25,-36.1"/>
</g>
<!-- __floatunsidf&#45;&gt;__clzsi2 -->
<g id="edge57" class="edge">
<title>__floatunsidf&#45;&gt;__clzsi2</title>
<path fill="none" stroke="black" d="M621.92,-77.73C629.95,-75.75 638.26,-73.77 646.09,-72 721.28,-55.04 809.15,-37.86 861.89,-27.83"/>
<polygon fill="black" stroke="black" points="862.79,-31.23 871.96,-25.92 861.48,-24.35 862.79,-31.23"/>
</g>
<!-- _vsnprintf -->
<g id="node23" class="node">
<title>_vsnprintf</title>
<ellipse fill="none" stroke="black" cx="634.09" cy="-306" rx="48.19" ry="18"/>
<text text-anchor="middle" x="634.09" y="-302.3" font-family="Times New Roman,serif" font-size="14.00">_vsnprintf</text>
</g>
<!-- _vsnprintf&#45;&gt;_ntoa_long -->
<g id="edge33" class="edge">
<title>_vsnprintf&#45;&gt;_ntoa_long</title>
<path fill="none" stroke="black" d="M621.38,-288.43C602.26,-263.53 566.01,-216.3 543.85,-187.43"/>
<polygon fill="black" stroke="black" points="546.6,-185.26 537.73,-179.46 541.04,-189.53 546.6,-185.26"/>
</g>
<!-- _vsnprintf&#45;&gt;_ntoa_long_long -->
<g id="edge32" class="edge">
<title>_vsnprintf&#45;&gt;_ntoa_long_long</title>
<path fill="none" stroke="black" d="M591.29,-297.51C521.83,-285.35 384.05,-261.24 301.38,-246.78"/>
<polygon fill="black" stroke="black" points="301.79,-243.29 291.34,-245.02 300.59,-250.19 301.79,-243.29"/>
</g>
<!-- _vsnprintf&#45;&gt;_etoa -->
<g id="edge30" class="edge">
<title>_vsnprintf&#45;&gt;_etoa</title>
<path fill="none" stroke="black" d="M659.69,-290.67C679.73,-279.45 707.64,-263.81 728.79,-251.97"/>
<polygon fill="black" stroke="black" points="730.67,-254.93 737.69,-246.99 727.25,-248.82 730.67,-254.93"/>
</g>
<!-- _vsnprintf&#45;&gt;_ftoa -->
<g id="edge31" class="edge">
<title>_vsnprintf&#45;&gt;_ftoa</title>
<path fill="none" stroke="black" d="M642.04,-288.15C653.63,-263.6 675.25,-217.77 688.87,-188.91"/>
<polygon fill="black" stroke="black" points="692.05,-190.36 693.16,-179.82 685.72,-187.38 692.05,-190.36"/>
</g>
<!-- printf&#45;&gt;_vsnprintf -->
<g id="edge34" class="edge">
<title>printf&#45;&gt;_vsnprintf</title>
<path fill="none" stroke="black" d="M655.46,-360.41C652.23,-352.34 648.27,-342.43 644.64,-333.35"/>
<polygon fill="black" stroke="black" points="647.84,-331.94 640.88,-323.96 641.34,-334.54 647.84,-331.94"/>
</g>
<!-- vsnprintf -->
<g id="node25" class="node">
<title>vsnprintf</title>
<ellipse fill="none" stroke="black" cx="2397.09" cy="-450" rx="42.79" ry="18"/>
<text text-anchor="middle" x="2397.09" y="-446.3" font-family="Times New Roman,serif" font-size="14.00">vsnprintf</text>
</g>
<!-- &lt;_vsnprintf&gt; * -->
<g id="node26" class="node">
<title>&lt;_vsnprintf&gt; *</title>
<ellipse fill="none" stroke="black" cx="2437.09" cy="-378" rx="65.79" ry="18"/>
<text text-anchor="middle" x="2437.09" y="-374.3" font-family="Times New Roman,serif" font-size="14.00">&lt;_vsnprintf&gt; *</text>
</g>
<!-- vsnprintf&#45;&gt;&lt;_vsnprintf&gt; * -->
<g id="edge35" class="edge">
<title>vsnprintf&#45;&gt;&lt;_vsnprintf&gt; *</title>
<path fill="none" stroke="black" d="M2406.57,-432.41C2411.29,-424.16 2417.09,-414.01 2422.37,-404.78"/>
<polygon fill="black" stroke="black" points="2425.48,-406.38 2427.41,-395.96 2419.41,-402.9 2425.48,-406.38"/>
</g>
<!-- ck_uart_set_parity -->
<g id="node28" class="node">
<title>ck_uart_set_parity</title>
<ellipse fill="none" stroke="black" cx="979.09" cy="-306" rx="78.79" ry="18"/>
<text text-anchor="middle" x="979.09" y="-302.3" font-family="Times New Roman,serif" font-size="14.00">ck_uart_set_parity</text>
</g>
<!-- ck_uart_init&#45;&gt;ck_uart_set_parity -->
<g id="edge36" class="edge">
<title>ck_uart_init&#45;&gt;ck_uart_set_parity</title>
<path fill="none" stroke="black" d="M826.02,-364C855.4,-353.06 897.73,-337.3 930.43,-325.12"/>
<polygon fill="black" stroke="black" points="931.66,-328.4 939.81,-321.63 929.22,-321.84 931.66,-328.4"/>
</g>
<!-- ck_uart_set_wordsize -->
<g id="node29" class="node">
<title>ck_uart_set_wordsize</title>
<ellipse fill="none" stroke="black" cx="791.09" cy="-306" rx="90.98" ry="18"/>
<text text-anchor="middle" x="791.09" y="-302.3" font-family="Times New Roman,serif" font-size="14.00">ck_uart_set_wordsize</text>
</g>
<!-- ck_uart_init&#45;&gt;ck_uart_set_wordsize -->
<g id="edge37" class="edge">
<title>ck_uart_init&#45;&gt;ck_uart_set_wordsize</title>
<path fill="none" stroke="black" d="M791.09,-359.7C791.09,-351.98 791.09,-342.71 791.09,-334.11"/>
<polygon fill="black" stroke="black" points="794.59,-334.1 791.09,-324.1 787.59,-334.1 794.59,-334.1"/>
</g>
<!-- vasprintf -->
<g id="node30" class="node">
<title>vasprintf</title>
<ellipse fill="none" stroke="black" cx="2161.09" cy="-522" rx="42.49" ry="18"/>
<text text-anchor="middle" x="2161.09" y="-518.3" font-family="Times New Roman,serif" font-size="14.00">vasprintf</text>
</g>
<!-- vasprintf&#45;&gt;vsnprintf -->
<g id="edge40" class="edge">
<title>vasprintf&#45;&gt;vsnprintf</title>
<path fill="none" stroke="black" d="M2194.66,-511.05C2236.27,-498.7 2307.31,-477.63 2353.21,-464.02"/>
<polygon fill="black" stroke="black" points="2354.29,-467.35 2362.88,-461.15 2352.3,-460.64 2354.29,-467.35"/>
</g>
<!-- strlen -->
<g id="node31" class="node">
<title>strlen</title>
<ellipse fill="none" stroke="black" cx="1939.09" cy="-450" rx="30.59" ry="18"/>
<text text-anchor="middle" x="1939.09" y="-446.3" font-family="Times New Roman,serif" font-size="14.00">strlen</text>
</g>
<!-- vasprintf&#45;&gt;strlen -->
<g id="edge38" class="edge">
<title>vasprintf&#45;&gt;strlen</title>
<path fill="none" stroke="black" d="M2127.86,-510.52C2086.87,-497.6 2017.46,-475.71 1975.2,-462.38"/>
<polygon fill="black" stroke="black" points="1976.18,-459.02 1965.59,-459.35 1974.07,-465.7 1976.18,-459.02"/>
</g>
<!-- strdup -->
<g id="node32" class="node">
<title>strdup</title>
<ellipse fill="none" stroke="black" cx="2044.09" cy="-450" rx="34.39" ry="18"/>
<text text-anchor="middle" x="2044.09" y="-446.3" font-family="Times New Roman,serif" font-size="14.00">strdup</text>
</g>
<!-- vasprintf&#45;&gt;strdup -->
<g id="edge39" class="edge">
<title>vasprintf&#45;&gt;strdup</title>
<path fill="none" stroke="black" d="M2137.7,-507C2119.54,-496.14 2094.22,-480.99 2074.49,-469.19"/>
<polygon fill="black" stroke="black" points="2076.25,-466.16 2065.87,-464.03 2072.65,-472.17 2076.25,-466.16"/>
</g>
<!-- malloc -->
<g id="node33" class="node">
<title>malloc</title>
<ellipse fill="none" stroke="black" cx="2161.09" cy="-450" rx="34.39" ry="18"/>
<text text-anchor="middle" x="2161.09" y="-446.3" font-family="Times New Roman,serif" font-size="14.00">malloc</text>
</g>
<!-- vasprintf&#45;&gt;malloc -->
<g id="edge41" class="edge">
<title>vasprintf&#45;&gt;malloc</title>
<path fill="none" stroke="black" d="M2161.09,-503.7C2161.09,-495.98 2161.09,-486.71 2161.09,-478.11"/>
<polygon fill="black" stroke="black" points="2164.59,-478.1 2161.09,-468.1 2157.59,-478.1 2164.59,-478.1"/>
</g>
<!-- free -->
<g id="node34" class="node">
<title>free</title>
<ellipse fill="none" stroke="black" cx="2269.09" cy="-450" rx="27" ry="18"/>
<text text-anchor="middle" x="2269.09" y="-446.3" font-family="Times New Roman,serif" font-size="14.00">free</text>
</g>
<!-- vasprintf&#45;&gt;free -->
<g id="edge42" class="edge">
<title>vasprintf&#45;&gt;free</title>
<path fill="none" stroke="black" d="M2183.47,-506.5C2200.31,-495.58 2223.48,-480.57 2241.47,-468.91"/>
<polygon fill="black" stroke="black" points="2243.86,-471.53 2250.34,-463.15 2240.05,-465.66 2243.86,-471.53"/>
</g>
<!-- &lt;_strdup_r&gt; * -->
<g id="node54" class="node">
<title>&lt;_strdup_r&gt; *</title>
<ellipse fill="none" stroke="black" cx="2014.09" cy="-378" rx="64.19" ry="18"/>
<text text-anchor="middle" x="2014.09" y="-374.3" font-family="Times New Roman,serif" font-size="14.00">&lt;_strdup_r&gt; *</text>
</g>
<!-- strdup&#45;&gt;&lt;_strdup_r&gt; * -->
<g id="edge67" class="edge">
<title>strdup&#45;&gt;&lt;_strdup_r&gt; *</title>
<path fill="none" stroke="black" d="M2036.83,-432.05C2033.42,-424.09 2029.27,-414.41 2025.46,-405.51"/>
<polygon fill="black" stroke="black" points="2028.65,-404.09 2021.5,-396.28 2022.22,-406.85 2028.65,-404.09"/>
</g>
<!-- &lt;_malloc_r&gt; * -->
<g id="node44" class="node">
<title>&lt;_malloc_r&gt; *</title>
<ellipse fill="none" stroke="black" cx="2161.09" cy="-378" rx="64.99" ry="18"/>
<text text-anchor="middle" x="2161.09" y="-374.3" font-family="Times New Roman,serif" font-size="14.00">&lt;_malloc_r&gt; *</text>
</g>
<!-- malloc&#45;&gt;&lt;_malloc_r&gt; * -->
<g id="edge58" class="edge">
<title>malloc&#45;&gt;&lt;_malloc_r&gt; *</title>
<path fill="none" stroke="black" d="M2161.09,-431.7C2161.09,-423.98 2161.09,-414.71 2161.09,-406.11"/>
<polygon fill="black" stroke="black" points="2164.59,-406.1 2161.09,-396.1 2157.59,-406.1 2164.59,-406.1"/>
</g>
<!-- &lt;_free_r&gt; * -->
<g id="node45" class="node">
<title>&lt;_free_r&gt; *</title>
<ellipse fill="none" stroke="black" cx="2299.09" cy="-378" rx="54.69" ry="18"/>
<text text-anchor="middle" x="2299.09" y="-374.3" font-family="Times New Roman,serif" font-size="14.00">&lt;_free_r&gt; *</text>
</g>
<!-- free&#45;&gt;&lt;_free_r&gt; * -->
<g id="edge59" class="edge">
<title>free&#45;&gt;&lt;_free_r&gt; *</title>
<path fill="none" stroke="black" d="M2276.2,-432.41C2279.67,-424.34 2283.91,-414.43 2287.8,-405.35"/>
<polygon fill="black" stroke="black" points="2291.11,-406.53 2291.83,-395.96 2284.67,-403.77 2291.11,-406.53"/>
</g>
<!-- fputc -->
<g id="node35" class="node">
<title>fputc</title>
<ellipse fill="none" stroke="black" cx="2535.09" cy="-522" rx="29.8" ry="18"/>
<text text-anchor="middle" x="2535.09" y="-518.3" font-family="Times New Roman,serif" font-size="14.00">fputc</text>
</g>
<!-- &lt;ck_uart_putc&gt; * -->
<g id="node36" class="node">
<title>&lt;ck_uart_putc&gt; *</title>
<ellipse fill="none" stroke="black" cx="2535.09" cy="-450" rx="76.89" ry="18"/>
<text text-anchor="middle" x="2535.09" y="-446.3" font-family="Times New Roman,serif" font-size="14.00">&lt;ck_uart_putc&gt; *</text>
</g>
<!-- fputc&#45;&gt;&lt;ck_uart_putc&gt; * -->
<g id="edge43" class="edge">
<title>fputc&#45;&gt;&lt;ck_uart_putc&gt; *</title>
<path fill="none" stroke="black" d="M2535.09,-503.7C2535.09,-495.98 2535.09,-486.71 2535.09,-478.11"/>
<polygon fill="black" stroke="black" points="2538.59,-478.1 2535.09,-468.1 2531.59,-478.1 2538.59,-478.1"/>
</g>
<!-- _malloc_r -->
<g id="node46" class="node">
<title>_malloc_r</title>
<ellipse fill="none" stroke="black" cx="1790.09" cy="-450" rx="47.39" ry="18"/>
<text text-anchor="middle" x="1790.09" y="-446.3" font-family="Times New Roman,serif" font-size="14.00">_malloc_r</text>
</g>
<!-- __malloc_unlock -->
<g id="node47" class="node">
<title>__malloc_unlock</title>
<ellipse fill="none" stroke="black" cx="1710.09" cy="-234" rx="73.39" ry="18"/>
<text text-anchor="middle" x="1710.09" y="-230.3" font-family="Times New Roman,serif" font-size="14.00">__malloc_unlock</text>
</g>
<!-- _malloc_r&#45;&gt;__malloc_unlock -->
<g id="edge60" class="edge">
<title>_malloc_r&#45;&gt;__malloc_unlock</title>
<path fill="none" stroke="black" d="M1772.88,-432.84C1750.89,-410.78 1714.22,-368.84 1702.09,-324 1696.58,-303.59 1699.2,-279.7 1702.86,-261.81"/>
<polygon fill="black" stroke="black" points="1706.28,-262.57 1705.08,-252.04 1699.45,-261.01 1706.28,-262.57"/>
</g>
<!-- _sbrk_r -->
<g id="node48" class="node">
<title>_sbrk_r</title>
<ellipse fill="none" stroke="black" cx="1579.09" cy="-234" rx="39.79" ry="18"/>
<text text-anchor="middle" x="1579.09" y="-230.3" font-family="Times New Roman,serif" font-size="14.00">_sbrk_r</text>
</g>
<!-- _malloc_r&#45;&gt;_sbrk_r -->
<g id="edge61" class="edge">
<title>_malloc_r&#45;&gt;_sbrk_r</title>
<path fill="none" stroke="black" d="M1765.95,-434.5C1750.38,-424.6 1730.12,-410.66 1714.09,-396 1666.66,-352.6 1620.55,-292.65 1596.43,-259.5"/>
<polygon fill="black" stroke="black" points="1599.19,-257.35 1590.5,-251.29 1593.51,-261.45 1599.19,-257.35"/>
</g>
<!-- __malloc_lock -->
<g id="node49" class="node">
<title>__malloc_lock</title>
<ellipse fill="none" stroke="black" cx="1903.09" cy="-234" rx="64.99" ry="18"/>
<text text-anchor="middle" x="1903.09" y="-230.3" font-family="Times New Roman,serif" font-size="14.00">__malloc_lock</text>
</g>
<!-- _malloc_r&#45;&gt;__malloc_lock -->
<g id="edge62" class="edge">
<title>_malloc_r&#45;&gt;__malloc_lock</title>
<path fill="none" stroke="black" d="M1807.78,-433.24C1831.09,-411.31 1871.31,-369.16 1890.09,-324 1898.28,-304.33 1901.43,-280.34 1902.59,-262.23"/>
<polygon fill="black" stroke="black" points="1906.1,-262.22 1903.08,-252.06 1899.1,-261.88 1906.1,-262.22"/>
</g>
<!-- _free_r -->
<g id="node50" class="node">
<title>_free_r</title>
<ellipse fill="none" stroke="black" cx="1790.09" cy="-378" rx="37.09" ry="18"/>
<text text-anchor="middle" x="1790.09" y="-374.3" font-family="Times New Roman,serif" font-size="14.00">_free_r</text>
</g>
<!-- _malloc_r&#45;&gt;_free_r -->
<g id="edge63" class="edge">
<title>_malloc_r&#45;&gt;_free_r</title>
<path fill="none" stroke="black" d="M1790.09,-431.7C1790.09,-423.98 1790.09,-414.71 1790.09,-406.11"/>
<polygon fill="black" stroke="black" points="1793.59,-406.1 1790.09,-396.1 1786.59,-406.1 1793.59,-406.1"/>
</g>
<!-- &lt;__retarget_lock_release_recursive&gt; * -->
<g id="node52" class="node">
<title>&lt;__retarget_lock_release_recursive&gt; *</title>
<ellipse fill="none" stroke="black" cx="1710.09" cy="-162" rx="152.17" ry="18"/>
<text text-anchor="middle" x="1710.09" y="-158.3" font-family="Times New Roman,serif" font-size="14.00">&lt;__retarget_lock_release_recursive&gt; *</text>
</g>
<!-- __malloc_unlock&#45;&gt;&lt;__retarget_lock_release_recursive&gt; * -->
<g id="edge65" class="edge">
<title>__malloc_unlock&#45;&gt;&lt;__retarget_lock_release_recursive&gt; *</title>
<path fill="none" stroke="black" d="M1710.09,-215.7C1710.09,-207.98 1710.09,-198.71 1710.09,-190.11"/>
<polygon fill="black" stroke="black" points="1713.59,-190.1 1710.09,-180.1 1706.59,-190.1 1713.59,-190.1"/>
</g>
<!-- _sbrk -->
<g id="node53" class="node">
<title>_sbrk</title>
<ellipse fill="none" stroke="black" cx="1508.09" cy="-162" rx="31.7" ry="18"/>
<text text-anchor="middle" x="1508.09" y="-158.3" font-family="Times New Roman,serif" font-size="14.00">_sbrk</text>
</g>
<!-- _sbrk_r&#45;&gt;_sbrk -->
<g id="edge66" class="edge">
<title>_sbrk_r&#45;&gt;_sbrk</title>
<path fill="none" stroke="black" d="M1563.34,-217.46C1553.74,-208 1541.31,-195.75 1530.68,-185.27"/>
<polygon fill="black" stroke="black" points="1532.9,-182.54 1523.32,-178.01 1527.98,-187.52 1532.9,-182.54"/>
</g>
<!-- &lt;__retarget_lock_acquire_recursive&gt; * -->
<g id="node51" class="node">
<title>&lt;__retarget_lock_acquire_recursive&gt; *</title>
<ellipse fill="none" stroke="black" cx="2034.09" cy="-162" rx="154.07" ry="18"/>
<text text-anchor="middle" x="2034.09" y="-158.3" font-family="Times New Roman,serif" font-size="14.00">&lt;__retarget_lock_acquire_recursive&gt; *</text>
</g>
<!-- __malloc_lock&#45;&gt;&lt;__retarget_lock_acquire_recursive&gt; * -->
<g id="edge64" class="edge">
<title>__malloc_lock&#45;&gt;&lt;__retarget_lock_acquire_recursive&gt; *</title>
<path fill="none" stroke="black" d="M1931.52,-217.81C1949.66,-208.12 1973.46,-195.4 1993.57,-184.66"/>
<polygon fill="black" stroke="black" points="1995.34,-187.68 2002.51,-179.88 1992.04,-181.5 1995.34,-187.68"/>
</g>
<!-- _free_r&#45;&gt;__malloc_unlock -->
<g id="edge74" class="edge">
<title>_free_r&#45;&gt;__malloc_unlock</title>
<path fill="none" stroke="black" d="M1763.03,-365.48C1746.11,-356.74 1725.6,-342.97 1715.09,-324 1704.75,-305.33 1704.1,-280.94 1705.7,-262.42"/>
<polygon fill="black" stroke="black" points="1709.2,-262.61 1706.85,-252.28 1702.25,-261.82 1709.2,-262.61"/>
</g>
<!-- _free_r&#45;&gt;__malloc_lock -->
<g id="edge76" class="edge">
<title>_free_r&#45;&gt;__malloc_lock</title>
<path fill="none" stroke="black" d="M1814.75,-364.3C1830.85,-354.97 1851.37,-340.99 1865.09,-324 1879.88,-305.7 1889.86,-280.78 1895.87,-261.97"/>
<polygon fill="black" stroke="black" points="1899.27,-262.81 1898.81,-252.22 1892.57,-260.79 1899.27,-262.81"/>
</g>
<!-- _malloc_trim_r -->
<g id="node57" class="node">
<title>_malloc_trim_r</title>
<ellipse fill="none" stroke="black" cx="1790.09" cy="-306" rx="66.09" ry="18"/>
<text text-anchor="middle" x="1790.09" y="-302.3" font-family="Times New Roman,serif" font-size="14.00">_malloc_trim_r</text>
</g>
<!-- _free_r&#45;&gt;_malloc_trim_r -->
<g id="edge75" class="edge">
<title>_free_r&#45;&gt;_malloc_trim_r</title>
<path fill="none" stroke="black" d="M1790.09,-359.7C1790.09,-351.98 1790.09,-342.71 1790.09,-334.11"/>
<polygon fill="black" stroke="black" points="1793.59,-334.1 1790.09,-324.1 1786.59,-334.1 1793.59,-334.1"/>
</g>
<!-- _strdup_r -->
<g id="node55" class="node">
<title>_strdup_r</title>
<ellipse fill="none" stroke="black" cx="1790.09" cy="-522" rx="46.59" ry="18"/>
<text text-anchor="middle" x="1790.09" y="-518.3" font-family="Times New Roman,serif" font-size="14.00">_strdup_r</text>
</g>
<!-- _strdup_r&#45;&gt;strlen -->
<g id="edge68" class="edge">
<title>_strdup_r&#45;&gt;strlen</title>
<path fill="none" stroke="black" d="M1818.47,-507.67C1843.59,-495.87 1880.24,-478.65 1906.54,-466.29"/>
<polygon fill="black" stroke="black" points="1908.16,-469.4 1915.72,-461.98 1905.18,-463.07 1908.16,-469.4"/>
</g>
<!-- _strdup_r&#45;&gt;_malloc_r -->
<g id="edge70" class="edge">
<title>_strdup_r&#45;&gt;_malloc_r</title>
<path fill="none" stroke="black" d="M1790.09,-503.7C1790.09,-495.98 1790.09,-486.71 1790.09,-478.11"/>
<polygon fill="black" stroke="black" points="1793.59,-478.1 1790.09,-468.1 1786.59,-478.1 1793.59,-478.1"/>
</g>
<!-- memcpy -->
<g id="node56" class="node">
<title>memcpy</title>
<ellipse fill="none" stroke="black" cx="1682.09" cy="-450" rx="42.49" ry="18"/>
<text text-anchor="middle" x="1682.09" y="-446.3" font-family="Times New Roman,serif" font-size="14.00">memcpy</text>
</g>
<!-- _strdup_r&#45;&gt;memcpy -->
<g id="edge69" class="edge">
<title>_strdup_r&#45;&gt;memcpy</title>
<path fill="none" stroke="black" d="M1767.19,-506.15C1751.37,-495.9 1730.15,-482.15 1712.86,-470.94"/>
<polygon fill="black" stroke="black" points="1714.52,-467.85 1704.23,-465.35 1710.71,-473.72 1714.52,-467.85"/>
</g>
<!-- _malloc_trim_r&#45;&gt;__malloc_unlock -->
<g id="edge71" class="edge">
<title>_malloc_trim_r&#45;&gt;__malloc_unlock</title>
<path fill="none" stroke="black" d="M1771.14,-288.41C1760.77,-279.34 1747.78,-267.97 1736.45,-258.06"/>
<polygon fill="black" stroke="black" points="1738.75,-255.42 1728.92,-251.47 1734.14,-260.69 1738.75,-255.42"/>
</g>
<!-- _malloc_trim_r&#45;&gt;_sbrk_r -->
<g id="edge72" class="edge">
<title>_malloc_trim_r&#45;&gt;_sbrk_r</title>
<path fill="none" stroke="black" d="M1749.08,-291.8C1716.29,-281.2 1669.18,-265.85 1628.09,-252 1625.2,-251.02 1622.22,-250.01 1619.21,-248.98"/>
<polygon fill="black" stroke="black" points="1620.24,-245.64 1609.65,-245.69 1617.97,-252.26 1620.24,-245.64"/>
</g>
<!-- _malloc_trim_r&#45;&gt;__malloc_lock -->
<g id="edge73" class="edge">
<title>_malloc_trim_r&#45;&gt;__malloc_lock</title>
<path fill="none" stroke="black" d="M1815.45,-289.29C1831.3,-279.47 1851.9,-266.71 1869.15,-256.03"/>
<polygon fill="black" stroke="black" points="1871.16,-258.9 1877.82,-250.66 1867.48,-252.95 1871.16,-258.9"/>
</g>
</g>
</svg>
