<?xml version="1.0" encoding="UTF-8" standalone="no"?>
<!DOCTYPE svg PUBLIC "-//W3C//DTD SVG 1.1//EN"
 "http://www.w3.org/Graphics/SVG/1.1/DTD/svg11.dtd">
<!-- Generated by graphviz version 6.0.2 (20221011.1828)
 -->
<!-- Pages: 1 -->
<svg width="1911pt" height="419pt"
 viewBox="0.00 0.00 1910.50 419.00" xmlns="http://www.w3.org/2000/svg" xmlns:xlink="http://www.w3.org/1999/xlink">
<g id="graph0" class="graph" transform="scale(1 1) rotate(0) translate(4 415)">
<polygon fill="white" stroke="none" points="-4,4 -4,-415 1906.5,-415 1906.5,4 -4,4"/>
<!-- 43 -->
<g id="node1" class="node">
<title>43</title>
<polygon fill="none" stroke="black" points="205,-411 0,-411 0,-298 205,-298 205,-411"/>
<text text-anchor="middle" x="102.5" y="-395.8" font-family="Times New Roman,serif" font-size="14.00">Basic_block Name: 43</text>
<text text-anchor="middle" x="102.5" y="-380.8" font-family="Times New Roman,serif" font-size="14.00">In Function: &lt;main&gt;</text>
<text text-anchor="middle" x="102.5" y="-365.8" font-family="Times New Roman,serif" font-size="14.00">Start address: 1cf0</text>
<text text-anchor="middle" x="102.5" y="-350.8" font-family="Times New Roman,serif" font-size="14.00">End address: 1d3c</text>
<text text-anchor="middle" x="102.5" y="-335.8" font-family="Times New Roman,serif" font-size="14.00">Length: 32</text>
<text text-anchor="middle" x="102.5" y="-320.8" font-family="Times New Roman,serif" font-size="14.00">Taken_Target: 1d24</text>
<text text-anchor="middle" x="102.5" y="-305.8" font-family="Times New Roman,serif" font-size="14.00">Not_Taken_Target address: 1d40</text>
</g>
<!-- 44 -->
<g id="node2" class="node">
<title>44</title>
<polygon fill="none" stroke="black" points="191,-113 14,-113 14,0 191,0 191,-113"/>
<text text-anchor="middle" x="102.5" y="-97.8" font-family="Times New Roman,serif" font-size="14.00">Basic_block Name: 44</text>
<text text-anchor="middle" x="102.5" y="-82.8" font-family="Times New Roman,serif" font-size="14.00">In Function: &lt;main&gt;</text>
<text text-anchor="middle" x="102.5" y="-67.8" font-family="Times New Roman,serif" font-size="14.00">Start address: 1d40</text>
<text text-anchor="middle" x="102.5" y="-52.8" font-family="Times New Roman,serif" font-size="14.00">End address: 1d60</text>
<text text-anchor="middle" x="102.5" y="-37.8" font-family="Times New Roman,serif" font-size="14.00">Length: 14</text>
<text text-anchor="middle" x="102.5" y="-22.8" font-family="Times New Roman,serif" font-size="14.00">Taken_Target: 1ae4</text>
<text text-anchor="middle" x="102.5" y="-7.8" font-family="Times New Roman,serif" font-size="14.00">Not_Taken_Target address: </text>
</g>
<!-- 43&#45;&gt;44 -->
<g id="edge2" class="edge">
<title>43&#45;&gt;44</title>
<path fill="none" stroke="red" stroke-dasharray="5,2" d="M54.29,-297.94C46.98,-286.71 40.53,-274.49 36.5,-262 21.06,-214.21 21.06,-196.79 36.5,-149 39.53,-139.63 43.91,-130.42 48.99,-121.66"/>
<polygon fill="red" stroke="red" points="52.03,-123.41 54.29,-113.06 46.07,-119.74 52.03,-123.41"/>
</g>
<!-- 196 start_with_taken_target -->
<g id="node8" class="node">
<title>196 start_with_taken_target</title>
<polygon fill="none" stroke="black" points="329,-262 46,-262 46,-149 329,-149 329,-262"/>
<text text-anchor="middle" x="187.5" y="-246.8" font-family="Times New Roman,serif" font-size="14.00">Basic_block Name: 196 start_with_taken_target</text>
<text text-anchor="middle" x="187.5" y="-231.8" font-family="Times New Roman,serif" font-size="14.00">In Function: &lt;main&gt;</text>
<text text-anchor="middle" x="187.5" y="-216.8" font-family="Times New Roman,serif" font-size="14.00">Start address: 1d24</text>
<text text-anchor="middle" x="187.5" y="-201.8" font-family="Times New Roman,serif" font-size="14.00">End address: 1d3c</text>
<text text-anchor="middle" x="187.5" y="-186.8" font-family="Times New Roman,serif" font-size="14.00">Length: 11</text>
<text text-anchor="middle" x="187.5" y="-171.8" font-family="Times New Roman,serif" font-size="14.00">Taken_Target: 1d24</text>
<text text-anchor="middle" x="187.5" y="-156.8" font-family="Times New Roman,serif" font-size="14.00">Not_Taken_Target address: 1d40</text>
</g>
<!-- 43&#45;&gt;196 start_with_taken_target -->
<g id="edge1" class="edge">
<title>43&#45;&gt;196 start_with_taken_target</title>
<path fill="none" stroke="black" d="M134.63,-297.93C139.71,-289.14 145,-280 150.18,-271.04"/>
<polygon fill="black" stroke="black" points="153.34,-272.56 155.32,-262.15 147.28,-269.06 153.34,-272.56"/>
</g>
<!-- 45 -->
<g id="node3" class="node">
<title>45</title>
<polygon fill="none" stroke="black" points="400,-411 223,-411 223,-298 400,-298 400,-411"/>
<text text-anchor="middle" x="311.5" y="-395.8" font-family="Times New Roman,serif" font-size="14.00">Basic_block Name: 45</text>
<text text-anchor="middle" x="311.5" y="-380.8" font-family="Times New Roman,serif" font-size="14.00">In Function: &lt;main&gt;</text>
<text text-anchor="middle" x="311.5" y="-365.8" font-family="Times New Roman,serif" font-size="14.00">Start address: 1d62</text>
<text text-anchor="middle" x="311.5" y="-350.8" font-family="Times New Roman,serif" font-size="14.00">End address: 1d76</text>
<text text-anchor="middle" x="311.5" y="-335.8" font-family="Times New Roman,serif" font-size="14.00">Length: 8</text>
<text text-anchor="middle" x="311.5" y="-320.8" font-family="Times New Roman,serif" font-size="14.00">Taken_Target: 1af8</text>
<text text-anchor="middle" x="311.5" y="-305.8" font-family="Times New Roman,serif" font-size="14.00">Not_Taken_Target address: </text>
</g>
<!-- 46 -->
<g id="node4" class="node">
<title>46</title>
<polygon fill="none" stroke="black" points="595,-411 418,-411 418,-298 595,-298 595,-411"/>
<text text-anchor="middle" x="506.5" y="-395.8" font-family="Times New Roman,serif" font-size="14.00">Basic_block Name: 46</text>
<text text-anchor="middle" x="506.5" y="-380.8" font-family="Times New Roman,serif" font-size="14.00">In Function: &lt;main&gt;</text>
<text text-anchor="middle" x="506.5" y="-365.8" font-family="Times New Roman,serif" font-size="14.00">Start address: 1d78</text>
<text text-anchor="middle" x="506.5" y="-350.8" font-family="Times New Roman,serif" font-size="14.00">End address: 1d96</text>
<text text-anchor="middle" x="506.5" y="-335.8" font-family="Times New Roman,serif" font-size="14.00">Length: 11</text>
<text text-anchor="middle" x="506.5" y="-320.8" font-family="Times New Roman,serif" font-size="14.00">Taken_Target: 4c74</text>
<text text-anchor="middle" x="506.5" y="-305.8" font-family="Times New Roman,serif" font-size="14.00">Not_Taken_Target address: </text>
</g>
<!-- 47 -->
<g id="node5" class="node">
<title>47</title>
<polygon fill="none" stroke="black" points="790,-411 613,-411 613,-298 790,-298 790,-411"/>
<text text-anchor="middle" x="701.5" y="-395.8" font-family="Times New Roman,serif" font-size="14.00">Basic_block Name: 47</text>
<text text-anchor="middle" x="701.5" y="-380.8" font-family="Times New Roman,serif" font-size="14.00">In Function: &lt;main&gt;</text>
<text text-anchor="middle" x="701.5" y="-365.8" font-family="Times New Roman,serif" font-size="14.00">Start address: 1d9a</text>
<text text-anchor="middle" x="701.5" y="-350.8" font-family="Times New Roman,serif" font-size="14.00">End address: 1daa</text>
<text text-anchor="middle" x="701.5" y="-335.8" font-family="Times New Roman,serif" font-size="14.00">Length: 6</text>
<text text-anchor="middle" x="701.5" y="-320.8" font-family="Times New Roman,serif" font-size="14.00">Taken_Target: 1846</text>
<text text-anchor="middle" x="701.5" y="-305.8" font-family="Times New Roman,serif" font-size="14.00">Not_Taken_Target address: </text>
</g>
<!-- 48 -->
<g id="node6" class="node">
<title>48</title>
<polygon fill="none" stroke="black" points="1014.5,-411 808.5,-411 808.5,-298 1014.5,-298 1014.5,-411"/>
<text text-anchor="middle" x="911.5" y="-395.8" font-family="Times New Roman,serif" font-size="14.00">Basic_block Name: 48</text>
<text text-anchor="middle" x="911.5" y="-380.8" font-family="Times New Roman,serif" font-size="14.00">In Function: &lt;main&gt;</text>
<text text-anchor="middle" x="911.5" y="-365.8" font-family="Times New Roman,serif" font-size="14.00">Start address: 1dac</text>
<text text-anchor="middle" x="911.5" y="-350.8" font-family="Times New Roman,serif" font-size="14.00">End address: 1dac</text>
<text text-anchor="middle" x="911.5" y="-335.8" font-family="Times New Roman,serif" font-size="14.00">Length: 1</text>
<text text-anchor="middle" x="911.5" y="-320.8" font-family="Times New Roman,serif" font-size="14.00">Taken_Target: 1da4</text>
<text text-anchor="middle" x="911.5" y="-305.8" font-family="Times New Roman,serif" font-size="14.00">Not_Taken_Target address: 1db0</text>
</g>
<!-- 49 -->
<g id="node7" class="node">
<title>49</title>
<polygon fill="none" stroke="black" points="877.5,-262 693.5,-262 693.5,-149 877.5,-149 877.5,-262"/>
<text text-anchor="middle" x="785.5" y="-246.8" font-family="Times New Roman,serif" font-size="14.00">Basic_block Name: 49</text>
<text text-anchor="middle" x="785.5" y="-231.8" font-family="Times New Roman,serif" font-size="14.00">In Function: &lt;main&gt;</text>
<text text-anchor="middle" x="785.5" y="-216.8" font-family="Times New Roman,serif" font-size="14.00">Start address: 1db0</text>
<text text-anchor="middle" x="785.5" y="-201.8" font-family="Times New Roman,serif" font-size="14.00">End address: 1dc4</text>
<text text-anchor="middle" x="785.5" y="-186.8" font-family="Times New Roman,serif" font-size="14.00">Length: 10</text>
<text text-anchor="middle" x="785.5" y="-171.8" font-family="Times New Roman,serif" font-size="14.00">Taken_Target: [&#39;&lt;__exit&gt; e4&#39;]</text>
<text text-anchor="middle" x="785.5" y="-156.8" font-family="Times New Roman,serif" font-size="14.00">Not_Taken_Target address: </text>
</g>
<!-- 48&#45;&gt;49 -->
<g id="edge4" class="edge">
<title>48&#45;&gt;49</title>
<path fill="none" stroke="red" stroke-dasharray="5,2" d="M863.86,-297.93C856.02,-288.78 847.85,-279.24 839.86,-269.92"/>
<polygon fill="red" stroke="red" points="842.37,-267.47 833.2,-262.15 837.05,-272.02 842.37,-267.47"/>
</g>
<!-- 197 start_with_taken_target -->
<g id="node9" class="node">
<title>197 start_with_taken_target</title>
<polygon fill="none" stroke="black" points="1179,-262 896,-262 896,-149 1179,-149 1179,-262"/>
<text text-anchor="middle" x="1037.5" y="-246.8" font-family="Times New Roman,serif" font-size="14.00">Basic_block Name: 197 start_with_taken_target</text>
<text text-anchor="middle" x="1037.5" y="-231.8" font-family="Times New Roman,serif" font-size="14.00">In Function: &lt;main&gt;</text>
<text text-anchor="middle" x="1037.5" y="-216.8" font-family="Times New Roman,serif" font-size="14.00">Start address: 1da4</text>
<text text-anchor="middle" x="1037.5" y="-201.8" font-family="Times New Roman,serif" font-size="14.00">End address: 1daa</text>
<text text-anchor="middle" x="1037.5" y="-186.8" font-family="Times New Roman,serif" font-size="14.00">Length: 3</text>
<text text-anchor="middle" x="1037.5" y="-171.8" font-family="Times New Roman,serif" font-size="14.00">Taken_Target: 1846</text>
<text text-anchor="middle" x="1037.5" y="-156.8" font-family="Times New Roman,serif" font-size="14.00">Not_Taken_Target address: </text>
</g>
<!-- 48&#45;&gt;197 start_with_taken_target -->
<g id="edge3" class="edge">
<title>48&#45;&gt;197 start_with_taken_target</title>
<path fill="none" stroke="black" d="M959.14,-297.93C966.98,-288.78 975.15,-279.24 983.14,-269.92"/>
<polygon fill="black" stroke="black" points="985.95,-272.02 989.8,-262.15 980.63,-267.47 985.95,-272.02"/>
</g>
<!-- 196 start_with_taken_target&#45;&gt;44 -->
<g id="edge6" class="edge">
<title>196 start_with_taken_target&#45;&gt;44</title>
<path fill="none" stroke="red" stroke-dasharray="5,2" d="M155.37,-148.93C150.29,-140.14 145,-131 139.82,-122.04"/>
<polygon fill="red" stroke="red" points="142.72,-120.06 134.68,-113.15 136.66,-123.56 142.72,-120.06"/>
</g>
<!-- 196 start_with_taken_target&#45;&gt;196 start_with_taken_target -->
<g id="edge5" class="edge">
<title>196 start_with_taken_target&#45;&gt;196 start_with_taken_target</title>
<path fill="none" stroke="black" d="M329.05,-226.67C340.14,-222.01 347,-214.96 347,-205.5 347,-199 343.76,-193.63 338.13,-189.4"/>
<polygon fill="black" stroke="black" points="339.48,-186.15 329.05,-184.33 336.07,-192.26 339.48,-186.15"/>
</g>
<!-- 26 -->
<g id="node10" class="node">
<title>26</title>
<polygon fill="none" stroke="black" points="1236,-411 1033,-411 1033,-298 1236,-298 1236,-411"/>
<text text-anchor="middle" x="1134.5" y="-395.8" font-family="Times New Roman,serif" font-size="14.00">Basic_block Name: 26</text>
<text text-anchor="middle" x="1134.5" y="-380.8" font-family="Times New Roman,serif" font-size="14.00">In Function: &lt;ck_uart_open&gt;</text>
<text text-anchor="middle" x="1134.5" y="-365.8" font-family="Times New Roman,serif" font-size="14.00">Start address: 1ae4</text>
<text text-anchor="middle" x="1134.5" y="-350.8" font-family="Times New Roman,serif" font-size="14.00">End address: 1ae4</text>
<text text-anchor="middle" x="1134.5" y="-335.8" font-family="Times New Roman,serif" font-size="14.00">Length: 1</text>
<text text-anchor="middle" x="1134.5" y="-320.8" font-family="Times New Roman,serif" font-size="14.00">Taken_Target: 1af4</text>
<text text-anchor="middle" x="1134.5" y="-305.8" font-family="Times New Roman,serif" font-size="14.00">Not_Taken_Target address: 1ae6</text>
</g>
<!-- 29 -->
<g id="node11" class="node">
<title>29</title>
<polygon fill="none" stroke="black" points="1459,-411 1254,-411 1254,-298 1459,-298 1459,-411"/>
<text text-anchor="middle" x="1356.5" y="-395.8" font-family="Times New Roman,serif" font-size="14.00">Basic_block Name: 29</text>
<text text-anchor="middle" x="1356.5" y="-380.8" font-family="Times New Roman,serif" font-size="14.00">In Function: &lt;ck_uart_init&gt;</text>
<text text-anchor="middle" x="1356.5" y="-365.8" font-family="Times New Roman,serif" font-size="14.00">Start address: 1af8</text>
<text text-anchor="middle" x="1356.5" y="-350.8" font-family="Times New Roman,serif" font-size="14.00">End address: 1afe</text>
<text text-anchor="middle" x="1356.5" y="-335.8" font-family="Times New Roman,serif" font-size="14.00">Length: 4</text>
<text text-anchor="middle" x="1356.5" y="-320.8" font-family="Times New Roman,serif" font-size="14.00">Taken_Target: 1ba0</text>
<text text-anchor="middle" x="1356.5" y="-305.8" font-family="Times New Roman,serif" font-size="14.00">Not_Taken_Target address: 1b02</text>
</g>
<!-- 50 -->
<g id="node12" class="node">
<title>50</title>
<polygon fill="none" stroke="black" points="1680,-411 1477,-411 1477,-298 1680,-298 1680,-411"/>
<text text-anchor="middle" x="1578.5" y="-395.8" font-family="Times New Roman,serif" font-size="14.00">Basic_block Name: 50</text>
<text text-anchor="middle" x="1578.5" y="-380.8" font-family="Times New Roman,serif" font-size="14.00">In Function: &lt;qsort&gt;</text>
<text text-anchor="middle" x="1578.5" y="-365.8" font-family="Times New Roman,serif" font-size="14.00">Start address: 4c74</text>
<text text-anchor="middle" x="1578.5" y="-350.8" font-family="Times New Roman,serif" font-size="14.00">End address: 4c9e</text>
<text text-anchor="middle" x="1578.5" y="-335.8" font-family="Times New Roman,serif" font-size="14.00">Length: 21</text>
<text text-anchor="middle" x="1578.5" y="-320.8" font-family="Times New Roman,serif" font-size="14.00">Taken_Target: 4ca8</text>
<text text-anchor="middle" x="1578.5" y="-305.8" font-family="Times New Roman,serif" font-size="14.00">Not_Taken_Target address: 4ca0</text>
</g>
<!-- 5 -->
<g id="node13" class="node">
<title>5</title>
<polygon fill="none" stroke="black" points="1902.5,-411 1698.5,-411 1698.5,-298 1902.5,-298 1902.5,-411"/>
<text text-anchor="middle" x="1800.5" y="-395.8" font-family="Times New Roman,serif" font-size="14.00">Basic_block Name: 5</text>
<text text-anchor="middle" x="1800.5" y="-380.8" font-family="Times New Roman,serif" font-size="14.00">In Function: &lt;puts&gt;</text>
<text text-anchor="middle" x="1800.5" y="-365.8" font-family="Times New Roman,serif" font-size="14.00">Start address: 1846</text>
<text text-anchor="middle" x="1800.5" y="-350.8" font-family="Times New Roman,serif" font-size="14.00">End address: 1852</text>
<text text-anchor="middle" x="1800.5" y="-335.8" font-family="Times New Roman,serif" font-size="14.00">Length: 6</text>
<text text-anchor="middle" x="1800.5" y="-320.8" font-family="Times New Roman,serif" font-size="14.00">Taken_Target: 1860</text>
<text text-anchor="middle" x="1800.5" y="-305.8" font-family="Times New Roman,serif" font-size="14.00">Not_Taken_Target address: 1854</text>
</g>
</g>
</svg>
