<?xml version="1.0" encoding="UTF-8" standalone="no"?>
<!DOCTYPE svg PUBLIC "-//W3C//DTD SVG 1.1//EN"
 "http://www.w3.org/Graphics/SVG/1.1/DTD/svg11.dtd">
<!-- Generated by graphviz version 6.0.2 (20221011.1828)
 -->
<!-- Pages: 1 -->
<svg width="496pt" height="332pt"
 viewBox="0.00 0.00 495.59 332.00" xmlns="http://www.w3.org/2000/svg" xmlns:xlink="http://www.w3.org/1999/xlink">
<g id="graph0" class="graph" transform="scale(1 1) rotate(0) translate(4 328)">
<polygon fill="white" stroke="none" points="-4,4 -4,-328 491.59,-328 491.59,4 -4,4"/>
<!-- __to_main -->
<g id="node1" class="node">
<title>__to_main</title>
<ellipse fill="none" stroke="black" cx="281.69" cy="-306" rx="50.09" ry="18"/>
<text text-anchor="middle" x="281.69" y="-302.3" font-family="Times New Roman,serif" font-size="14.00">__to_main</text>
</g>
<!-- main -->
<g id="node2" class="node">
<title>main</title>
<ellipse fill="none" stroke="black" cx="281.69" cy="-234" rx="27.9" ry="18"/>
<text text-anchor="middle" x="281.69" y="-230.3" font-family="Times New Roman,serif" font-size="14.00">main</text>
</g>
<!-- __to_main&#45;&gt;main -->
<g id="edge1" class="edge">
<title>__to_main&#45;&gt;main</title>
<path fill="none" stroke="black" d="M281.69,-287.7C281.69,-279.98 281.69,-270.71 281.69,-262.11"/>
<polygon fill="black" stroke="black" points="285.19,-262.1 281.69,-252.1 278.19,-262.1 285.19,-262.1"/>
</g>
<!-- puts -->
<g id="node3" class="node">
<title>puts</title>
<ellipse fill="none" stroke="black" cx="96.69" cy="-162" rx="27" ry="18"/>
<text text-anchor="middle" x="96.69" y="-158.3" font-family="Times New Roman,serif" font-size="14.00">puts</text>
</g>
<!-- main&#45;&gt;puts -->
<g id="edge9" class="edge">
<title>main&#45;&gt;puts</title>
<path fill="none" stroke="black" d="M258.26,-224.13C225.65,-211.79 166.41,-189.38 129.44,-175.39"/>
<polygon fill="black" stroke="black" points="130.23,-171.95 119.64,-171.68 127.76,-178.5 130.23,-171.95"/>
</g>
<!-- ck_uart_init -->
<g id="node5" class="node">
<title>ck_uart_init</title>
<ellipse fill="none" stroke="black" cx="215.69" cy="-162" rx="53.89" ry="18"/>
<text text-anchor="middle" x="215.69" y="-158.3" font-family="Times New Roman,serif" font-size="14.00">ck_uart_init</text>
</g>
<!-- main&#45;&gt;ck_uart_init -->
<g id="edge8" class="edge">
<title>main&#45;&gt;ck_uart_init</title>
<path fill="none" stroke="black" d="M267.7,-218.15C259.13,-209.07 247.98,-197.24 238.2,-186.87"/>
<polygon fill="black" stroke="black" points="240.46,-184.17 231.05,-179.29 235.37,-188.97 240.46,-184.17"/>
</g>
<!-- ck_uart_open -->
<g id="node9" class="node">
<title>ck_uart_open</title>
<ellipse fill="none" stroke="black" cx="348.69" cy="-162" rx="61.19" ry="18"/>
<text text-anchor="middle" x="348.69" y="-158.3" font-family="Times New Roman,serif" font-size="14.00">ck_uart_open</text>
</g>
<!-- main&#45;&gt;ck_uart_open -->
<g id="edge6" class="edge">
<title>main&#45;&gt;ck_uart_open</title>
<path fill="none" stroke="black" d="M295.9,-218.15C304.47,-209.2 315.6,-197.58 325.43,-187.31"/>
<polygon fill="black" stroke="black" points="328.24,-189.43 332.62,-179.79 323.18,-184.59 328.24,-189.43"/>
</g>
<!-- qsort -->
<g id="node10" class="node">
<title>qsort</title>
<ellipse fill="none" stroke="black" cx="457.69" cy="-162" rx="29.8" ry="18"/>
<text text-anchor="middle" x="457.69" y="-158.3" font-family="Times New Roman,serif" font-size="14.00">qsort</text>
</g>
<!-- main&#45;&gt;qsort -->
<g id="edge7" class="edge">
<title>main&#45;&gt;qsort</title>
<path fill="none" stroke="black" d="M305.57,-224.11C333,-213.82 379.3,-196.2 418.69,-180 420.75,-179.16 422.86,-178.28 424.98,-177.38"/>
<polygon fill="black" stroke="black" points="426.44,-180.56 434.25,-173.41 423.68,-174.13 426.44,-180.56"/>
</g>
<!-- fputc -->
<g id="node4" class="node">
<title>fputc</title>
<ellipse fill="none" stroke="black" cx="76.69" cy="-90" rx="29.8" ry="18"/>
<text text-anchor="middle" x="76.69" y="-86.3" font-family="Times New Roman,serif" font-size="14.00">fputc</text>
</g>
<!-- puts&#45;&gt;fputc -->
<g id="edge2" class="edge">
<title>puts&#45;&gt;fputc</title>
<path fill="none" stroke="black" d="M91.85,-144.05C89.59,-136.14 86.85,-126.54 84.32,-117.69"/>
<polygon fill="black" stroke="black" points="87.6,-116.44 81.49,-107.79 80.87,-118.37 87.6,-116.44"/>
</g>
<!-- &lt;ck_uart_putc&gt; * -->
<g id="node8" class="node">
<title>&lt;ck_uart_putc&gt; *</title>
<ellipse fill="none" stroke="black" cx="76.69" cy="-18" rx="76.89" ry="18"/>
<text text-anchor="middle" x="76.69" y="-14.3" font-family="Times New Roman,serif" font-size="14.00">&lt;ck_uart_putc&gt; *</text>
</g>
<!-- fputc&#45;&gt;&lt;ck_uart_putc&gt; * -->
<g id="edge5" class="edge">
<title>fputc&#45;&gt;&lt;ck_uart_putc&gt; *</title>
<path fill="none" stroke="black" d="M76.69,-71.7C76.69,-63.98 76.69,-54.71 76.69,-46.11"/>
<polygon fill="black" stroke="black" points="80.19,-46.1 76.69,-36.1 73.19,-46.1 80.19,-46.1"/>
</g>
<!-- ck_uart_set_wordsize -->
<g id="node6" class="node">
<title>ck_uart_set_wordsize</title>
<ellipse fill="none" stroke="black" cx="215.69" cy="-90" rx="90.98" ry="18"/>
<text text-anchor="middle" x="215.69" y="-86.3" font-family="Times New Roman,serif" font-size="14.00">ck_uart_set_wordsize</text>
</g>
<!-- ck_uart_init&#45;&gt;ck_uart_set_wordsize -->
<g id="edge3" class="edge">
<title>ck_uart_init&#45;&gt;ck_uart_set_wordsize</title>
<path fill="none" stroke="black" d="M215.69,-143.7C215.69,-135.98 215.69,-126.71 215.69,-118.11"/>
<polygon fill="black" stroke="black" points="219.19,-118.1 215.69,-108.1 212.19,-118.1 219.19,-118.1"/>
</g>
<!-- ck_uart_set_parity -->
<g id="node7" class="node">
<title>ck_uart_set_parity</title>
<ellipse fill="none" stroke="black" cx="403.69" cy="-90" rx="78.79" ry="18"/>
<text text-anchor="middle" x="403.69" y="-86.3" font-family="Times New Roman,serif" font-size="14.00">ck_uart_set_parity</text>
</g>
<!-- ck_uart_init&#45;&gt;ck_uart_set_parity -->
<g id="edge4" class="edge">
<title>ck_uart_init&#45;&gt;ck_uart_set_parity</title>
<path fill="none" stroke="black" d="M250.61,-148C279.99,-137.06 322.33,-121.3 355.03,-109.12"/>
<polygon fill="black" stroke="black" points="356.26,-112.4 364.41,-105.63 353.82,-105.84 356.26,-112.4"/>
</g>
</g>
</svg>
