<?xml version="1.0" encoding="UTF-8" standalone="no"?>
<!DOCTYPE svg PUBLIC "-//W3C//DTD SVG 1.1//EN"
 "http://www.w3.org/Graphics/SVG/1.1/DTD/svg11.dtd">
<!-- Generated by graphviz version 6.0.2 (20221011.1828)
 -->
<!-- Pages: 1 -->
<svg width="1707pt" height="908pt"
 viewBox="0.00 0.00 1706.79 908.00" xmlns="http://www.w3.org/2000/svg" xmlns:xlink="http://www.w3.org/1999/xlink">
<g id="graph0" class="graph" transform="scale(1 1) rotate(0) translate(4 904)">
<polygon fill="white" stroke="none" points="-4,4 -4,-904 1702.79,-904 1702.79,4 -4,4"/>
<!-- __to_main -->
<g id="node1" class="node">
<title>__to_main</title>
<ellipse fill="none" stroke="black" cx="865.69" cy="-882" rx="50.09" ry="18"/>
<text text-anchor="middle" x="865.69" y="-878.3" font-family="Times New Roman,serif" font-size="14.00">__to_main</text>
</g>
<!-- main -->
<g id="node2" class="node">
<title>main</title>
<ellipse fill="none" stroke="black" cx="865.69" cy="-774" rx="27.9" ry="18"/>
<text text-anchor="middle" x="865.69" y="-770.3" font-family="Times New Roman,serif" font-size="14.00">main</text>
</g>
<!-- __to_main&#45;&gt;main -->
<g id="edge1" class="edge">
<title>__to_main&#45;&gt;main</title>
<path fill="none" stroke="black" d="M865.69,-863.97C865.69,-847.38 865.69,-821.88 865.69,-802.43"/>
<polygon fill="black" stroke="black" points="869.19,-802.34 865.69,-792.34 862.19,-802.34 869.19,-802.34"/>
</g>
<!-- benchmark -->
<g id="node11" class="node">
<title>benchmark</title>
<ellipse fill="none" stroke="black" cx="808.69" cy="-666" rx="50.89" ry="18"/>
<text text-anchor="middle" x="808.69" y="-662.3" font-family="Times New Roman,serif" font-size="14.00">benchmark</text>
</g>
<!-- main&#45;&gt;benchmark -->
<g id="edge13" class="edge">
<title>main&#45;&gt;benchmark</title>
<path fill="none" stroke="black" d="M856.79,-756.44C847.6,-739.35 833.14,-712.46 822.47,-692.62"/>
<polygon fill="black" stroke="black" points="825.54,-690.95 817.73,-683.8 819.38,-694.26 825.54,-690.95"/>
</g>
<!-- puts -->
<g id="node15" class="node">
<title>puts</title>
<ellipse fill="none" stroke="black" cx="977.69" cy="-666" rx="27" ry="18"/>
<text text-anchor="middle" x="977.69" y="-662.3" font-family="Times New Roman,serif" font-size="14.00">puts</text>
</g>
<!-- main&#45;&gt;puts -->
<g id="edge12" class="edge">
<title>main&#45;&gt;puts</title>
<path fill="none" stroke="black" d="M880.8,-758.7C900.03,-740.51 933.4,-708.92 955.52,-687.99"/>
<polygon fill="black" stroke="black" points="957.97,-690.49 962.83,-681.07 953.16,-685.4 957.97,-690.49"/>
</g>
<!-- fputc -->
<g id="node3" class="node">
<title>fputc</title>
<ellipse fill="none" stroke="black" cx="1064.69" cy="-558" rx="29.8" ry="18"/>
<text text-anchor="middle" x="1064.69" y="-554.3" font-family="Times New Roman,serif" font-size="14.00">fputc</text>
</g>
<!-- &lt;ck_uart_putc&gt; * -->
<g id="node4" class="node">
<title>&lt;ck_uart_putc&gt; *</title>
<ellipse fill="none" stroke="black" cx="1097.69" cy="-450" rx="76.89" ry="18"/>
<text text-anchor="middle" x="1097.69" y="-446.3" font-family="Times New Roman,serif" font-size="14.00">&lt;ck_uart_putc&gt; *</text>
</g>
<!-- fputc&#45;&gt;&lt;ck_uart_putc&gt; * -->
<g id="edge2" class="edge">
<title>fputc&#45;&gt;&lt;ck_uart_putc&gt; *</title>
<path fill="none" stroke="black" d="M1070,-539.97C1075.24,-523.12 1083.34,-497.1 1089.43,-477.54"/>
<polygon fill="black" stroke="black" points="1092.77,-478.58 1092.41,-467.99 1086.09,-476.5 1092.77,-478.58"/>
</g>
<!-- qurt_sqrt -->
<g id="node5" class="node">
<title>qurt_sqrt</title>
<ellipse fill="none" stroke="black" cx="361.69" cy="-342" rx="44.39" ry="18"/>
<text text-anchor="middle" x="361.69" y="-338.3" font-family="Times New Roman,serif" font-size="14.00">qurt_sqrt</text>
</g>
<!-- __divdf3 -->
<g id="node6" class="node">
<title>__divdf3</title>
<ellipse fill="none" stroke="black" cx="487.69" cy="-234" rx="44.39" ry="18"/>
<text text-anchor="middle" x="487.69" y="-230.3" font-family="Times New Roman,serif" font-size="14.00">__divdf3</text>
</g>
<!-- qurt_sqrt&#45;&gt;__divdf3 -->
<g id="edge3" class="edge">
<title>qurt_sqrt&#45;&gt;__divdf3</title>
<path fill="none" stroke="black" d="M380.02,-325.59C401.48,-307.53 437.19,-277.48 461.56,-256.99"/>
<polygon fill="black" stroke="black" points="463.95,-259.55 469.35,-250.43 459.45,-254.19 463.95,-259.55"/>
</g>
<!-- __truncdfsf2 -->
<g id="node7" class="node">
<title>__truncdfsf2</title>
<ellipse fill="none" stroke="black" cx="221.69" cy="-234" rx="57.69" ry="18"/>
<text text-anchor="middle" x="221.69" y="-230.3" font-family="Times New Roman,serif" font-size="14.00">__truncdfsf2</text>
</g>
<!-- qurt_sqrt&#45;&gt;__truncdfsf2 -->
<g id="edge4" class="edge">
<title>qurt_sqrt&#45;&gt;__truncdfsf2</title>
<path fill="none" stroke="black" d="M341.64,-325.81C317.79,-307.76 277.81,-277.49 250.63,-256.9"/>
<polygon fill="black" stroke="black" points="252.72,-254.1 242.63,-250.85 248.49,-259.68 252.72,-254.1"/>
</g>
<!-- __adddf3 -->
<g id="node8" class="node">
<title>__adddf3</title>
<ellipse fill="none" stroke="black" cx="361.69" cy="-234" rx="46.29" ry="18"/>
<text text-anchor="middle" x="361.69" y="-230.3" font-family="Times New Roman,serif" font-size="14.00">__adddf3</text>
</g>
<!-- qurt_sqrt&#45;&gt;__adddf3 -->
<g id="edge5" class="edge">
<title>qurt_sqrt&#45;&gt;__adddf3</title>
<path fill="none" stroke="black" d="M361.69,-323.97C361.69,-307.38 361.69,-281.88 361.69,-262.43"/>
<polygon fill="black" stroke="black" points="365.19,-262.34 361.69,-252.34 358.19,-262.34 365.19,-262.34"/>
</g>
<!-- __extendsfdf2 -->
<g id="node9" class="node">
<title>__extendsfdf2</title>
<ellipse fill="none" stroke="black" cx="63.69" cy="-234" rx="63.89" ry="18"/>
<text text-anchor="middle" x="63.69" y="-230.3" font-family="Times New Roman,serif" font-size="14.00">__extendsfdf2</text>
</g>
<!-- qurt_sqrt&#45;&gt;__extendsfdf2 -->
<g id="edge6" class="edge">
<title>qurt_sqrt&#45;&gt;__extendsfdf2</title>
<path fill="none" stroke="black" d="M329.52,-329.56C276.95,-310.86 172.38,-273.66 111.23,-251.91"/>
<polygon fill="black" stroke="black" points="112.4,-248.61 101.81,-248.56 110.05,-255.21 112.4,-248.61"/>
</g>
<!-- __clzsi2 -->
<g id="node37" class="node">
<title>__clzsi2</title>
<ellipse fill="none" stroke="black" cx="620.69" cy="-18" rx="40.89" ry="18"/>
<text text-anchor="middle" x="620.69" y="-14.3" font-family="Times New Roman,serif" font-size="14.00">__clzsi2</text>
</g>
<!-- __divdf3&#45;&gt;__clzsi2 -->
<g id="edge51" class="edge">
<title>__divdf3&#45;&gt;__clzsi2</title>
<path fill="none" stroke="black" d="M451.51,-223.43C390.38,-205.49 277.17,-163.53 318.69,-108 349.16,-67.26 494.99,-38.71 572.31,-26.16"/>
<polygon fill="black" stroke="black" points="572.97,-29.6 582.29,-24.57 571.87,-22.69 572.97,-29.6"/>
</g>
<!-- __adddf3&#45;&gt;__clzsi2 -->
<g id="edge50" class="edge">
<title>__adddf3&#45;&gt;__clzsi2</title>
<path fill="none" stroke="black" d="M343.77,-217.27C317.63,-192.42 274.91,-143.28 301.69,-108 334.37,-64.96 491.03,-37.14 572,-25.4"/>
<polygon fill="black" stroke="black" points="572.55,-28.86 581.95,-23.98 571.56,-21.93 572.55,-28.86"/>
</g>
<!-- __extendsfdf2&#45;&gt;__clzsi2 -->
<g id="edge56" class="edge">
<title>__extendsfdf2&#45;&gt;__clzsi2</title>
<path fill="none" stroke="black" d="M86.88,-217.22C126.06,-191.18 208.56,-139.01 284.69,-108 383.89,-67.59 507.07,-40.43 573.28,-27.57"/>
<polygon fill="black" stroke="black" points="574.24,-30.95 583.4,-25.63 572.92,-24.08 574.24,-30.95"/>
</g>
<!-- qurt -->
<g id="node10" class="node">
<title>qurt</title>
<ellipse fill="none" stroke="black" cx="684.69" cy="-558" rx="27" ry="18"/>
<text text-anchor="middle" x="684.69" y="-554.3" font-family="Times New Roman,serif" font-size="14.00">qurt</text>
</g>
<!-- qurt&#45;&gt;qurt_sqrt -->
<g id="edge7" class="edge">
<title>qurt&#45;&gt;qurt_sqrt</title>
<path fill="none" stroke="black" d="M684.5,-539.93C683.26,-513.25 676.94,-461.65 647.69,-432 585.69,-369.13 480.12,-350.51 416.05,-345.09"/>
<polygon fill="black" stroke="black" points="415.99,-341.58 405.75,-344.31 415.46,-348.56 415.99,-341.58"/>
</g>
<!-- benchmark&#45;&gt;qurt -->
<g id="edge9" class="edge">
<title>benchmark&#45;&gt;qurt</title>
<path fill="none" stroke="black" d="M790.13,-649.13C768.37,-630.53 732.27,-599.67 708.48,-579.33"/>
<polygon fill="black" stroke="black" points="710.5,-576.45 700.62,-572.62 705.95,-581.78 710.5,-576.45"/>
</g>
<!-- ck_uart_open -->
<g id="node12" class="node">
<title>ck_uart_open</title>
<ellipse fill="none" stroke="black" cx="808.69" cy="-558" rx="61.19" ry="18"/>
<text text-anchor="middle" x="808.69" y="-554.3" font-family="Times New Roman,serif" font-size="14.00">ck_uart_open</text>
</g>
<!-- benchmark&#45;&gt;ck_uart_open -->
<g id="edge8" class="edge">
<title>benchmark&#45;&gt;ck_uart_open</title>
<path fill="none" stroke="black" d="M808.69,-647.97C808.69,-631.38 808.69,-605.88 808.69,-586.43"/>
<polygon fill="black" stroke="black" points="812.19,-586.34 808.69,-576.34 805.19,-586.34 812.19,-586.34"/>
</g>
<!-- printf -->
<g id="node13" class="node">
<title>printf</title>
<ellipse fill="none" stroke="black" cx="936.69" cy="-558" rx="30.59" ry="18"/>
<text text-anchor="middle" x="936.69" y="-554.3" font-family="Times New Roman,serif" font-size="14.00">printf</text>
</g>
<!-- benchmark&#45;&gt;printf -->
<g id="edge10" class="edge">
<title>benchmark&#45;&gt;printf</title>
<path fill="none" stroke="black" d="M827.86,-649.13C850.16,-630.66 887.07,-600.09 911.64,-579.75"/>
<polygon fill="black" stroke="black" points="913.98,-582.35 919.45,-573.28 909.52,-576.96 913.98,-582.35"/>
</g>
<!-- ck_uart_init -->
<g id="node14" class="node">
<title>ck_uart_init</title>
<ellipse fill="none" stroke="black" cx="538.69" cy="-558" rx="53.89" ry="18"/>
<text text-anchor="middle" x="538.69" y="-554.3" font-family="Times New Roman,serif" font-size="14.00">ck_uart_init</text>
</g>
<!-- benchmark&#45;&gt;ck_uart_init -->
<g id="edge11" class="edge">
<title>benchmark&#45;&gt;ck_uart_init</title>
<path fill="none" stroke="black" d="M775.86,-652.11C727.17,-632.99 635.79,-597.12 581.78,-575.91"/>
<polygon fill="black" stroke="black" points="582.74,-572.53 572.15,-572.13 580.18,-579.05 582.74,-572.53"/>
</g>
<!-- _vsnprintf -->
<g id="node34" class="node">
<title>_vsnprintf</title>
<ellipse fill="none" stroke="black" cx="936.69" cy="-450" rx="48.19" ry="18"/>
<text text-anchor="middle" x="936.69" y="-446.3" font-family="Times New Roman,serif" font-size="14.00">_vsnprintf</text>
</g>
<!-- printf&#45;&gt;_vsnprintf -->
<g id="edge47" class="edge">
<title>printf&#45;&gt;_vsnprintf</title>
<path fill="none" stroke="black" d="M936.69,-539.97C936.69,-523.38 936.69,-497.88 936.69,-478.43"/>
<polygon fill="black" stroke="black" points="940.19,-478.34 936.69,-468.34 933.19,-478.34 940.19,-478.34"/>
</g>
<!-- ck_uart_set_wordsize -->
<g id="node35" class="node">
<title>ck_uart_set_wordsize</title>
<ellipse fill="none" stroke="black" cx="538.69" cy="-450" rx="90.98" ry="18"/>
<text text-anchor="middle" x="538.69" y="-446.3" font-family="Times New Roman,serif" font-size="14.00">ck_uart_set_wordsize</text>
</g>
<!-- ck_uart_init&#45;&gt;ck_uart_set_wordsize -->
<g id="edge48" class="edge">
<title>ck_uart_init&#45;&gt;ck_uart_set_wordsize</title>
<path fill="none" stroke="black" d="M538.69,-539.97C538.69,-523.38 538.69,-497.88 538.69,-478.43"/>
<polygon fill="black" stroke="black" points="542.19,-478.34 538.69,-468.34 535.19,-478.34 542.19,-478.34"/>
</g>
<!-- ck_uart_set_parity -->
<g id="node36" class="node">
<title>ck_uart_set_parity</title>
<ellipse fill="none" stroke="black" cx="332.69" cy="-450" rx="78.79" ry="18"/>
<text text-anchor="middle" x="332.69" y="-446.3" font-family="Times New Roman,serif" font-size="14.00">ck_uart_set_parity</text>
</g>
<!-- ck_uart_init&#45;&gt;ck_uart_set_parity -->
<g id="edge49" class="edge">
<title>ck_uart_init&#45;&gt;ck_uart_set_parity</title>
<path fill="none" stroke="black" d="M510.48,-542.48C474.7,-524.07 412.8,-492.22 372.3,-471.38"/>
<polygon fill="black" stroke="black" points="373.74,-468.18 363.24,-466.72 370.54,-474.41 373.74,-468.18"/>
</g>
<!-- puts&#45;&gt;fputc -->
<g id="edge46" class="edge">
<title>puts&#45;&gt;fputc</title>
<path fill="none" stroke="black" d="M990.16,-649.81C1004.61,-632.2 1028.6,-602.97 1045.45,-582.44"/>
<polygon fill="black" stroke="black" points="1048.33,-584.45 1051.97,-574.5 1042.92,-580.01 1048.33,-584.45"/>
</g>
<!-- _ntoa_format -->
<g id="node16" class="node">
<title>_ntoa_format</title>
<ellipse fill="none" stroke="black" cx="1637.69" cy="-126" rx="59.59" ry="18"/>
<text text-anchor="middle" x="1637.69" y="-122.3" font-family="Times New Roman,serif" font-size="14.00">_ntoa_format</text>
</g>
<!-- &lt;_out_rev&gt; * -->
<g id="node17" class="node">
<title>&lt;_out_rev&gt; *</title>
<ellipse fill="none" stroke="black" cx="1637.69" cy="-18" rx="61.19" ry="18"/>
<text text-anchor="middle" x="1637.69" y="-14.3" font-family="Times New Roman,serif" font-size="14.00">&lt;_out_rev&gt; *</text>
</g>
<!-- _ntoa_format&#45;&gt;&lt;_out_rev&gt; * -->
<g id="edge14" class="edge">
<title>_ntoa_format&#45;&gt;&lt;_out_rev&gt; *</title>
<path fill="none" stroke="black" d="M1637.69,-107.97C1637.69,-91.38 1637.69,-65.88 1637.69,-46.43"/>
<polygon fill="black" stroke="black" points="1641.19,-46.34 1637.69,-36.34 1634.19,-46.34 1641.19,-46.34"/>
</g>
<!-- _out_rev -->
<g id="node18" class="node">
<title>_out_rev</title>
<ellipse fill="none" stroke="black" cx="1323.69" cy="-18" rx="43.59" ry="18"/>
<text text-anchor="middle" x="1323.69" y="-14.3" font-family="Times New Roman,serif" font-size="14.00">_out_rev</text>
</g>
<!-- _ntoa_format&#45;&gt;_out_rev -->
<g id="edge15" class="edge">
<title>_ntoa_format&#45;&gt;_out_rev</title>
<path fill="none" stroke="black" d="M1599.51,-112.11C1540.52,-92.2 1427.65,-54.09 1366.16,-33.34"/>
<polygon fill="black" stroke="black" points="1366.99,-29.92 1356.39,-30.04 1364.75,-36.55 1366.99,-29.92"/>
</g>
<!-- _ntoa_long -->
<g id="node19" class="node">
<title>_ntoa_long</title>
<ellipse fill="none" stroke="black" cx="1233.69" cy="-234" rx="51.99" ry="18"/>
<text text-anchor="middle" x="1233.69" y="-230.3" font-family="Times New Roman,serif" font-size="14.00">_ntoa_long</text>
</g>
<!-- _ntoa_long&#45;&gt;_ntoa_format -->
<g id="edge16" class="edge">
<title>_ntoa_long&#45;&gt;_ntoa_format</title>
<path fill="none" stroke="black" d="M1273.91,-222.45C1347.19,-203.22 1502.47,-162.48 1584.44,-140.97"/>
<polygon fill="black" stroke="black" points="1585.52,-144.31 1594.3,-138.39 1583.74,-137.54 1585.52,-144.31"/>
</g>
<!-- _ntoa_long_long -->
<g id="node20" class="node">
<title>_ntoa_long_long</title>
<ellipse fill="none" stroke="black" cx="1450.69" cy="-342" rx="72.29" ry="18"/>
<text text-anchor="middle" x="1450.69" y="-338.3" font-family="Times New Roman,serif" font-size="14.00">_ntoa_long_long</text>
</g>
<!-- _ntoa_long_long&#45;&gt;_ntoa_format -->
<g id="edge18" class="edge">
<title>_ntoa_long_long&#45;&gt;_ntoa_format</title>
<path fill="none" stroke="black" d="M1486.03,-326.16C1517.17,-311.46 1561.81,-286.2 1589.69,-252 1613.29,-223.05 1626.18,-181.2 1632.5,-154.05"/>
<polygon fill="black" stroke="black" points="1635.96,-154.59 1634.68,-144.08 1629.13,-153.1 1635.96,-154.59"/>
</g>
<!-- __udivdi3 -->
<g id="node21" class="node">
<title>__udivdi3</title>
<ellipse fill="none" stroke="black" cx="1382.69" cy="-234" rx="47.39" ry="18"/>
<text text-anchor="middle" x="1382.69" y="-230.3" font-family="Times New Roman,serif" font-size="14.00">__udivdi3</text>
</g>
<!-- _ntoa_long_long&#45;&gt;__udivdi3 -->
<g id="edge17" class="edge">
<title>_ntoa_long_long&#45;&gt;__udivdi3</title>
<path fill="none" stroke="black" d="M1439.77,-323.97C1428.7,-306.71 1411.45,-279.83 1398.81,-260.13"/>
<polygon fill="black" stroke="black" points="1401.71,-258.17 1393.37,-251.64 1395.82,-261.95 1401.71,-258.17"/>
</g>
<!-- __umoddi3 -->
<g id="node22" class="node">
<title>__umoddi3</title>
<ellipse fill="none" stroke="black" cx="1518.69" cy="-234" rx="52.79" ry="18"/>
<text text-anchor="middle" x="1518.69" y="-230.3" font-family="Times New Roman,serif" font-size="14.00">__umoddi3</text>
</g>
<!-- _ntoa_long_long&#45;&gt;__umoddi3 -->
<g id="edge19" class="edge">
<title>_ntoa_long_long&#45;&gt;__umoddi3</title>
<path fill="none" stroke="black" d="M1461.62,-323.97C1472.69,-306.71 1489.94,-279.83 1502.58,-260.13"/>
<polygon fill="black" stroke="black" points="1505.57,-261.95 1508.02,-251.64 1499.67,-258.17 1505.57,-261.95"/>
</g>
<!-- _etoa -->
<g id="node23" class="node">
<title>_etoa</title>
<ellipse fill="none" stroke="black" cx="850.69" cy="-342" rx="30.59" ry="18"/>
<text text-anchor="middle" x="850.69" y="-338.3" font-family="Times New Roman,serif" font-size="14.00">_etoa</text>
</g>
<!-- _etoa&#45;&gt;__divdf3 -->
<g id="edge25" class="edge">
<title>_etoa&#45;&gt;__divdf3</title>
<path fill="none" stroke="black" d="M824,-333.21C762.19,-315.15 608.67,-270.32 532.3,-248.03"/>
<polygon fill="black" stroke="black" points="533.08,-244.61 522.5,-245.16 531.11,-251.33 533.08,-244.61"/>
</g>
<!-- _etoa&#45;&gt;__adddf3 -->
<g id="edge28" class="edge">
<title>_etoa&#45;&gt;__adddf3</title>
<path fill="none" stroke="black" d="M821.97,-335.53C753.26,-322.34 574.04,-287.21 425.69,-252 419.96,-250.64 413.96,-249.14 408.03,-247.62"/>
<polygon fill="black" stroke="black" points="408.72,-244.18 398.16,-245.05 406.95,-250.96 408.72,-244.18"/>
</g>
<!-- _etoa&#45;&gt;_ntoa_long -->
<g id="edge23" class="edge">
<title>_etoa&#45;&gt;_ntoa_long</title>
<path fill="none" stroke="black" d="M877.93,-333.46C942,-315.73 1102.96,-271.18 1184.59,-248.59"/>
<polygon fill="black" stroke="black" points="1185.67,-251.92 1194.37,-245.88 1183.8,-245.18 1185.67,-251.92"/>
</g>
<!-- __subdf3 -->
<g id="node24" class="node">
<title>__subdf3</title>
<ellipse fill="none" stroke="black" cx="620.69" cy="-126" rx="46.29" ry="18"/>
<text text-anchor="middle" x="620.69" y="-122.3" font-family="Times New Roman,serif" font-size="14.00">__subdf3</text>
</g>
<!-- _etoa&#45;&gt;__subdf3 -->
<g id="edge20" class="edge">
<title>_etoa&#45;&gt;__subdf3</title>
<path fill="none" stroke="black" d="M834.89,-326.29C795.47,-289.62 692.61,-193.91 645.23,-149.83"/>
<polygon fill="black" stroke="black" points="647.56,-147.22 637.86,-142.97 642.79,-152.34 647.56,-147.22"/>
</g>
<!-- __ledf2 -->
<g id="node25" class="node">
<title>__ledf2</title>
<ellipse fill="none" stroke="black" cx="1244.69" cy="-126" rx="38.19" ry="18"/>
<text text-anchor="middle" x="1244.69" y="-122.3" font-family="Times New Roman,serif" font-size="14.00">__ledf2</text>
</g>
<!-- _etoa&#45;&gt;__ledf2 -->
<g id="edge21" class="edge">
<title>_etoa&#45;&gt;__ledf2</title>
<path fill="none" stroke="black" d="M867.56,-326.77C897.63,-301.89 963.13,-249.93 1024.69,-216 1084.41,-183.09 1158.85,-155.54 1204.03,-140.17"/>
<polygon fill="black" stroke="black" points="1205.4,-143.4 1213.76,-136.89 1203.16,-136.77 1205.4,-143.4"/>
</g>
<!-- __eqdf2 -->
<g id="node26" class="node">
<title>__eqdf2</title>
<ellipse fill="none" stroke="black" cx="378.69" cy="-126" rx="41.69" ry="18"/>
<text text-anchor="middle" x="378.69" y="-122.3" font-family="Times New Roman,serif" font-size="14.00">__eqdf2</text>
</g>
<!-- _etoa&#45;&gt;__eqdf2 -->
<g id="edge22" class="edge">
<title>_etoa&#45;&gt;__eqdf2</title>
<path fill="none" stroke="black" d="M826.48,-330.83C787.87,-314.55 710.04,-281.46 644.69,-252 561.88,-214.66 465.61,-168.81 414.65,-144.33"/>
<polygon fill="black" stroke="black" points="415.9,-141.05 405.37,-139.88 412.87,-147.36 415.9,-141.05"/>
</g>
<!-- _ftoa -->
<g id="node27" class="node">
<title>_ftoa</title>
<ellipse fill="none" stroke="black" cx="893.69" cy="-234" rx="29.8" ry="18"/>
<text text-anchor="middle" x="893.69" y="-230.3" font-family="Times New Roman,serif" font-size="14.00">_ftoa</text>
</g>
<!-- _etoa&#45;&gt;_ftoa -->
<g id="edge24" class="edge">
<title>_etoa&#45;&gt;_ftoa</title>
<path fill="none" stroke="black" d="M847.37,-323.97C850.66,-306.19 861.63,-278.17 872.82,-258.34"/>
<polygon fill="black" stroke="black" points="875.92,-259.96 878.12,-249.6 869.94,-256.33 875.92,-259.96"/>
</g>
<!-- __floatsidf -->
<g id="node28" class="node">
<title>__floatsidf</title>
<ellipse fill="none" stroke="black" cx="1368.69" cy="-126" rx="50.09" ry="18"/>
<text text-anchor="middle" x="1368.69" y="-122.3" font-family="Times New Roman,serif" font-size="14.00">__floatsidf</text>
</g>
<!-- _etoa&#45;&gt;__floatsidf -->
<g id="edge26" class="edge">
<title>_etoa&#45;&gt;__floatsidf</title>
<path fill="none" stroke="black" d="M873.17,-329.43C929.86,-300.29 1075.81,-225.48 1098.69,-216 1174.68,-184.53 1266.14,-156.32 1320.73,-140.46"/>
<polygon fill="black" stroke="black" points="1321.85,-143.78 1330.49,-137.65 1319.91,-137.06 1321.85,-143.78"/>
</g>
<!-- __muldf3 -->
<g id="node29" class="node">
<title>__muldf3</title>
<ellipse fill="none" stroke="black" cx="748.69" cy="-126" rx="46.29" ry="18"/>
<text text-anchor="middle" x="748.69" y="-122.3" font-family="Times New Roman,serif" font-size="14.00">__muldf3</text>
</g>
<!-- _etoa&#45;&gt;__muldf3 -->
<g id="edge27" class="edge">
<title>_etoa&#45;&gt;__muldf3</title>
<path fill="none" stroke="black" d="M842.86,-324.56C825.21,-287.54 782.25,-197.4 761,-152.82"/>
<polygon fill="black" stroke="black" points="764.16,-151.31 756.7,-143.79 757.84,-154.32 764.16,-151.31"/>
</g>
<!-- __fixdfsi -->
<g id="node30" class="node">
<title>__fixdfsi</title>
<ellipse fill="none" stroke="black" cx="1498.69" cy="-126" rx="43.59" ry="18"/>
<text text-anchor="middle" x="1498.69" y="-122.3" font-family="Times New Roman,serif" font-size="14.00">__fixdfsi</text>
</g>
<!-- _etoa&#45;&gt;__fixdfsi -->
<g id="edge29" class="edge">
<title>_etoa&#45;&gt;__fixdfsi</title>
<path fill="none" stroke="black" d="M876.48,-332.31C920.64,-317.23 1013.38,-284.68 1089.69,-252 1123.32,-237.6 1129.4,-228.72 1163.69,-216 1281.34,-172.35 1315.52,-176.59 1436.69,-144 1442.29,-142.5 1448.16,-140.9 1453.97,-139.32"/>
<polygon fill="black" stroke="black" points="1454.9,-142.69 1463.63,-136.68 1453.06,-135.94 1454.9,-142.69"/>
</g>
<!-- __gedf2 -->
<g id="node31" class="node">
<title>__gedf2</title>
<ellipse fill="none" stroke="black" cx="497.69" cy="-126" rx="40.89" ry="18"/>
<text text-anchor="middle" x="497.69" y="-122.3" font-family="Times New Roman,serif" font-size="14.00">__gedf2</text>
</g>
<!-- _etoa&#45;&gt;__gedf2 -->
<g id="edge30" class="edge">
<title>_etoa&#45;&gt;__gedf2</title>
<path fill="none" stroke="black" d="M830.19,-328.57C771.21,-292.81 600.77,-189.49 529.56,-146.32"/>
<polygon fill="black" stroke="black" points="531.35,-143.31 520.98,-141.12 527.72,-149.29 531.35,-143.31"/>
</g>
<!-- __subdf3&#45;&gt;__clzsi2 -->
<g id="edge53" class="edge">
<title>__subdf3&#45;&gt;__clzsi2</title>
<path fill="none" stroke="black" d="M620.69,-107.97C620.69,-91.38 620.69,-65.88 620.69,-46.43"/>
<polygon fill="black" stroke="black" points="624.19,-46.34 620.69,-36.34 617.19,-46.34 624.19,-46.34"/>
</g>
<!-- _ftoa&#45;&gt;_out_rev -->
<g id="edge41" class="edge">
<title>_ftoa&#45;&gt;_out_rev</title>
<path fill="none" stroke="black" d="M919.11,-224.23C960.81,-209.53 1045.97,-178.13 1114.69,-144 1180.53,-111.31 1253.33,-65.37 1293.28,-39.25"/>
<polygon fill="black" stroke="black" points="1295.32,-42.1 1301.76,-33.68 1291.48,-36.25 1295.32,-42.1"/>
</g>
<!-- _ftoa&#45;&gt;_etoa -->
<g id="edge37" class="edge">
<title>_ftoa&#45;&gt;_etoa</title>
<path fill="none" stroke="black" d="M897.01,-252.07C893.72,-269.81 882.8,-297.71 871.65,-317.53"/>
<polygon fill="black" stroke="black" points="868.55,-315.89 866.36,-326.26 874.53,-319.52 868.55,-315.89"/>
</g>
<!-- _ftoa&#45;&gt;__subdf3 -->
<g id="edge31" class="edge">
<title>_ftoa&#45;&gt;__subdf3</title>
<path fill="none" stroke="black" d="M868.99,-223.41C821.96,-205.15 719.17,-165.24 661.69,-142.92"/>
<polygon fill="black" stroke="black" points="662.77,-139.58 652.18,-139.23 660.24,-146.11 662.77,-139.58"/>
</g>
<!-- _ftoa&#45;&gt;__ledf2 -->
<g id="edge32" class="edge">
<title>_ftoa&#45;&gt;__ledf2</title>
<path fill="none" stroke="black" d="M919.79,-225.12C980.26,-206.86 1130.36,-161.53 1203.43,-139.46"/>
<polygon fill="black" stroke="black" points="1204.65,-142.75 1213.21,-136.51 1202.62,-136.05 1204.65,-142.75"/>
</g>
<!-- _ftoa&#45;&gt;__eqdf2 -->
<g id="edge33" class="edge">
<title>_ftoa&#45;&gt;__eqdf2</title>
<path fill="none" stroke="black" d="M865.3,-228.29C793.45,-216.19 598.79,-182.27 438.69,-144 433.23,-142.69 427.52,-141.22 421.88,-139.7"/>
<polygon fill="black" stroke="black" points="422.46,-136.23 411.89,-136.94 420.59,-142.97 422.46,-136.23"/>
</g>
<!-- _ftoa&#45;&gt;__floatsidf -->
<g id="edge35" class="edge">
<title>_ftoa&#45;&gt;__floatsidf</title>
<path fill="none" stroke="black" d="M921.89,-227.14C988.12,-213.29 1158.79,-177.24 1300.69,-144 1306.76,-142.58 1313.12,-141.05 1319.41,-139.5"/>
<polygon fill="black" stroke="black" points="1320.32,-142.88 1329.19,-137.09 1318.64,-136.09 1320.32,-142.88"/>
</g>
<!-- _ftoa&#45;&gt;__muldf3 -->
<g id="edge36" class="edge">
<title>_ftoa&#45;&gt;__muldf3</title>
<path fill="none" stroke="black" d="M875.33,-219.58C850.78,-201.63 806.98,-169.61 777.88,-148.33"/>
<polygon fill="black" stroke="black" points="779.86,-145.45 769.72,-142.37 775.73,-151.1 779.86,-145.45"/>
</g>
<!-- _ftoa&#45;&gt;__fixdfsi -->
<g id="edge39" class="edge">
<title>_ftoa&#45;&gt;__fixdfsi</title>
<path fill="none" stroke="black" d="M922.74,-229.33C1004.29,-218.81 1242.1,-186.5 1436.69,-144 1442.42,-142.75 1448.41,-141.3 1454.31,-139.78"/>
<polygon fill="black" stroke="black" points="1455.33,-143.13 1464.09,-137.18 1453.53,-136.36 1455.33,-143.13"/>
</g>
<!-- _ftoa&#45;&gt;__gedf2 -->
<g id="edge40" class="edge">
<title>_ftoa&#45;&gt;__gedf2</title>
<path fill="none" stroke="black" d="M866.56,-226.05C809.23,-211.33 671.61,-175.72 556.69,-144 551.43,-142.55 545.91,-140.99 540.44,-139.44"/>
<polygon fill="black" stroke="black" points="541.31,-136.05 530.73,-136.66 539.39,-142.78 541.31,-136.05"/>
</g>
<!-- __floatunsidf -->
<g id="node32" class="node">
<title>__floatunsidf</title>
<ellipse fill="none" stroke="black" cx="889.69" cy="-126" rx="59.29" ry="18"/>
<text text-anchor="middle" x="889.69" y="-122.3" font-family="Times New Roman,serif" font-size="14.00">__floatunsidf</text>
</g>
<!-- _ftoa&#45;&gt;__floatunsidf -->
<g id="edge34" class="edge">
<title>_ftoa&#45;&gt;__floatunsidf</title>
<path fill="none" stroke="black" d="M893.05,-215.97C892.43,-199.38 891.46,-173.88 890.73,-154.43"/>
<polygon fill="black" stroke="black" points="894.22,-154.2 890.35,-144.34 887.23,-154.47 894.22,-154.2"/>
</g>
<!-- __fixunsdfsi -->
<g id="node33" class="node">
<title>__fixunsdfsi</title>
<ellipse fill="none" stroke="black" cx="1040.69" cy="-126" rx="55.79" ry="18"/>
<text text-anchor="middle" x="1040.69" y="-122.3" font-family="Times New Roman,serif" font-size="14.00">__fixunsdfsi</text>
</g>
<!-- _ftoa&#45;&gt;__fixunsdfsi -->
<g id="edge38" class="edge">
<title>_ftoa&#45;&gt;__fixunsdfsi</title>
<path fill="none" stroke="black" d="M912.31,-219.58C937.06,-201.73 981.11,-169.97 1010.61,-148.7"/>
<polygon fill="black" stroke="black" points="1012.82,-151.41 1018.89,-142.73 1008.73,-145.74 1012.82,-151.41"/>
</g>
<!-- __floatsidf&#45;&gt;__clzsi2 -->
<g id="edge54" class="edge">
<title>__floatsidf&#45;&gt;__clzsi2</title>
<path fill="none" stroke="black" d="M1330.03,-114.52C1320.49,-112.16 1310.26,-109.82 1300.69,-108 1066.74,-63.6 783.29,-34.25 670.48,-23.54"/>
<polygon fill="black" stroke="black" points="670.71,-20.04 660.42,-22.59 670.05,-27.01 670.71,-20.04"/>
</g>
<!-- __muldf3&#45;&gt;__clzsi2 -->
<g id="edge52" class="edge">
<title>__muldf3&#45;&gt;__clzsi2</title>
<path fill="none" stroke="black" d="M729.81,-109.36C707.94,-91.25 671.78,-61.3 647.12,-40.89"/>
<polygon fill="black" stroke="black" points="649.18,-38.04 639.24,-34.36 644.71,-43.43 649.18,-38.04"/>
</g>
<!-- __floatunsidf&#45;&gt;__clzsi2 -->
<g id="edge55" class="edge">
<title>__floatunsidf&#45;&gt;__clzsi2</title>
<path fill="none" stroke="black" d="M855.08,-111.36C804.85,-91.57 712.05,-55 659.54,-34.31"/>
<polygon fill="black" stroke="black" points="660.81,-31.05 650.23,-30.64 658.25,-37.56 660.81,-31.05"/>
</g>
<!-- _vsnprintf&#45;&gt;_ntoa_long -->
<g id="edge44" class="edge">
<title>_vsnprintf&#45;&gt;_ntoa_long</title>
<path fill="none" stroke="black" d="M958.05,-433.61C1010.16,-396.07 1143.89,-299.71 1203.84,-256.51"/>
<polygon fill="black" stroke="black" points="1206.06,-259.22 1212.13,-250.54 1201.97,-253.54 1206.06,-259.22"/>
</g>
<!-- _vsnprintf&#45;&gt;_ntoa_long_long -->
<g id="edge43" class="edge">
<title>_vsnprintf&#45;&gt;_ntoa_long_long</title>
<path fill="none" stroke="black" d="M974.65,-438.84C983.81,-436.49 993.58,-434.08 1002.69,-432 1137.3,-401.32 1296.04,-371.2 1383.81,-355.08"/>
<polygon fill="black" stroke="black" points="1384.7,-358.47 1393.9,-353.23 1383.43,-351.59 1384.7,-358.47"/>
</g>
<!-- _vsnprintf&#45;&gt;_etoa -->
<g id="edge42" class="edge">
<title>_vsnprintf&#45;&gt;_etoa</title>
<path fill="none" stroke="black" d="M923.26,-432.44C908.95,-414.81 886.2,-386.76 869.98,-366.77"/>
<polygon fill="black" stroke="black" points="872.49,-364.32 863.48,-358.75 867.06,-368.73 872.49,-364.32"/>
</g>
<!-- _vsnprintf&#45;&gt;_ftoa -->
<g id="edge45" class="edge">
<title>_vsnprintf&#45;&gt;_ftoa</title>
<path fill="none" stroke="black" d="M933.25,-431.85C925.78,-394.66 908.04,-306.37 899.07,-261.77"/>
<polygon fill="black" stroke="black" points="902.5,-261.05 897.1,-251.94 895.64,-262.43 902.5,-261.05"/>
</g>
</g>
</svg>
