<?xml version="1.0" encoding="UTF-8" standalone="no"?>
<!DOCTYPE svg PUBLIC "-//W3C//DTD SVG 1.1//EN"
 "http://www.w3.org/Graphics/SVG/1.1/DTD/svg11.dtd">
<!-- Generated by graphviz version 6.0.2 (20221011.1828)
 -->
<!-- Pages: 1 -->
<svg width="1785pt" height="908pt"
 viewBox="0.00 0.00 1784.94 908.00" xmlns="http://www.w3.org/2000/svg" xmlns:xlink="http://www.w3.org/1999/xlink">
<g id="graph0" class="graph" transform="scale(1 1) rotate(0) translate(4 904)">
<polygon fill="white" stroke="none" points="-4,4 -4,-904 1780.94,-904 1780.94,4 -4,4"/>
<!-- __to_main -->
<g id="node1" class="node">
<title>__to_main</title>
<ellipse fill="none" stroke="black" cx="978.84" cy="-882" rx="50.09" ry="18"/>
<text text-anchor="middle" x="978.84" y="-878.3" font-family="Times New Roman,serif" font-size="14.00">__to_main</text>
</g>
<!-- main -->
<g id="node2" class="node">
<title>main</title>
<ellipse fill="none" stroke="black" cx="978.84" cy="-774" rx="27.9" ry="18"/>
<text text-anchor="middle" x="978.84" y="-770.3" font-family="Times New Roman,serif" font-size="14.00">main</text>
</g>
<!-- __to_main&#45;&gt;main -->
<g id="edge1" class="edge">
<title>__to_main&#45;&gt;main</title>
<path fill="none" stroke="black" d="M978.84,-863.97C978.84,-847.38 978.84,-821.88 978.84,-802.43"/>
<polygon fill="black" stroke="black" points="982.34,-802.34 978.84,-792.34 975.34,-802.34 982.34,-802.34"/>
</g>
<!-- benchmark -->
<g id="node11" class="node">
<title>benchmark</title>
<ellipse fill="none" stroke="black" cx="921.84" cy="-666" rx="50.89" ry="18"/>
<text text-anchor="middle" x="921.84" y="-662.3" font-family="Times New Roman,serif" font-size="14.00">benchmark</text>
</g>
<!-- main&#45;&gt;benchmark -->
<g id="edge13" class="edge">
<title>main&#45;&gt;benchmark</title>
<path fill="none" stroke="black" d="M969.94,-756.44C960.75,-739.35 946.29,-712.46 935.62,-692.62"/>
<polygon fill="black" stroke="black" points="938.7,-690.95 930.88,-683.8 932.53,-694.26 938.7,-690.95"/>
</g>
<!-- puts -->
<g id="node15" class="node">
<title>puts</title>
<ellipse fill="none" stroke="black" cx="1092.84" cy="-666" rx="27" ry="18"/>
<text text-anchor="middle" x="1092.84" y="-662.3" font-family="Times New Roman,serif" font-size="14.00">puts</text>
</g>
<!-- main&#45;&gt;puts -->
<g id="edge12" class="edge">
<title>main&#45;&gt;puts</title>
<path fill="none" stroke="black" d="M994.22,-758.7C1013.79,-740.51 1047.76,-708.92 1070.27,-687.99"/>
<polygon fill="black" stroke="black" points="1072.77,-690.44 1077.71,-681.07 1068.01,-685.32 1072.77,-690.44"/>
</g>
<!-- fputc -->
<g id="node3" class="node">
<title>fputc</title>
<ellipse fill="none" stroke="black" cx="1150.84" cy="-558" rx="29.8" ry="18"/>
<text text-anchor="middle" x="1150.84" y="-554.3" font-family="Times New Roman,serif" font-size="14.00">fputc</text>
</g>
<!-- &lt;ck_uart_putc&gt; * -->
<g id="node4" class="node">
<title>&lt;ck_uart_putc&gt; *</title>
<ellipse fill="none" stroke="black" cx="1185.84" cy="-450" rx="76.89" ry="18"/>
<text text-anchor="middle" x="1185.84" y="-446.3" font-family="Times New Roman,serif" font-size="14.00">&lt;ck_uart_putc&gt; *</text>
</g>
<!-- fputc&#45;&gt;&lt;ck_uart_putc&gt; * -->
<g id="edge2" class="edge">
<title>fputc&#45;&gt;&lt;ck_uart_putc&gt; *</title>
<path fill="none" stroke="black" d="M1156.47,-539.97C1162.03,-523.12 1170.62,-497.1 1177.08,-477.54"/>
<polygon fill="black" stroke="black" points="1180.42,-478.58 1180.24,-467.99 1173.78,-476.39 1180.42,-478.58"/>
</g>
<!-- qurt_sqrt -->
<g id="node5" class="node">
<title>qurt_sqrt</title>
<ellipse fill="none" stroke="black" cx="359.84" cy="-342" rx="44.39" ry="18"/>
<text text-anchor="middle" x="359.84" y="-338.3" font-family="Times New Roman,serif" font-size="14.00">qurt_sqrt</text>
</g>
<!-- __adddf3 -->
<g id="node6" class="node">
<title>__adddf3</title>
<ellipse fill="none" stroke="black" cx="485.84" cy="-234" rx="46.29" ry="18"/>
<text text-anchor="middle" x="485.84" y="-230.3" font-family="Times New Roman,serif" font-size="14.00">__adddf3</text>
</g>
<!-- qurt_sqrt&#45;&gt;__adddf3 -->
<g id="edge3" class="edge">
<title>qurt_sqrt&#45;&gt;__adddf3</title>
<path fill="none" stroke="black" d="M378.17,-325.59C399.51,-307.63 434.94,-277.83 459.29,-257.34"/>
<polygon fill="black" stroke="black" points="461.69,-259.89 467.09,-250.78 457.18,-254.54 461.69,-259.89"/>
</g>
<!-- __truncdfsf2 -->
<g id="node7" class="node">
<title>__truncdfsf2</title>
<ellipse fill="none" stroke="black" cx="57.84" cy="-234" rx="57.69" ry="18"/>
<text text-anchor="middle" x="57.84" y="-230.3" font-family="Times New Roman,serif" font-size="14.00">__truncdfsf2</text>
</g>
<!-- qurt_sqrt&#45;&gt;__truncdfsf2 -->
<g id="edge4" class="edge">
<title>qurt_sqrt&#45;&gt;__truncdfsf2</title>
<path fill="none" stroke="black" d="M327.53,-329.66C273.8,-310.8 165.91,-272.93 104.12,-251.24"/>
<polygon fill="black" stroke="black" points="105.21,-247.91 94.61,-247.9 102.89,-254.52 105.21,-247.91"/>
</g>
<!-- __divdf3 -->
<g id="node8" class="node">
<title>__divdf3</title>
<ellipse fill="none" stroke="black" cx="359.84" cy="-234" rx="44.39" ry="18"/>
<text text-anchor="middle" x="359.84" y="-230.3" font-family="Times New Roman,serif" font-size="14.00">__divdf3</text>
</g>
<!-- qurt_sqrt&#45;&gt;__divdf3 -->
<g id="edge5" class="edge">
<title>qurt_sqrt&#45;&gt;__divdf3</title>
<path fill="none" stroke="black" d="M359.84,-323.97C359.84,-307.38 359.84,-281.88 359.84,-262.43"/>
<polygon fill="black" stroke="black" points="363.34,-262.34 359.84,-252.34 356.34,-262.34 363.34,-262.34"/>
</g>
<!-- __extendsfdf2 -->
<g id="node9" class="node">
<title>__extendsfdf2</title>
<ellipse fill="none" stroke="black" cx="215.84" cy="-234" rx="63.89" ry="18"/>
<text text-anchor="middle" x="215.84" y="-230.3" font-family="Times New Roman,serif" font-size="14.00">__extendsfdf2</text>
</g>
<!-- qurt_sqrt&#45;&gt;__extendsfdf2 -->
<g id="edge6" class="edge">
<title>qurt_sqrt&#45;&gt;__extendsfdf2</title>
<path fill="none" stroke="black" d="M339.21,-325.81C314.83,-307.86 274.04,-277.84 246.09,-257.26"/>
<polygon fill="black" stroke="black" points="247.98,-254.31 237.85,-251.2 243.83,-259.95 247.98,-254.31"/>
</g>
<!-- __clzsi2 -->
<g id="node37" class="node">
<title>__clzsi2</title>
<ellipse fill="none" stroke="black" cx="461.84" cy="-18" rx="40.89" ry="18"/>
<text text-anchor="middle" x="461.84" y="-14.3" font-family="Times New Roman,serif" font-size="14.00">__clzsi2</text>
</g>
<!-- __adddf3&#45;&gt;__clzsi2 -->
<g id="edge50" class="edge">
<title>__adddf3&#45;&gt;__clzsi2</title>
<path fill="none" stroke="black" d="M463.17,-218.11C441.74,-202.55 410.98,-175.96 397.84,-144 382.65,-107.01 413.2,-66.1 437.11,-41.48"/>
<polygon fill="black" stroke="black" points="439.63,-43.92 444.27,-34.39 434.7,-38.95 439.63,-43.92"/>
</g>
<!-- __divdf3&#45;&gt;__clzsi2 -->
<g id="edge51" class="edge">
<title>__divdf3&#45;&gt;__clzsi2</title>
<path fill="none" stroke="black" d="M360.51,-215.95C362.08,-191.04 367.33,-143.78 384.84,-108 397.39,-82.38 419.15,-58.23 436.35,-41.57"/>
<polygon fill="black" stroke="black" points="439.01,-43.88 443.88,-34.47 434.2,-38.78 439.01,-43.88"/>
</g>
<!-- __extendsfdf2&#45;&gt;__clzsi2 -->
<g id="edge56" class="edge">
<title>__extendsfdf2&#45;&gt;__clzsi2</title>
<path fill="none" stroke="black" d="M234.74,-216.56C278.54,-178.46 387.04,-84.07 436.52,-41.03"/>
<polygon fill="black" stroke="black" points="438.97,-43.54 444.22,-34.33 434.38,-38.26 438.97,-43.54"/>
</g>
<!-- qurt -->
<g id="node10" class="node">
<title>qurt</title>
<ellipse fill="none" stroke="black" cx="921.84" cy="-558" rx="27" ry="18"/>
<text text-anchor="middle" x="921.84" y="-554.3" font-family="Times New Roman,serif" font-size="14.00">qurt</text>
</g>
<!-- qurt&#45;&gt;qurt_sqrt -->
<g id="edge7" class="edge">
<title>qurt&#45;&gt;qurt_sqrt</title>
<path fill="none" stroke="black" d="M922.11,-539.9C921.54,-512.69 916.17,-459.78 884.84,-432 815.62,-370.61 533.68,-350.81 413.99,-345.09"/>
<polygon fill="black" stroke="black" points="414.1,-341.6 403.95,-344.63 413.78,-348.59 414.1,-341.6"/>
</g>
<!-- benchmark&#45;&gt;qurt -->
<g id="edge11" class="edge">
<title>benchmark&#45;&gt;qurt</title>
<path fill="none" stroke="black" d="M921.84,-647.97C921.84,-631.38 921.84,-605.88 921.84,-586.43"/>
<polygon fill="black" stroke="black" points="925.34,-586.34 921.84,-576.34 918.34,-586.34 925.34,-586.34"/>
</g>
<!-- printf -->
<g id="node12" class="node">
<title>printf</title>
<ellipse fill="none" stroke="black" cx="1019.84" cy="-558" rx="30.59" ry="18"/>
<text text-anchor="middle" x="1019.84" y="-554.3" font-family="Times New Roman,serif" font-size="14.00">printf</text>
</g>
<!-- benchmark&#45;&gt;printf -->
<g id="edge8" class="edge">
<title>benchmark&#45;&gt;printf</title>
<path fill="none" stroke="black" d="M937.16,-648.44C953.79,-630.45 980.46,-601.6 999,-581.55"/>
<polygon fill="black" stroke="black" points="1001.69,-583.79 1005.91,-574.07 996.55,-579.04 1001.69,-583.79"/>
</g>
<!-- ck_uart_open -->
<g id="node13" class="node">
<title>ck_uart_open</title>
<ellipse fill="none" stroke="black" cx="644.84" cy="-558" rx="61.19" ry="18"/>
<text text-anchor="middle" x="644.84" y="-554.3" font-family="Times New Roman,serif" font-size="14.00">ck_uart_open</text>
</g>
<!-- benchmark&#45;&gt;ck_uart_open -->
<g id="edge9" class="edge">
<title>benchmark&#45;&gt;ck_uart_open</title>
<path fill="none" stroke="black" d="M888.71,-652.32C839.26,-633.4 746.03,-597.72 690.27,-576.38"/>
<polygon fill="black" stroke="black" points="691.24,-573.01 680.65,-572.7 688.73,-579.54 691.24,-573.01"/>
</g>
<!-- ck_uart_init -->
<g id="node14" class="node">
<title>ck_uart_init</title>
<ellipse fill="none" stroke="black" cx="795.84" cy="-558" rx="53.89" ry="18"/>
<text text-anchor="middle" x="795.84" y="-554.3" font-family="Times New Roman,serif" font-size="14.00">ck_uart_init</text>
</g>
<!-- benchmark&#45;&gt;ck_uart_init -->
<g id="edge10" class="edge">
<title>benchmark&#45;&gt;ck_uart_init</title>
<path fill="none" stroke="black" d="M902.98,-649.13C881.64,-631.18 846.72,-601.8 822.58,-581.49"/>
<polygon fill="black" stroke="black" points="824.74,-578.74 814.84,-574.98 820.24,-584.09 824.74,-578.74"/>
</g>
<!-- _vsnprintf -->
<g id="node34" class="node">
<title>_vsnprintf</title>
<ellipse fill="none" stroke="black" cx="1024.84" cy="-450" rx="48.19" ry="18"/>
<text text-anchor="middle" x="1024.84" y="-446.3" font-family="Times New Roman,serif" font-size="14.00">_vsnprintf</text>
</g>
<!-- printf&#45;&gt;_vsnprintf -->
<g id="edge47" class="edge">
<title>printf&#45;&gt;_vsnprintf</title>
<path fill="none" stroke="black" d="M1020.65,-539.97C1021.43,-523.38 1022.63,-497.88 1023.55,-478.43"/>
<polygon fill="black" stroke="black" points="1027.05,-478.49 1024.03,-468.34 1020.06,-478.16 1027.05,-478.49"/>
</g>
<!-- ck_uart_set_wordsize -->
<g id="node35" class="node">
<title>ck_uart_set_wordsize</title>
<ellipse fill="none" stroke="black" cx="581.84" cy="-450" rx="90.98" ry="18"/>
<text text-anchor="middle" x="581.84" y="-446.3" font-family="Times New Roman,serif" font-size="14.00">ck_uart_set_wordsize</text>
</g>
<!-- ck_uart_init&#45;&gt;ck_uart_set_wordsize -->
<g id="edge48" class="edge">
<title>ck_uart_init&#45;&gt;ck_uart_set_wordsize</title>
<path fill="none" stroke="black" d="M766.98,-542.7C729.97,-524.37 665.52,-492.44 623.27,-471.52"/>
<polygon fill="black" stroke="black" points="624.6,-468.27 614.08,-466.97 621.49,-474.54 624.6,-468.27"/>
</g>
<!-- ck_uart_set_parity -->
<g id="node36" class="node">
<title>ck_uart_set_parity</title>
<ellipse fill="none" stroke="black" cx="787.84" cy="-450" rx="78.79" ry="18"/>
<text text-anchor="middle" x="787.84" y="-446.3" font-family="Times New Roman,serif" font-size="14.00">ck_uart_set_parity</text>
</g>
<!-- ck_uart_init&#45;&gt;ck_uart_set_parity -->
<g id="edge49" class="edge">
<title>ck_uart_init&#45;&gt;ck_uart_set_parity</title>
<path fill="none" stroke="black" d="M794.56,-539.97C793.31,-523.38 791.38,-497.88 789.92,-478.43"/>
<polygon fill="black" stroke="black" points="793.4,-478.05 789.15,-468.34 786.42,-478.58 793.4,-478.05"/>
</g>
<!-- puts&#45;&gt;fputc -->
<g id="edge46" class="edge">
<title>puts&#45;&gt;fputc</title>
<path fill="none" stroke="black" d="M1101.65,-648.9C1111.06,-631.7 1126.11,-604.21 1137.08,-584.15"/>
<polygon fill="black" stroke="black" points="1140.22,-585.7 1141.95,-575.25 1134.08,-582.34 1140.22,-585.7"/>
</g>
<!-- _ntoa_format -->
<g id="node16" class="node">
<title>_ntoa_format</title>
<ellipse fill="none" stroke="black" cx="1715.84" cy="-126" rx="59.59" ry="18"/>
<text text-anchor="middle" x="1715.84" y="-122.3" font-family="Times New Roman,serif" font-size="14.00">_ntoa_format</text>
</g>
<!-- &lt;_out_rev&gt; * -->
<g id="node17" class="node">
<title>&lt;_out_rev&gt; *</title>
<ellipse fill="none" stroke="black" cx="1715.84" cy="-18" rx="61.19" ry="18"/>
<text text-anchor="middle" x="1715.84" y="-14.3" font-family="Times New Roman,serif" font-size="14.00">&lt;_out_rev&gt; *</text>
</g>
<!-- _ntoa_format&#45;&gt;&lt;_out_rev&gt; * -->
<g id="edge14" class="edge">
<title>_ntoa_format&#45;&gt;&lt;_out_rev&gt; *</title>
<path fill="none" stroke="black" d="M1715.84,-107.97C1715.84,-91.38 1715.84,-65.88 1715.84,-46.43"/>
<polygon fill="black" stroke="black" points="1719.34,-46.34 1715.84,-36.34 1712.34,-46.34 1719.34,-46.34"/>
</g>
<!-- _out_rev -->
<g id="node18" class="node">
<title>_out_rev</title>
<ellipse fill="none" stroke="black" cx="1410.84" cy="-18" rx="43.59" ry="18"/>
<text text-anchor="middle" x="1410.84" y="-14.3" font-family="Times New Roman,serif" font-size="14.00">_out_rev</text>
</g>
<!-- _ntoa_format&#45;&gt;_out_rev -->
<g id="edge15" class="edge">
<title>_ntoa_format&#45;&gt;_out_rev</title>
<path fill="none" stroke="black" d="M1678.14,-111.9C1620.92,-92.01 1512.52,-54.34 1452.85,-33.6"/>
<polygon fill="black" stroke="black" points="1453.95,-30.28 1443.36,-30.3 1451.65,-36.89 1453.95,-30.28"/>
</g>
<!-- _ntoa_long -->
<g id="node19" class="node">
<title>_ntoa_long</title>
<ellipse fill="none" stroke="black" cx="1321.84" cy="-234" rx="51.99" ry="18"/>
<text text-anchor="middle" x="1321.84" y="-230.3" font-family="Times New Roman,serif" font-size="14.00">_ntoa_long</text>
</g>
<!-- _ntoa_long&#45;&gt;_ntoa_format -->
<g id="edge16" class="edge">
<title>_ntoa_long&#45;&gt;_ntoa_format</title>
<path fill="none" stroke="black" d="M1361.79,-222.25C1433.27,-203.02 1583.04,-162.73 1662.95,-141.23"/>
<polygon fill="black" stroke="black" points="1664.06,-144.56 1672.81,-138.58 1662.24,-137.8 1664.06,-144.56"/>
</g>
<!-- _ntoa_long_long -->
<g id="node20" class="node">
<title>_ntoa_long_long</title>
<ellipse fill="none" stroke="black" cx="1536.84" cy="-342" rx="72.29" ry="18"/>
<text text-anchor="middle" x="1536.84" y="-338.3" font-family="Times New Roman,serif" font-size="14.00">_ntoa_long_long</text>
</g>
<!-- _ntoa_long_long&#45;&gt;_ntoa_format -->
<g id="edge17" class="edge">
<title>_ntoa_long_long&#45;&gt;_ntoa_format</title>
<path fill="none" stroke="black" d="M1570.47,-326.03C1600.35,-311.16 1643.3,-285.73 1669.84,-252 1692.82,-222.81 1705.08,-181.02 1711.02,-153.95"/>
<polygon fill="black" stroke="black" points="1714.48,-154.51 1713.06,-144.01 1707.62,-153.1 1714.48,-154.51"/>
</g>
<!-- __umoddi3 -->
<g id="node21" class="node">
<title>__umoddi3</title>
<ellipse fill="none" stroke="black" cx="1468.84" cy="-234" rx="52.79" ry="18"/>
<text text-anchor="middle" x="1468.84" y="-230.3" font-family="Times New Roman,serif" font-size="14.00">__umoddi3</text>
</g>
<!-- _ntoa_long_long&#45;&gt;__umoddi3 -->
<g id="edge18" class="edge">
<title>_ntoa_long_long&#45;&gt;__umoddi3</title>
<path fill="none" stroke="black" d="M1525.92,-323.97C1514.85,-306.71 1497.6,-279.83 1484.96,-260.13"/>
<polygon fill="black" stroke="black" points="1487.86,-258.17 1479.52,-251.64 1481.97,-261.95 1487.86,-258.17"/>
</g>
<!-- __udivdi3 -->
<g id="node22" class="node">
<title>__udivdi3</title>
<ellipse fill="none" stroke="black" cx="1604.84" cy="-234" rx="47.39" ry="18"/>
<text text-anchor="middle" x="1604.84" y="-230.3" font-family="Times New Roman,serif" font-size="14.00">__udivdi3</text>
</g>
<!-- _ntoa_long_long&#45;&gt;__udivdi3 -->
<g id="edge19" class="edge">
<title>_ntoa_long_long&#45;&gt;__udivdi3</title>
<path fill="none" stroke="black" d="M1547.77,-323.97C1558.84,-306.71 1576.09,-279.83 1588.73,-260.13"/>
<polygon fill="black" stroke="black" points="1591.72,-261.95 1594.17,-251.64 1585.83,-258.17 1591.72,-261.95"/>
</g>
<!-- _etoa -->
<g id="node23" class="node">
<title>_etoa</title>
<ellipse fill="none" stroke="black" cx="938.84" cy="-342" rx="30.59" ry="18"/>
<text text-anchor="middle" x="938.84" y="-338.3" font-family="Times New Roman,serif" font-size="14.00">_etoa</text>
</g>
<!-- _etoa&#45;&gt;__adddf3 -->
<g id="edge20" class="edge">
<title>_etoa&#45;&gt;__adddf3</title>
<path fill="none" stroke="black" d="M910.85,-334.45C835.75,-316.88 629.13,-268.53 534.42,-246.37"/>
<polygon fill="black" stroke="black" points="535.06,-242.92 524.53,-244.05 533.47,-249.74 535.06,-242.92"/>
</g>
<!-- _etoa&#45;&gt;__divdf3 -->
<g id="edge29" class="edge">
<title>_etoa&#45;&gt;__divdf3</title>
<path fill="none" stroke="black" d="M909.5,-336.97C830.32,-325.87 605.87,-292.97 421.84,-252 416.19,-250.74 410.28,-249.29 404.45,-247.79"/>
<polygon fill="black" stroke="black" points="405.34,-244.4 394.78,-245.22 403.55,-251.17 405.34,-244.4"/>
</g>
<!-- _etoa&#45;&gt;_ntoa_long -->
<g id="edge28" class="edge">
<title>_etoa&#45;&gt;_ntoa_long</title>
<path fill="none" stroke="black" d="M966.08,-333.46C1030.15,-315.73 1191.11,-271.18 1272.74,-248.59"/>
<polygon fill="black" stroke="black" points="1273.82,-251.92 1282.52,-245.88 1271.95,-245.18 1273.82,-251.92"/>
</g>
<!-- __floatsidf -->
<g id="node24" class="node">
<title>__floatsidf</title>
<ellipse fill="none" stroke="black" cx="593.84" cy="-126" rx="50.09" ry="18"/>
<text text-anchor="middle" x="593.84" y="-122.3" font-family="Times New Roman,serif" font-size="14.00">__floatsidf</text>
</g>
<!-- _etoa&#45;&gt;__floatsidf -->
<g id="edge21" class="edge">
<title>_etoa&#45;&gt;__floatsidf</title>
<path fill="none" stroke="black" d="M918.55,-328.41C861.18,-292.83 697.43,-191.25 626.86,-147.48"/>
<polygon fill="black" stroke="black" points="628.28,-144.24 617.94,-141.94 624.59,-150.19 628.28,-144.24"/>
</g>
<!-- __muldf3 -->
<g id="node25" class="node">
<title>__muldf3</title>
<ellipse fill="none" stroke="black" cx="725.84" cy="-126" rx="46.29" ry="18"/>
<text text-anchor="middle" x="725.84" y="-122.3" font-family="Times New Roman,serif" font-size="14.00">__muldf3</text>
</g>
<!-- _etoa&#45;&gt;__muldf3 -->
<g id="edge22" class="edge">
<title>_etoa&#45;&gt;__muldf3</title>
<path fill="none" stroke="black" d="M923.87,-325.95C887.26,-289.17 793.02,-194.49 749.06,-150.33"/>
<polygon fill="black" stroke="black" points="751.5,-147.81 741.96,-143.19 746.53,-152.75 751.5,-147.81"/>
</g>
<!-- _ftoa -->
<g id="node26" class="node">
<title>_ftoa</title>
<ellipse fill="none" stroke="black" cx="981.84" cy="-234" rx="29.8" ry="18"/>
<text text-anchor="middle" x="981.84" y="-230.3" font-family="Times New Roman,serif" font-size="14.00">_ftoa</text>
</g>
<!-- _etoa&#45;&gt;_ftoa -->
<g id="edge23" class="edge">
<title>_etoa&#45;&gt;_ftoa</title>
<path fill="none" stroke="black" d="M935.52,-323.97C938.82,-306.19 949.79,-278.17 960.97,-258.34"/>
<polygon fill="black" stroke="black" points="964.07,-259.96 966.27,-249.6 958.09,-256.33 964.07,-259.96"/>
</g>
<!-- __subdf3 -->
<g id="node27" class="node">
<title>__subdf3</title>
<ellipse fill="none" stroke="black" cx="461.84" cy="-126" rx="46.29" ry="18"/>
<text text-anchor="middle" x="461.84" y="-122.3" font-family="Times New Roman,serif" font-size="14.00">__subdf3</text>
</g>
<!-- _etoa&#45;&gt;__subdf3 -->
<g id="edge24" class="edge">
<title>_etoa&#45;&gt;__subdf3</title>
<path fill="none" stroke="black" d="M914.86,-330.54C876.99,-314 801.03,-280.73 736.84,-252 652.13,-214.08 553.11,-168.85 500.05,-144.54"/>
<polygon fill="black" stroke="black" points="501.25,-141.23 490.7,-140.25 498.33,-147.6 501.25,-141.23"/>
</g>
<!-- __fixdfsi -->
<g id="node28" class="node">
<title>__fixdfsi</title>
<ellipse fill="none" stroke="black" cx="1576.84" cy="-126" rx="43.59" ry="18"/>
<text text-anchor="middle" x="1576.84" y="-122.3" font-family="Times New Roman,serif" font-size="14.00">__fixdfsi</text>
</g>
<!-- _etoa&#45;&gt;__fixdfsi -->
<g id="edge25" class="edge">
<title>_etoa&#45;&gt;__fixdfsi</title>
<path fill="none" stroke="black" d="M964.63,-332.31C1008.79,-317.23 1101.53,-284.68 1177.84,-252 1211.47,-237.6 1217.61,-228.87 1251.84,-216 1365.69,-173.21 1398.6,-176.32 1515.84,-144 1521.08,-142.56 1526.56,-141.04 1532,-139.53"/>
<polygon fill="black" stroke="black" points="1533,-142.88 1541.69,-136.83 1531.12,-136.14 1533,-142.88"/>
</g>
<!-- __gedf2 -->
<g id="node29" class="node">
<title>__gedf2</title>
<ellipse fill="none" stroke="black" cx="848.84" cy="-126" rx="40.89" ry="18"/>
<text text-anchor="middle" x="848.84" y="-122.3" font-family="Times New Roman,serif" font-size="14.00">__gedf2</text>
</g>
<!-- _etoa&#45;&gt;__gedf2 -->
<g id="edge26" class="edge">
<title>_etoa&#45;&gt;__gedf2</title>
<path fill="none" stroke="black" d="M931.78,-324.21C916.18,-287.11 878.67,-197.92 859.92,-153.32"/>
<polygon fill="black" stroke="black" points="863.1,-151.87 856,-144.01 856.65,-154.59 863.1,-151.87"/>
</g>
<!-- __ledf2 -->
<g id="node30" class="node">
<title>__ledf2</title>
<ellipse fill="none" stroke="black" cx="1339.84" cy="-126" rx="38.19" ry="18"/>
<text text-anchor="middle" x="1339.84" y="-122.3" font-family="Times New Roman,serif" font-size="14.00">__ledf2</text>
</g>
<!-- _etoa&#45;&gt;__ledf2 -->
<g id="edge27" class="edge">
<title>_etoa&#45;&gt;__ledf2</title>
<path fill="none" stroke="black" d="M955.67,-326.7C985.68,-301.72 1051.09,-249.6 1112.84,-216 1174.85,-182.26 1252.4,-154.71 1298.93,-139.6"/>
<polygon fill="black" stroke="black" points="1300.2,-142.87 1308.65,-136.48 1298.06,-136.21 1300.2,-142.87"/>
</g>
<!-- __eqdf2 -->
<g id="node31" class="node">
<title>__eqdf2</title>
<ellipse fill="none" stroke="black" cx="1455.84" cy="-126" rx="41.69" ry="18"/>
<text text-anchor="middle" x="1455.84" y="-122.3" font-family="Times New Roman,serif" font-size="14.00">__eqdf2</text>
</g>
<!-- _etoa&#45;&gt;__eqdf2 -->
<g id="edge30" class="edge">
<title>_etoa&#45;&gt;__eqdf2</title>
<path fill="none" stroke="black" d="M961.32,-329.43C1018.01,-300.29 1163.96,-225.49 1186.84,-216 1264.32,-183.86 1357.93,-155.05 1411.81,-139.4"/>
<polygon fill="black" stroke="black" points="1413.08,-142.67 1421.71,-136.53 1411.13,-135.95 1413.08,-142.67"/>
</g>
<!-- __floatsidf&#45;&gt;__clzsi2 -->
<g id="edge54" class="edge">
<title>__floatsidf&#45;&gt;__clzsi2</title>
<path fill="none" stroke="black" d="M574.37,-109.36C551.69,-91.15 514.1,-60.96 488.67,-40.54"/>
<polygon fill="black" stroke="black" points="490.54,-37.55 480.55,-34.02 486.15,-43.01 490.54,-37.55"/>
</g>
<!-- __muldf3&#45;&gt;__clzsi2 -->
<g id="edge52" class="edge">
<title>__muldf3&#45;&gt;__clzsi2</title>
<path fill="none" stroke="black" d="M694.78,-112.53C646.41,-93.11 553.17,-55.67 500.51,-34.53"/>
<polygon fill="black" stroke="black" points="501.76,-31.25 491.17,-30.77 499.15,-37.75 501.76,-31.25"/>
</g>
<!-- _ftoa&#45;&gt;_out_rev -->
<g id="edge36" class="edge">
<title>_ftoa&#45;&gt;_out_rev</title>
<path fill="none" stroke="black" d="M1007.81,-224.61C1050.84,-210.34 1139.18,-179.39 1209.84,-144 1273.46,-112.15 1342.95,-66.21 1381.29,-39.81"/>
<polygon fill="black" stroke="black" points="1383.66,-42.42 1389.89,-33.85 1379.67,-36.67 1383.66,-42.42"/>
</g>
<!-- _ftoa&#45;&gt;_etoa -->
<g id="edge31" class="edge">
<title>_ftoa&#45;&gt;_etoa</title>
<path fill="none" stroke="black" d="M985.16,-252.07C981.87,-269.81 970.95,-297.71 959.8,-317.53"/>
<polygon fill="black" stroke="black" points="956.7,-315.89 954.51,-326.26 962.69,-319.52 956.7,-315.89"/>
</g>
<!-- _ftoa&#45;&gt;__floatsidf -->
<g id="edge33" class="edge">
<title>_ftoa&#45;&gt;__floatsidf</title>
<path fill="none" stroke="black" d="M955.18,-225.71C890.52,-208.05 724.66,-162.74 642.07,-140.18"/>
<polygon fill="black" stroke="black" points="642.99,-136.8 632.42,-137.54 641.15,-143.55 642.99,-136.8"/>
</g>
<!-- _ftoa&#45;&gt;__muldf3 -->
<g id="edge34" class="edge">
<title>_ftoa&#45;&gt;__muldf3</title>
<path fill="none" stroke="black" d="M957.76,-223.03C913.7,-204.79 819.72,-165.87 765.9,-143.58"/>
<polygon fill="black" stroke="black" points="766.91,-140.22 756.34,-139.62 764.24,-146.68 766.91,-140.22"/>
</g>
<!-- _ftoa&#45;&gt;__subdf3 -->
<g id="edge37" class="edge">
<title>_ftoa&#45;&gt;__subdf3</title>
<path fill="none" stroke="black" d="M953.42,-228.13C881.51,-215.68 686.59,-180.99 525.84,-144 520.1,-142.68 514.1,-141.21 508.16,-139.69"/>
<polygon fill="black" stroke="black" points="508.85,-136.26 498.29,-137.13 507.09,-143.03 508.85,-136.26"/>
</g>
<!-- _ftoa&#45;&gt;__fixdfsi -->
<g id="edge38" class="edge">
<title>_ftoa&#45;&gt;__fixdfsi</title>
<path fill="none" stroke="black" d="M1010.71,-229.29C1091.19,-218.72 1324.77,-186.42 1515.84,-144 1521.28,-142.79 1526.95,-141.4 1532.55,-139.94"/>
<polygon fill="black" stroke="black" points="1533.74,-143.24 1542.49,-137.27 1531.92,-136.48 1533.74,-143.24"/>
</g>
<!-- _ftoa&#45;&gt;__gedf2 -->
<g id="edge39" class="edge">
<title>_ftoa&#45;&gt;__gedf2</title>
<path fill="none" stroke="black" d="M964.46,-219.14C941.97,-201.22 902.54,-169.79 876.06,-148.69"/>
<polygon fill="black" stroke="black" points="877.96,-145.73 867.96,-142.23 873.6,-151.2 877.96,-145.73"/>
</g>
<!-- _ftoa&#45;&gt;__ledf2 -->
<g id="edge40" class="edge">
<title>_ftoa&#45;&gt;__ledf2</title>
<path fill="none" stroke="black" d="M1007.95,-225.2C1017.65,-222.31 1028.75,-219 1038.84,-216 1131.49,-188.49 1240.23,-156.38 1298.3,-139.25"/>
<polygon fill="black" stroke="black" points="1299.6,-142.52 1308.2,-136.33 1297.62,-135.8 1299.6,-142.52"/>
</g>
<!-- _ftoa&#45;&gt;__eqdf2 -->
<g id="edge41" class="edge">
<title>_ftoa&#45;&gt;__eqdf2</title>
<path fill="none" stroke="black" d="M1010.1,-227.58C1077.28,-214.54 1251.74,-179.87 1395.84,-144 1401.23,-142.66 1406.86,-141.18 1412.43,-139.66"/>
<polygon fill="black" stroke="black" points="1413.61,-142.96 1422.31,-136.91 1411.74,-136.22 1413.61,-142.96"/>
</g>
<!-- __floatunsidf -->
<g id="node32" class="node">
<title>__floatunsidf</title>
<ellipse fill="none" stroke="black" cx="984.84" cy="-126" rx="59.29" ry="18"/>
<text text-anchor="middle" x="984.84" y="-122.3" font-family="Times New Roman,serif" font-size="14.00">__floatunsidf</text>
</g>
<!-- _ftoa&#45;&gt;__floatunsidf -->
<g id="edge32" class="edge">
<title>_ftoa&#45;&gt;__floatunsidf</title>
<path fill="none" stroke="black" d="M982.33,-215.97C982.8,-199.38 983.52,-173.88 984.07,-154.43"/>
<polygon fill="black" stroke="black" points="987.57,-154.44 984.35,-144.34 980.57,-154.24 987.57,-154.44"/>
</g>
<!-- __fixunsdfsi -->
<g id="node33" class="node">
<title>__fixunsdfsi</title>
<ellipse fill="none" stroke="black" cx="1135.84" cy="-126" rx="55.79" ry="18"/>
<text text-anchor="middle" x="1135.84" y="-122.3" font-family="Times New Roman,serif" font-size="14.00">__fixunsdfsi</text>
</g>
<!-- _ftoa&#45;&gt;__fixunsdfsi -->
<g id="edge35" class="edge">
<title>_ftoa&#45;&gt;__fixunsdfsi</title>
<path fill="none" stroke="black" d="M1000.73,-220C1026.72,-202.11 1073.82,-169.69 1104.98,-148.25"/>
<polygon fill="black" stroke="black" points="1107.05,-151.07 1113.31,-142.51 1103.09,-145.3 1107.05,-151.07"/>
</g>
<!-- __subdf3&#45;&gt;__clzsi2 -->
<g id="edge53" class="edge">
<title>__subdf3&#45;&gt;__clzsi2</title>
<path fill="none" stroke="black" d="M461.84,-107.97C461.84,-91.38 461.84,-65.88 461.84,-46.43"/>
<polygon fill="black" stroke="black" points="465.34,-46.34 461.84,-36.34 458.34,-46.34 465.34,-46.34"/>
</g>
<!-- __floatunsidf&#45;&gt;__clzsi2 -->
<g id="edge55" class="edge">
<title>__floatunsidf&#45;&gt;__clzsi2</title>
<path fill="none" stroke="black" d="M938.46,-114.6C928.38,-112.38 917.76,-110.08 907.84,-108 762.42,-77.44 589.77,-43.71 508.52,-27.99"/>
<polygon fill="black" stroke="black" points="509.09,-24.54 498.61,-26.07 507.76,-31.41 509.09,-24.54"/>
</g>
<!-- _vsnprintf&#45;&gt;_ntoa_long -->
<g id="edge45" class="edge">
<title>_vsnprintf&#45;&gt;_ntoa_long</title>
<path fill="none" stroke="black" d="M1046.2,-433.61C1098.31,-396.07 1232.04,-299.71 1291.99,-256.51"/>
<polygon fill="black" stroke="black" points="1294.21,-259.22 1300.28,-250.54 1290.12,-253.54 1294.21,-259.22"/>
</g>
<!-- _vsnprintf&#45;&gt;_ntoa_long_long -->
<g id="edge42" class="edge">
<title>_vsnprintf&#45;&gt;_ntoa_long_long</title>
<path fill="none" stroke="black" d="M1062.8,-438.84C1071.96,-436.5 1081.73,-434.08 1090.84,-432 1224.86,-401.39 1382.88,-371.25 1470.27,-355.1"/>
<polygon fill="black" stroke="black" points="1471.11,-358.5 1480.31,-353.25 1469.84,-351.62 1471.11,-358.5"/>
</g>
<!-- _vsnprintf&#45;&gt;_etoa -->
<g id="edge43" class="edge">
<title>_vsnprintf&#45;&gt;_etoa</title>
<path fill="none" stroke="black" d="M1011.41,-432.44C997.11,-414.81 974.35,-386.76 958.13,-366.77"/>
<polygon fill="black" stroke="black" points="960.65,-364.32 951.63,-358.75 955.21,-368.73 960.65,-364.32"/>
</g>
<!-- _vsnprintf&#45;&gt;_ftoa -->
<g id="edge44" class="edge">
<title>_vsnprintf&#45;&gt;_ftoa</title>
<path fill="none" stroke="black" d="M1021.4,-431.85C1013.93,-394.66 996.19,-306.37 987.22,-261.77"/>
<polygon fill="black" stroke="black" points="990.65,-261.05 985.25,-251.94 983.79,-262.43 990.65,-261.05"/>
</g>
</g>
</svg>
