<?xml version="1.0" encoding="UTF-8" standalone="no"?>
<!DOCTYPE svg PUBLIC "-//W3C//DTD SVG 1.1//EN"
 "http://www.w3.org/Graphics/SVG/1.1/DTD/svg11.dtd">
<!-- Generated by graphviz version 6.0.2 (20221011.1828)
 -->
<!-- Pages: 1 -->
<svg width="1540pt" height="908pt"
 viewBox="0.00 0.00 1540.24 908.00" xmlns="http://www.w3.org/2000/svg" xmlns:xlink="http://www.w3.org/1999/xlink">
<g id="graph0" class="graph" transform="scale(1 1) rotate(0) translate(4 904)">
<polygon fill="white" stroke="none" points="-4,4 -4,-904 1536.24,-904 1536.24,4 -4,4"/>
<!-- __to_main -->
<g id="node1" class="node">
<title>__to_main</title>
<ellipse fill="none" stroke="black" cx="967.09" cy="-882" rx="50.09" ry="18"/>
<text text-anchor="middle" x="967.09" y="-878.3" font-family="Times New Roman,serif" font-size="14.00">__to_main</text>
</g>
<!-- main -->
<g id="node2" class="node">
<title>main</title>
<ellipse fill="none" stroke="black" cx="967.09" cy="-774" rx="27.9" ry="18"/>
<text text-anchor="middle" x="967.09" y="-770.3" font-family="Times New Roman,serif" font-size="14.00">main</text>
</g>
<!-- __to_main&#45;&gt;main -->
<g id="edge1" class="edge">
<title>__to_main&#45;&gt;main</title>
<path fill="none" stroke="black" d="M967.09,-863.97C967.09,-847.38 967.09,-821.88 967.09,-802.43"/>
<polygon fill="black" stroke="black" points="970.59,-802.34 967.09,-792.34 963.59,-802.34 970.59,-802.34"/>
</g>
<!-- benchmark -->
<g id="node8" class="node">
<title>benchmark</title>
<ellipse fill="none" stroke="black" cx="702.09" cy="-666" rx="50.89" ry="18"/>
<text text-anchor="middle" x="702.09" y="-662.3" font-family="Times New Roman,serif" font-size="14.00">benchmark</text>
</g>
<!-- main&#45;&gt;benchmark -->
<g id="edge15" class="edge">
<title>main&#45;&gt;benchmark</title>
<path fill="none" stroke="black" d="M944.04,-763.78C899.4,-745.92 800.59,-706.4 744.02,-683.77"/>
<polygon fill="black" stroke="black" points="745.23,-680.49 734.65,-680.02 742.63,-686.99 745.23,-680.49"/>
</g>
<!-- ck_uart_open -->
<g id="node14" class="node">
<title>ck_uart_open</title>
<ellipse fill="none" stroke="black" cx="892.09" cy="-666" rx="61.19" ry="18"/>
<text text-anchor="middle" x="892.09" y="-662.3" font-family="Times New Roman,serif" font-size="14.00">ck_uart_open</text>
</g>
<!-- main&#45;&gt;ck_uart_open -->
<g id="edge12" class="edge">
<title>main&#45;&gt;ck_uart_open</title>
<path fill="none" stroke="black" d="M956.03,-757.36C943.89,-740.2 924.23,-712.42 909.91,-692.18"/>
<polygon fill="black" stroke="black" points="912.58,-689.9 903.95,-683.76 906.87,-693.94 912.58,-689.9"/>
</g>
<!-- ck_uart_init -->
<g id="node15" class="node">
<title>ck_uart_init</title>
<ellipse fill="none" stroke="black" cx="1043.09" cy="-666" rx="53.89" ry="18"/>
<text text-anchor="middle" x="1043.09" y="-662.3" font-family="Times New Roman,serif" font-size="14.00">ck_uart_init</text>
</g>
<!-- main&#45;&gt;ck_uart_init -->
<g id="edge13" class="edge">
<title>main&#45;&gt;ck_uart_init</title>
<path fill="none" stroke="black" d="M978.31,-757.36C990.66,-740.13 1010.71,-712.17 1025.23,-691.91"/>
<polygon fill="black" stroke="black" points="1028.1,-693.92 1031.08,-683.76 1022.41,-689.84 1028.1,-693.92"/>
</g>
<!-- puts -->
<g id="node16" class="node">
<title>puts</title>
<ellipse fill="none" stroke="black" cx="1277.09" cy="-666" rx="27" ry="18"/>
<text text-anchor="middle" x="1277.09" y="-662.3" font-family="Times New Roman,serif" font-size="14.00">puts</text>
</g>
<!-- main&#45;&gt;puts -->
<g id="edge14" class="edge">
<title>main&#45;&gt;puts</title>
<path fill="none" stroke="black" d="M991.16,-764.77C1046.14,-745.97 1181.04,-699.84 1243.88,-678.36"/>
<polygon fill="black" stroke="black" points="1245.35,-681.55 1253.68,-675.01 1243.08,-674.93 1245.35,-681.55"/>
</g>
<!-- encfile -->
<g id="node3" class="node">
<title>encfile</title>
<ellipse fill="none" stroke="black" cx="421.09" cy="-558" rx="34.39" ry="18"/>
<text text-anchor="middle" x="421.09" y="-554.3" font-family="Times New Roman,serif" font-size="14.00">encfile</text>
</g>
<!-- encrypt -->
<g id="node4" class="node">
<title>encrypt</title>
<ellipse fill="none" stroke="black" cx="311.09" cy="-450" rx="38.19" ry="18"/>
<text text-anchor="middle" x="311.09" y="-446.3" font-family="Times New Roman,serif" font-size="14.00">encrypt</text>
</g>
<!-- encfile&#45;&gt;encrypt -->
<g id="edge2" class="edge">
<title>encfile&#45;&gt;encrypt</title>
<path fill="none" stroke="black" d="M405.33,-541.81C386.82,-523.97 355.92,-494.19 334.57,-473.62"/>
<polygon fill="black" stroke="black" points="336.81,-470.92 327.18,-466.5 331.96,-475.96 336.81,-470.92"/>
</g>
<!-- fillrand -->
<g id="node5" class="node">
<title>fillrand</title>
<ellipse fill="none" stroke="black" cx="421.09" cy="-450" rx="36" ry="18"/>
<text text-anchor="middle" x="421.09" y="-446.3" font-family="Times New Roman,serif" font-size="14.00">fillrand</text>
</g>
<!-- encfile&#45;&gt;fillrand -->
<g id="edge3" class="edge">
<title>encfile&#45;&gt;fillrand</title>
<path fill="none" stroke="black" d="M421.09,-539.97C421.09,-523.38 421.09,-497.88 421.09,-478.43"/>
<polygon fill="black" stroke="black" points="424.59,-478.34 421.09,-468.34 417.59,-478.34 424.59,-478.34"/>
</g>
<!-- decfile -->
<g id="node6" class="node">
<title>decfile</title>
<ellipse fill="none" stroke="black" cx="528.09" cy="-558" rx="34.39" ry="18"/>
<text text-anchor="middle" x="528.09" y="-554.3" font-family="Times New Roman,serif" font-size="14.00">decfile</text>
</g>
<!-- decfile&#45;&gt;fillrand -->
<g id="edge5" class="edge">
<title>decfile&#45;&gt;fillrand</title>
<path fill="none" stroke="black" d="M512.76,-541.81C494.75,-523.97 464.69,-494.19 443.93,-473.62"/>
<polygon fill="black" stroke="black" points="446.31,-471.06 436.74,-466.5 441.39,-476.03 446.31,-471.06"/>
</g>
<!-- decrypt -->
<g id="node7" class="node">
<title>decrypt</title>
<ellipse fill="none" stroke="black" cx="531.09" cy="-450" rx="38.19" ry="18"/>
<text text-anchor="middle" x="531.09" y="-446.3" font-family="Times New Roman,serif" font-size="14.00">decrypt</text>
</g>
<!-- decfile&#45;&gt;decrypt -->
<g id="edge4" class="edge">
<title>decfile&#45;&gt;decrypt</title>
<path fill="none" stroke="black" d="M528.58,-539.97C529.05,-523.38 529.77,-497.88 530.32,-478.43"/>
<polygon fill="black" stroke="black" points="533.82,-478.44 530.6,-468.34 526.82,-478.24 533.82,-478.44"/>
</g>
<!-- benchmark&#45;&gt;encfile -->
<g id="edge8" class="edge">
<title>benchmark&#45;&gt;encfile</title>
<path fill="none" stroke="black" d="M668.76,-652.42C615.79,-632.44 512.8,-593.59 457.8,-572.85"/>
<polygon fill="black" stroke="black" points="458.7,-569.45 448.11,-569.19 456.23,-576 458.7,-569.45"/>
</g>
<!-- benchmark&#45;&gt;decfile -->
<g id="edge9" class="edge">
<title>benchmark&#45;&gt;decfile</title>
<path fill="none" stroke="black" d="M677.53,-650.04C646.23,-630.97 592.14,-598.02 558.33,-577.42"/>
<polygon fill="black" stroke="black" points="560.15,-574.43 549.79,-572.22 556.51,-580.41 560.15,-574.43"/>
</g>
<!-- set_key -->
<g id="node9" class="node">
<title>set_key</title>
<ellipse fill="none" stroke="black" cx="734.09" cy="-558" rx="38.19" ry="18"/>
<text text-anchor="middle" x="734.09" y="-554.3" font-family="Times New Roman,serif" font-size="14.00">set_key</text>
</g>
<!-- benchmark&#45;&gt;set_key -->
<g id="edge6" class="edge">
<title>benchmark&#45;&gt;set_key</title>
<path fill="none" stroke="black" d="M707.24,-647.97C712.3,-631.2 720.1,-605.34 726,-585.81"/>
<polygon fill="black" stroke="black" points="729.43,-586.57 728.97,-575.99 722.73,-584.55 729.43,-586.57"/>
</g>
<!-- memset -->
<g id="node10" class="node">
<title>memset</title>
<ellipse fill="none" stroke="black" cx="847.09" cy="-558" rx="38.19" ry="18"/>
<text text-anchor="middle" x="847.09" y="-554.3" font-family="Times New Roman,serif" font-size="14.00">memset</text>
</g>
<!-- benchmark&#45;&gt;memset -->
<g id="edge7" class="edge">
<title>benchmark&#45;&gt;memset</title>
<path fill="none" stroke="black" d="M723.18,-649.59C748.38,-631.17 790.65,-600.26 818.7,-579.75"/>
<polygon fill="black" stroke="black" points="820.91,-582.48 826.92,-573.75 816.78,-576.82 820.91,-582.48"/>
</g>
<!-- printf -->
<g id="node11" class="node">
<title>printf</title>
<ellipse fill="none" stroke="black" cx="629.09" cy="-558" rx="30.59" ry="18"/>
<text text-anchor="middle" x="629.09" y="-554.3" font-family="Times New Roman,serif" font-size="14.00">printf</text>
</g>
<!-- benchmark&#45;&gt;printf -->
<g id="edge10" class="edge">
<title>benchmark&#45;&gt;printf</title>
<path fill="none" stroke="black" d="M690.69,-648.44C678.67,-630.99 659.62,-603.33 645.89,-583.39"/>
<polygon fill="black" stroke="black" points="648.74,-581.35 640.18,-575.1 642.97,-585.32 648.74,-581.35"/>
</g>
<!-- _vsnprintf -->
<g id="node37" class="node">
<title>_vsnprintf</title>
<ellipse fill="none" stroke="black" cx="653.09" cy="-450" rx="48.19" ry="18"/>
<text text-anchor="middle" x="653.09" y="-446.3" font-family="Times New Roman,serif" font-size="14.00">_vsnprintf</text>
</g>
<!-- printf&#45;&gt;_vsnprintf -->
<g id="edge49" class="edge">
<title>printf&#45;&gt;_vsnprintf</title>
<path fill="none" stroke="black" d="M632.95,-539.97C636.75,-523.2 642.6,-497.34 647.02,-477.81"/>
<polygon fill="black" stroke="black" points="650.45,-478.51 649.25,-467.99 643.63,-476.97 650.45,-478.51"/>
</g>
<!-- fputc -->
<g id="node12" class="node">
<title>fputc</title>
<ellipse fill="none" stroke="black" cx="1363.09" cy="-558" rx="29.8" ry="18"/>
<text text-anchor="middle" x="1363.09" y="-554.3" font-family="Times New Roman,serif" font-size="14.00">fputc</text>
</g>
<!-- &lt;ck_uart_putc&gt; * -->
<g id="node13" class="node">
<title>&lt;ck_uart_putc&gt; *</title>
<ellipse fill="none" stroke="black" cx="1363.09" cy="-450" rx="76.89" ry="18"/>
<text text-anchor="middle" x="1363.09" y="-446.3" font-family="Times New Roman,serif" font-size="14.00">&lt;ck_uart_putc&gt; *</text>
</g>
<!-- fputc&#45;&gt;&lt;ck_uart_putc&gt; * -->
<g id="edge11" class="edge">
<title>fputc&#45;&gt;&lt;ck_uart_putc&gt; *</title>
<path fill="none" stroke="black" d="M1363.09,-539.97C1363.09,-523.38 1363.09,-497.88 1363.09,-478.43"/>
<polygon fill="black" stroke="black" points="1366.59,-478.34 1363.09,-468.34 1359.59,-478.34 1366.59,-478.34"/>
</g>
<!-- ck_uart_set_wordsize -->
<g id="node38" class="node">
<title>ck_uart_set_wordsize</title>
<ellipse fill="none" stroke="black" cx="1012.09" cy="-558" rx="90.98" ry="18"/>
<text text-anchor="middle" x="1012.09" y="-554.3" font-family="Times New Roman,serif" font-size="14.00">ck_uart_set_wordsize</text>
</g>
<!-- ck_uart_init&#45;&gt;ck_uart_set_wordsize -->
<g id="edge50" class="edge">
<title>ck_uart_init&#45;&gt;ck_uart_set_wordsize</title>
<path fill="none" stroke="black" d="M1038.11,-647.97C1033.21,-631.2 1025.65,-605.34 1019.94,-585.81"/>
<polygon fill="black" stroke="black" points="1023.23,-584.6 1017.06,-575.99 1016.51,-586.57 1023.23,-584.6"/>
</g>
<!-- ck_uart_set_parity -->
<g id="node39" class="node">
<title>ck_uart_set_parity</title>
<ellipse fill="none" stroke="black" cx="1218.09" cy="-558" rx="78.79" ry="18"/>
<text text-anchor="middle" x="1218.09" y="-554.3" font-family="Times New Roman,serif" font-size="14.00">ck_uart_set_parity</text>
</g>
<!-- ck_uart_init&#45;&gt;ck_uart_set_parity -->
<g id="edge51" class="edge">
<title>ck_uart_init&#45;&gt;ck_uart_set_parity</title>
<path fill="none" stroke="black" d="M1068.17,-649.81C1098.27,-631.58 1148.95,-600.88 1182.95,-580.29"/>
<polygon fill="black" stroke="black" points="1184.9,-583.2 1191.64,-575.03 1181.27,-577.21 1184.9,-583.2"/>
</g>
<!-- puts&#45;&gt;fputc -->
<g id="edge48" class="edge">
<title>puts&#45;&gt;fputc</title>
<path fill="none" stroke="black" d="M1289.42,-649.81C1303.7,-632.2 1327.42,-602.97 1344.08,-582.44"/>
<polygon fill="black" stroke="black" points="1346.93,-584.47 1350.52,-574.5 1341.5,-580.06 1346.93,-584.47"/>
</g>
<!-- _ntoa_format -->
<g id="node17" class="node">
<title>_ntoa_format</title>
<ellipse fill="none" stroke="black" cx="61.09" cy="-126" rx="59.59" ry="18"/>
<text text-anchor="middle" x="61.09" y="-122.3" font-family="Times New Roman,serif" font-size="14.00">_ntoa_format</text>
</g>
<!-- &lt;_out_rev&gt; * -->
<g id="node18" class="node">
<title>&lt;_out_rev&gt; *</title>
<ellipse fill="none" stroke="black" cx="61.09" cy="-18" rx="61.19" ry="18"/>
<text text-anchor="middle" x="61.09" y="-14.3" font-family="Times New Roman,serif" font-size="14.00">&lt;_out_rev&gt; *</text>
</g>
<!-- _ntoa_format&#45;&gt;&lt;_out_rev&gt; * -->
<g id="edge16" class="edge">
<title>_ntoa_format&#45;&gt;&lt;_out_rev&gt; *</title>
<path fill="none" stroke="black" d="M61.09,-107.97C61.09,-91.38 61.09,-65.88 61.09,-46.43"/>
<polygon fill="black" stroke="black" points="64.59,-46.34 61.09,-36.34 57.59,-46.34 64.59,-46.34"/>
</g>
<!-- _out_rev -->
<g id="node19" class="node">
<title>_out_rev</title>
<ellipse fill="none" stroke="black" cx="313.09" cy="-18" rx="43.59" ry="18"/>
<text text-anchor="middle" x="313.09" y="-14.3" font-family="Times New Roman,serif" font-size="14.00">_out_rev</text>
</g>
<!-- _ntoa_format&#45;&gt;_out_rev -->
<g id="edge17" class="edge">
<title>_ntoa_format&#45;&gt;_out_rev</title>
<path fill="none" stroke="black" d="M94.56,-110.92C141.12,-91.34 225.27,-55.94 274.45,-35.25"/>
<polygon fill="black" stroke="black" points="275.94,-38.42 283.8,-31.32 273.23,-31.97 275.94,-38.42"/>
</g>
<!-- _ntoa_long -->
<g id="node20" class="node">
<title>_ntoa_long</title>
<ellipse fill="none" stroke="black" cx="526.09" cy="-234" rx="51.99" ry="18"/>
<text text-anchor="middle" x="526.09" y="-230.3" font-family="Times New Roman,serif" font-size="14.00">_ntoa_long</text>
</g>
<!-- _ntoa_long&#45;&gt;_ntoa_format -->
<g id="edge18" class="edge">
<title>_ntoa_long&#45;&gt;_ntoa_format</title>
<path fill="none" stroke="black" d="M484.01,-223.41C399.99,-204.25 211.47,-161.28 117.11,-139.77"/>
<polygon fill="black" stroke="black" points="117.71,-136.32 107.18,-137.51 116.16,-143.14 117.71,-136.32"/>
</g>
<!-- _ntoa_long_long -->
<g id="node21" class="node">
<title>_ntoa_long_long</title>
<ellipse fill="none" stroke="black" cx="226.09" cy="-342" rx="72.29" ry="18"/>
<text text-anchor="middle" x="226.09" y="-338.3" font-family="Times New Roman,serif" font-size="14.00">_ntoa_long_long</text>
</g>
<!-- _ntoa_long_long&#45;&gt;_ntoa_format -->
<g id="edge20" class="edge">
<title>_ntoa_long_long&#45;&gt;_ntoa_format</title>
<path fill="none" stroke="black" d="M214.94,-324.04C198.71,-299.63 167.35,-253.43 138.09,-216 120.42,-193.38 98.96,-168.79 83.18,-151.2"/>
<polygon fill="black" stroke="black" points="85.67,-148.72 76.37,-143.64 80.47,-153.41 85.67,-148.72"/>
</g>
<!-- __udivdi3 -->
<g id="node22" class="node">
<title>__udivdi3</title>
<ellipse fill="none" stroke="black" cx="277.09" cy="-234" rx="47.39" ry="18"/>
<text text-anchor="middle" x="277.09" y="-230.3" font-family="Times New Roman,serif" font-size="14.00">__udivdi3</text>
</g>
<!-- _ntoa_long_long&#45;&gt;__udivdi3 -->
<g id="edge19" class="edge">
<title>_ntoa_long_long&#45;&gt;__udivdi3</title>
<path fill="none" stroke="black" d="M234.29,-323.97C242.47,-306.97 255.14,-280.62 264.58,-261.01"/>
<polygon fill="black" stroke="black" points="267.74,-262.52 268.92,-251.99 261.43,-259.48 267.74,-262.52"/>
</g>
<!-- __umoddi3 -->
<g id="node23" class="node">
<title>__umoddi3</title>
<ellipse fill="none" stroke="black" cx="67.09" cy="-234" rx="52.79" ry="18"/>
<text text-anchor="middle" x="67.09" y="-230.3" font-family="Times New Roman,serif" font-size="14.00">__umoddi3</text>
</g>
<!-- _ntoa_long_long&#45;&gt;__umoddi3 -->
<g id="edge21" class="edge">
<title>_ntoa_long_long&#45;&gt;__umoddi3</title>
<path fill="none" stroke="black" d="M201.95,-324.9C174.35,-306.5 129.09,-276.33 98.71,-256.08"/>
<polygon fill="black" stroke="black" points="100.44,-253.02 90.18,-250.39 96.56,-258.85 100.44,-253.02"/>
</g>
<!-- _etoa -->
<g id="node24" class="node">
<title>_etoa</title>
<ellipse fill="none" stroke="black" cx="877.09" cy="-342" rx="30.59" ry="18"/>
<text text-anchor="middle" x="877.09" y="-338.3" font-family="Times New Roman,serif" font-size="14.00">_etoa</text>
</g>
<!-- _etoa&#45;&gt;_ntoa_long -->
<g id="edge25" class="edge">
<title>_etoa&#45;&gt;_ntoa_long</title>
<path fill="none" stroke="black" d="M850.42,-332.95C791.25,-315.07 648.3,-271.9 573.5,-249.32"/>
<polygon fill="black" stroke="black" points="574.44,-245.94 563.86,-246.4 572.42,-252.65 574.44,-245.94"/>
</g>
<!-- __subdf3 -->
<g id="node25" class="node">
<title>__subdf3</title>
<ellipse fill="none" stroke="black" cx="1075.09" cy="-126" rx="46.29" ry="18"/>
<text text-anchor="middle" x="1075.09" y="-122.3" font-family="Times New Roman,serif" font-size="14.00">__subdf3</text>
</g>
<!-- _etoa&#45;&gt;__subdf3 -->
<g id="edge22" class="edge">
<title>_etoa&#45;&gt;__subdf3</title>
<path fill="none" stroke="black" d="M891.02,-325.95C924.98,-289.24 1012.29,-194.88 1053.26,-150.6"/>
<polygon fill="black" stroke="black" points="1055.89,-152.91 1060.11,-143.19 1050.75,-148.15 1055.89,-152.91"/>
</g>
<!-- __ledf2 -->
<g id="node26" class="node">
<title>__ledf2</title>
<ellipse fill="none" stroke="black" cx="195.09" cy="-126" rx="38.19" ry="18"/>
<text text-anchor="middle" x="195.09" y="-122.3" font-family="Times New Roman,serif" font-size="14.00">__ledf2</text>
</g>
<!-- _etoa&#45;&gt;__ledf2 -->
<g id="edge23" class="edge">
<title>_etoa&#45;&gt;__ledf2</title>
<path fill="none" stroke="black" d="M851.34,-332.12C809.51,-317.38 724.61,-286.08 656.09,-252 628.25,-238.15 625.05,-227.33 596.09,-216 450.23,-158.91 402.85,-182.79 251.09,-144 246.06,-142.71 240.79,-141.26 235.6,-139.76"/>
<polygon fill="black" stroke="black" points="236.35,-136.33 225.77,-136.85 234.36,-143.04 236.35,-136.33"/>
</g>
<!-- __eqdf2 -->
<g id="node27" class="node">
<title>__eqdf2</title>
<ellipse fill="none" stroke="black" cx="951.09" cy="-126" rx="41.69" ry="18"/>
<text text-anchor="middle" x="951.09" y="-122.3" font-family="Times New Roman,serif" font-size="14.00">__eqdf2</text>
</g>
<!-- _etoa&#45;&gt;__eqdf2 -->
<g id="edge24" class="edge">
<title>_etoa&#45;&gt;__eqdf2</title>
<path fill="none" stroke="black" d="M882.9,-324.21C895.7,-287.19 926.44,-198.3 941.89,-153.6"/>
<polygon fill="black" stroke="black" points="945.25,-154.61 945.21,-144.01 938.64,-152.32 945.25,-154.61"/>
</g>
<!-- _ftoa -->
<g id="node28" class="node">
<title>_ftoa</title>
<ellipse fill="none" stroke="black" cx="792.09" cy="-234" rx="29.8" ry="18"/>
<text text-anchor="middle" x="792.09" y="-230.3" font-family="Times New Roman,serif" font-size="14.00">_ftoa</text>
</g>
<!-- _etoa&#45;&gt;_ftoa -->
<g id="edge26" class="edge">
<title>_etoa&#45;&gt;_ftoa</title>
<path fill="none" stroke="black" d="M857.44,-328C839.34,-311.27 814.88,-281.8 800.82,-260.52"/>
<polygon fill="black" stroke="black" points="803.74,-258.59 795.48,-251.96 797.8,-262.29 803.74,-258.59"/>
</g>
<!-- __divdf3 -->
<g id="node29" class="node">
<title>__divdf3</title>
<ellipse fill="none" stroke="black" cx="1356.09" cy="-234" rx="44.39" ry="18"/>
<text text-anchor="middle" x="1356.09" y="-230.3" font-family="Times New Roman,serif" font-size="14.00">__divdf3</text>
</g>
<!-- _etoa&#45;&gt;__divdf3 -->
<g id="edge27" class="edge">
<title>_etoa&#45;&gt;__divdf3</title>
<path fill="none" stroke="black" d="M905.27,-334.76C984.39,-317.26 1209.27,-267.49 1308.29,-245.58"/>
<polygon fill="black" stroke="black" points="1309.31,-248.94 1318.32,-243.36 1307.8,-242.1 1309.31,-248.94"/>
</g>
<!-- __floatsidf -->
<g id="node30" class="node">
<title>__floatsidf</title>
<ellipse fill="none" stroke="black" cx="319.09" cy="-126" rx="50.09" ry="18"/>
<text text-anchor="middle" x="319.09" y="-122.3" font-family="Times New Roman,serif" font-size="14.00">__floatsidf</text>
</g>
<!-- _etoa&#45;&gt;__floatsidf -->
<g id="edge28" class="edge">
<title>_etoa&#45;&gt;__floatsidf</title>
<path fill="none" stroke="black" d="M858.34,-327.79C821.94,-302.68 738.45,-247.76 661.09,-216 608.38,-194.36 452.11,-157.26 370.31,-138.54"/>
<polygon fill="black" stroke="black" points="371,-135.11 360.48,-136.29 369.45,-141.93 371,-135.11"/>
</g>
<!-- __muldf3 -->
<g id="node31" class="node">
<title>__muldf3</title>
<ellipse fill="none" stroke="black" cx="827.09" cy="-126" rx="46.29" ry="18"/>
<text text-anchor="middle" x="827.09" y="-122.3" font-family="Times New Roman,serif" font-size="14.00">__muldf3</text>
</g>
<!-- _etoa&#45;&gt;__muldf3 -->
<g id="edge29" class="edge">
<title>_etoa&#45;&gt;__muldf3</title>
<path fill="none" stroke="black" d="M873.09,-323.85C864.4,-286.66 843.77,-198.37 833.35,-153.77"/>
<polygon fill="black" stroke="black" points="836.73,-152.88 831.05,-143.94 829.92,-154.47 836.73,-152.88"/>
</g>
<!-- __adddf3 -->
<g id="node32" class="node">
<title>__adddf3</title>
<ellipse fill="none" stroke="black" cx="1486.09" cy="-234" rx="46.29" ry="18"/>
<text text-anchor="middle" x="1486.09" y="-230.3" font-family="Times New Roman,serif" font-size="14.00">__adddf3</text>
</g>
<!-- _etoa&#45;&gt;__adddf3 -->
<g id="edge30" class="edge">
<title>_etoa&#45;&gt;__adddf3</title>
<path fill="none" stroke="black" d="M906.57,-337.02C988.24,-325.8 1224.21,-292.11 1418.09,-252 1424.9,-250.59 1432.05,-248.97 1439.06,-247.29"/>
<polygon fill="black" stroke="black" points="1440.28,-250.59 1449.16,-244.82 1438.62,-243.79 1440.28,-250.59"/>
</g>
<!-- __fixdfsi -->
<g id="node33" class="node">
<title>__fixdfsi</title>
<ellipse fill="none" stroke="black" cx="1201.09" cy="-126" rx="43.59" ry="18"/>
<text text-anchor="middle" x="1201.09" y="-122.3" font-family="Times New Roman,serif" font-size="14.00">__fixdfsi</text>
</g>
<!-- _etoa&#45;&gt;__fixdfsi -->
<g id="edge31" class="edge">
<title>_etoa&#45;&gt;__fixdfsi</title>
<path fill="none" stroke="black" d="M896.87,-327.94C951.46,-291.88 1104.52,-190.78 1170.36,-147.3"/>
<polygon fill="black" stroke="black" points="1172.63,-149.99 1179.05,-141.56 1168.77,-144.15 1172.63,-149.99"/>
</g>
<!-- __gedf2 -->
<g id="node34" class="node">
<title>__gedf2</title>
<ellipse fill="none" stroke="black" cx="1321.09" cy="-126" rx="40.89" ry="18"/>
<text text-anchor="middle" x="1321.09" y="-122.3" font-family="Times New Roman,serif" font-size="14.00">__gedf2</text>
</g>
<!-- _etoa&#45;&gt;__gedf2 -->
<g id="edge32" class="edge">
<title>_etoa&#45;&gt;__gedf2</title>
<path fill="none" stroke="black" d="M900.56,-330.18C936.51,-313.57 1007.33,-280.7 1067.09,-252 1145.39,-214.4 1236.63,-169.15 1285.63,-144.72"/>
<polygon fill="black" stroke="black" points="1287.46,-147.72 1294.85,-140.12 1284.34,-141.45 1287.46,-147.72"/>
</g>
<!-- __clzsi2 -->
<g id="node40" class="node">
<title>__clzsi2</title>
<ellipse fill="none" stroke="black" cx="951.09" cy="-18" rx="40.89" ry="18"/>
<text text-anchor="middle" x="951.09" y="-14.3" font-family="Times New Roman,serif" font-size="14.00">__clzsi2</text>
</g>
<!-- __subdf3&#45;&gt;__clzsi2 -->
<g id="edge55" class="edge">
<title>__subdf3&#45;&gt;__clzsi2</title>
<path fill="none" stroke="black" d="M1056.8,-109.36C1035.61,-91.25 1000.58,-61.3 976.7,-40.89"/>
<polygon fill="black" stroke="black" points="978.94,-38.2 969.06,-34.36 974.39,-43.52 978.94,-38.2"/>
</g>
<!-- _ftoa&#45;&gt;_out_rev -->
<g id="edge43" class="edge">
<title>_ftoa&#45;&gt;_out_rev</title>
<path fill="none" stroke="black" d="M766.04,-225.03C756.35,-222.12 745.24,-218.84 735.09,-216 613.86,-182 572.83,-202.05 461.09,-144 410.08,-117.5 361.21,-70.66 334.36,-42.46"/>
<polygon fill="black" stroke="black" points="336.79,-39.92 327.39,-35.03 331.68,-44.71 336.79,-39.92"/>
</g>
<!-- _ftoa&#45;&gt;_etoa -->
<g id="edge39" class="edge">
<title>_ftoa&#45;&gt;_etoa</title>
<path fill="none" stroke="black" d="M811.73,-247.98C829.8,-264.69 854.24,-294.12 868.32,-315.41"/>
<polygon fill="black" stroke="black" points="865.4,-317.34 873.67,-323.97 871.34,-313.63 865.4,-317.34"/>
</g>
<!-- _ftoa&#45;&gt;__subdf3 -->
<g id="edge33" class="edge">
<title>_ftoa&#45;&gt;__subdf3</title>
<path fill="none" stroke="black" d="M816.71,-223.78C865.25,-205.6 973.74,-164.96 1033.55,-142.56"/>
<polygon fill="black" stroke="black" points="1034.93,-145.78 1043.07,-139 1032.48,-139.23 1034.93,-145.78"/>
</g>
<!-- _ftoa&#45;&gt;__ledf2 -->
<g id="edge34" class="edge">
<title>_ftoa&#45;&gt;__ledf2</title>
<path fill="none" stroke="black" d="M763.26,-228.77C666.06,-214.43 350.98,-167.27 251.09,-144 246.03,-142.82 240.75,-141.43 235.55,-139.97"/>
<polygon fill="black" stroke="black" points="236.29,-136.54 225.71,-137.09 234.32,-143.26 236.29,-136.54"/>
</g>
<!-- _ftoa&#45;&gt;__eqdf2 -->
<g id="edge35" class="edge">
<title>_ftoa&#45;&gt;__eqdf2</title>
<path fill="none" stroke="black" d="M811.59,-220C838.88,-201.81 888.71,-168.59 920.84,-147.17"/>
<polygon fill="black" stroke="black" points="923.02,-149.92 929.4,-141.46 919.14,-144.1 923.02,-149.92"/>
</g>
<!-- _ftoa&#45;&gt;__floatsidf -->
<g id="edge37" class="edge">
<title>_ftoa&#45;&gt;__floatsidf</title>
<path fill="none" stroke="black" d="M766.11,-224.77C756.42,-221.83 745.3,-218.6 735.09,-216 585.84,-177.96 546.63,-176.6 396.09,-144 387.82,-142.21 379.06,-140.29 370.52,-138.41"/>
<polygon fill="black" stroke="black" points="371.16,-134.97 360.64,-136.24 369.65,-141.81 371.16,-134.97"/>
</g>
<!-- _ftoa&#45;&gt;__muldf3 -->
<g id="edge38" class="edge">
<title>_ftoa&#45;&gt;__muldf3</title>
<path fill="none" stroke="black" d="M797.72,-215.97C803.28,-199.12 811.87,-173.1 818.33,-153.54"/>
<polygon fill="black" stroke="black" points="821.67,-154.58 821.49,-143.99 815.03,-152.39 821.67,-154.58"/>
</g>
<!-- _ftoa&#45;&gt;__fixdfsi -->
<g id="edge41" class="edge">
<title>_ftoa&#45;&gt;__fixdfsi</title>
<path fill="none" stroke="black" d="M819.13,-226.23C877.58,-211.55 1020.07,-175.58 1139.09,-144 1144.69,-142.51 1150.57,-140.93 1156.38,-139.36"/>
<polygon fill="black" stroke="black" points="1157.31,-142.73 1166.04,-136.72 1155.47,-135.98 1157.31,-142.73"/>
</g>
<!-- _ftoa&#45;&gt;__gedf2 -->
<g id="edge42" class="edge">
<title>_ftoa&#45;&gt;__gedf2</title>
<path fill="none" stroke="black" d="M820.71,-228.6C894.48,-217.04 1097.02,-183.93 1263.09,-144 1268.19,-142.77 1273.51,-141.38 1278.77,-139.93"/>
<polygon fill="black" stroke="black" points="1280.07,-143.2 1288.73,-137.1 1278.15,-136.46 1280.07,-143.2"/>
</g>
<!-- __floatunsidf -->
<g id="node35" class="node">
<title>__floatunsidf</title>
<ellipse fill="none" stroke="black" cx="686.09" cy="-126" rx="59.29" ry="18"/>
<text text-anchor="middle" x="686.09" y="-122.3" font-family="Times New Roman,serif" font-size="14.00">__floatunsidf</text>
</g>
<!-- _ftoa&#45;&gt;__floatunsidf -->
<g id="edge36" class="edge">
<title>_ftoa&#45;&gt;__floatunsidf</title>
<path fill="none" stroke="black" d="M777.36,-218.26C759.83,-200.73 730.34,-171.24 709.64,-150.54"/>
<polygon fill="black" stroke="black" points="711.99,-147.95 702.45,-143.35 707.04,-152.9 711.99,-147.95"/>
</g>
<!-- __fixunsdfsi -->
<g id="node36" class="node">
<title>__fixunsdfsi</title>
<ellipse fill="none" stroke="black" cx="535.09" cy="-126" rx="55.79" ry="18"/>
<text text-anchor="middle" x="535.09" y="-122.3" font-family="Times New Roman,serif" font-size="14.00">__fixunsdfsi</text>
</g>
<!-- _ftoa&#45;&gt;__fixunsdfsi -->
<g id="edge40" class="edge">
<title>_ftoa&#45;&gt;__fixunsdfsi</title>
<path fill="none" stroke="black" d="M767.92,-223.03C724.3,-205.04 631.95,-166.95 577.58,-144.52"/>
<polygon fill="black" stroke="black" points="578.8,-141.24 568.22,-140.66 576.13,-147.71 578.8,-141.24"/>
</g>
<!-- __divdf3&#45;&gt;__clzsi2 -->
<g id="edge53" class="edge">
<title>__divdf3&#45;&gt;__clzsi2</title>
<path fill="none" stroke="black" d="M1366.81,-216.38C1382.13,-190.31 1405.76,-139.54 1380.09,-108 1332.86,-49.96 1104.85,-28.57 1001.82,-21.77"/>
<polygon fill="black" stroke="black" points="1001.86,-18.27 991.66,-21.12 1001.41,-25.25 1001.86,-18.27"/>
</g>
<!-- __floatsidf&#45;&gt;__clzsi2 -->
<g id="edge56" class="edge">
<title>__floatsidf&#45;&gt;__clzsi2</title>
<path fill="none" stroke="black" d="M363.54,-117.55C478.49,-98.27 784.94,-46.87 903.41,-27"/>
<polygon fill="black" stroke="black" points="904.33,-30.39 913.61,-25.29 903.17,-23.49 904.33,-30.39"/>
</g>
<!-- __muldf3&#45;&gt;__clzsi2 -->
<g id="edge54" class="edge">
<title>__muldf3&#45;&gt;__clzsi2</title>
<path fill="none" stroke="black" d="M845.39,-109.36C866.58,-91.25 901.61,-61.3 925.49,-40.89"/>
<polygon fill="black" stroke="black" points="927.8,-43.52 933.13,-34.36 923.25,-38.2 927.8,-43.52"/>
</g>
<!-- __adddf3&#45;&gt;__clzsi2 -->
<g id="edge52" class="edge">
<title>__adddf3&#45;&gt;__clzsi2</title>
<path fill="none" stroke="black" d="M1481.12,-215.69C1472.26,-188.18 1451.03,-134.87 1413.09,-108 1347.05,-61.22 1106.45,-33.54 1001.09,-23.41"/>
<polygon fill="black" stroke="black" points="1001.31,-19.92 991.02,-22.46 1000.65,-26.89 1001.31,-19.92"/>
</g>
<!-- __floatunsidf&#45;&gt;__clzsi2 -->
<g id="edge57" class="edge">
<title>__floatunsidf&#45;&gt;__clzsi2</title>
<path fill="none" stroke="black" d="M720.47,-111.25C769.8,-91.52 860.44,-55.26 912.18,-34.57"/>
<polygon fill="black" stroke="black" points="913.69,-37.73 921.67,-30.77 911.09,-31.23 913.69,-37.73"/>
</g>
<!-- _vsnprintf&#45;&gt;_ntoa_long -->
<g id="edge46" class="edge">
<title>_vsnprintf&#45;&gt;_ntoa_long</title>
<path fill="none" stroke="black" d="M643.13,-432.21C620.96,-394.86 567.48,-304.73 541.19,-260.43"/>
<polygon fill="black" stroke="black" points="544.13,-258.53 536.01,-251.71 538.11,-262.1 544.13,-258.53"/>
</g>
<!-- _vsnprintf&#45;&gt;_ntoa_long_long -->
<g id="edge45" class="edge">
<title>_vsnprintf&#45;&gt;_ntoa_long_long</title>
<path fill="none" stroke="black" d="M614.72,-439.04C605.67,-436.71 596.04,-434.26 587.09,-432 480.98,-405.25 357.1,-374.9 285.52,-357.45"/>
<polygon fill="black" stroke="black" points="286.31,-354.04 275.77,-355.07 284.66,-360.84 286.31,-354.04"/>
</g>
<!-- _vsnprintf&#45;&gt;_etoa -->
<g id="edge44" class="edge">
<title>_vsnprintf&#45;&gt;_etoa</title>
<path fill="none" stroke="black" d="M681.92,-435.36C723.75,-415.56 801.05,-378.99 844.77,-358.3"/>
<polygon fill="black" stroke="black" points="846.28,-361.46 853.82,-354.01 843.28,-355.13 846.28,-361.46"/>
</g>
<!-- _vsnprintf&#45;&gt;_ftoa -->
<g id="edge47" class="edge">
<title>_vsnprintf&#45;&gt;_ftoa</title>
<path fill="none" stroke="black" d="M664,-432.21C688.38,-394.68 747.38,-303.84 776,-259.78"/>
<polygon fill="black" stroke="black" points="779.11,-261.42 781.62,-251.13 773.24,-257.61 779.11,-261.42"/>
</g>
</g>
</svg>
