<?xml version="1.0" encoding="UTF-8" standalone="no"?>
<!DOCTYPE svg PUBLIC "-//W3C//DTD SVG 1.1//EN"
 "http://www.w3.org/Graphics/SVG/1.1/DTD/svg11.dtd">
<!-- Generated by graphviz version 6.0.2 (20221011.1828)
 -->
<!-- Pages: 1 -->
<svg width="1836pt" height="908pt"
 viewBox="0.00 0.00 1835.79 908.00" xmlns="http://www.w3.org/2000/svg" xmlns:xlink="http://www.w3.org/1999/xlink">
<g id="graph0" class="graph" transform="scale(1 1) rotate(0) translate(4 904)">
<polygon fill="white" stroke="none" points="-4,4 -4,-904 1831.79,-904 1831.79,4 -4,4"/>
<!-- __to_main -->
<g id="node1" class="node">
<title>__to_main</title>
<ellipse fill="none" stroke="black" cx="1370.45" cy="-882" rx="50.09" ry="18"/>
<text text-anchor="middle" x="1370.45" y="-878.3" font-family="Times New Roman,serif" font-size="14.00">__to_main</text>
</g>
<!-- main -->
<g id="node2" class="node">
<title>main</title>
<ellipse fill="none" stroke="black" cx="1370.45" cy="-774" rx="27.9" ry="18"/>
<text text-anchor="middle" x="1370.45" y="-770.3" font-family="Times New Roman,serif" font-size="14.00">main</text>
</g>
<!-- __to_main&#45;&gt;main -->
<g id="edge1" class="edge">
<title>__to_main&#45;&gt;main</title>
<path fill="none" stroke="black" d="M1370.45,-863.97C1370.45,-847.38 1370.45,-821.88 1370.45,-802.43"/>
<polygon fill="black" stroke="black" points="1373.95,-802.34 1370.45,-792.34 1366.95,-802.34 1373.95,-802.34"/>
</g>
<!-- benchmark -->
<g id="node8" class="node">
<title>benchmark</title>
<ellipse fill="none" stroke="black" cx="950.45" cy="-666" rx="50.89" ry="18"/>
<text text-anchor="middle" x="950.45" y="-662.3" font-family="Times New Roman,serif" font-size="14.00">benchmark</text>
</g>
<!-- main&#45;&gt;benchmark -->
<g id="edge12" class="edge">
<title>main&#45;&gt;benchmark</title>
<path fill="none" stroke="black" d="M1344.81,-766.53C1276.72,-749.35 1090.47,-702.34 1000.46,-679.62"/>
<polygon fill="black" stroke="black" points="1001.05,-676.16 990.49,-677.11 999.33,-682.95 1001.05,-676.16"/>
</g>
<!-- ck_uart_init -->
<g id="node14" class="node">
<title>ck_uart_init</title>
<ellipse fill="none" stroke="black" cx="1295.45" cy="-666" rx="53.89" ry="18"/>
<text text-anchor="middle" x="1295.45" y="-662.3" font-family="Times New Roman,serif" font-size="14.00">ck_uart_init</text>
</g>
<!-- main&#45;&gt;ck_uart_init -->
<g id="edge13" class="edge">
<title>main&#45;&gt;ck_uart_init</title>
<path fill="none" stroke="black" d="M1359.38,-757.36C1347.24,-740.2 1327.58,-712.42 1313.26,-692.18"/>
<polygon fill="black" stroke="black" points="1315.93,-689.9 1307.3,-683.76 1310.22,-693.94 1315.93,-689.9"/>
</g>
<!-- ck_uart_open -->
<g id="node15" class="node">
<title>ck_uart_open</title>
<ellipse fill="none" stroke="black" cx="1446.45" cy="-666" rx="61.19" ry="18"/>
<text text-anchor="middle" x="1446.45" y="-662.3" font-family="Times New Roman,serif" font-size="14.00">ck_uart_open</text>
</g>
<!-- main&#45;&gt;ck_uart_open -->
<g id="edge14" class="edge">
<title>main&#45;&gt;ck_uart_open</title>
<path fill="none" stroke="black" d="M1381.66,-757.36C1394.02,-740.13 1414.06,-712.17 1428.58,-691.91"/>
<polygon fill="black" stroke="black" points="1431.45,-693.92 1434.43,-683.76 1425.76,-689.84 1431.45,-693.92"/>
</g>
<!-- puts -->
<g id="node16" class="node">
<title>puts</title>
<ellipse fill="none" stroke="black" cx="1608.45" cy="-666" rx="27" ry="18"/>
<text text-anchor="middle" x="1608.45" y="-662.3" font-family="Times New Roman,serif" font-size="14.00">puts</text>
</g>
<!-- main&#45;&gt;puts -->
<g id="edge15" class="edge">
<title>main&#45;&gt;puts</title>
<path fill="none" stroke="black" d="M1392.84,-763.03C1435.49,-744.03 1528.48,-702.62 1577.22,-680.91"/>
<polygon fill="black" stroke="black" points="1578.92,-683.98 1586.63,-676.72 1576.07,-677.59 1578.92,-683.98"/>
</g>
<!-- encfile -->
<g id="node3" class="node">
<title>encfile</title>
<ellipse fill="none" stroke="black" cx="897.45" cy="-558" rx="34.39" ry="18"/>
<text text-anchor="middle" x="897.45" y="-554.3" font-family="Times New Roman,serif" font-size="14.00">encfile</text>
</g>
<!-- encrypt -->
<g id="node4" class="node">
<title>encrypt</title>
<ellipse fill="none" stroke="black" cx="849.45" cy="-450" rx="38.19" ry="18"/>
<text text-anchor="middle" x="849.45" y="-446.3" font-family="Times New Roman,serif" font-size="14.00">encrypt</text>
</g>
<!-- encfile&#45;&gt;encrypt -->
<g id="edge2" class="edge">
<title>encfile&#45;&gt;encrypt</title>
<path fill="none" stroke="black" d="M889.73,-539.97C882.07,-523.05 870.21,-496.86 861.34,-477.28"/>
<polygon fill="black" stroke="black" points="864.45,-475.65 857.14,-467.99 858.08,-478.54 864.45,-475.65"/>
</g>
<!-- fillrand -->
<g id="node5" class="node">
<title>fillrand</title>
<ellipse fill="none" stroke="black" cx="959.45" cy="-450" rx="36" ry="18"/>
<text text-anchor="middle" x="959.45" y="-446.3" font-family="Times New Roman,serif" font-size="14.00">fillrand</text>
</g>
<!-- encfile&#45;&gt;fillrand -->
<g id="edge3" class="edge">
<title>encfile&#45;&gt;fillrand</title>
<path fill="none" stroke="black" d="M907.13,-540.44C917.19,-523.25 933.04,-496.14 944.66,-476.27"/>
<polygon fill="black" stroke="black" points="947.8,-477.85 949.83,-467.45 941.76,-474.31 947.8,-477.85"/>
</g>
<!-- decfile -->
<g id="node6" class="node">
<title>decfile</title>
<ellipse fill="none" stroke="black" cx="1002.45" cy="-558" rx="34.39" ry="18"/>
<text text-anchor="middle" x="1002.45" y="-554.3" font-family="Times New Roman,serif" font-size="14.00">decfile</text>
</g>
<!-- decfile&#45;&gt;fillrand -->
<g id="edge4" class="edge">
<title>decfile&#45;&gt;fillrand</title>
<path fill="none" stroke="black" d="M995.54,-539.97C988.67,-523.05 978.05,-496.86 970.1,-477.28"/>
<polygon fill="black" stroke="black" points="973.34,-475.94 966.34,-467.99 966.85,-478.57 973.34,-475.94"/>
</g>
<!-- decrypt -->
<g id="node7" class="node">
<title>decrypt</title>
<ellipse fill="none" stroke="black" cx="1069.45" cy="-450" rx="38.19" ry="18"/>
<text text-anchor="middle" x="1069.45" y="-446.3" font-family="Times New Roman,serif" font-size="14.00">decrypt</text>
</g>
<!-- decfile&#45;&gt;decrypt -->
<g id="edge5" class="edge">
<title>decfile&#45;&gt;decrypt</title>
<path fill="none" stroke="black" d="M1012.91,-540.44C1023.83,-523.17 1041.07,-495.9 1053.64,-476"/>
<polygon fill="black" stroke="black" points="1056.67,-477.77 1059.05,-467.45 1050.75,-474.03 1056.67,-477.77"/>
</g>
<!-- benchmark&#45;&gt;encfile -->
<g id="edge6" class="edge">
<title>benchmark&#45;&gt;encfile</title>
<path fill="none" stroke="black" d="M941.93,-647.97C933.38,-630.87 920.1,-604.31 910.28,-584.66"/>
<polygon fill="black" stroke="black" points="913.37,-583.02 905.77,-575.64 907.11,-586.15 913.37,-583.02"/>
</g>
<!-- benchmark&#45;&gt;decfile -->
<g id="edge8" class="edge">
<title>benchmark&#45;&gt;decfile</title>
<path fill="none" stroke="black" d="M958.8,-647.97C967.19,-630.87 980.22,-604.31 989.86,-584.66"/>
<polygon fill="black" stroke="black" points="993.02,-586.16 994.28,-575.64 986.74,-583.08 993.02,-586.16"/>
</g>
<!-- memset -->
<g id="node9" class="node">
<title>memset</title>
<ellipse fill="none" stroke="black" cx="1111.45" cy="-558" rx="38.19" ry="18"/>
<text text-anchor="middle" x="1111.45" y="-554.3" font-family="Times New Roman,serif" font-size="14.00">memset</text>
</g>
<!-- benchmark&#45;&gt;memset -->
<g id="edge7" class="edge">
<title>benchmark&#45;&gt;memset</title>
<path fill="none" stroke="black" d="M973.51,-649.81C1001.84,-631.16 1049.98,-599.47 1081.24,-578.89"/>
<polygon fill="black" stroke="black" points="1083.54,-581.57 1089.96,-573.14 1079.69,-575.72 1083.54,-581.57"/>
</g>
<!-- printf -->
<g id="node10" class="node">
<title>printf</title>
<ellipse fill="none" stroke="black" cx="683.45" cy="-558" rx="30.59" ry="18"/>
<text text-anchor="middle" x="683.45" y="-554.3" font-family="Times New Roman,serif" font-size="14.00">printf</text>
</g>
<!-- benchmark&#45;&gt;printf -->
<g id="edge9" class="edge">
<title>benchmark&#45;&gt;printf</title>
<path fill="none" stroke="black" d="M917.97,-652.11C867.18,-631.95 769.42,-593.13 717.61,-572.56"/>
<polygon fill="black" stroke="black" points="718.77,-569.26 708.19,-568.82 716.19,-575.77 718.77,-569.26"/>
</g>
<!-- set_key -->
<g id="node11" class="node">
<title>set_key</title>
<ellipse fill="none" stroke="black" cx="788.45" cy="-558" rx="38.19" ry="18"/>
<text text-anchor="middle" x="788.45" y="-554.3" font-family="Times New Roman,serif" font-size="14.00">set_key</text>
</g>
<!-- benchmark&#45;&gt;set_key -->
<g id="edge10" class="edge">
<title>benchmark&#45;&gt;set_key</title>
<path fill="none" stroke="black" d="M927.24,-649.81C898.53,-631.03 849.61,-599.02 818.18,-578.45"/>
<polygon fill="black" stroke="black" points="820.09,-575.52 809.81,-572.98 816.26,-581.38 820.09,-575.52"/>
</g>
<!-- _vsnprintf -->
<g id="node37" class="node">
<title>_vsnprintf</title>
<ellipse fill="none" stroke="black" cx="683.45" cy="-450" rx="48.19" ry="18"/>
<text text-anchor="middle" x="683.45" y="-446.3" font-family="Times New Roman,serif" font-size="14.00">_vsnprintf</text>
</g>
<!-- printf&#45;&gt;_vsnprintf -->
<g id="edge49" class="edge">
<title>printf&#45;&gt;_vsnprintf</title>
<path fill="none" stroke="black" d="M683.45,-539.97C683.45,-523.38 683.45,-497.88 683.45,-478.43"/>
<polygon fill="black" stroke="black" points="686.95,-478.34 683.45,-468.34 679.95,-478.34 686.95,-478.34"/>
</g>
<!-- fputc -->
<g id="node12" class="node">
<title>fputc</title>
<ellipse fill="none" stroke="black" cx="1627.45" cy="-558" rx="29.8" ry="18"/>
<text text-anchor="middle" x="1627.45" y="-554.3" font-family="Times New Roman,serif" font-size="14.00">fputc</text>
</g>
<!-- &lt;ck_uart_putc&gt; * -->
<g id="node13" class="node">
<title>&lt;ck_uart_putc&gt; *</title>
<ellipse fill="none" stroke="black" cx="1627.45" cy="-450" rx="76.89" ry="18"/>
<text text-anchor="middle" x="1627.45" y="-446.3" font-family="Times New Roman,serif" font-size="14.00">&lt;ck_uart_putc&gt; *</text>
</g>
<!-- fputc&#45;&gt;&lt;ck_uart_putc&gt; * -->
<g id="edge11" class="edge">
<title>fputc&#45;&gt;&lt;ck_uart_putc&gt; *</title>
<path fill="none" stroke="black" d="M1627.45,-539.97C1627.45,-523.38 1627.45,-497.88 1627.45,-478.43"/>
<polygon fill="black" stroke="black" points="1630.95,-478.34 1627.45,-468.34 1623.95,-478.34 1630.95,-478.34"/>
</g>
<!-- ck_uart_set_wordsize -->
<g id="node38" class="node">
<title>ck_uart_set_wordsize</title>
<ellipse fill="none" stroke="black" cx="1276.45" cy="-558" rx="90.98" ry="18"/>
<text text-anchor="middle" x="1276.45" y="-554.3" font-family="Times New Roman,serif" font-size="14.00">ck_uart_set_wordsize</text>
</g>
<!-- ck_uart_init&#45;&gt;ck_uart_set_wordsize -->
<g id="edge50" class="edge">
<title>ck_uart_init&#45;&gt;ck_uart_set_wordsize</title>
<path fill="none" stroke="black" d="M1292.39,-647.97C1289.42,-631.38 1284.85,-605.88 1281.36,-586.43"/>
<polygon fill="black" stroke="black" points="1284.76,-585.57 1279.55,-576.34 1277.87,-586.8 1284.76,-585.57"/>
</g>
<!-- ck_uart_set_parity -->
<g id="node39" class="node">
<title>ck_uart_set_parity</title>
<ellipse fill="none" stroke="black" cx="1482.45" cy="-558" rx="78.79" ry="18"/>
<text text-anchor="middle" x="1482.45" y="-554.3" font-family="Times New Roman,serif" font-size="14.00">ck_uart_set_parity</text>
</g>
<!-- ck_uart_init&#45;&gt;ck_uart_set_parity -->
<g id="edge51" class="edge">
<title>ck_uart_init&#45;&gt;ck_uart_set_parity</title>
<path fill="none" stroke="black" d="M1321.84,-650.04C1354.14,-631.73 1409.02,-600.62 1445.5,-579.94"/>
<polygon fill="black" stroke="black" points="1447.38,-582.9 1454.35,-574.92 1443.93,-576.81 1447.38,-582.9"/>
</g>
<!-- puts&#45;&gt;fputc -->
<g id="edge48" class="edge">
<title>puts&#45;&gt;fputc</title>
<path fill="none" stroke="black" d="M1611.5,-647.97C1614.49,-631.28 1619.1,-605.58 1622.59,-586.08"/>
<polygon fill="black" stroke="black" points="1626.08,-586.45 1624.4,-575.99 1619.19,-585.21 1626.08,-586.45"/>
</g>
<!-- _ntoa_format -->
<g id="node17" class="node">
<title>_ntoa_format</title>
<ellipse fill="none" stroke="black" cx="379.45" cy="-126" rx="59.59" ry="18"/>
<text text-anchor="middle" x="379.45" y="-122.3" font-family="Times New Roman,serif" font-size="14.00">_ntoa_format</text>
</g>
<!-- &lt;_out_rev&gt; * -->
<g id="node18" class="node">
<title>&lt;_out_rev&gt; *</title>
<ellipse fill="none" stroke="black" cx="379.45" cy="-18" rx="61.19" ry="18"/>
<text text-anchor="middle" x="379.45" y="-14.3" font-family="Times New Roman,serif" font-size="14.00">&lt;_out_rev&gt; *</text>
</g>
<!-- _ntoa_format&#45;&gt;&lt;_out_rev&gt; * -->
<g id="edge16" class="edge">
<title>_ntoa_format&#45;&gt;&lt;_out_rev&gt; *</title>
<path fill="none" stroke="black" d="M379.45,-107.97C379.45,-91.38 379.45,-65.88 379.45,-46.43"/>
<polygon fill="black" stroke="black" points="382.95,-46.34 379.45,-36.34 375.95,-46.34 382.95,-46.34"/>
</g>
<!-- _out_rev -->
<g id="node19" class="node">
<title>_out_rev</title>
<ellipse fill="none" stroke="black" cx="816.45" cy="-18" rx="43.59" ry="18"/>
<text text-anchor="middle" x="816.45" y="-14.3" font-family="Times New Roman,serif" font-size="14.00">_out_rev</text>
</g>
<!-- _ntoa_format&#45;&gt;_out_rev -->
<g id="edge17" class="edge">
<title>_ntoa_format&#45;&gt;_out_rev</title>
<path fill="none" stroke="black" d="M424.57,-114.06C507.97,-93.83 685.43,-50.78 769.9,-30.29"/>
<polygon fill="black" stroke="black" points="770.83,-33.67 779.72,-27.91 769.18,-26.86 770.83,-33.67"/>
</g>
<!-- _ntoa_long -->
<g id="node20" class="node">
<title>_ntoa_long</title>
<ellipse fill="none" stroke="black" cx="398.45" cy="-234" rx="51.99" ry="18"/>
<text text-anchor="middle" x="398.45" y="-230.3" font-family="Times New Roman,serif" font-size="14.00">_ntoa_long</text>
</g>
<!-- _ntoa_long&#45;&gt;_ntoa_format -->
<g id="edge18" class="edge">
<title>_ntoa_long&#45;&gt;_ntoa_format</title>
<path fill="none" stroke="black" d="M395.39,-215.97C392.4,-199.28 387.79,-173.58 384.3,-154.08"/>
<polygon fill="black" stroke="black" points="387.7,-153.21 382.49,-143.99 380.81,-154.45 387.7,-153.21"/>
</g>
<!-- _ntoa_long_long -->
<g id="node21" class="node">
<title>_ntoa_long_long</title>
<ellipse fill="none" stroke="black" cx="259.45" cy="-342" rx="72.29" ry="18"/>
<text text-anchor="middle" x="259.45" y="-338.3" font-family="Times New Roman,serif" font-size="14.00">_ntoa_long_long</text>
</g>
<!-- _ntoa_long_long&#45;&gt;_ntoa_format -->
<g id="edge19" class="edge">
<title>_ntoa_long_long&#45;&gt;_ntoa_format</title>
<path fill="none" stroke="black" d="M268.73,-323.97C281.91,-299.87 306.81,-254.46 328.45,-216 340.38,-194.78 354.11,-170.85 364.31,-153.15"/>
<polygon fill="black" stroke="black" points="367.62,-154.43 369.59,-144.02 361.56,-150.93 367.62,-154.43"/>
</g>
<!-- __udivdi3 -->
<g id="node22" class="node">
<title>__udivdi3</title>
<ellipse fill="none" stroke="black" cx="47.45" cy="-234" rx="47.39" ry="18"/>
<text text-anchor="middle" x="47.45" y="-230.3" font-family="Times New Roman,serif" font-size="14.00">__udivdi3</text>
</g>
<!-- _ntoa_long_long&#45;&gt;__udivdi3 -->
<g id="edge20" class="edge">
<title>_ntoa_long_long&#45;&gt;__udivdi3</title>
<path fill="none" stroke="black" d="M228.62,-325.59C190.26,-306.41 124.86,-273.71 84.01,-253.28"/>
<polygon fill="black" stroke="black" points="85.45,-250.09 74.94,-248.75 82.32,-256.35 85.45,-250.09"/>
</g>
<!-- __umoddi3 -->
<g id="node23" class="node">
<title>__umoddi3</title>
<ellipse fill="none" stroke="black" cx="183.45" cy="-234" rx="52.79" ry="18"/>
<text text-anchor="middle" x="183.45" y="-230.3" font-family="Times New Roman,serif" font-size="14.00">__umoddi3</text>
</g>
<!-- _ntoa_long_long&#45;&gt;__umoddi3 -->
<g id="edge21" class="edge">
<title>_ntoa_long_long&#45;&gt;__umoddi3</title>
<path fill="none" stroke="black" d="M247.24,-323.97C234.81,-306.64 215.41,-279.59 201.27,-259.86"/>
<polygon fill="black" stroke="black" points="204.05,-257.73 195.38,-251.64 198.36,-261.81 204.05,-257.73"/>
</g>
<!-- _etoa -->
<g id="node24" class="node">
<title>_etoa</title>
<ellipse fill="none" stroke="black" cx="905.45" cy="-342" rx="30.59" ry="18"/>
<text text-anchor="middle" x="905.45" y="-338.3" font-family="Times New Roman,serif" font-size="14.00">_etoa</text>
</g>
<!-- _etoa&#45;&gt;_ntoa_long -->
<g id="edge24" class="edge">
<title>_etoa&#45;&gt;_ntoa_long</title>
<path fill="none" stroke="black" d="M876.73,-335.54C806.75,-322.14 621.85,-286.24 468.45,-252 462.28,-250.62 455.82,-249.13 449.42,-247.61"/>
<polygon fill="black" stroke="black" points="450.01,-244.16 439.47,-245.23 448.38,-250.96 450.01,-244.16"/>
</g>
<!-- __gedf2 -->
<g id="node25" class="node">
<title>__gedf2</title>
<ellipse fill="none" stroke="black" cx="664.45" cy="-126" rx="40.89" ry="18"/>
<text text-anchor="middle" x="664.45" y="-122.3" font-family="Times New Roman,serif" font-size="14.00">__gedf2</text>
</g>
<!-- _etoa&#45;&gt;__gedf2 -->
<g id="edge22" class="edge">
<title>_etoa&#45;&gt;__gedf2</title>
<path fill="none" stroke="black" d="M889.26,-326.63C848.07,-290.05 739.05,-193.25 689.54,-149.28"/>
<polygon fill="black" stroke="black" points="691.65,-146.47 681.85,-142.45 687,-151.71 691.65,-146.47"/>
</g>
<!-- __adddf3 -->
<g id="node26" class="node">
<title>__adddf3</title>
<ellipse fill="none" stroke="black" cx="532.45" cy="-234" rx="46.29" ry="18"/>
<text text-anchor="middle" x="532.45" y="-230.3" font-family="Times New Roman,serif" font-size="14.00">__adddf3</text>
</g>
<!-- _etoa&#45;&gt;__adddf3 -->
<g id="edge23" class="edge">
<title>_etoa&#45;&gt;__adddf3</title>
<path fill="none" stroke="black" d="M878.62,-333.38C815.51,-315.44 657.02,-270.4 578.29,-248.03"/>
<polygon fill="black" stroke="black" points="579.22,-244.65 568.65,-245.29 577.31,-251.39 579.22,-244.65"/>
</g>
<!-- __floatsidf -->
<g id="node27" class="node">
<title>__floatsidf</title>
<ellipse fill="none" stroke="black" cx="1665.45" cy="-126" rx="50.09" ry="18"/>
<text text-anchor="middle" x="1665.45" y="-122.3" font-family="Times New Roman,serif" font-size="14.00">__floatsidf</text>
</g>
<!-- _etoa&#45;&gt;__floatsidf -->
<g id="edge25" class="edge">
<title>_etoa&#45;&gt;__floatsidf</title>
<path fill="none" stroke="black" d="M932.49,-333.38C1044.44,-301.86 1472.35,-181.37 1617.19,-140.59"/>
<polygon fill="black" stroke="black" points="1618.45,-143.87 1627.12,-137.79 1616.55,-137.13 1618.45,-143.87"/>
</g>
<!-- __divdf3 -->
<g id="node28" class="node">
<title>__divdf3</title>
<ellipse fill="none" stroke="black" cx="658.45" cy="-234" rx="44.39" ry="18"/>
<text text-anchor="middle" x="658.45" y="-230.3" font-family="Times New Roman,serif" font-size="14.00">__divdf3</text>
</g>
<!-- _etoa&#45;&gt;__divdf3 -->
<g id="edge26" class="edge">
<title>_etoa&#45;&gt;__divdf3</title>
<path fill="none" stroke="black" d="M881.31,-330.64C838.55,-312.29 749.12,-273.91 697.49,-251.75"/>
<polygon fill="black" stroke="black" points="698.57,-248.41 688,-247.68 695.81,-254.84 698.57,-248.41"/>
</g>
<!-- __ledf2 -->
<g id="node29" class="node">
<title>__ledf2</title>
<ellipse fill="none" stroke="black" cx="1789.45" cy="-126" rx="38.19" ry="18"/>
<text text-anchor="middle" x="1789.45" y="-122.3" font-family="Times New Roman,serif" font-size="14.00">__ledf2</text>
</g>
<!-- _etoa&#45;&gt;__ledf2 -->
<g id="edge27" class="edge">
<title>_etoa&#45;&gt;__ledf2</title>
<path fill="none" stroke="black" d="M933.79,-335.22C1000.4,-321.55 1171.98,-285.85 1314.45,-252 1501.55,-207.55 1548.28,-195.94 1733.45,-144 1738.39,-142.61 1743.57,-141.11 1748.7,-139.59"/>
<polygon fill="black" stroke="black" points="1749.84,-142.9 1758.41,-136.68 1747.83,-136.2 1749.84,-142.9"/>
</g>
<!-- _ftoa -->
<g id="node30" class="node">
<title>_ftoa</title>
<ellipse fill="none" stroke="black" cx="1138.45" cy="-234" rx="29.8" ry="18"/>
<text text-anchor="middle" x="1138.45" y="-230.3" font-family="Times New Roman,serif" font-size="14.00">_ftoa</text>
</g>
<!-- _etoa&#45;&gt;_ftoa -->
<g id="edge28" class="edge">
<title>_etoa&#45;&gt;_ftoa</title>
<path fill="none" stroke="black" d="M924.79,-328C964.56,-307.27 1053.15,-267.02 1103.23,-246.96"/>
<polygon fill="black" stroke="black" points="1104.68,-250.15 1112.71,-243.23 1102.12,-243.64 1104.68,-250.15"/>
</g>
<!-- __muldf3 -->
<g id="node31" class="node">
<title>__muldf3</title>
<ellipse fill="none" stroke="black" cx="1029.45" cy="-126" rx="46.29" ry="18"/>
<text text-anchor="middle" x="1029.45" y="-122.3" font-family="Times New Roman,serif" font-size="14.00">__muldf3</text>
</g>
<!-- _etoa&#45;&gt;__muldf3 -->
<g id="edge29" class="edge">
<title>_etoa&#45;&gt;__muldf3</title>
<path fill="none" stroke="black" d="M914.97,-324.56C936.47,-287.47 988.87,-197.02 1014.64,-152.54"/>
<polygon fill="black" stroke="black" points="1017.73,-154.2 1019.72,-143.79 1011.68,-150.69 1017.73,-154.2"/>
</g>
<!-- __subdf3 -->
<g id="node32" class="node">
<title>__subdf3</title>
<ellipse fill="none" stroke="black" cx="1231.45" cy="-126" rx="46.29" ry="18"/>
<text text-anchor="middle" x="1231.45" y="-122.3" font-family="Times New Roman,serif" font-size="14.00">__subdf3</text>
</g>
<!-- _etoa&#45;&gt;__subdf3 -->
<g id="edge30" class="edge">
<title>_etoa&#45;&gt;__subdf3</title>
<path fill="none" stroke="black" d="M924.49,-327.85C957.88,-304.84 1029.27,-255.96 1090.45,-216 1127.4,-191.86 1170.36,-164.9 1199.06,-147.04"/>
<polygon fill="black" stroke="black" points="1201.2,-149.83 1207.85,-141.58 1197.51,-143.89 1201.2,-149.83"/>
</g>
<!-- __fixdfsi -->
<g id="node33" class="node">
<title>__fixdfsi</title>
<ellipse fill="none" stroke="black" cx="784.45" cy="-126" rx="43.59" ry="18"/>
<text text-anchor="middle" x="784.45" y="-122.3" font-family="Times New Roman,serif" font-size="14.00">__fixdfsi</text>
</g>
<!-- _etoa&#45;&gt;__fixdfsi -->
<g id="edge31" class="edge">
<title>_etoa&#45;&gt;__fixdfsi</title>
<path fill="none" stroke="black" d="M896.15,-324.56C875.18,-287.47 824.04,-197.02 798.89,-152.54"/>
<polygon fill="black" stroke="black" points="801.91,-150.77 793.94,-143.79 795.81,-154.22 801.91,-150.77"/>
</g>
<!-- __eqdf2 -->
<g id="node34" class="node">
<title>__eqdf2</title>
<ellipse fill="none" stroke="black" cx="905.45" cy="-126" rx="41.69" ry="18"/>
<text text-anchor="middle" x="905.45" y="-122.3" font-family="Times New Roman,serif" font-size="14.00">__eqdf2</text>
</g>
<!-- _etoa&#45;&gt;__eqdf2 -->
<g id="edge32" class="edge">
<title>_etoa&#45;&gt;__eqdf2</title>
<path fill="none" stroke="black" d="M905.45,-323.85C905.45,-286.83 905.45,-199.18 905.45,-154.39"/>
<polygon fill="black" stroke="black" points="908.95,-154.23 905.45,-144.23 901.95,-154.23 908.95,-154.23"/>
</g>
<!-- __clzsi2 -->
<g id="node40" class="node">
<title>__clzsi2</title>
<ellipse fill="none" stroke="black" cx="1130.45" cy="-18" rx="40.89" ry="18"/>
<text text-anchor="middle" x="1130.45" y="-14.3" font-family="Times New Roman,serif" font-size="14.00">__clzsi2</text>
</g>
<!-- __adddf3&#45;&gt;__clzsi2 -->
<g id="edge52" class="edge">
<title>__adddf3&#45;&gt;__clzsi2</title>
<path fill="none" stroke="black" d="M534.79,-215.69C539.49,-188.18 552.78,-134.87 587.45,-108 664.02,-48.65 960.14,-27.47 1079.83,-21.24"/>
<polygon fill="black" stroke="black" points="1080.02,-24.74 1089.83,-20.73 1079.67,-17.75 1080.02,-24.74"/>
</g>
<!-- __floatsidf&#45;&gt;__clzsi2 -->
<g id="edge56" class="edge">
<title>__floatsidf&#45;&gt;__clzsi2</title>
<path fill="none" stroke="black" d="M1625.98,-114.73C1616.65,-112.42 1606.72,-110.04 1597.45,-108 1444.82,-74.41 1262.48,-41.82 1177.89,-27.12"/>
<polygon fill="black" stroke="black" points="1178.27,-23.64 1167.82,-25.38 1177.08,-30.54 1178.27,-23.64"/>
</g>
<!-- __divdf3&#45;&gt;__clzsi2 -->
<g id="edge53" class="edge">
<title>__divdf3&#45;&gt;__clzsi2</title>
<path fill="none" stroke="black" d="M641.98,-217.18C617.51,-191.76 577.31,-141.31 605.45,-108 636.09,-71.72 955.76,-36.34 1080.75,-23.79"/>
<polygon fill="black" stroke="black" points="1081.21,-27.26 1090.82,-22.79 1080.52,-20.3 1081.21,-27.26"/>
</g>
<!-- _ftoa&#45;&gt;_out_rev -->
<g id="edge41" class="edge">
<title>_ftoa&#45;&gt;_out_rev</title>
<path fill="none" stroke="black" d="M1137.01,-215.9C1133.86,-189.16 1123.97,-137.48 1093.45,-108 1032.14,-48.79 931.31,-28.96 869.69,-22.33"/>
<polygon fill="black" stroke="black" points="869.7,-18.82 859.4,-21.31 869.01,-25.78 869.7,-18.82"/>
</g>
<!-- _ftoa&#45;&gt;_etoa -->
<g id="edge34" class="edge">
<title>_ftoa&#45;&gt;_etoa</title>
<path fill="none" stroke="black" d="M1119.29,-247.9C1079.8,-268.5 991.69,-308.56 941.4,-328.74"/>
<polygon fill="black" stroke="black" points="939.89,-325.58 931.87,-332.5 942.46,-332.09 939.89,-325.58"/>
</g>
<!-- _ftoa&#45;&gt;__gedf2 -->
<g id="edge33" class="edge">
<title>_ftoa&#45;&gt;__gedf2</title>
<path fill="none" stroke="black" d="M1110.03,-227.68C1042.47,-214.86 867.07,-180.61 722.45,-144 717.42,-142.73 712.18,-141.32 706.99,-139.86"/>
<polygon fill="black" stroke="black" points="707.73,-136.43 697.15,-137.05 705.8,-143.16 707.73,-136.43"/>
</g>
<!-- _ftoa&#45;&gt;__floatsidf -->
<g id="edge35" class="edge">
<title>_ftoa&#45;&gt;__floatsidf</title>
<path fill="none" stroke="black" d="M1166.76,-228.05C1238.86,-215.34 1435.19,-179.99 1597.45,-144 1603.53,-142.65 1609.89,-141.16 1616.19,-139.64"/>
<polygon fill="black" stroke="black" points="1617.1,-143.02 1625.98,-137.25 1615.43,-136.23 1617.1,-143.02"/>
</g>
<!-- _ftoa&#45;&gt;__ledf2 -->
<g id="edge37" class="edge">
<title>_ftoa&#45;&gt;__ledf2</title>
<path fill="none" stroke="black" d="M1167.83,-230.14C1254.91,-221.35 1518.96,-192.32 1733.45,-144 1738.58,-142.84 1743.93,-141.46 1749.2,-139.99"/>
<polygon fill="black" stroke="black" points="1750.53,-143.24 1759.14,-137.08 1748.56,-136.52 1750.53,-143.24"/>
</g>
<!-- _ftoa&#45;&gt;__muldf3 -->
<g id="edge38" class="edge">
<title>_ftoa&#45;&gt;__muldf3</title>
<path fill="none" stroke="black" d="M1123.29,-218.26C1105.16,-200.63 1074.59,-170.9 1053.29,-150.18"/>
<polygon fill="black" stroke="black" points="1055.51,-147.46 1045.9,-143 1050.63,-152.48 1055.51,-147.46"/>
</g>
<!-- _ftoa&#45;&gt;__subdf3 -->
<g id="edge39" class="edge">
<title>_ftoa&#45;&gt;__subdf3</title>
<path fill="none" stroke="black" d="M1151.77,-217.81C1167.11,-200.33 1192.51,-171.38 1210.5,-150.88"/>
<polygon fill="black" stroke="black" points="1213.27,-153.03 1217.23,-143.2 1208,-148.41 1213.27,-153.03"/>
</g>
<!-- _ftoa&#45;&gt;__fixdfsi -->
<g id="edge42" class="edge">
<title>_ftoa&#45;&gt;__fixdfsi</title>
<path fill="none" stroke="black" d="M1112.13,-225.12C1051.83,-207.06 903.16,-162.55 828.59,-140.22"/>
<polygon fill="black" stroke="black" points="829.16,-136.74 818.58,-137.22 827.15,-143.44 829.16,-136.74"/>
</g>
<!-- _ftoa&#45;&gt;__eqdf2 -->
<g id="edge43" class="edge">
<title>_ftoa&#45;&gt;__eqdf2</title>
<path fill="none" stroke="black" d="M1115.25,-222.45C1074.79,-204.04 990.97,-165.91 942.42,-143.82"/>
<polygon fill="black" stroke="black" points="943.75,-140.58 933.2,-139.63 940.85,-146.95 943.75,-140.58"/>
</g>
<!-- __fixunsdfsi -->
<g id="node35" class="node">
<title>__fixunsdfsi</title>
<ellipse fill="none" stroke="black" cx="1369.45" cy="-126" rx="55.79" ry="18"/>
<text text-anchor="middle" x="1369.45" y="-122.3" font-family="Times New Roman,serif" font-size="14.00">__fixunsdfsi</text>
</g>
<!-- _ftoa&#45;&gt;__fixunsdfsi -->
<g id="edge36" class="edge">
<title>_ftoa&#45;&gt;__fixunsdfsi</title>
<path fill="none" stroke="black" d="M1161.44,-222.45C1200.6,-204.48 1280.69,-167.73 1329.27,-145.44"/>
<polygon fill="black" stroke="black" points="1330.91,-148.53 1338.54,-141.18 1327.99,-142.17 1330.91,-148.53"/>
</g>
<!-- __floatunsidf -->
<g id="node36" class="node">
<title>__floatunsidf</title>
<ellipse fill="none" stroke="black" cx="1520.45" cy="-126" rx="59.29" ry="18"/>
<text text-anchor="middle" x="1520.45" y="-122.3" font-family="Times New Roman,serif" font-size="14.00">__floatunsidf</text>
</g>
<!-- _ftoa&#45;&gt;__floatunsidf -->
<g id="edge40" class="edge">
<title>_ftoa&#45;&gt;__floatunsidf</title>
<path fill="none" stroke="black" d="M1165,-225.63C1227.76,-208.22 1386.14,-164.27 1468.65,-141.37"/>
<polygon fill="black" stroke="black" points="1469.63,-144.73 1478.33,-138.69 1467.76,-137.99 1469.63,-144.73"/>
</g>
<!-- __muldf3&#45;&gt;__clzsi2 -->
<g id="edge54" class="edge">
<title>__muldf3&#45;&gt;__clzsi2</title>
<path fill="none" stroke="black" d="M1044.79,-108.9C1061.72,-91.13 1089.11,-62.38 1108.36,-42.18"/>
<polygon fill="black" stroke="black" points="1110.93,-44.56 1115.29,-34.9 1105.86,-39.73 1110.93,-44.56"/>
</g>
<!-- __subdf3&#45;&gt;__clzsi2 -->
<g id="edge55" class="edge">
<title>__subdf3&#45;&gt;__clzsi2</title>
<path fill="none" stroke="black" d="M1216.11,-108.9C1199.18,-91.13 1171.78,-62.38 1152.54,-42.18"/>
<polygon fill="black" stroke="black" points="1155.03,-39.73 1145.6,-34.9 1149.96,-44.56 1155.03,-39.73"/>
</g>
<!-- __floatunsidf&#45;&gt;__clzsi2 -->
<g id="edge57" class="edge">
<title>__floatunsidf&#45;&gt;__clzsi2</title>
<path fill="none" stroke="black" d="M1477.97,-113.45C1403.34,-93.17 1249.46,-51.35 1174.05,-30.85"/>
<polygon fill="black" stroke="black" points="1174.95,-27.47 1164.38,-28.22 1173.11,-34.22 1174.95,-27.47"/>
</g>
<!-- _vsnprintf&#45;&gt;_ntoa_long -->
<g id="edge46" class="edge">
<title>_vsnprintf&#45;&gt;_ntoa_long</title>
<path fill="none" stroke="black" d="M662.95,-433.61C613.05,-396.14 485.15,-300.1 427.45,-256.78"/>
<polygon fill="black" stroke="black" points="429.24,-253.74 419.14,-250.54 425.03,-259.34 429.24,-253.74"/>
</g>
<!-- _vsnprintf&#45;&gt;_ntoa_long_long -->
<g id="edge44" class="edge">
<title>_vsnprintf&#45;&gt;_ntoa_long_long</title>
<path fill="none" stroke="black" d="M644.69,-439.31C570.19,-420.69 406.55,-379.78 318.42,-357.74"/>
<polygon fill="black" stroke="black" points="319.13,-354.31 308.58,-355.28 317.43,-361.1 319.13,-354.31"/>
</g>
<!-- _vsnprintf&#45;&gt;_etoa -->
<g id="edge45" class="edge">
<title>_vsnprintf&#45;&gt;_etoa</title>
<path fill="none" stroke="black" d="M712.01,-435.36C753.39,-415.61 829.76,-379.14 873.13,-358.43"/>
<polygon fill="black" stroke="black" points="874.86,-361.48 882.38,-354.01 871.85,-355.16 874.86,-361.48"/>
</g>
<!-- _vsnprintf&#45;&gt;_ftoa -->
<g id="edge47" class="edge">
<title>_vsnprintf&#45;&gt;_ftoa</title>
<path fill="none" stroke="black" d="M723.39,-439.63C777.47,-426.1 876.23,-398.46 954.45,-360 1015.15,-330.15 1078.92,-282.63 1113.15,-255.59"/>
<polygon fill="black" stroke="black" points="1115.55,-258.15 1121.19,-249.18 1111.19,-252.68 1115.55,-258.15"/>
</g>
</g>
</svg>
