<?xml version="1.0" encoding="UTF-8" standalone="no"?>
<!DOCTYPE svg PUBLIC "-//W3C//DTD SVG 1.1//EN"
 "http://www.w3.org/Graphics/SVG/1.1/DTD/svg11.dtd">
<!-- Generated by graphviz version 6.0.2 (20221011.1828)
 -->
<!-- Pages: 1 -->
<svg width="1277pt" height="476pt"
 viewBox="0.00 0.00 1277.34 476.00" xmlns="http://www.w3.org/2000/svg" xmlns:xlink="http://www.w3.org/1999/xlink">
<g id="graph0" class="graph" transform="scale(1 1) rotate(0) translate(4 472)">
<polygon fill="white" stroke="none" points="-4,4 -4,-472 1273.34,-472 1273.34,4 -4,4"/>
<!-- __to_main -->
<g id="node1" class="node">
<title>__to_main</title>
<ellipse fill="none" stroke="black" cx="611.69" cy="-450" rx="50.09" ry="18"/>
<text text-anchor="middle" x="611.69" y="-446.3" font-family="Times New Roman,serif" font-size="14.00">__to_main</text>
</g>
<!-- main -->
<g id="node2" class="node">
<title>main</title>
<ellipse fill="none" stroke="black" cx="611.69" cy="-342" rx="27.9" ry="18"/>
<text text-anchor="middle" x="611.69" y="-338.3" font-family="Times New Roman,serif" font-size="14.00">main</text>
</g>
<!-- __to_main&#45;&gt;main -->
<g id="edge1" class="edge">
<title>__to_main&#45;&gt;main</title>
<path fill="none" stroke="black" d="M611.69,-431.97C611.69,-415.38 611.69,-389.88 611.69,-370.43"/>
<polygon fill="black" stroke="black" points="615.19,-370.34 611.69,-360.34 608.19,-370.34 615.19,-370.34"/>
</g>
<!-- puts -->
<g id="node3" class="node">
<title>puts</title>
<ellipse fill="none" stroke="black" cx="388.69" cy="-234" rx="27" ry="18"/>
<text text-anchor="middle" x="388.69" y="-230.3" font-family="Times New Roman,serif" font-size="14.00">puts</text>
</g>
<!-- main&#45;&gt;puts -->
<g id="edge8" class="edge">
<title>main&#45;&gt;puts</title>
<path fill="none" stroke="black" d="M589.9,-330.64C550,-311.68 465.1,-271.32 419.37,-249.58"/>
<polygon fill="black" stroke="black" points="420.78,-246.37 410.24,-245.24 417.77,-252.7 420.78,-246.37"/>
</g>
<!-- benchmark -->
<g id="node9" class="node">
<title>benchmark</title>
<ellipse fill="none" stroke="black" cx="537.69" cy="-234" rx="50.89" ry="18"/>
<text text-anchor="middle" x="537.69" y="-230.3" font-family="Times New Roman,serif" font-size="14.00">benchmark</text>
</g>
<!-- main&#45;&gt;benchmark -->
<g id="edge9" class="edge">
<title>main&#45;&gt;benchmark</title>
<path fill="none" stroke="black" d="M600.77,-325.36C588.8,-308.2 569.4,-280.42 555.27,-260.18"/>
<polygon fill="black" stroke="black" points="557.98,-257.95 549.39,-251.76 552.25,-261.96 557.98,-257.95"/>
</g>
<!-- ck_uart_open -->
<g id="node11" class="node">
<title>ck_uart_open</title>
<ellipse fill="none" stroke="black" cx="685.69" cy="-234" rx="61.19" ry="18"/>
<text text-anchor="middle" x="685.69" y="-230.3" font-family="Times New Roman,serif" font-size="14.00">ck_uart_open</text>
</g>
<!-- main&#45;&gt;ck_uart_open -->
<g id="edge10" class="edge">
<title>main&#45;&gt;ck_uart_open</title>
<path fill="none" stroke="black" d="M622.61,-325.36C634.59,-308.2 653.99,-280.42 668.11,-260.18"/>
<polygon fill="black" stroke="black" points="671.14,-261.96 674,-251.76 665.4,-257.95 671.14,-261.96"/>
</g>
<!-- ck_uart_init -->
<g id="node12" class="node">
<title>ck_uart_init</title>
<ellipse fill="none" stroke="black" cx="984.69" cy="-234" rx="53.89" ry="18"/>
<text text-anchor="middle" x="984.69" y="-230.3" font-family="Times New Roman,serif" font-size="14.00">ck_uart_init</text>
</g>
<!-- main&#45;&gt;ck_uart_init -->
<g id="edge11" class="edge">
<title>main&#45;&gt;ck_uart_init</title>
<path fill="none" stroke="black" d="M636.75,-333.88C697.68,-316.56 854.53,-271.99 935.18,-249.07"/>
<polygon fill="black" stroke="black" points="936.44,-252.35 945.1,-246.25 934.52,-245.62 936.44,-252.35"/>
</g>
<!-- fputc -->
<g id="node4" class="node">
<title>fputc</title>
<ellipse fill="none" stroke="black" cx="140.69" cy="-126" rx="29.8" ry="18"/>
<text text-anchor="middle" x="140.69" y="-122.3" font-family="Times New Roman,serif" font-size="14.00">fputc</text>
</g>
<!-- puts&#45;&gt;fputc -->
<g id="edge2" class="edge">
<title>puts&#45;&gt;fputc</title>
<path fill="none" stroke="black" d="M366.25,-223.41C322.34,-204.64 224.9,-162.99 173.66,-141.09"/>
<polygon fill="black" stroke="black" points="174.92,-137.82 164.35,-137.11 172.17,-144.26 174.92,-137.82"/>
</g>
<!-- &lt;ck_uart_putc&gt; * -->
<g id="node8" class="node">
<title>&lt;ck_uart_putc&gt; *</title>
<ellipse fill="none" stroke="black" cx="76.69" cy="-18" rx="76.89" ry="18"/>
<text text-anchor="middle" x="76.69" y="-14.3" font-family="Times New Roman,serif" font-size="14.00">&lt;ck_uart_putc&gt; *</text>
</g>
<!-- fputc&#45;&gt;&lt;ck_uart_putc&gt; * -->
<g id="edge5" class="edge">
<title>fputc&#45;&gt;&lt;ck_uart_putc&gt; *</title>
<path fill="none" stroke="black" d="M130.97,-108.9C120.66,-91.82 104.23,-64.6 92.14,-44.58"/>
<polygon fill="black" stroke="black" points="95.09,-42.71 86.93,-35.95 89.1,-46.32 95.09,-42.71"/>
</g>
<!-- sglib___rbtree_add_recursive -->
<g id="node5" class="node">
<title>sglib___rbtree_add_recursive</title>
<ellipse fill="none" stroke="black" cx="389.69" cy="-126" rx="119.68" ry="18"/>
<text text-anchor="middle" x="389.69" y="-122.3" font-family="Times New Roman,serif" font-size="14.00">sglib___rbtree_add_recursive</text>
</g>
<!-- &lt;sglib___rbtree_fix_right_insertion_discrepancy&gt; * -->
<g id="node6" class="node">
<title>&lt;sglib___rbtree_fix_right_insertion_discrepancy&gt; *</title>
<ellipse fill="none" stroke="black" cx="389.69" cy="-18" rx="200.36" ry="18"/>
<text text-anchor="middle" x="389.69" y="-14.3" font-family="Times New Roman,serif" font-size="14.00">&lt;sglib___rbtree_fix_right_insertion_discrepancy&gt; *</text>
</g>
<!-- sglib___rbtree_add_recursive&#45;&gt;&lt;sglib___rbtree_fix_right_insertion_discrepancy&gt; * -->
<g id="edge3" class="edge">
<title>sglib___rbtree_add_recursive&#45;&gt;&lt;sglib___rbtree_fix_right_insertion_discrepancy&gt; *</title>
<path fill="none" stroke="black" d="M389.69,-107.97C389.69,-91.38 389.69,-65.88 389.69,-46.43"/>
<polygon fill="black" stroke="black" points="393.19,-46.34 389.69,-36.34 386.19,-46.34 393.19,-46.34"/>
</g>
<!-- sglib___rbtree_fix_left_insertion_discrepancy -->
<g id="node7" class="node">
<title>sglib___rbtree_fix_left_insertion_discrepancy</title>
<ellipse fill="none" stroke="black" cx="803.69" cy="-18" rx="178.17" ry="18"/>
<text text-anchor="middle" x="803.69" y="-14.3" font-family="Times New Roman,serif" font-size="14.00">sglib___rbtree_fix_left_insertion_discrepancy</text>
</g>
<!-- sglib___rbtree_add_recursive&#45;&gt;sglib___rbtree_fix_left_insertion_discrepancy -->
<g id="edge4" class="edge">
<title>sglib___rbtree_add_recursive&#45;&gt;sglib___rbtree_fix_left_insertion_discrepancy</title>
<path fill="none" stroke="black" d="M447.69,-110.15C521.96,-91.13 650.66,-58.18 731.28,-37.54"/>
<polygon fill="black" stroke="black" points="732.53,-40.83 741.35,-34.96 730.8,-34.05 732.53,-40.83"/>
</g>
<!-- benchmark&#45;&gt;sglib___rbtree_add_recursive -->
<g id="edge7" class="edge">
<title>benchmark&#45;&gt;sglib___rbtree_add_recursive</title>
<path fill="none" stroke="black" d="M516.17,-217.59C491.32,-199.79 450.21,-170.34 421.63,-149.88"/>
<polygon fill="black" stroke="black" points="423.36,-146.81 413.2,-143.83 419.29,-152.5 423.36,-146.81"/>
</g>
<!-- sglib__rbtree_it_compute_current_elem -->
<g id="node10" class="node">
<title>sglib__rbtree_it_compute_current_elem</title>
<ellipse fill="none" stroke="black" cx="701.69" cy="-126" rx="155.97" ry="18"/>
<text text-anchor="middle" x="701.69" y="-122.3" font-family="Times New Roman,serif" font-size="14.00">sglib__rbtree_it_compute_current_elem</text>
</g>
<!-- benchmark&#45;&gt;sglib__rbtree_it_compute_current_elem -->
<g id="edge6" class="edge">
<title>benchmark&#45;&gt;sglib__rbtree_it_compute_current_elem</title>
<path fill="none" stroke="black" d="M561.19,-217.81C588.88,-199.92 635.13,-170.02 666.96,-149.45"/>
<polygon fill="black" stroke="black" points="669.03,-152.28 675.53,-143.91 665.23,-146.4 669.03,-152.28"/>
</g>
<!-- ck_uart_set_wordsize -->
<g id="node13" class="node">
<title>ck_uart_set_wordsize</title>
<ellipse fill="none" stroke="black" cx="984.69" cy="-126" rx="90.98" ry="18"/>
<text text-anchor="middle" x="984.69" y="-122.3" font-family="Times New Roman,serif" font-size="14.00">ck_uart_set_wordsize</text>
</g>
<!-- ck_uart_init&#45;&gt;ck_uart_set_wordsize -->
<g id="edge12" class="edge">
<title>ck_uart_init&#45;&gt;ck_uart_set_wordsize</title>
<path fill="none" stroke="black" d="M984.69,-215.97C984.69,-199.38 984.69,-173.88 984.69,-154.43"/>
<polygon fill="black" stroke="black" points="988.19,-154.34 984.69,-144.34 981.19,-154.34 988.19,-154.34"/>
</g>
<!-- ck_uart_set_parity -->
<g id="node14" class="node">
<title>ck_uart_set_parity</title>
<ellipse fill="none" stroke="black" cx="1190.69" cy="-126" rx="78.79" ry="18"/>
<text text-anchor="middle" x="1190.69" y="-122.3" font-family="Times New Roman,serif" font-size="14.00">ck_uart_set_parity</text>
</g>
<!-- ck_uart_init&#45;&gt;ck_uart_set_parity -->
<g id="edge13" class="edge">
<title>ck_uart_init&#45;&gt;ck_uart_set_parity</title>
<path fill="none" stroke="black" d="M1012.9,-218.48C1048.68,-200.07 1110.59,-168.22 1151.09,-147.38"/>
<polygon fill="black" stroke="black" points="1152.85,-150.41 1160.14,-142.72 1149.65,-144.18 1152.85,-150.41"/>
</g>
</g>
</svg>
