<?xml version="1.0" encoding="UTF-8" standalone="no"?>
<!DOCTYPE svg PUBLIC "-//W3C//DTD SVG 1.1//EN"
 "http://www.w3.org/Graphics/SVG/1.1/DTD/svg11.dtd">
<!-- Generated by graphviz version 6.0.2 (20221011.1828)
 -->
<!-- Pages: 1 -->
<svg width="895pt" height="476pt"
 viewBox="0.00 0.00 894.59 476.00" xmlns="http://www.w3.org/2000/svg" xmlns:xlink="http://www.w3.org/1999/xlink">
<g id="graph0" class="graph" transform="scale(1 1) rotate(0) translate(4 472)">
<polygon fill="white" stroke="none" points="-4,4 -4,-472 890.59,-472 890.59,4 -4,4"/>
<!-- __to_main -->
<g id="node1" class="node">
<title>__to_main</title>
<ellipse fill="none" stroke="black" cx="531.89" cy="-450" rx="50.09" ry="18"/>
<text text-anchor="middle" x="531.89" y="-446.3" font-family="Times New Roman,serif" font-size="14.00">__to_main</text>
</g>
<!-- main -->
<g id="node2" class="node">
<title>main</title>
<ellipse fill="none" stroke="black" cx="531.89" cy="-342" rx="27.9" ry="18"/>
<text text-anchor="middle" x="531.89" y="-338.3" font-family="Times New Roman,serif" font-size="14.00">main</text>
</g>
<!-- __to_main&#45;&gt;main -->
<g id="edge1" class="edge">
<title>__to_main&#45;&gt;main</title>
<path fill="none" stroke="black" d="M531.89,-431.97C531.89,-415.38 531.89,-389.88 531.89,-370.43"/>
<polygon fill="black" stroke="black" points="535.39,-370.34 531.89,-360.34 528.39,-370.34 535.39,-370.34"/>
</g>
<!-- benchmark -->
<g id="node5" class="node">
<title>benchmark</title>
<ellipse fill="none" stroke="black" cx="252.89" cy="-234" rx="50.89" ry="18"/>
<text text-anchor="middle" x="252.89" y="-230.3" font-family="Times New Roman,serif" font-size="14.00">benchmark</text>
</g>
<!-- main&#45;&gt;benchmark -->
<g id="edge8" class="edge">
<title>main&#45;&gt;benchmark</title>
<path fill="none" stroke="black" d="M508.11,-331.96C461.05,-314.08 355.47,-273.97 295.91,-251.34"/>
<polygon fill="black" stroke="black" points="297,-248.01 286.4,-247.73 294.51,-254.56 297,-248.01"/>
</g>
<!-- ck_uart_open -->
<g id="node8" class="node">
<title>ck_uart_open</title>
<ellipse fill="none" stroke="black" cx="456.89" cy="-234" rx="61.19" ry="18"/>
<text text-anchor="middle" x="456.89" y="-230.3" font-family="Times New Roman,serif" font-size="14.00">ck_uart_open</text>
</g>
<!-- main&#45;&gt;ck_uart_open -->
<g id="edge5" class="edge">
<title>main&#45;&gt;ck_uart_open</title>
<path fill="none" stroke="black" d="M520.83,-325.36C508.69,-308.2 489.03,-280.42 474.71,-260.18"/>
<polygon fill="black" stroke="black" points="477.38,-257.9 468.75,-251.76 471.67,-261.94 477.38,-257.9"/>
</g>
<!-- ck_uart_init -->
<g id="node9" class="node">
<title>ck_uart_init</title>
<ellipse fill="none" stroke="black" cx="607.89" cy="-234" rx="53.89" ry="18"/>
<text text-anchor="middle" x="607.89" y="-230.3" font-family="Times New Roman,serif" font-size="14.00">ck_uart_init</text>
</g>
<!-- main&#45;&gt;ck_uart_init -->
<g id="edge6" class="edge">
<title>main&#45;&gt;ck_uart_init</title>
<path fill="none" stroke="black" d="M543.11,-325.36C555.46,-308.13 575.51,-280.17 590.03,-259.91"/>
<polygon fill="black" stroke="black" points="592.9,-261.92 595.88,-251.76 587.21,-257.84 592.9,-261.92"/>
</g>
<!-- puts -->
<g id="node10" class="node">
<title>puts</title>
<ellipse fill="none" stroke="black" cx="766.89" cy="-234" rx="27" ry="18"/>
<text text-anchor="middle" x="766.89" y="-230.3" font-family="Times New Roman,serif" font-size="14.00">puts</text>
</g>
<!-- main&#45;&gt;puts -->
<g id="edge7" class="edge">
<title>main&#45;&gt;puts</title>
<path fill="none" stroke="black" d="M554.43,-330.84C596.66,-311.78 687.8,-270.67 735.83,-249.01"/>
<polygon fill="black" stroke="black" points="737.44,-252.13 745.11,-244.82 734.56,-245.75 737.44,-252.13"/>
</g>
<!-- fputc -->
<g id="node3" class="node">
<title>fputc</title>
<ellipse fill="none" stroke="black" cx="809.89" cy="-126" rx="29.8" ry="18"/>
<text text-anchor="middle" x="809.89" y="-122.3" font-family="Times New Roman,serif" font-size="14.00">fputc</text>
</g>
<!-- &lt;ck_uart_putc&gt; * -->
<g id="node4" class="node">
<title>&lt;ck_uart_putc&gt; *</title>
<ellipse fill="none" stroke="black" cx="809.89" cy="-18" rx="76.89" ry="18"/>
<text text-anchor="middle" x="809.89" y="-14.3" font-family="Times New Roman,serif" font-size="14.00">&lt;ck_uart_putc&gt; *</text>
</g>
<!-- fputc&#45;&gt;&lt;ck_uart_putc&gt; * -->
<g id="edge2" class="edge">
<title>fputc&#45;&gt;&lt;ck_uart_putc&gt; *</title>
<path fill="none" stroke="black" d="M809.89,-107.97C809.89,-91.38 809.89,-65.88 809.89,-46.43"/>
<polygon fill="black" stroke="black" points="813.39,-46.34 809.89,-36.34 806.39,-46.34 813.39,-46.34"/>
</g>
<!-- sglib_dllist_sort -->
<g id="node6" class="node">
<title>sglib_dllist_sort</title>
<ellipse fill="none" stroke="black" cx="68.89" cy="-126" rx="68.79" ry="18"/>
<text text-anchor="middle" x="68.89" y="-122.3" font-family="Times New Roman,serif" font-size="14.00">sglib_dllist_sort</text>
</g>
<!-- benchmark&#45;&gt;sglib_dllist_sort -->
<g id="edge3" class="edge">
<title>benchmark&#45;&gt;sglib_dllist_sort</title>
<path fill="none" stroke="black" d="M227.31,-218.26C195.45,-199.91 140.83,-168.44 104.79,-147.68"/>
<polygon fill="black" stroke="black" points="106.47,-144.61 96.06,-142.65 102.97,-150.67 106.47,-144.61"/>
</g>
<!-- sglib_dllist_it_next -->
<g id="node7" class="node">
<title>sglib_dllist_it_next</title>
<ellipse fill="none" stroke="black" cx="252.89" cy="-126" rx="79.09" ry="18"/>
<text text-anchor="middle" x="252.89" y="-122.3" font-family="Times New Roman,serif" font-size="14.00">sglib_dllist_it_next</text>
</g>
<!-- benchmark&#45;&gt;sglib_dllist_it_next -->
<g id="edge4" class="edge">
<title>benchmark&#45;&gt;sglib_dllist_it_next</title>
<path fill="none" stroke="black" d="M252.89,-215.97C252.89,-199.38 252.89,-173.88 252.89,-154.43"/>
<polygon fill="black" stroke="black" points="256.39,-154.34 252.89,-144.34 249.39,-154.34 256.39,-154.34"/>
</g>
<!-- ck_uart_set_wordsize -->
<g id="node11" class="node">
<title>ck_uart_set_wordsize</title>
<ellipse fill="none" stroke="black" cx="458.89" cy="-126" rx="90.98" ry="18"/>
<text text-anchor="middle" x="458.89" y="-122.3" font-family="Times New Roman,serif" font-size="14.00">ck_uart_set_wordsize</text>
</g>
<!-- ck_uart_init&#45;&gt;ck_uart_set_wordsize -->
<g id="edge10" class="edge">
<title>ck_uart_init&#45;&gt;ck_uart_set_wordsize</title>
<path fill="none" stroke="black" d="M585.91,-217.36C560.75,-199.46 519.32,-169.99 490.65,-149.59"/>
<polygon fill="black" stroke="black" points="492.38,-146.52 482.2,-143.58 488.32,-152.23 492.38,-146.52"/>
</g>
<!-- ck_uart_set_parity -->
<g id="node12" class="node">
<title>ck_uart_set_parity</title>
<ellipse fill="none" stroke="black" cx="664.89" cy="-126" rx="78.79" ry="18"/>
<text text-anchor="middle" x="664.89" y="-122.3" font-family="Times New Roman,serif" font-size="14.00">ck_uart_set_parity</text>
</g>
<!-- ck_uart_init&#45;&gt;ck_uart_set_parity -->
<g id="edge11" class="edge">
<title>ck_uart_init&#45;&gt;ck_uart_set_parity</title>
<path fill="none" stroke="black" d="M617.05,-215.97C626.19,-198.97 640.36,-172.62 650.91,-153.01"/>
<polygon fill="black" stroke="black" points="654.11,-154.45 655.76,-143.99 647.94,-151.14 654.11,-154.45"/>
</g>
<!-- puts&#45;&gt;fputc -->
<g id="edge9" class="edge">
<title>puts&#45;&gt;fputc</title>
<path fill="none" stroke="black" d="M773.61,-216.44C780.48,-199.5 791.26,-172.94 799.28,-153.16"/>
<polygon fill="black" stroke="black" points="802.56,-154.38 803.08,-143.8 796.08,-151.75 802.56,-154.38"/>
</g>
</g>
</svg>
