<?xml version="1.0" encoding="UTF-8" standalone="no"?>
<!DOCTYPE svg PUBLIC "-//W3C//DTD SVG 1.1//EN"
 "http://www.w3.org/Graphics/SVG/1.1/DTD/svg11.dtd">
<!-- Generated by graphviz version 6.0.2 (20221011.1828)
 -->
<!-- Pages: 1 -->
<svg width="1256pt" height="476pt"
 viewBox="0.00 0.00 1255.69 476.00" xmlns="http://www.w3.org/2000/svg" xmlns:xlink="http://www.w3.org/1999/xlink">
<g id="graph0" class="graph" transform="scale(1 1) rotate(0) translate(4 472)">
<polygon fill="white" stroke="none" points="-4,4 -4,-472 1251.69,-472 1251.69,4 -4,4"/>
<!-- __to_main -->
<g id="node1" class="node">
<title>__to_main</title>
<ellipse fill="none" stroke="black" cx="583.69" cy="-450" rx="50.09" ry="18"/>
<text text-anchor="middle" x="583.69" y="-446.3" font-family="Times New Roman,serif" font-size="14.00">__to_main</text>
</g>
<!-- main -->
<g id="node2" class="node">
<title>main</title>
<ellipse fill="none" stroke="black" cx="583.69" cy="-342" rx="27.9" ry="18"/>
<text text-anchor="middle" x="583.69" y="-338.3" font-family="Times New Roman,serif" font-size="14.00">main</text>
</g>
<!-- __to_main&#45;&gt;main -->
<g id="edge1" class="edge">
<title>__to_main&#45;&gt;main</title>
<path fill="none" stroke="black" d="M583.69,-431.97C583.69,-415.38 583.69,-389.88 583.69,-370.43"/>
<polygon fill="black" stroke="black" points="587.19,-370.34 583.69,-360.34 580.19,-370.34 587.19,-370.34"/>
</g>
<!-- puts -->
<g id="node3" class="node">
<title>puts</title>
<ellipse fill="none" stroke="black" cx="360.69" cy="-234" rx="27" ry="18"/>
<text text-anchor="middle" x="360.69" y="-230.3" font-family="Times New Roman,serif" font-size="14.00">puts</text>
</g>
<!-- main&#45;&gt;puts -->
<g id="edge9" class="edge">
<title>main&#45;&gt;puts</title>
<path fill="none" stroke="black" d="M561.9,-330.64C522,-311.68 437.1,-271.32 391.37,-249.58"/>
<polygon fill="black" stroke="black" points="392.78,-246.37 382.24,-245.24 389.77,-252.7 392.78,-246.37"/>
</g>
<!-- benchmark -->
<g id="node9" class="node">
<title>benchmark</title>
<ellipse fill="none" stroke="black" cx="509.69" cy="-234" rx="50.89" ry="18"/>
<text text-anchor="middle" x="509.69" y="-230.3" font-family="Times New Roman,serif" font-size="14.00">benchmark</text>
</g>
<!-- main&#45;&gt;benchmark -->
<g id="edge11" class="edge">
<title>main&#45;&gt;benchmark</title>
<path fill="none" stroke="black" d="M572.77,-325.36C560.8,-308.2 541.4,-280.42 527.27,-260.18"/>
<polygon fill="black" stroke="black" points="529.98,-257.95 521.39,-251.76 524.25,-261.96 529.98,-257.95"/>
</g>
<!-- ck_uart_open -->
<g id="node11" class="node">
<title>ck_uart_open</title>
<ellipse fill="none" stroke="black" cx="657.69" cy="-234" rx="61.19" ry="18"/>
<text text-anchor="middle" x="657.69" y="-230.3" font-family="Times New Roman,serif" font-size="14.00">ck_uart_open</text>
</g>
<!-- main&#45;&gt;ck_uart_open -->
<g id="edge8" class="edge">
<title>main&#45;&gt;ck_uart_open</title>
<path fill="none" stroke="black" d="M594.61,-325.36C606.59,-308.2 625.99,-280.42 640.11,-260.18"/>
<polygon fill="black" stroke="black" points="643.14,-261.96 646,-251.76 637.4,-257.95 643.14,-261.96"/>
</g>
<!-- ck_uart_init -->
<g id="node12" class="node">
<title>ck_uart_init</title>
<ellipse fill="none" stroke="black" cx="950.69" cy="-234" rx="53.89" ry="18"/>
<text text-anchor="middle" x="950.69" y="-230.3" font-family="Times New Roman,serif" font-size="14.00">ck_uart_init</text>
</g>
<!-- main&#45;&gt;ck_uart_init -->
<g id="edge10" class="edge">
<title>main&#45;&gt;ck_uart_init</title>
<path fill="none" stroke="black" d="M608.63,-333.8C668.66,-316.46 822.09,-272.14 901.47,-249.22"/>
<polygon fill="black" stroke="black" points="902.6,-252.53 911.24,-246.4 900.66,-245.81 902.6,-252.53"/>
</g>
<!-- fputc -->
<g id="node4" class="node">
<title>fputc</title>
<ellipse fill="none" stroke="black" cx="129.69" cy="-126" rx="29.8" ry="18"/>
<text text-anchor="middle" x="129.69" y="-122.3" font-family="Times New Roman,serif" font-size="14.00">fputc</text>
</g>
<!-- puts&#45;&gt;fputc -->
<g id="edge2" class="edge">
<title>puts&#45;&gt;fputc</title>
<path fill="none" stroke="black" d="M338.96,-223.03C298.19,-204.32 210.05,-163.87 162.19,-141.91"/>
<polygon fill="black" stroke="black" points="163.45,-138.64 152.9,-137.65 160.53,-145 163.45,-138.64"/>
</g>
<!-- &lt;ck_uart_putc&gt; * -->
<g id="node8" class="node">
<title>&lt;ck_uart_putc&gt; *</title>
<ellipse fill="none" stroke="black" cx="76.69" cy="-18" rx="76.89" ry="18"/>
<text text-anchor="middle" x="76.69" y="-14.3" font-family="Times New Roman,serif" font-size="14.00">&lt;ck_uart_putc&gt; *</text>
</g>
<!-- fputc&#45;&gt;&lt;ck_uart_putc&gt; * -->
<g id="edge5" class="edge">
<title>fputc&#45;&gt;&lt;ck_uart_putc&gt; *</title>
<path fill="none" stroke="black" d="M121.41,-108.44C112.96,-91.52 99.7,-65.02 89.81,-45.24"/>
<polygon fill="black" stroke="black" points="92.87,-43.53 85.27,-36.15 86.61,-46.66 92.87,-43.53"/>
</g>
<!-- sglib___rbtree_add_recursive -->
<g id="node5" class="node">
<title>sglib___rbtree_add_recursive</title>
<ellipse fill="none" stroke="black" cx="367.69" cy="-126" rx="119.68" ry="18"/>
<text text-anchor="middle" x="367.69" y="-122.3" font-family="Times New Roman,serif" font-size="14.00">sglib___rbtree_add_recursive</text>
</g>
<!-- sglib___rbtree_fix_left_insertion_discrepancy -->
<g id="node6" class="node">
<title>sglib___rbtree_fix_left_insertion_discrepancy</title>
<ellipse fill="none" stroke="black" cx="367.69" cy="-18" rx="178.17" ry="18"/>
<text text-anchor="middle" x="367.69" y="-14.3" font-family="Times New Roman,serif" font-size="14.00">sglib___rbtree_fix_left_insertion_discrepancy</text>
</g>
<!-- sglib___rbtree_add_recursive&#45;&gt;sglib___rbtree_fix_left_insertion_discrepancy -->
<g id="edge3" class="edge">
<title>sglib___rbtree_add_recursive&#45;&gt;sglib___rbtree_fix_left_insertion_discrepancy</title>
<path fill="none" stroke="black" d="M367.69,-107.97C367.69,-91.38 367.69,-65.88 367.69,-46.43"/>
<polygon fill="black" stroke="black" points="371.19,-46.34 367.69,-36.34 364.19,-46.34 371.19,-46.34"/>
</g>
<!-- &lt;sglib___rbtree_fix_right_insertion_discrepancy&gt; * -->
<g id="node7" class="node">
<title>&lt;sglib___rbtree_fix_right_insertion_discrepancy&gt; *</title>
<ellipse fill="none" stroke="black" cx="781.69" cy="-18" rx="200.36" ry="18"/>
<text text-anchor="middle" x="781.69" y="-14.3" font-family="Times New Roman,serif" font-size="14.00">&lt;sglib___rbtree_fix_right_insertion_discrepancy&gt; *</text>
</g>
<!-- sglib___rbtree_add_recursive&#45;&gt;&lt;sglib___rbtree_fix_right_insertion_discrepancy&gt; * -->
<g id="edge4" class="edge">
<title>sglib___rbtree_add_recursive&#45;&gt;&lt;sglib___rbtree_fix_right_insertion_discrepancy&gt; *</title>
<path fill="none" stroke="black" d="M425.69,-110.15C499.75,-91.19 627.92,-58.37 708.58,-37.72"/>
<polygon fill="black" stroke="black" points="709.85,-41.01 718.67,-35.14 708.11,-34.23 709.85,-41.01"/>
</g>
<!-- benchmark&#45;&gt;sglib___rbtree_add_recursive -->
<g id="edge7" class="edge">
<title>benchmark&#45;&gt;sglib___rbtree_add_recursive</title>
<path fill="none" stroke="black" d="M488.74,-217.36C464.83,-199.51 425.51,-170.16 398.2,-149.77"/>
<polygon fill="black" stroke="black" points="400.25,-146.93 390.14,-143.76 396.06,-152.54 400.25,-146.93"/>
</g>
<!-- sglib__rbtree_it_compute_current_elem -->
<g id="node10" class="node">
<title>sglib__rbtree_it_compute_current_elem</title>
<ellipse fill="none" stroke="black" cx="679.69" cy="-126" rx="155.97" ry="18"/>
<text text-anchor="middle" x="679.69" y="-122.3" font-family="Times New Roman,serif" font-size="14.00">sglib__rbtree_it_compute_current_elem</text>
</g>
<!-- benchmark&#45;&gt;sglib__rbtree_it_compute_current_elem -->
<g id="edge6" class="edge">
<title>benchmark&#45;&gt;sglib__rbtree_it_compute_current_elem</title>
<path fill="none" stroke="black" d="M533.69,-218.04C562.51,-200.07 611.1,-169.77 644.24,-149.1"/>
<polygon fill="black" stroke="black" points="646.1,-152.07 652.73,-143.81 642.4,-146.13 646.1,-152.07"/>
</g>
<!-- ck_uart_set_parity -->
<g id="node13" class="node">
<title>ck_uart_set_parity</title>
<ellipse fill="none" stroke="black" cx="950.69" cy="-126" rx="78.79" ry="18"/>
<text text-anchor="middle" x="950.69" y="-122.3" font-family="Times New Roman,serif" font-size="14.00">ck_uart_set_parity</text>
</g>
<!-- ck_uart_init&#45;&gt;ck_uart_set_parity -->
<g id="edge12" class="edge">
<title>ck_uart_init&#45;&gt;ck_uart_set_parity</title>
<path fill="none" stroke="black" d="M950.69,-215.97C950.69,-199.38 950.69,-173.88 950.69,-154.43"/>
<polygon fill="black" stroke="black" points="954.19,-154.34 950.69,-144.34 947.19,-154.34 954.19,-154.34"/>
</g>
<!-- ck_uart_set_wordsize -->
<g id="node14" class="node">
<title>ck_uart_set_wordsize</title>
<ellipse fill="none" stroke="black" cx="1156.69" cy="-126" rx="90.98" ry="18"/>
<text text-anchor="middle" x="1156.69" y="-122.3" font-family="Times New Roman,serif" font-size="14.00">ck_uart_set_wordsize</text>
</g>
<!-- ck_uart_init&#45;&gt;ck_uart_set_wordsize -->
<g id="edge13" class="edge">
<title>ck_uart_init&#45;&gt;ck_uart_set_wordsize</title>
<path fill="none" stroke="black" d="M978.9,-218.48C1014.48,-200.18 1075.88,-168.58 1116.39,-147.74"/>
<polygon fill="black" stroke="black" points="1118.17,-150.76 1125.46,-143.07 1114.97,-144.54 1118.17,-150.76"/>
</g>
</g>
</svg>
